<svg width="113" height="113" viewBox="0 0 113 113" fill="none" xmlns="http://www.w3.org/2000/svg">
<rect width="113" height="113" rx="56.5" fill="#EC255A"/>
<g clip-path="url(#clip0_968_541)">
<path d="M39.9924 59.6677L41.6592 47.1443L27.2017 37.1078L40.4113 41.5824L43.531 36.7959L54.9224 29.7275L80.0315 43.5612L81.3328 64.6681L70.1465 80.2131L61.3044 81.568L65.877 73.1983V65.1405L62.5523 58.8477L59.1741 56.6104L53.9776 61.9674V67.6363L49.9219 71.4334L44.77 72.0573L42.4882 73.3498L38.7445 72.1554L37.1847 66.5399L39.9924 62.5913V59.6677Z" fill="#EC255A"/>
<path d="M63.0782 37.0009C60.324 36.4304 57.3113 36.582 57.3113 36.582C57.3113 36.582 56.3219 41.1545 50.1895 42.3579C50.234 42.3579 58.2917 45.1121 63.0782 37.0009Z" fill="#EC255A"/>
<path d="M65.574 78.4927C68.8987 75.89 71.3944 72.3068 72.5443 68.2512C72.5977 68.0997 73.0612 67.8323 73.3732 67.6273C73.8902 67.3153 74.4161 67.0568 74.5141 66.6379C74.7191 65.4435 74.8261 64.1956 74.8261 62.9477C74.8261 62.4842 74.3537 62.0118 73.8902 61.5483C73.5247 61.2364 73.1593 60.8709 73.1593 60.6124C72.6423 55.8794 70.4585 51.4584 66.9734 48.2406L66.6079 48.6061C69.9861 51.7792 72.1699 56.0933 72.6423 60.6659C72.6958 61.0848 73.1058 61.4949 73.5247 61.9138C73.8902 62.2258 74.3091 62.6982 74.3091 62.9032C74.3091 64.0976 74.2022 65.292 73.9971 66.4864C73.9437 66.6914 73.4802 66.9053 73.1147 67.1103C72.5977 67.3688 72.1253 67.6273 72.0273 68.0462C70.7794 72.4673 67.9182 76.3179 64.1211 78.8136C64.7985 77.3607 66.9288 72.6277 68.0697 70.23L67.8647 62.5377L61.2599 56.1468L57.5162 56.6638L53.4072 63.3221C53.4072 63.3221 55.3325 65.7644 52.6228 68.6256C49.9755 71.4333 47.8898 72.0572 47.8898 72.0572L45.9645 71.0144C46.5349 70.2835 47.6847 69.196 48.5672 68.4651C50.0735 67.2173 51.5799 67.1103 51.5799 65.7644C51.6423 62.9477 48.6207 63.7232 48.6207 63.7232L47.5243 64.7661L47.0608 68.6167L44.779 71.4779L44.5205 71.4244L40.7769 70.5954C40.7769 70.5954 43.0676 69.4011 43.4331 68.0462C43.7985 66.7449 42.7022 62.4308 42.6487 62.1723C42.7022 62.2258 43.745 63.1082 44.2085 64.5611C45.0375 62.2703 46.1338 60.0865 46.4458 59.8815C46.7578 59.6765 50.9649 57.4393 50.9649 57.4393L49.5655 61.1294L50.6083 60.5589L53.1041 54.4265C53.1041 54.4265 55.5464 53.2321 57.3647 53.2321C60.6359 53.1786 65.4759 49.1765 63.2921 42.0012C63.9161 42.2597 74.728 47.6702 76.5999 58.2771C77.9993 66.4329 73.3732 74.0717 65.574 78.4927Z" fill="#EC255A"/>
<path d="M53.2021 38.1416C54.3965 36.7333 53.933 34.6565 53.933 34.6565L50.4479 39.8084C50.3944 39.8084 51.6869 39.8619 53.2021 38.1416Z" fill="white"/>
<path d="M41.4987 66.2724L41.9176 64.1956C41.9176 64.1956 40.1973 67.2083 40.0458 67.6272C39.8853 68.0996 40.1528 68.9286 40.8213 68.8751C41.4987 68.8216 42.3276 67.8322 42.3276 67.1102C42.3276 66.1743 41.4987 66.2724 41.4987 66.2724Z" fill="white"/>
<path d="M72.3837 33.2037C72.3837 33.2037 74.9864 33.3106 77.6872 33.6226C71.5993 28.8361 65.8323 27.4367 61.1528 27.4367C54.7084 27.4367 50.3408 30.0929 50.0734 30.2444L52.1057 27.0178C52.1057 27.0178 43.9945 26.2334 41.1333 34.817C40.4024 32.9987 39.7339 30.3425 39.7339 30.3425C39.7339 30.3425 35.5178 34.0415 37.4966 40.1739C32.6566 38.4091 25.7487 35.9579 25.4813 35.9133C25.1159 35.8599 25.0089 36.0203 25.0089 36.0203C25.0089 36.0203 24.9019 36.1718 25.2139 36.4392C25.7933 36.8938 36.7122 44.9605 39.1099 46.5203C38.593 48.3921 38.593 49.2745 39.1099 50.157C39.8408 51.3514 39.8854 51.9753 39.7873 52.8577C39.6804 53.7402 38.7445 61.3879 38.5395 62.3238C38.3345 63.2597 36.1507 66.5844 36.2487 67.5738C36.3557 68.5632 37.7016 72.7703 38.9049 73.2427C39.7873 73.5547 41.9711 74.2321 43.424 74.2321C43.941 74.2321 44.4134 74.1251 44.6184 73.9201C45.5008 73.1447 45.7593 72.9842 46.3833 72.9842C46.4368 72.9842 46.4902 72.9842 46.5348 72.9842C46.7933 72.9842 47.1053 73.0377 47.4707 73.0377C48.2997 73.0377 49.396 72.8773 50.1715 72.1553C51.3124 71.0144 53.2912 69.4545 53.9151 68.7236C54.6995 67.7342 55.1095 66.3883 54.9045 65.0335C54.7441 63.7856 55.4215 62.6892 56.2059 61.6018C57.1952 60.3004 59.0136 57.9651 59.0136 57.9651C62.6057 60.657 64.843 64.7661 64.843 69.3386C64.843 77.4498 57.7746 84.0012 49.0395 84.0012C47.6846 84.0012 46.3922 83.8497 45.0908 83.5377C49.093 84.9371 52.4711 85.4095 55.2343 85.4095C61.1082 85.4095 64.2279 83.2792 64.2279 83.2792C64.2279 83.2792 63.1405 84.6875 61.3667 86.2919C61.4202 86.2919 61.4202 86.2919 61.4202 86.2919C71.1447 84.9371 75.8778 76.9329 75.8778 76.9329C75.8778 76.9329 75.5123 79.5356 75.0488 81.3004C87.9822 71.5759 85.7984 59.4091 85.7449 58.9991C85.8519 59.1506 87.1532 60.7105 87.8217 61.5483C89.9075 40.1205 72.3837 33.2037 72.3837 33.2037ZM52.4711 67.4223C52.2661 67.6807 51.3837 68.4651 50.7598 69.0356C50.1358 69.606 49.4584 70.1765 48.9414 70.7024C48.7364 70.9074 48.3175 71.0144 47.6935 71.0144C47.4885 71.0144 47.2746 71.0144 47.1231 71.0144C47.0161 71.0144 46.9181 71.0144 46.8111 71.0144C46.7042 71.0144 46.6507 71.0144 46.6061 71.0144C46.4457 71.0144 46.2941 71.0144 46.1337 71.0144C46.9181 69.9715 49.1999 67.5827 49.9843 67.0657C50.9202 66.4418 51.3926 65.8178 50.8132 64.7304C50.2428 63.6341 48.7364 63.9015 48.7364 63.9015C48.7364 63.9015 49.6188 63.536 50.4032 63.536C49.4138 63.2775 48.166 63.536 47.5955 64.1065C46.9716 64.6769 47.0785 66.7092 46.82 68.0016C46.5615 69.3565 45.6791 70.0339 44.3243 71.2818C43.5934 71.9592 43.0764 72.1642 42.6575 72.1642C41.775 72.0127 40.7322 71.7453 40.0013 71.4868C39.4843 70.8094 38.6999 68.5721 38.4949 67.6362C38.6464 67.1192 39.2704 66.0228 39.5823 65.3989C40.2063 64.2045 40.5717 63.5271 40.6787 62.9032C40.8837 62.0207 41.5611 56.5568 41.8196 54.275C42.497 55.1574 43.4329 56.6192 43.219 57.5551C44.7254 55.4248 43.6379 53.3391 43.1121 52.5101C42.6486 51.6812 42.0246 50.0144 42.5416 48.2495C43.0586 46.4846 44.9304 41.5912 44.9304 41.5912C44.9304 41.5912 45.5543 42.6875 46.4368 42.4736C47.3192 42.2686 54.441 31.5547 54.441 31.5547C54.441 31.5547 56.3663 35.7618 54.334 38.8369C52.2572 41.9032 50.225 42.4736 50.225 42.4736C50.225 42.4736 53.0862 42.9906 55.7334 41.0653C56.8209 43.6145 57.8638 46.2618 57.9172 46.6273C57.7568 46.9927 55.68 51.9842 55.475 52.2962C55.368 52.4032 54.646 52.6082 54.1201 52.7151C53.2377 52.9736 52.7207 53.1341 52.5068 53.2856C52.1413 53.5975 50.4745 58.1701 49.6991 60.4074C48.7632 60.6659 47.8272 61.1918 47.1498 62.2257C47.5153 61.9672 48.6562 61.8068 49.4941 61.7088C50.225 61.6553 52.4533 62.8497 53.0327 65.0869C53.0327 65.1404 53.0327 65.1404 53.0327 65.1939C53.1486 66.0139 52.8901 66.7983 52.4711 67.4223ZM47.5866 68.0462C48.059 67.3688 48.0055 66.2279 48.059 65.8624C48.1125 65.497 48.2105 64.8195 48.6295 64.7215C49.0484 64.6145 50.0378 64.775 50.0378 65.497C50.0378 66.1744 49.3069 66.3259 48.7899 66.7983C48.4155 67.1549 47.6846 67.9392 47.5866 68.0462ZM68.3281 58.1077C68.8451 55.4605 68.8986 53.1697 68.747 51.2979C70.7704 53.9987 72.0183 57.2788 72.3837 60.657C72.4372 61.0759 72.8472 61.4859 73.2661 61.9049C73.6316 62.2168 74.0505 62.6358 74.0505 62.8942C74.0505 64.0886 73.9436 65.283 73.7385 66.4863C73.6851 66.6379 73.2216 66.9053 72.8561 67.1103C72.3391 67.3688 71.8667 67.6273 71.7687 68.0462C70.6278 72.0483 68.1766 75.5869 64.9054 78.0827C69.7364 73.0377 72.0717 64.7126 68.3281 58.1077ZM65.0569 78.5462C68.4351 75.9435 71.0378 72.3068 72.1787 68.1977C72.2322 68.0462 72.6957 67.7788 73.0076 67.5738C73.5246 67.3153 74.0505 67.0033 74.1486 66.5844C74.3536 65.39 74.4605 64.1421 74.4605 62.8942C74.4605 62.4307 73.9881 61.9583 73.5246 61.4948C73.2661 61.1829 72.8472 60.8174 72.8472 60.5589C72.4283 56.7618 70.9219 53.1786 68.5866 50.2105C67.5437 43.9711 63.3901 42.0458 63.2831 41.9923C63.3901 42.1527 66.0908 46.0479 64.219 50.6205C62.2937 55.2465 57.3557 54.5245 56.9368 54.5691C56.5178 54.5691 54.9134 56.6459 52.8812 60.4965C52.6227 60.3896 51.5263 60.1311 50.2784 60.345C51.2143 57.7423 52.6227 54.0521 52.8812 53.7402C52.9881 53.6332 53.7636 53.4282 54.2895 53.2767C55.2789 53.0182 55.7424 52.8577 55.9028 52.6527C56.0098 52.4923 56.5267 51.2979 57.0437 50.05C57.5161 50.05 58.7105 49.943 58.8086 49.8896C58.9155 49.7826 59.9049 47.2423 59.9049 46.9303C59.9049 46.6718 57.8727 41.6268 57.0972 39.7015C57.4627 39.2826 57.8281 38.7656 58.1846 38.1952C68.8451 39.345 77.1702 48.3921 77.1702 59.3556C77.1702 67.7788 72.2322 75.1145 65.0569 78.5462Z" fill="white"/>
<path d="M51.2233 50.4689C52.2127 49.328 51.6958 47.1977 49.8685 46.8323C50.3409 45.7448 51.0094 43.561 51.0094 43.561C51.0094 43.561 45.7059 51.8772 45.2424 52.0377C44.77 52.1981 44.3065 50.3709 44.3065 50.3709C43.3171 54.168 45.9733 54.685 46.2853 53.4906C47.7382 53.1162 50.234 51.5564 51.2233 50.4689Z" fill="white"/>
<path d="M46.6953 52.4923L49.3961 47.8662C49.3961 47.8662 50.9559 48.6506 50.1715 49.8985C49.1911 51.3514 46.6953 52.4923 46.6953 52.4923Z" fill="#EC255A"/>
<path d="M80.1295 73.9203C79.3451 74.9632 78.4627 76.0506 77.4287 77.0935C84.1316 64.1958 77.7407 52.3944 77.4822 51.9309C77.9546 52.4033 78.4181 52.9203 78.837 53.3838C83.9801 59.0973 84.604 67.6809 80.1295 73.9203Z" fill="#EC255A"/>
<path d="M86.3688 57.3322C84.0246 51.0394 80.6999 45.6824 73.373 40.8513C66.3047 36.1718 58.7105 36.5372 58.2915 36.5907C58.2381 36.5907 58.1846 36.5907 58.1846 36.5907C58.4431 36.4838 58.7015 36.4303 58.96 36.3857C60.5734 35.8687 62.6502 35.4498 64.7359 35.1913C70.2533 34.398 75.8153 36.2698 79.6124 40.2809C79.6659 40.3344 79.6659 40.3344 79.7194 40.3878C84.0335 44.9604 86.2707 50.6739 86.3688 57.3322Z" fill="#EC255A"/>
<path d="M71.7063 31.5904C63.9605 30.1375 58.969 30.8595 55.3769 32.2143C55.27 31.7954 54.9045 30.9665 54.5925 30.289C53.514 31.5904 52.3642 33.1502 51.6422 34.1396C49.6634 35.4945 48.8345 36.7958 48.8345 36.7958C49.9754 32.8918 53.309 29.986 57.3646 29.2551C58.5055 29.0501 59.7534 28.9431 61.1082 28.9431C64.6914 28.9966 68.2746 29.879 71.7063 31.5904Z" fill="#EC255A"/>
<path d="M43.0588 41.5736C36.9798 41.3686 39.0032 34.2914 39.1101 33.8813C39.1101 33.9348 39.5202 39.4433 43.0588 41.5736Z" fill="#EC255A"/>
<path d="M49.0398 28.8362C44.3602 31.6439 45.2961 38.3468 45.2961 38.3468C40.8216 31.5459 48.6743 28.9966 49.0398 28.8362Z" fill="#EC255A"/>
<path d="M41.3473 43.4453C41.6592 43.7038 41.9712 44.1762 41.6058 44.8536C41.4007 45.2191 41.0888 45.1656 40.6164 44.9606C39.9924 44.6486 36.2488 42.4648 32.8706 40.2275C36.7212 41.5824 40.6164 43.0353 41.2403 43.3472C41.2403 43.3472 41.2938 43.4007 41.3473 43.4453Z" fill="#EC255A"/>
</g>
<defs>
<clipPath id="clip0_968_541">
<rect width="63" height="59.292" fill="white" transform="translate(25 27)"/>
</clipPath>
</defs>
</svg>
