<svg width="113" height="113" viewBox="0 0 113 113" fill="none" xmlns="http://www.w3.org/2000/svg">
<rect width="113" height="113" rx="56.5" fill="#EC255A"/>
<path d="M80.8068 78.9671L62.6839 34.8152C62.2216 33.6868 61.4341 32.7216 60.4216 32.0422C59.409 31.3628 58.2172 31 56.9979 31C55.7785 31 54.5867 31.3628 53.5742 32.0422C52.5616 32.7216 51.7741 33.6868 51.3118 34.8152L43.519 53.8839H37.7649C37.3157 53.8653 36.8673 53.9378 36.4468 54.097C36.0263 54.2561 35.6423 54.4986 35.3179 54.8099C34.9935 55.1213 34.7353 55.4949 34.559 55.9086C34.3827 56.3222 34.2918 56.7671 34.2918 57.2168C34.2918 57.6664 34.3827 58.1114 34.559 58.525C34.7353 58.9386 34.9935 59.3123 35.3179 59.6236C35.6423 59.9349 36.0263 60.1774 36.4468 60.3366C36.8673 60.4957 37.3157 60.5682 37.7649 60.5497H40.7835L33.2512 78.9444C33.0839 79.3524 32.9985 79.7893 33 80.2302C33.0015 80.6711 33.0899 81.1074 33.26 81.5142C33.4301 81.921 33.6787 82.2903 33.9916 82.601C34.3044 82.9117 34.6754 83.1577 35.0833 83.3251C35.4912 83.4924 35.9282 83.5778 36.3691 83.5763C36.81 83.5748 37.2463 83.4864 37.6531 83.3163C38.0599 83.1462 38.4291 82.8976 38.7399 82.5847C39.0506 82.2719 39.2966 81.9009 39.464 81.493L47.9987 60.5723H53.883C54.3322 60.5909 54.7806 60.5184 55.2011 60.3592C55.6216 60.2001 56.0056 59.9576 56.3301 59.6462C56.6545 59.3349 56.9126 58.9612 57.0889 58.5476C57.2653 58.134 57.3562 57.689 57.3562 57.2394C57.3562 56.7898 57.2653 56.3448 57.0889 55.9312C56.9126 55.5176 56.6545 55.1439 56.3301 54.8326C56.0056 54.5213 55.6216 54.2788 55.2011 54.1196C54.7806 53.9605 54.3322 53.888 53.883 53.9065H50.7285L57.0205 38.5247L74.6054 81.493C74.9533 82.2926 75.6004 82.9242 76.4083 83.2526C77.2161 83.5809 78.1204 83.5798 78.9275 83.2496C79.7346 82.9194 80.3802 82.2862 80.7262 81.4858C81.0722 80.6853 81.091 79.7812 80.7785 78.9671H80.8068Z" fill="white"/>
</svg>
