<svg width="113" height="113" viewBox="0 0 113 113" fill="none" xmlns="http://www.w3.org/2000/svg">
<rect width="113" height="113" rx="56.5" fill="#EC255A"/>
<path d="M56.8896 23.2105C55.359 22.4125 53.4917 24.2636 54.3047 25.7922C54.7768 27.0382 56.567 27.3697 57.4815 26.4197C58.4505 25.5082 58.1345 23.7063 56.8896 23.2103M73.3471 24.9844C72.4177 24.6017 71.2409 25.4534 71.3358 26.4664C71.2371 27.5663 72.5818 28.3757 73.5294 27.8531C74.7847 27.3669 74.6411 25.3292 73.3481 24.9846M39.6407 27.8847C41.0931 27.7093 41.3231 25.4254 39.9246 24.9656C38.8399 24.4366 37.8448 25.4288 37.6861 26.456C37.9135 27.3339 38.6486 28.1376 39.6396 27.8839M69.6028 31.9891C68.0488 31.0063 65.8314 32.4701 66.0705 34.275C66.151 36.0974 68.5718 37.1533 69.9373 35.9212C71.2578 34.9535 71.0579 32.7331 69.6024 31.9889M45.8797 33.0318C45.1865 31.245 42.3772 31.191 41.5882 32.9311C40.8081 34.2846 41.7676 35.9607 43.1572 36.4209C44.998 36.7644 46.7465 34.7747 45.8797 33.0324M58.8716 36.319C58.8867 34.7833 57.4878 33.639 56.0283 33.5342C55.0602 33.7284 54.005 34.1409 53.5898 35.1176C52.8158 36.4652 53.5032 38.3198 54.9014 38.9393C55.5411 39.2978 56.2971 39.1633 56.9936 39.1206C58.0581 38.5969 58.9548 37.5728 58.8716 36.3179M83.3479 38.5569C81.9282 37.6842 80.0131 39.2769 80.5505 40.8189C80.8463 42.1528 82.6393 42.6954 83.6645 41.8439C84.7586 41.0451 84.586 39.1276 83.3479 38.5569ZM30.7907 38.5541C29.5864 37.619 27.5988 38.6916 27.7424 40.2123C27.6618 41.599 29.3799 42.6446 30.5754 41.9307C31.8921 41.3388 32.0255 39.3125 30.7905 38.5542M51.9897 41.3148C50.0021 40.6008 47.6415 41.4558 46.5087 43.2281C45.0143 45.3943 45.8094 48.6931 48.1283 49.9362C50.5312 51.4064 54.0395 50.1601 54.927 47.4769C55.934 45.0748 54.4668 42.0686 51.9897 41.3158M63.6505 41.552C61.4478 40.5122 58.4835 41.3847 57.4195 43.6379C56.1674 45.8311 57.1355 48.8851 59.3731 50.0173C61.6144 51.2901 64.7763 50.3253 65.861 47.9705C67.0773 45.6933 65.9972 42.6005 63.6495 41.552M75.3269 45.5429C75.1595 44.1237 73.8206 43.2003 72.4698 43.1046C71.7605 43.1844 71.0994 43.5029 70.5949 44.0079C70.0904 44.513 69.7726 45.1744 69.6936 45.8839C69.7891 47.342 70.9159 48.7673 72.461 48.7584C74.161 48.9048 75.6515 47.2135 75.3267 45.5433M40.8392 43.4135C39.0939 42.3977 36.6703 43.8768 36.748 45.8817C36.6284 48.006 39.3106 49.5031 41.0484 48.2571C42.8537 47.2195 42.7129 44.2973 40.8392 43.4137M68.3962 50.9006C66.3551 50.3389 64.0211 51.3012 63.0189 53.1764C61.9223 55.0649 62.3706 57.6877 64.0738 59.0737C66.2582 61.1054 70.2869 60.2897 71.4496 57.5169C72.7856 54.9751 71.1628 51.5689 68.3954 50.8998M46.2777 50.8894C44.2933 50.3218 41.9622 51.0867 40.8954 52.8945C39.4856 54.962 40.1582 58.0458 42.258 59.3794C44.4574 60.9272 47.8645 60.1145 49.0749 57.6945C50.5422 55.1914 49.0658 51.6539 46.2775 50.8904M81.5238 53.2497C79.7606 52.5827 77.806 54.5286 78.5204 56.2765C78.9566 57.8691 81.2012 58.4578 82.3606 57.2835C83.7174 56.1804 83.2155 53.727 81.5238 53.2497ZM33.7325 55.7873C33.7701 55.0788 33.5271 54.384 33.0561 53.8533C32.5852 53.3225 31.9242 52.9986 31.2163 52.9517C30.0079 53.143 28.8345 54.1171 28.93 55.4317C28.8194 57.1679 30.9115 58.3479 32.3908 57.5322C33.084 57.1798 33.4397 56.4686 33.7325 55.7873ZM90.1935 54.1065C89.1328 53.6433 87.8207 54.5628 88.0627 55.7408C88.1195 57.0747 90.0888 57.5876 90.8124 56.4731C91.4516 55.6991 91.069 54.5056 90.1935 54.1065ZM23.3082 54.0799C22.5613 53.548 21.3629 53.9303 21.0669 54.8029C20.565 55.7559 21.4854 57.0617 22.5572 56.9006C24.0631 57.0378 24.551 54.7429 23.3074 54.0799M62.6329 60.4829C59.8415 59.7579 56.8409 62.0846 56.8234 64.9587C56.6421 67.863 59.5964 70.4385 62.4538 69.7676C64.6625 69.412 66.3955 67.2844 66.3238 65.0527C66.3038 63.9892 65.9301 62.9627 65.2617 62.1351C64.5933 61.3076 63.6684 60.7263 62.6329 60.4829ZM51.5784 60.4768C48.7454 59.6849 45.6552 62.0544 45.7001 64.995C45.5506 67.8457 48.4135 70.3344 51.2111 69.7681C53.8437 69.4275 55.7864 66.535 55.0513 63.9803C54.847 63.135 54.4155 62.3617 53.8033 61.744C53.1911 61.1263 52.4217 60.6878 51.5782 60.476M72.893 62.2461C70.9326 61.9116 69.0944 64.0989 69.8896 65.9602C70.4694 67.9438 73.3562 68.4819 74.6326 66.8617C76.1298 65.3055 75.0121 62.461 72.893 62.2461ZM40.474 62.3335C38.7259 61.6012 36.58 63.1135 36.7146 65.0109C36.6443 67.0995 39.2924 68.5397 41.0031 67.3207C42.9393 66.2261 42.5869 63.0052 40.474 62.3337M31.4126 71.4225C32.0974 70.1465 30.8537 68.4553 29.4371 68.6916C28.7322 68.6797 28.2388 69.2354 27.7873 69.7014C27.6946 70.4574 27.5392 71.3597 28.1667 71.9423C29.019 73.021 30.9496 72.7133 31.4126 71.4225ZM83.3527 69.046C82.0287 68.1645 80.1233 69.4792 80.421 71.0272C80.5793 72.3967 82.3038 73.1787 83.4397 72.4017C84.6587 71.6968 84.6138 69.6887 83.3527 69.0458M57.1952 71.9123C55.4617 71.147 53.2534 72.6575 53.4178 74.5657C53.2893 76.6753 56.0206 78.1363 57.7154 76.8695C59.5978 75.7819 59.284 72.5814 57.1952 71.9123ZM69.3105 74.7387C67.8341 73.9619 65.853 75.3026 65.9875 76.9559C65.9426 78.3127 67.2666 79.4689 68.6057 79.2685C69.7145 79.2447 70.4384 78.2505 70.7932 77.3053C70.7749 76.275 70.3502 75.1276 69.3109 74.7389M44.7694 74.7627C43.2513 73.8244 41.0935 75.1719 41.2371 76.939C41.1982 78.7858 43.6368 79.9686 45.0504 78.7556C46.4198 77.8046 46.2519 75.5187 44.7696 74.7627M40.5018 85.3134C41.1771 84.2915 40.3822 83.0606 39.2856 82.8274C38.4039 83.0068 37.4714 83.6698 37.6569 84.6921C37.7854 86.0755 39.8086 86.4999 40.502 85.3134M74.3791 84.4259C74.1102 83.6161 73.4587 82.8111 72.5061 83.0217C71.1165 83.1204 70.704 85.2149 71.9202 85.8614C73.014 86.5989 74.283 85.5889 74.3799 84.4269M58.0358 85.3561C57.7697 84.158 56.2188 83.5754 55.1961 84.2118C54.5208 84.5018 54.3234 85.2574 54.15 85.8999C54.2427 86.2344 54.3255 86.5693 54.407 86.9039C54.8255 87.3999 55.3633 87.8959 56.0597 87.878C57.3539 88.0296 58.5213 86.5665 58.0352 85.3563" fill="white"/>
</svg>
