<svg width="113" height="113" viewBox="0 0 113 113" fill="none" xmlns="http://www.w3.org/2000/svg">
<rect width="113" height="113" rx="56.5" fill="#EC255A"/>
<g clip-path="url(#clip0_994_28)">
<path d="M77.4 43.7569H70.616C69.8256 43.7569 69.0736 43.4177 68.5504 42.8273L65.7984 39.7185C65.3888 39.2545 64.7984 38.9905 64.1808 38.9905C63.5632 38.9905 62.9728 39.2561 62.5632 39.7185L60.2032 42.3857C59.4304 43.2577 58.3216 43.7585 57.1568 43.7585H20.0224C18.9648 46.7729 18.2752 49.9569 18 53.2593H53.056C53.672 53.2593 54.2624 53.0081 54.688 52.5633L57.952 49.1569C58.36 48.7313 58.9232 48.4913 59.512 48.4913H59.6464C60.2656 48.4913 60.8544 48.7569 61.264 49.2209L64.0144 52.3297C64.5376 52.9217 65.2896 53.2593 66.08 53.2593H94.6944C94.4192 49.9553 93.7296 46.7713 92.672 43.7585H77.3984L77.4 43.7569Z" fill="white"/>
<path d="M39.2142 73.2369C39.8302 73.2369 40.4206 72.9857 40.8462 72.5409L44.1102 69.1345C44.5182 68.7089 45.0814 68.4689 45.6702 68.4689H45.8046C46.4238 68.4689 47.0126 68.7345 47.4222 69.1969L50.1726 72.3057C50.6958 72.8977 51.4478 73.2353 52.2382 73.2353H91.0158C92.4686 70.2337 93.5326 67.0129 94.1662 63.6385H56.9454C56.155 63.6385 55.403 63.2993 54.8798 62.7089L52.1294 59.6001C51.7198 59.1361 51.1294 58.8721 50.5118 58.8721C49.8942 58.8721 49.3038 59.1377 48.8942 59.6001L46.5342 62.2673C45.7614 63.1393 44.6526 63.6401 43.4862 63.6401H18.5278C19.1614 67.0145 20.227 70.2353 21.6782 73.2369H39.2126H39.2142Z" fill="white"/>
<path d="M66.7248 33.3728C67.3408 33.3728 67.9312 33.1216 68.3568 32.6768L71.6208 29.2704C72.0288 28.8448 72.592 28.6048 73.1808 28.6048H73.3152C73.9344 28.6048 74.5232 28.8704 74.9328 29.3344L77.6832 32.4432C78.2064 33.0352 78.9584 33.3728 79.7488 33.3728H87.1232C80.1008 24.0384 68.9312 18 56.3488 18C43.7664 18 32.5968 24.0384 25.5728 33.3728H66.7248Z" fill="white"/>
<path d="M51.9117 82.7471H41.8269C41.0365 82.7471 40.2845 82.4079 39.7613 81.8175L37.0109 78.7087C36.6013 78.2447 36.0109 77.9807 35.3933 77.9807C34.7757 77.9807 34.1853 78.2463 33.7757 78.7087L31.4157 81.3759C30.6429 82.2479 29.5341 82.7487 28.3677 82.7487H28.2109C35.2365 90.2767 45.2413 94.9887 56.3501 94.9887C67.4589 94.9887 77.4621 90.2767 84.4893 82.7487H51.9117V82.7471Z" fill="white"/>
</g>
<defs>
<clipPath id="clip0_994_28">
<rect width="77" height="77" fill="white" transform="translate(18 18)"/>
</clipPath>
</defs>
</svg>
