<svg width="113" height="113" viewBox="0 0 113 113" fill="none" xmlns="http://www.w3.org/2000/svg">
<rect width="113" height="113" rx="56.5" fill="#EC255A"/>
<path d="M81.5263 66.9791L68.1027 46.3962L63.1807 54.4504L76.1568 75.4807L81.9737 72.796L81.5263 66.9791Z" fill="white"/>
<path d="M75.2615 78.1654L61.8379 57.5825L56.021 66.5316L66.7599 83.5348L73.4717 80.8501L75.2615 78.1654Z" fill="white"/>
<path fill-rule="evenodd" clip-rule="evenodd" d="M31.4108 43.7114L56.0207 29.3929L80.6307 43.7114V72.3485L56.0207 86.667L37.6751 76.3755L35.4378 80.4026L55.5733 92.0364C56.0207 92.4839 56.4682 92.4839 56.9156 92.0364L85.1052 75.9281C85.5527 75.4806 86.0001 75.0332 86.0001 74.5857V42.3691C86.0001 41.9216 85.5527 41.4741 85.1052 41.0267L56.9156 24.9184C56.4682 24.4709 56.0207 24.4709 55.5733 24.9184L27.3837 40.5792C26.9362 41.0267 26.4888 41.4741 26.4888 41.9216V74.1383C26.4888 74.5857 26.9362 75.0332 27.3837 75.4806L33.2006 78.6128L35.8853 74.5857L31.8582 72.3485V43.7114H31.4108Z" fill="white"/>
<path d="M66.7598 43.7107H57.3632L35.438 79.507L43.0447 83.9815L66.7598 43.7107Z" fill="white"/>
<path d="M43.0446 47.2911C45.2818 43.7115 51.5462 43.7115 54.2309 44.1589L32.7531 78.6129C31.8582 78.1654 30.0684 77.2705 28.726 76.3756C26.9362 75.4807 26.4888 75.4807 26.4888 74.1383V72.3485C31.4108 65.1892 40.8073 50.8707 43.0446 47.2911Z" fill="white"/>
</svg>
