<svg width="113" height="113" viewBox="0 0 113 113" fill="none" xmlns="http://www.w3.org/2000/svg">
<rect width="113" height="113" rx="56.5" fill="#EC255A"/>
<path d="M75.9936 65.1188L65.5075 49.04L61.6626 55.3317L71.7992 71.76L76.3432 69.6627L75.9936 65.1188Z" fill="white"/>
<path d="M71.0999 73.8572L60.6138 57.7784L56.0698 64.7692L64.4587 78.0516L69.7018 75.9544L71.0999 73.8572Z" fill="white"/>
<path fill-rule="evenodd" clip-rule="evenodd" d="M36.8449 46.9427L56.0695 35.7575L75.294 46.9427V69.3131L56.0695 80.4983L41.7384 72.4589L39.9907 75.6048L55.7199 84.6927C56.0695 85.0423 56.419 85.0423 56.7685 84.6927L78.7894 72.1094C79.1389 71.7599 79.4884 71.4103 79.4884 71.0608V45.8941C79.4884 45.5446 79.1389 45.195 78.7894 44.8455L56.7685 32.2622C56.419 31.9126 56.0695 31.9126 55.7199 32.2622L33.6991 44.496C33.3495 44.8455 33 45.195 33 45.5446V70.7112C33 71.0608 33.3495 71.4103 33.6991 71.7599L38.2431 74.2066L40.3403 71.0608L37.1944 69.3131V46.9427H36.8449Z" fill="white"/>
<path d="M64.4583 46.9421H57.1181L39.9907 74.9051L45.9329 78.4005L64.4583 46.9421Z" fill="white"/>
<path d="M45.9329 49.7391C47.6806 46.9428 52.5741 46.9428 54.6713 47.2923L37.8935 74.2067C37.1944 73.8571 35.7963 73.1581 34.7477 72.459C33.3495 71.7599 33 71.7599 33 70.7113V69.3131C36.8449 63.7205 44.1852 52.5354 45.9329 49.7391Z" fill="white"/>
</svg>
