<svg width="113" height="113" viewBox="0 0 113 113" fill="none" xmlns="http://www.w3.org/2000/svg">
<rect width="113" height="113" rx="56.5" fill="#EC255A"/>
<path d="M78.2039 57.4994C81.4902 53.218 82.4487 49.1322 80.8942 45.926C79.3123 42.6695 75.3821 40.876 69.8241 40.876C69.0326 40.876 68.2124 40.9217 67.3774 40.9915C64.9959 34.8719 61.291 31 57.0542 31C52.8174 31 49.1125 34.8708 46.731 40.9915C45.8983 40.9206 45.0782 40.876 44.2855 40.876C38.7287 40.876 34.7973 42.6695 33.2165 45.926C31.6609 49.1322 32.6206 53.218 35.9068 57.4994C32.6206 61.7797 31.6609 65.8667 33.2165 69.0729C34.7973 72.3305 38.7287 74.1229 44.2844 74.1229C45.077 74.1229 45.8983 74.0772 46.731 74.0074C49.1125 80.1281 52.8174 83.9977 57.0542 83.9977C61.291 83.9977 64.9959 80.127 67.3774 74.0074C68.2113 74.0783 69.0314 74.1229 69.8241 74.1229C75.3798 74.1229 79.3112 72.3305 80.8931 69.0729C82.4499 65.8678 81.4902 61.7797 78.2039 57.4994ZM69.8241 44.3086C73.9362 44.3086 76.845 45.4445 77.807 47.4256C78.6969 49.2592 77.9923 51.9243 75.8888 54.8606C74.1021 53.035 71.9837 51.2781 69.6022 49.6527C69.3254 47.7882 68.9502 46.0187 68.4904 44.3624C68.9411 44.3361 69.3917 44.3086 69.8241 44.3086ZM61.2819 66.2052C59.8841 66.8835 58.468 67.4886 57.0542 68.024C55.6416 67.4886 54.2244 66.8835 52.8277 66.2052C51.025 65.3302 49.3218 64.3659 47.717 63.3456C47.5031 61.4983 47.375 59.5538 47.375 57.4983C47.375 55.444 47.5031 53.4983 47.717 51.651C49.3218 50.6318 51.025 49.6675 52.8277 48.7925C54.2255 48.1142 55.6416 47.5091 57.0542 46.9738C58.468 47.5091 59.8852 48.1142 61.2819 48.7925C63.0834 49.6675 64.7866 50.6307 66.3903 51.651C66.6053 53.4983 66.7334 55.4451 66.7334 57.4994C66.7334 59.5538 66.6053 61.4995 66.3903 63.3468C64.7889 64.3659 63.0846 65.3313 61.2819 66.2052ZM65.6548 67.7815C65.4661 68.6348 65.259 69.4538 65.0291 70.235C64.066 70.0703 63.0846 69.8678 62.0826 69.6139C62.3159 69.5029 62.5493 69.4057 62.7815 69.2948C63.7652 68.8144 64.718 68.3053 65.6548 67.7815ZM52.027 69.6139C51.025 69.8678 50.0436 70.0703 49.0793 70.235C48.8494 69.4538 48.6424 68.6348 48.4537 67.7803C49.3893 68.3042 50.3422 68.8132 51.3281 69.2913C51.5615 69.4057 51.7948 69.5029 52.027 69.6139ZM44.0407 60.7468C42.7104 59.6991 41.4911 58.6113 40.4285 57.4994C41.4911 56.3865 42.7104 55.301 44.0407 54.2521C43.9789 55.3158 43.9435 56.3968 43.9435 57.4994C43.9435 58.6021 43.9789 59.683 44.0407 60.7468ZM48.4548 47.2174C48.6435 46.3641 48.8506 45.544 49.0805 44.7627C50.0436 44.9286 51.025 45.1311 52.027 45.385C51.7948 45.4937 51.5615 45.5909 51.3293 45.7041C50.3433 46.1845 49.3905 46.6935 48.4548 47.2174ZM62.0826 45.3861C63.0846 45.1322 64.066 44.9286 65.0291 44.7639C65.2579 45.5451 65.4661 46.3641 65.6548 47.2174C64.7191 46.6935 63.7663 46.1834 62.7815 45.7053C62.5504 45.5932 62.3159 45.4959 62.0826 45.3861ZM70.0689 54.2498C71.398 55.2998 72.6185 56.3853 73.6812 57.4983C72.6185 58.6113 71.398 59.6968 70.0689 60.7468C70.1307 59.683 70.1661 58.6021 70.1661 57.4983C70.1661 56.3956 70.1295 55.3147 70.0689 54.2498ZM57.0542 34.4315C59.4529 34.4315 61.9865 37.0487 63.8635 41.4765C61.6582 41.886 59.3717 42.5082 57.0554 43.3249C54.7391 42.5082 52.4525 41.8871 50.2472 41.4765C52.122 37.0487 54.6567 34.4315 57.0542 34.4315ZM36.3037 47.4256C37.2646 45.4445 40.1745 44.3086 44.2855 44.3086C44.7167 44.3086 45.1685 44.3372 45.6192 44.3612C45.1594 46.0187 44.7854 47.7882 44.5085 49.6527C42.1271 51.2781 40.0075 53.035 38.2231 54.8606C36.1173 51.9232 35.4127 49.2592 36.3037 47.4256ZM44.2844 70.6903C40.1745 70.6903 37.2646 69.5544 36.3037 67.5733C35.4127 65.7386 36.1173 63.0734 38.2231 60.1383C40.0075 61.9639 42.1271 63.7208 44.5085 65.3462C44.7854 67.2107 45.1605 68.9814 45.6192 70.6376C45.1685 70.664 44.7156 70.6903 44.2844 70.6903ZM57.0542 80.5674C54.6567 80.5674 52.122 77.9514 50.2461 73.5236C52.4514 73.1141 54.7379 72.4918 57.0554 71.674C59.3717 72.4918 61.6582 73.1129 63.8635 73.5236C61.9876 77.9514 59.4529 80.5674 57.0542 80.5674ZM77.807 67.5744C76.8462 69.5544 73.9374 70.6914 69.8253 70.6914C69.394 70.6914 68.9422 70.6628 68.4904 70.6388C68.9491 68.9814 69.3243 67.2118 69.6022 65.3474C71.9848 63.722 74.1044 61.9639 75.8899 60.1394C77.9923 63.0745 78.6981 65.7397 77.807 67.5744Z" fill="white"/>
<path d="M57.0546 62.8208C59.9934 62.8208 62.3757 60.4384 62.3757 57.4996C62.3757 54.5608 59.9934 52.1785 57.0546 52.1785C54.1158 52.1785 51.7334 54.5608 51.7334 57.4996C51.7334 60.4384 54.1158 62.8208 57.0546 62.8208Z" fill="white"/>
</svg>
