<svg width="113" height="113" viewBox="0 0 113 113" fill="none" xmlns="http://www.w3.org/2000/svg">
<rect width="113" height="113" rx="56.5" fill="#EC255A"/>
<path d="M71.342 57.3389C72.7902 54.838 75.1313 54.838 76.5729 57.3389L85.5865 73.1634C87.0347 75.6627 85.8501 77.7023 82.9505 77.7023H64.7947C61.933 77.7023 60.7484 75.6627 62.1587 73.1634L71.342 57.3389ZM53.9062 26.8745C55.3528 24.3752 57.656 24.3752 59.1042 26.8745L61.1109 30.499L65.8475 38.8223C66.416 39.9965 66.7113 41.2841 66.7113 42.5886C66.7113 43.8931 66.416 45.1807 65.8475 46.3548L49.9571 73.8867C49.2477 74.9896 48.2883 75.9098 47.1568 76.5728C46.0252 77.2357 44.7534 77.6227 43.4444 77.7023H30.251C27.3563 77.7023 26.1718 75.6956 27.615 73.1634L53.9062 26.8745Z" fill="white"/>
</svg>
