<svg width="113" height="113" viewBox="0 0 113 113" fill="none" xmlns="http://www.w3.org/2000/svg">
<rect width="113" height="113" rx="56.5" fill="#EC255A"/>
<path d="M70.342 63.3389C71.7902 60.838 74.1313 60.838 75.5729 63.3389L84.5865 79.1634C86.0347 81.6627 84.8501 83.7023 81.9505 83.7023H63.7947C60.933 83.7023 59.7484 81.6627 61.1587 79.1634L70.342 63.3389ZM52.9062 32.8745C54.3528 30.3752 56.656 30.3752 58.1042 32.8745L60.1109 36.499L64.8475 44.8223C65.416 45.9965 65.7113 47.2841 65.7113 48.5886C65.7113 49.8931 65.416 51.1807 64.8475 52.3548L48.9571 79.8867C48.2477 80.9896 47.2883 81.9098 46.1568 82.5728C45.0252 83.2357 43.7534 83.6227 42.4444 83.7023H29.251C26.3563 83.7023 25.1718 81.6956 26.615 79.1634L52.9062 32.8745Z" fill="white"/>
</svg>
