<svg width="113" height="113" viewBox="0 0 113 113" fill="none" xmlns="http://www.w3.org/2000/svg">
<rect width="113" height="113" rx="56.5" fill="#EC255A"/>
<path d="M43.9327 32.7362C45.5175 33.1624 47.1023 33.4465 48.6872 33.8728C50.272 34.299 51.8568 34.5831 53.4417 35.0093C53.8739 35.1514 54.018 35.0093 54.1621 34.5831C54.7384 32.1679 55.3147 29.8947 55.891 27.4795C56.035 27.0533 56.1791 26.9112 56.6113 27.0533C58.0521 27.4795 59.3488 27.7636 60.7895 28.0478C61.2218 28.1899 61.2218 28.3319 61.0777 28.6161C60.5014 30.8892 59.9251 33.3045 59.3488 35.5776C59.3488 35.7197 59.3488 35.8618 59.2047 36.1459C60.3573 36.4301 61.654 36.7142 62.8066 36.9984C62.9507 36.9984 63.0947 36.7142 63.2388 36.5721C63.671 34.7252 64.1033 33.0203 64.6796 31.1734L65.1118 29.4685C65.1118 29.1844 65.2559 29.0423 65.544 29.1844C66.9848 29.6106 68.4255 29.8947 70.0104 30.3209C70.1544 30.3209 70.1544 30.463 70.2985 30.463C69.8663 32.31 69.4341 34.0148 69.0018 35.7197C68.8578 36.4301 68.7137 37.1404 68.4255 37.8508C68.2815 38.277 68.4255 38.4191 68.8578 38.5612L73.6123 40.6923C75.053 41.5447 76.3497 42.6813 77.3582 44.102C78.6549 46.2331 78.799 48.5062 78.2227 50.7794C77.7905 52.3422 77.2142 53.7629 76.0616 54.8995C75.1971 55.752 74.0445 56.3202 72.8919 56.7465C72.7478 56.7465 72.6037 56.8885 72.3156 56.8885C72.8919 57.3148 73.4682 57.5989 74.0445 58.0251C75.7734 59.3038 76.926 60.8666 77.5023 62.8556C77.7905 64.4184 77.6464 66.1233 77.2141 67.6861C76.6378 69.6751 75.9175 71.3799 74.6208 72.9427C73.036 74.7897 71.0189 75.7842 68.7137 76.0683C65.6881 76.4946 62.8066 76.2104 59.9251 75.7842C59.4929 75.6421 59.2047 75.7842 59.0606 76.2104C58.4843 78.4836 57.908 80.8988 57.3317 83.172C57.1876 83.7403 57.1876 83.8823 56.4673 83.5982C55.1706 83.314 53.7298 82.8878 52.4331 82.6037C52.0009 82.4616 52.0009 82.3195 52.145 82.0354C52.7213 79.6202 53.2976 77.2049 54.018 74.9318C54.018 74.6476 54.1621 74.5055 53.8739 74.3635C52.7213 74.0793 51.5687 73.7952 50.272 73.511C49.9839 74.7897 49.5516 76.0683 49.2635 77.347C48.9753 78.6257 48.5431 79.9043 48.255 81.183C48.1109 81.4671 48.1109 81.6092 47.6787 81.4671C46.2379 81.0409 44.7971 80.7567 43.3564 80.4726C42.9242 80.3305 42.9242 80.1884 43.0682 79.9043C43.6445 77.4891 44.2208 75.0738 44.9412 72.8007C44.9412 72.6586 45.0853 72.5165 45.0853 72.2324C41.7716 71.3799 38.4578 70.5275 35 69.6751C35.2882 69.1068 35.4322 68.6806 35.7204 68.1123C36.2967 66.8336 36.873 65.555 37.3052 64.4184C37.4493 63.9922 37.5934 63.9922 38.0256 63.9922C39.0341 64.2763 40.1867 64.5605 41.1953 64.7025C42.3479 64.9867 43.2123 64.4184 43.3564 63.4239C45.2294 56.1782 47.1024 48.9325 48.8313 41.5447C49.1194 40.4081 48.399 39.1295 47.1024 38.7032C45.8057 38.277 44.509 37.9929 43.3564 37.7087C43.0682 37.7087 42.9242 37.5667 43.0682 37.2825C43.5005 35.7197 43.9327 34.0148 44.3649 32.452C43.7886 32.8783 43.7886 32.8783 43.9327 32.7362ZM51.2805 67.8281C51.4246 67.8281 51.5687 67.9702 51.5687 67.9702C53.8739 68.5385 56.3232 69.2489 58.7725 69.3909C60.5014 69.533 62.0862 69.533 63.671 68.9647C66.4085 68.1123 67.5611 64.5605 65.9763 62.2873C65.2559 61.1507 64.1033 60.4403 62.9507 59.73C60.3573 58.3093 57.3317 57.741 54.4502 57.1727C54.018 57.0306 54.018 57.1727 53.8739 57.5989C53.5858 59.0196 53.1535 60.2983 52.8654 61.719C52.2891 63.708 51.8568 65.697 51.2805 67.8281ZM63.3829 53.3367C63.671 53.3367 64.3914 53.1946 64.9677 53.0526C67.7052 52.4843 69.1459 49.3587 67.7052 46.9434C66.9848 45.6648 65.6881 44.8124 64.3914 44.2441C62.3744 43.3916 60.3573 42.9654 58.1962 42.3971C57.7639 42.2551 57.6199 42.3971 57.4758 42.8233C56.7554 45.8069 56.035 48.6483 55.1706 51.6318C55.0265 51.916 55.1706 52.0581 55.4587 52.2001C56.035 52.3422 56.4673 52.4843 57.0436 52.6264C59.2047 52.9105 61.0777 53.3367 63.3829 53.3367Z" fill="white"/>
</svg>
