<svg width="113" height="113" viewBox="0 0 113 113" fill="none" xmlns="http://www.w3.org/2000/svg">
<rect width="113" height="113" rx="56.5" fill="#EC255A"/>
<path d="M46.5779 53.0387L57.5519 42.0691L68.5305 53.0477L74.9124 46.6613L57.5519 29.2963L40.1924 46.656L46.5779 53.0387Z" fill="white"/>
<path d="M29.2964 57.5514L35.6783 51.165L42.0648 57.5514L35.6783 63.9342L29.2964 57.5514Z" fill="white"/>
<path d="M46.5792 62.0583L57.5534 73.0326L68.532 62.0538L74.9185 68.4319L57.5578 85.796L40.1924 68.4444L46.5792 62.0583Z" fill="white"/>
<path d="M73.0273 57.5514L79.4092 51.165L85.7957 57.5469L79.4092 63.9379L73.0273 57.5514Z" fill="white"/>
<path d="M64.028 57.546L57.5522 51.0659L52.7636 55.8546L52.2102 56.4035L51.0767 57.537L57.5522 64.0081L64.028 57.5503V57.546Z" fill="white"/>
</svg>
