<svg width="113" height="113" viewBox="0 0 113 113" fill="none" xmlns="http://www.w3.org/2000/svg">
<rect width="113" height="113" rx="56.5" fill="#EC255A"/>
<path d="M41.4405 35.0325C43.0253 35.4587 44.6102 35.7429 46.195 36.1691C47.7798 36.5953 49.3647 36.8795 50.9495 37.3057C51.3817 37.4477 51.5258 37.3057 51.6699 36.8795C52.2462 34.4642 52.8225 32.1911 53.3988 29.7758C53.5429 29.3496 53.6869 29.2075 54.1192 29.3496C55.5599 29.7758 56.8566 30.06 58.2973 30.3441C58.7296 30.4862 58.7296 30.6283 58.5855 30.9124C58.0092 33.1856 57.4329 35.6008 56.8566 37.874C56.8566 38.016 56.8566 38.1581 56.7125 38.4423C57.8651 38.7264 59.1618 39.0105 60.3144 39.2947C60.4585 39.2947 60.6026 39.0105 60.7466 38.8685C61.1789 37.0215 61.6111 35.3167 62.1874 33.4697L62.6196 31.7648C62.6196 31.4807 62.7637 31.3386 63.0518 31.4807C64.4926 31.9069 65.9334 32.1911 67.5182 32.6173C67.6623 32.6173 67.6623 32.7593 67.8063 32.7593C67.3741 34.6063 66.9419 36.3112 66.5097 38.016C66.3656 38.7264 66.2215 39.4368 65.9333 40.1471C65.7893 40.5733 65.9334 40.7154 66.3656 40.8575L71.1201 42.9886C72.5608 43.841 73.8575 44.9776 74.866 46.3983C76.1627 48.5294 76.3068 50.8026 75.7305 53.0757C75.2983 54.6385 74.722 56.0593 73.5694 57.1958C72.7049 58.0483 71.5523 58.6166 70.3997 59.0428C70.2556 59.0428 70.1115 59.1849 69.8234 59.1849C70.3997 59.6111 70.976 59.8952 71.5523 60.3214C73.2812 61.6001 74.4338 63.1629 75.0101 65.1519C75.2983 66.7147 75.1542 68.4196 74.722 69.9824C74.1457 71.9714 73.4253 73.6763 72.1286 75.2391C70.5438 77.086 68.5267 78.0805 66.2215 78.3647C63.1959 78.7909 60.3144 78.5067 57.4329 78.0805C57.0007 77.9384 56.7125 78.0805 56.5684 78.5067C55.9921 80.7799 55.4158 83.1951 54.8395 85.4683C54.6955 86.0366 54.6955 86.1787 53.9751 85.8945C52.6784 85.6104 51.2376 85.1842 49.941 84.9C49.5087 84.7579 49.5087 84.6159 49.6528 84.3317C50.2291 81.9165 50.8054 79.5013 51.5258 77.2281C51.5258 76.9439 51.6699 76.8019 51.3817 76.6598C50.2291 76.3756 49.0765 76.0915 47.7798 75.8074C47.4917 77.086 47.0594 78.3647 46.7713 79.6433C46.4831 80.922 46.0509 82.2006 45.7628 83.4793C45.6187 83.7634 45.6187 83.9055 45.1865 83.7634C43.7457 83.3372 42.305 83.0531 40.8642 82.7689C40.432 82.6269 40.432 82.4848 40.576 82.2006C41.1523 79.7854 41.7287 77.3702 42.449 75.097C42.449 74.9549 42.5931 74.8128 42.5931 74.5287C39.2794 73.6763 35.9656 72.8238 32.5078 71.9714C32.796 71.4031 32.94 70.9769 33.2282 70.4086C33.8045 69.1299 34.3808 67.8513 34.813 66.7147C34.9571 66.2885 35.1012 66.2885 35.5334 66.2885C36.5419 66.5726 37.6945 66.8568 38.7031 66.9989C39.8557 67.283 40.7201 66.7147 40.8642 65.7202C42.7372 58.4745 44.6102 51.2288 46.3391 43.841C46.6272 42.7044 45.9068 41.4258 44.6102 40.9996C43.3135 40.5733 42.0168 40.2892 40.8642 40.0051C40.576 40.0051 40.432 39.863 40.576 39.5788C41.0083 38.016 41.4405 36.3112 41.8727 34.7484C41.2964 35.1746 41.2964 35.1746 41.4405 35.0325ZM48.7884 70.1245C48.9324 70.1245 49.0765 70.2665 49.0765 70.2665C51.3817 70.8348 53.831 71.5452 56.2803 71.6873C58.0092 71.8293 59.594 71.8293 61.1789 71.261C63.9163 70.4086 65.0689 66.8568 63.4841 64.5836C62.7637 63.447 61.6111 62.7367 60.4585 62.0263C57.8651 60.6056 54.8395 60.0373 51.958 59.469C51.5258 59.3269 51.5258 59.469 51.3817 59.8952C51.0936 61.3159 50.6613 62.5946 50.3732 64.0153C49.7969 66.0043 49.3647 67.9934 48.7884 70.1245ZM60.8907 55.633C61.1789 55.633 61.8992 55.491 62.4755 55.3489C65.213 54.7806 66.6537 51.655 65.213 49.2398C64.4926 47.9611 63.1959 47.1087 61.8992 46.5404C59.8822 45.688 57.8651 45.2617 55.704 44.6935C55.2718 44.5514 55.1277 44.6934 54.9836 45.1197C54.2632 48.1032 53.5428 50.9446 52.6784 53.9282C52.5343 54.2123 52.6784 54.3544 52.9665 54.4965C53.5429 54.6385 53.9751 54.7806 54.5514 54.9227C56.7125 55.2068 58.5855 55.633 60.8907 55.633Z" fill="white"/>
</svg>
