<svg width="113" height="113" viewBox="0 0 113 113" fill="none" xmlns="http://www.w3.org/2000/svg">
<rect width="113" height="113" rx="56.5" fill="#EC255A"/>
<path fill-rule="evenodd" clip-rule="evenodd" d="M38.2044 72.6442C36.837 71.791 36 70.2757 36 68.6438V59.5332C36 58.4514 36.8644 57.5749 37.9254 57.5795C38.2639 57.5795 38.5977 57.6728 38.8904 57.8453L59.055 69.8327C60.235 70.5321 60.9621 71.819 60.9621 73.2131V82.6501C60.9667 83.9463 59.9377 85 58.6662 85C58.2409 85 57.8201 84.8788 57.4588 84.655L38.2044 72.6442ZM68.2614 55.3508C69.4414 56.0502 70.164 57.3418 70.1686 58.7312V77.8849C70.1686 78.4491 69.8713 78.9713 69.3865 79.2464L64.9731 81.7782C64.9182 81.8108 64.8588 81.8341 64.7947 81.8528V71.2175C64.7947 69.842 64.0858 68.5645 62.9242 67.8558L45.2156 57.0573V45.0513C45.2156 43.9696 46.08 43.093 47.141 43.0977C47.4795 43.0977 47.8133 43.1909 48.106 43.3634L68.2614 55.3508ZM77.0883 41.2047C78.2728 41.9041 79 43.1956 79 44.5897V72.565C78.9954 73.1385 78.6844 73.6653 78.1905 73.9404L74.0057 76.2437V56.7683C74.0057 55.3928 73.2969 54.1199 72.1443 53.4112L54.0424 42.3423V30.9564C54.0424 30.6114 54.1339 30.271 54.2986 29.9726C54.8337 29.0401 56.009 28.723 56.9237 29.2639L77.0883 41.2047Z" fill="white"/>
</svg>
