<svg width="113" height="113" viewBox="0 0 113 113" fill="none" xmlns="http://www.w3.org/2000/svg">
<rect width="113" height="113" rx="56.5" fill="#EC255A"/>
<path d="M33.4814 84.3345V71.3844H41.0357V41.784H33.4814V29.2963H65.086C67.2444 29.2963 69.4027 29.913 71.4069 30.6838C75.4153 32.2255 78.9612 34.5381 81.7362 37.9298C84.2029 40.859 85.8988 44.2507 86.8238 48.1049C88.3655 54.58 88.3655 61.2092 86.5155 67.6843C84.0488 76.1636 78.807 81.8678 69.8653 83.872C68.3236 84.1804 66.6277 84.3345 65.086 84.4887H34.7148C34.2523 84.3345 33.944 84.3345 33.4814 84.3345ZM56.4526 71.3844C58.1484 71.3844 59.8443 71.5385 61.5401 71.3844C63.6985 71.2302 65.7027 70.4594 67.0902 68.6093C68.3236 67.0677 69.4027 65.3718 70.0194 63.5218C71.2528 59.3592 70.7903 55.1967 69.8653 51.0341C69.4027 48.5674 68.1694 46.2549 66.6277 44.4049C65.7027 43.3257 64.4693 42.0923 63.0818 41.9382C60.9235 41.4757 58.6109 41.784 56.4526 41.784V71.3844Z" fill="white"/>
</svg>
