<svg width="113" height="113" viewBox="0 0 113 113" fill="none" xmlns="http://www.w3.org/2000/svg">
<rect width="113" height="113" rx="56.5" fill="#EC255A"/>
<g clip-path="url(#clip0_890_257)">
<path d="M56.4994 33.4205C64.4185 33.4205 70.8382 29.6866 70.8382 25.0806C70.8382 20.4746 64.4185 16.7407 56.4994 16.7407C48.5803 16.7407 42.1606 20.4746 42.1606 25.0806C42.1606 29.6866 48.5803 33.4205 56.4994 33.4205Z" fill="white"/>
<path d="M56.4994 96.2587C64.4185 96.2587 70.8382 92.5248 70.8382 87.9188C70.8382 83.3128 64.4185 79.5789 56.4994 79.5789C48.5803 79.5789 42.1606 83.3128 42.1606 87.9188C42.1606 92.5248 48.5803 96.2587 56.4994 96.2587Z" fill="white"/>
<path d="M36.5187 44.9629C40.4782 38.105 40.452 30.6772 36.4602 28.3724C32.4684 26.0677 26.0225 29.7587 22.0629 36.6167C18.1034 43.4746 18.1296 50.9024 22.1214 53.2072C26.1133 55.5119 32.5591 51.8209 36.5187 44.9629Z" fill="white"/>
<path d="M90.9281 76.3821C94.8876 69.5242 94.8639 62.0978 90.8751 59.7948C86.8863 57.4918 80.4429 61.1843 76.4834 68.0422C72.5238 74.9001 72.5475 82.3265 76.5363 84.6295C80.5251 86.9325 86.9685 83.24 90.9281 76.3821Z" fill="white"/>
<path d="M36.4612 84.6262C40.453 82.3214 40.4792 74.8936 36.5197 68.0357C32.5601 61.1777 26.1142 57.4866 22.1224 59.7914C18.1306 62.0962 18.1044 69.524 22.0639 76.3819C26.0235 83.2399 32.4693 86.9309 36.4612 84.6262Z" fill="white"/>
<path d="M90.8814 53.2101C94.8702 50.9071 94.894 43.4807 90.9344 36.6228C86.9749 29.7648 80.5315 26.0723 76.5427 28.3753C72.5539 30.6783 72.5302 38.1047 76.4897 44.9627C80.4492 51.8206 86.8927 55.5131 90.8814 53.2101Z" fill="white"/>
</g>
<defs>
<clipPath id="clip0_890_257">
<rect width="79.5185" height="79.5185" fill="white" transform="translate(16.7407 16.7407)"/>
</clipPath>
</defs>
</svg>
