<svg width="113" height="113" viewBox="0 0 113 113" fill="none" xmlns="http://www.w3.org/2000/svg">
<rect width="113" height="113" rx="56.5" fill="#EC255A"/>
<path fill-rule="evenodd" clip-rule="evenodd" d="M59.726 54.3779L58.6446 60.1451L68.9175 61.5869L68.1966 64.2903L58.1039 62.8485C57.383 65.1914 57.0226 67.7146 56.1215 69.8773C55.2203 72.4005 54.3192 74.9236 53.2378 77.2666C51.796 80.3304 49.2729 82.4931 45.8486 83.0338C43.8661 83.3943 41.7034 83.214 40.0814 81.9524C39.5407 81.592 39 80.8711 39 80.3304C39 79.6095 39.3605 78.7084 39.9011 78.3479C40.2616 78.1677 41.1627 78.3479 41.7034 78.5282C42.2441 79.0688 42.7847 79.7897 43.1452 80.5106C44.2266 81.9524 45.6684 82.1327 47.1102 81.0513C48.7322 79.6095 49.6333 77.627 50.174 75.6445C51.2554 71.3191 52.3367 67.1739 53.2378 62.8485V62.1276L43.6859 60.6858L44.0463 57.9824L53.9587 59.4242L55.2203 53.8372L44.9475 52.2152L45.3079 49.3316L55.9412 50.7734C56.3017 49.692 56.4819 48.7909 56.8424 47.8898C57.7435 44.6457 58.6446 41.4016 60.8073 38.518C62.97 35.6344 65.4932 33.8321 69.2779 34.0124C70.9 34.0124 72.522 34.5531 73.6034 35.8146C73.7836 35.9949 74.144 36.3553 74.144 36.7158C74.144 37.4367 74.144 38.3378 73.6034 38.8785C72.8825 39.4191 71.9813 39.2389 71.2604 38.518C70.7198 37.9773 70.3593 37.4367 69.8186 36.896C68.7373 35.4542 67.1152 35.274 65.8537 36.5355C64.9525 37.4367 64.0514 38.6982 63.5107 39.9598C62.2491 43.7446 61.348 47.7095 60.0864 51.6745L69.9988 53.1163L69.2779 55.8197L59.726 54.3779Z" fill="white"/>
</svg>
