<svg width="113" height="113" viewBox="0 0 113 113" fill="none" xmlns="http://www.w3.org/2000/svg">
<rect width="113" height="113" rx="56.5" fill="#EC255A"/>
<g clip-path="url(#clip0_957_439)">
<path d="M77.0433 37C72.6954 37 67.9346 39.3696 62.9128 44.0435C60.5433 46.2391 58.4563 48.6304 56.9346 50.5217C56.9346 50.5217 59.3694 53.3261 62.0433 56.3478C63.4998 54.5217 65.565 52.0435 67.978 49.8043C72.4346 45.6304 75.3476 44.7826 77.0215 44.7826C83.2824 44.7826 88.3694 50.0435 88.3694 56.5435C88.3694 62.9783 83.2824 68.2391 77.0215 68.3044C76.7172 68.3044 76.3694 68.2609 75.9346 68.1739C77.7607 69.0217 79.7389 69.6304 81.5867 69.6304C93.065 69.6304 95.3259 61.6957 95.4563 61.1304C95.7824 59.6739 95.9781 58.1522 95.9781 56.587C95.9563 45.7826 87.4781 37 77.0433 37Z" fill="url(#paint0_linear_957_439)"/>
<path d="M36.9348 76.087C41.2826 76.087 46.0435 73.7175 51.0652 69.0435C53.4348 66.8479 55.5217 64.4566 57.0435 62.5653C57.0435 62.5653 54.6087 59.7609 51.9348 56.7392C50.4783 58.5653 48.413 61.0435 46 63.2827C41.5435 67.4131 38.6087 68.3044 36.9565 68.3044C30.6957 68.3044 25.6087 63.0435 25.6087 56.5435C25.6087 50.1088 30.6957 44.8479 36.9565 44.7827C37.2609 44.7827 37.6087 44.8262 38.0435 44.9131C36.2174 44.0653 34.2391 43.4566 32.3913 43.4566C20.913 43.4348 18.6522 51.3696 18.5217 51.9566C18.1957 53.4131 18 54.9348 18 56.5001C18 67.3044 26.4783 76.087 36.9348 76.087Z" fill="url(#paint1_linear_957_439)"/>
<path fill-rule="evenodd" clip-rule="evenodd" d="M45.6744 49.9783C44.4135 48.7609 38.2831 43.7826 32.4135 43.6087C21.9352 43.3478 18.87 50.9565 18.5874 51.9348C20.6091 43.413 28.0874 37.0435 36.957 37C44.1961 37 51.5222 44.1087 56.9352 50.5217L56.957 50.5C56.957 50.5 59.3918 53.3043 62.0657 56.3261C62.0657 56.3261 65.1091 59.913 68.3265 63.0652C69.5874 64.2826 75.6961 69.1957 81.5657 69.3696C92.3265 69.6739 95.3048 61.6304 95.457 61.0217C93.4787 69.6087 85.9787 76 77.0657 76.0435C69.8265 76.0435 62.5004 68.9348 57.0657 62.5217C57.0657 62.5435 57.0439 62.5435 57.0439 62.5652C57.0439 62.5652 54.6091 59.7609 51.9352 56.7391C51.957 56.7391 48.9135 53.1304 45.6744 49.9783Z" fill="white"/>
</g>
<defs>
<linearGradient id="paint0_linear_957_439" x1="66.8662" y1="40.097" x2="93.6664" y2="67.1178" gradientUnits="userSpaceOnUse">
<stop offset="0.21" stop-color="#E9E9E9"/>
<stop offset="0.6841" stop-color="#CACACA"/>
</linearGradient>
<linearGradient id="paint1_linear_957_439" x1="47.1187" y1="72.9944" x2="20.3185" y2="45.9737" gradientUnits="userSpaceOnUse">
<stop offset="0.21" stop-color="#DADADA"/>
<stop offset="0.8929" stop-color="#E5E5E5"/>
</linearGradient>
<clipPath id="clip0_957_439">
<rect width="78" height="39.087" fill="white" transform="translate(18 37)"/>
</clipPath>
</defs>
</svg>
