<svg width="113" height="113" viewBox="0 0 113 113" fill="none" xmlns="http://www.w3.org/2000/svg">
<rect width="113" height="113" rx="56.5" fill="#EC255A"/>
<path d="M56.9374 60.6788L52.4378 75.8484H76.5013C76.823 75.8369 77.1361 75.9537 77.3718 76.1731C77.6074 76.3925 77.7463 76.6965 77.7578 77.0183V77.4156L75.6659 84.6438C75.5737 84.9852 75.3682 85.2851 75.0831 85.4943C74.798 85.7035 74.4503 85.8095 74.097 85.795H37.2682L43.4403 64.7658L36.5347 66.8577L38.1053 62.0456L45.0092 59.9521L53.6943 30.4483C53.7897 30.1088 53.996 29.8109 54.2803 29.6023C54.5647 29.3937 54.9107 29.2862 55.2632 29.2971H64.5748C64.8965 29.2861 65.2095 29.4033 65.4448 29.623C65.6801 29.8427 65.8185 30.1469 65.8296 30.4687V30.8677L58.5063 55.7683L65.4119 53.6747L63.9499 58.6973L56.9374 60.6788Z" fill="white"/>
</svg>
