<svg width="113" height="113" viewBox="0 0 113 113" fill="none" xmlns="http://www.w3.org/2000/svg">
<rect width="113" height="113" rx="56.5" fill="#EC255A"/>
<path d="M48.1346 31.3804C53.6902 29.3026 59.9448 29.2968 65.6099 30.9963C72.9783 33.2835 79.2003 38.8448 82.4515 45.8254C83.3483 47.8149 84.2067 49.8889 84.2912 52.0992C80.149 49.6987 75.6073 48.1413 71.056 46.7222C63.7779 44.099 56.1559 42.2765 49.2657 38.6701C47.6622 37.7099 45.617 36.7286 45.1791 34.7314C45.0044 33.0031 46.8307 32.0429 48.1365 31.3708" fill="white"/>
<path d="M31.3582 48.1796C32.9675 43.8147 35.6061 39.7608 39.1895 36.7573C40.0997 44.2467 43.2895 51.4923 48.557 56.9403C54.8731 63.5022 63.87 67.5311 73.0244 67.3794C76.6596 67.4947 80.2142 66.6535 83.7592 65.9757C80.2699 78.579 66.4567 86.946 53.6575 84.9335C45.9319 83.9464 38.7997 79.3644 34.4961 72.9139C29.6414 65.7759 28.4105 56.2989 31.3582 48.1796Z" fill="white"/>
<path d="M71.0537 46.7261C75.605 48.1452 80.1466 49.7026 84.2889 52.1031L84.5692 52.251C84.9533 55.1315 85.2337 58.0869 84.7209 60.9828C82.6373 60.0995 80.9493 58.5478 79.1826 57.1767C75.7855 54.348 72.3173 51.1122 71.0537 46.7261Z" fill="#C9C9C9"/>
</svg>
