<svg width="113" height="113" viewBox="0 0 113 113" fill="none" xmlns="http://www.w3.org/2000/svg">
<rect width="113" height="113" rx="56.5" fill="#EC255A"/>
<path d="M60.75 73.9625L60.175 77.4125C60.175 78.275 59.8875 78.85 59.3125 79.425C58.7375 79.7125 58.1625 80 57.3 80C56.4375 80 55.8625 79.7125 55.2875 79.425C54.7125 78.85 54.425 78.275 54.425 77.4125L53.85 73.9625M60.75 73.9625C58.45 74.5375 56.15 74.5375 53.85 73.9625M60.75 73.9625C64.2 73.1 66.7875 70.5125 67.3625 65.9125L70.8125 39.4625M60.75 73.9625L63.9125 48.375C64.775 43.4875 66.7875 40.325 70.8125 39.4625M53.85 73.9625L50.6875 48.375C50.1125 43.4875 47.8125 40.325 44.075 39.4625M53.85 73.9625C50.4 73.1 48.1 70.5125 47.525 65.9125L44.075 39.4625M77.1375 39.75C80.5875 40.9 82.6 43.775 82.6 48.0875V79.425H77.1375V39.75ZM77.1375 39.75V37.45C77.1375 35.15 75.9875 34 74.2625 34C72.5375 34 71.3875 35.15 71.1 37.1625L70.8125 39.4625M77.1375 39.75C75.125 39.175 72.825 39.175 70.8125 39.4625M37.4625 39.75V79.425H32V48.0875C32 43.775 34.0125 40.9 37.4625 39.75ZM37.4625 39.75C38.6125 39.4625 40.05 39.175 41.2 39.175C42.0625 39.175 42.925 39.175 44.075 39.4625M37.4625 39.75V37.45C37.4625 35.15 38.6125 34 40.3375 34C42.0625 34 43.2125 34.8625 43.7875 37.1625L44.075 39.4625" stroke="white" stroke-width="3.83324" stroke-miterlimit="5.3333"/>
</svg>
