<svg width="113" height="113" viewBox="0 0 113 113" fill="none" xmlns="http://www.w3.org/2000/svg">
<rect width="113" height="113" rx="56.5" fill="#EC255A"/>
<path d="M83.3846 44.8444C83.19 45.8175 82.9954 46.2716 82.8007 46.8554C82.5413 47.4393 82.2818 48.1529 82.0223 49.4503C81.8925 49.9693 81.8926 50.3585 81.8277 50.7477C81.7628 51.3315 81.6979 51.6559 81.5033 52.3695C81.3087 52.8885 80.9844 53.7966 80.2708 54.7697C79.6869 55.5482 78.649 56.9104 77.3516 57.0402C77.2218 57.0402 76.9624 57.0402 76.8975 57.0402C73.135 55.0941 69.8914 53.6669 68.7237 53.3425C67.4263 52.9533 67.5561 50.099 67.7507 47.6339C67.8155 46.5311 67.8804 45.4283 67.8155 44.5201C67.6209 41.3414 67.102 37.9033 64.3125 36.1517C62.6907 35.1138 60.55 34.8543 58.4741 34.8543C58.8633 34.6597 59.2526 34.4002 59.7067 34.1407C60.8743 33.4272 62.3664 32.5838 63.8584 32.4541C64.3125 32.3892 64.8315 32.3244 65.2856 32.3244C68.2696 32 70.8645 31.6756 73.5242 32.6487C74.7567 33.1028 77.2867 34.4651 77.9354 35.7625C78.3895 36.6707 79.168 37.3843 80.7249 38.8115C81.5033 39.5899 82.0872 39.9791 82.4764 40.3035C82.9954 40.7576 83.1251 40.8224 83.3197 41.1468C83.8387 42.2496 83.6441 43.3524 83.3846 44.8444Z" fill="white"/>
<path d="M69.5669 57.8835C69.7615 57.9484 69.8913 58.2079 69.7615 58.4025C69.3723 58.9863 68.9182 59.8297 68.3992 60.8027C68.1398 61.2568 67.8803 61.7758 67.6857 62.1001C66.9721 63.3327 66.9072 64.4355 66.8423 65.2788C66.7775 66.187 66.7775 66.5762 66.1936 66.9006C65.7395 67.2249 65.2854 67.2898 62.1716 67.7439C61.6527 67.8088 61.3932 67.9385 61.1986 68.0034C61.1337 68.0034 61.1337 68.0034 61.0688 68.0683C60.8742 68.1331 60.6147 68.0034 60.6796 67.7439C60.6796 67.2898 60.7445 66.7709 60.7445 66.1221V65.9924C60.7445 65.4086 60.7445 64.8896 60.7445 64.5004C60.6796 63.7219 60.6796 63.3976 60.9391 63.0083C61.1986 62.6191 61.3932 62.4894 61.7175 62.2299C62.1716 61.9055 62.8203 61.5163 63.7934 60.2189C64.3124 59.5053 64.3772 59.181 64.507 58.8566C64.507 58.7269 64.5719 58.662 64.9611 58.4025C65.3503 58.0781 66.5829 57.17 68.2046 57.4294C68.4641 57.4943 69.0479 57.6889 69.5669 57.8835Z" fill="white"/>
<path d="M57.3066 72.22C57.2417 72.2849 57.1768 72.3498 57.0471 72.3498C56.7227 72.3498 56.4633 72.2849 56.3335 72.0903C56.0092 71.7011 56.074 70.9226 56.1389 70.4685L57.4363 70.1442C57.5012 70.8577 57.5661 71.8308 57.3066 72.22Z" fill="white"/>
<path d="M57.3712 67.4845C57.3712 67.6791 57.3063 67.8737 57.3063 68.1332C57.3063 68.1981 57.3063 68.3278 57.3063 68.3927C57.3063 68.5873 57.3063 68.9765 57.3063 69.1063C56.9171 69.236 56.5278 69.236 56.0737 69.236C56.0737 69.1063 56.0737 68.9117 56.0737 68.7819C56.0737 68.6522 56.0737 68.5873 56.0737 68.4576C56.0737 68.3278 56.0737 68.263 56.0737 68.1332C56.0737 67.8737 56.0737 67.4845 56.1386 67.3548C56.2683 67.3548 56.3981 67.2899 56.5278 67.2899C56.7873 67.225 57.1765 67.1602 57.3712 67.1602C57.436 67.225 57.3712 67.3548 57.3712 67.4845Z" fill="white"/>
<path d="M54.9709 71.8308C54.906 72.4795 54.7114 73.3228 54.0627 73.4526C53.8032 73.5175 53.6086 73.4526 53.5438 73.3228C53.0897 72.9336 53.0248 71.7011 53.0897 70.8577C53.3491 70.8577 53.7384 70.7929 54.1925 70.728C54.452 70.6631 54.7114 70.5983 54.9709 70.5983C54.9709 70.9226 54.9709 71.3767 54.9709 71.8308Z" fill="white"/>
<path d="M54.6459 69.4307L53.2188 69.8848C53.2836 69.3009 53.4134 68.5225 53.4134 68.0035C53.4134 67.6143 53.5431 67.5494 53.5431 67.4846C53.5431 67.4846 53.5431 67.4846 53.608 67.4846L54.5162 67.4197C54.6459 67.9386 54.6459 68.8468 54.6459 69.4307Z" fill="white"/>
<path d="M52.3767 68.9767C52.3118 69.1713 52.182 69.82 52.1172 70.2092L50.3008 70.1443C50.4305 69.5605 50.5603 69.0415 50.69 68.5874C50.8197 68.1333 51.0144 67.809 51.1441 67.7441C51.3387 67.6144 51.7279 67.6144 51.9874 67.809C52.3767 68.1333 52.5064 68.5226 52.3767 68.9767Z" fill="white"/>
<path d="M51.6622 74.4255C51.5325 74.6201 51.3379 74.685 51.2081 74.7499C51.0135 74.7499 50.8838 74.7498 50.754 74.6201C50.1702 74.1011 50.2351 72.4145 50.2351 71.5712C50.9486 71.3766 51.792 71.2468 52.1812 71.2468C52.2461 71.8955 52.2461 73.7119 51.6622 74.4255Z" fill="white"/>
<path d="M49.3272 70.0793C49.2623 70.3388 49.1326 70.5334 49.0677 70.728C48.8731 70.7929 48.2244 70.728 47.5757 70.5983L48.0298 67.8088C48.7434 67.6142 49.5867 67.5494 49.8462 67.744C50.1057 68.0683 49.5867 69.4955 49.3272 70.0793Z" fill="white"/>
<path d="M48.5488 74.8798C48.2244 75.3339 47.7054 75.5285 46.927 75.5285C46.408 75.5285 46.2134 75.3339 46.1485 75.2042C45.7593 74.5554 46.1485 73.0634 46.5378 72.0903L48.938 72.2201C48.938 72.4147 49.0029 72.6093 49.0029 72.8039C49.0677 73.4526 49.0029 74.296 48.5488 74.8798Z" fill="white"/>
<path d="M68.5287 54.4455C66.3231 53.7968 66.5177 50.6181 66.7123 47.5692C66.7772 46.4664 66.8421 45.4284 66.7772 44.5851C66.5826 41.7308 66.1285 38.5521 63.7931 37.125C61.328 35.5681 57.2411 35.9573 54.7112 36.2816C53.803 36.5411 52.8948 36.7357 52.2461 36.7357C50.754 36.6709 49.5864 36.0221 48.6133 35.5032C47.8349 35.0491 47.1213 34.7247 46.4726 34.7247C46.4077 34.7247 46.4077 34.7247 46.3428 34.7247C44.3967 34.8545 43.4885 35.3086 42.7101 36.087C42.5154 36.2816 42.256 36.8006 41.4126 39.136C41.0234 40.3036 40.8937 40.9523 40.8288 41.6011C40.7639 42.1849 40.699 42.7687 40.3747 43.6769C40.1801 44.2608 39.9855 44.8446 39.8557 45.2987C39.4665 46.661 39.1421 47.6989 38.1691 48.9963C38.0393 49.1261 37.9096 49.3856 37.7799 49.6451C37.5852 49.9694 37.3258 50.4235 36.9365 50.8776C36.677 51.202 36.0932 52.4994 36.1581 52.8886C36.2229 53.5373 36.4176 53.9265 36.6122 54.3806C36.8717 54.8347 37.1311 55.3537 37.1311 56.0673V56.197C37.196 57.2998 37.0663 57.8837 34.9255 59.7649C33.5632 60.9975 32.5902 62.1652 31.9415 63.0085C31.8766 63.0733 31.9415 63.2031 32.0712 63.2031H32.1361C32.201 63.2031 32.2009 63.2031 32.2658 63.2031C32.3307 63.2031 32.3307 63.2031 32.3956 63.2031C32.4604 63.2031 32.4604 63.2031 32.5253 63.2031C33.0443 63.268 33.5632 63.4626 33.8876 63.8518C33.9525 63.9167 34.0173 63.9167 34.1471 63.9167C34.4714 63.7869 34.8607 63.7869 35.2499 63.8518C35.704 63.9167 36.0932 64.0464 36.4176 64.3059C36.5473 64.4356 36.677 64.4356 36.8068 64.4356C37.1311 64.3708 37.5204 64.3708 37.8447 64.5005C38.1042 64.5654 38.2988 64.76 38.4934 64.8897C38.6232 65.0844 38.9475 65.0843 39.1421 64.9546C39.207 64.8897 39.3368 64.8897 39.4016 64.8249C39.8557 64.6951 40.3747 64.76 40.8288 64.8897C41.0234 64.9546 41.2829 65.0195 41.4775 65.1492C41.8019 65.3438 41.9965 65.6682 42.1911 66.0574C42.3208 66.3169 42.6452 66.4466 42.9047 66.252C43.1641 66.0574 43.4236 65.9925 43.6831 66.1223C43.748 66.1872 43.8777 66.252 43.9426 66.3169C44.1372 66.5115 44.3967 66.7061 44.6562 66.6413C45.3698 66.4466 46.2131 66.5764 46.7969 66.9007C47.0564 67.0305 47.251 67.2251 47.4456 67.4846V67.3548C47.4456 67.29 47.5105 67.2251 47.5754 67.2251L47.7051 67.1602C48.0295 67.0305 49.8459 66.5115 50.5594 67.29C50.5594 67.29 50.6243 67.3548 50.6892 67.29C50.754 67.1602 50.8838 67.1602 50.8838 67.0954C51.3379 66.8359 52.1163 66.771 52.6353 67.2251C52.765 67.29 52.8948 67.29 52.9597 67.1602C53.0245 67.0954 53.0894 67.0305 53.1543 66.9656C53.3489 66.8359 53.5435 66.7061 53.803 66.771L54.7761 66.7061C55.0355 66.7061 55.814 66.6413 56.0735 66.5764H56.1383C56.2681 66.5764 56.333 66.5115 56.4627 66.5115C56.9168 66.3818 57.5006 66.3169 57.9547 66.5115C58.4088 66.7061 58.344 67.2251 58.2791 67.6143C58.2791 67.8089 58.2142 68.0035 58.2142 68.1333C58.2142 68.1982 58.2142 68.3279 58.2142 68.3928C58.2142 68.782 58.2142 69.1063 58.1493 69.3658L58.2142 69.5605C58.2791 69.7551 58.4737 69.8848 58.6683 69.7551C58.9927 69.5605 59.317 69.301 59.4468 69.1064C59.4468 69.1064 59.4468 69.1063 59.4468 69.0415C59.4468 68.9766 59.5116 68.9117 59.5116 68.7171C59.5765 68.3279 59.6414 67.6143 59.6414 66.0574C59.6414 65.9925 59.6414 65.9277 59.6414 65.8628C59.6414 65.279 59.6414 64.8249 59.6414 64.4356C59.5765 63.5923 59.5765 62.9436 59.9657 62.2949C60.355 61.6462 60.7442 61.3867 61.1334 61.1921C61.5875 60.9326 62.0416 60.6083 62.8849 59.5054C63.2741 58.9216 63.339 58.727 63.4039 58.5324C63.4688 58.1432 63.5985 57.8837 64.2472 57.3647C64.7662 56.9755 66.2582 55.8078 68.3341 56.197C68.9828 56.3268 70.0856 56.6511 71.1884 57.1052C71.2533 57.1052 71.2533 57.1052 71.3181 57.1701H71.383C72.3561 57.5593 73.2643 57.9485 73.8481 58.2729C74.0427 58.3378 74.2373 58.3378 74.3671 58.1432C74.5617 57.9485 74.7563 57.7539 74.9509 57.6242C75.0158 57.5593 75.0807 57.5593 75.1455 57.4944C75.3402 57.2998 75.3401 56.9755 75.0807 56.8457C72.1615 55.5483 69.4369 54.705 68.5287 54.4455ZM47.77 55.0942C47.1213 58.0134 42.5154 61.3218 40.4396 61.3218H40.3747C40.3098 61.3218 40.3098 61.3218 40.245 61.3218C40.1801 61.3218 40.1801 61.3218 40.1152 61.3218H40.0503C39.6611 61.1921 39.1421 60.9326 38.7529 60.5434C38.4934 60.2839 38.2988 59.9595 38.1691 59.6352C38.1691 59.5703 38.1691 59.5054 38.1042 59.4406C37.9745 58.9216 37.8447 58.3378 38.2988 57.2998C38.3637 57.1701 38.4286 57.0403 38.4934 56.9106C38.4934 56.8457 38.5583 56.8457 38.5583 56.7809C38.6232 56.6511 38.6232 56.5863 38.688 56.4565C38.7529 56.3268 38.8178 56.197 38.8178 56.0673C38.8178 56.0024 38.8827 56.0024 38.8827 55.9375C39.0124 55.6132 39.0124 55.4186 39.0124 55.2888C39.0124 55.1591 39.0124 55.0294 39.0773 54.8347C39.207 54.2509 39.2719 53.7968 39.3368 53.4076C39.4665 52.6291 39.5314 51.9804 39.9206 51.3966C39.9855 51.2668 40.0503 51.202 40.1801 51.1371L40.245 51.0722L40.3098 51.0073C40.4396 50.9425 40.5044 50.8776 40.6342 50.8127C40.699 50.8127 40.699 50.7479 40.7639 50.7479C40.8288 50.7479 40.9585 50.683 41.0234 50.683C41.4126 50.6181 41.8667 50.5533 42.3208 50.6181C42.9047 50.683 43.3588 50.7479 43.8129 50.8776C44.2021 51.0073 44.5264 51.0722 44.7859 51.202C44.7859 51.202 44.8508 51.202 44.8508 51.2668C44.9157 51.2668 44.9805 51.3317 44.9805 51.3317C45.0454 51.3966 45.1103 51.3966 45.1751 51.3966C45.24 51.4614 45.3698 51.4614 45.4346 51.5263H45.4995C45.8239 51.6561 46.0833 51.8507 46.3428 51.9804C46.4726 52.0453 46.5374 52.175 46.6672 52.2399C46.7321 52.2399 46.732 52.3048 46.732 52.3048L46.7969 52.3696C47.9646 53.4076 47.8997 54.4455 47.77 55.0942ZM49.9107 43.9364L49.8459 44.4554C49.6512 45.6879 49.1971 47.3097 47.4456 47.7638C45.759 48.153 45.3698 48.2828 44.2021 48.2828H44.1372C43.2939 48.2828 41.6072 47.7638 41.2829 46.4015C41.0883 45.4933 41.4775 44.9095 42.1262 43.8067C42.256 43.6121 42.3208 43.4174 42.4506 43.2228C43.2939 41.7957 43.6182 40.7577 43.8777 39.9793C44.1372 39.2008 44.3318 38.4872 44.9157 37.9683C45.0454 37.8385 45.1751 37.7088 45.3698 37.5791C45.4995 37.5142 45.5644 37.4493 45.6941 37.3844C45.8239 37.3196 46.0185 37.2547 46.2131 37.1898C46.6023 37.0601 46.9915 36.9952 47.4456 36.9952C48.2241 36.9952 49.0674 37.2547 49.6512 37.7088C49.9107 37.9034 50.3 38.3575 50.4946 39.5901C50.4946 40.1739 50.3 41.3416 49.9107 43.9364ZM62.3011 47.3746C61.7172 48.4125 61.3929 48.9963 60.8739 49.3856C59.836 50.2289 58.6683 50.4235 57.6952 50.4235C56.9817 50.4235 56.3978 50.2938 56.0086 50.2289C54.9707 50.0343 53.0894 49.7099 52.4407 48.2179C52.311 47.8935 52.311 47.7638 52.311 47.5043C52.311 47.2448 52.311 46.8556 52.1812 45.9474V45.8825C52.1163 45.4284 52.0515 44.9743 52.1812 44.3256V44.2608C52.5056 42.4444 52.6353 42.1849 52.7002 41.9903C52.8948 41.6659 53.3489 41.4713 53.6732 41.6659C53.9976 41.8605 54.1922 42.2498 53.9976 42.639C53.9327 42.7687 53.8679 43.158 53.6084 44.5202V44.5851C53.5435 44.9743 53.5435 45.2987 53.6084 45.6879V45.7528C53.7381 46.7907 53.7381 47.2448 53.7381 47.5043C53.7381 47.5692 53.7381 47.5692 53.7381 47.6341C53.7381 47.6341 53.7381 47.6341 53.7381 47.6989C53.8679 47.9584 54.0625 48.153 54.322 48.2828C54.5814 48.4125 54.8409 48.153 54.7761 47.8935C54.4517 46.3366 54.5166 44.5202 55.1004 43.4174C55.295 43.0282 55.6842 42.3795 56.0086 41.7957C56.0735 41.7308 56.0735 41.6659 56.1383 41.6011C56.1383 41.5362 56.2032 41.4713 56.2032 41.4713C56.333 41.2118 56.5276 40.9523 56.5924 40.8226C56.5924 40.8226 56.5924 40.7577 56.6573 40.7577C56.6573 40.7577 56.6573 40.6929 56.7222 40.6929C56.7222 40.628 56.7871 40.628 56.7871 40.5631C56.7871 40.5631 56.7871 40.5631 56.7871 40.4982V40.4334L56.8519 40.3685C56.9168 40.2388 57.0465 40.109 57.1114 39.9793C57.306 39.7198 57.1114 39.3954 56.7871 39.5252C56.2681 39.7847 55.9437 40.0442 55.8789 40.0442C55.5545 40.3036 55.1004 40.2388 54.8409 39.9144C54.5814 39.5901 54.6463 39.136 54.9707 38.8765C55.3599 38.5521 57.306 37.125 59.7062 37.8385C61.3929 38.2926 62.3011 39.6549 62.6254 40.109C62.8849 40.4983 63.7282 41.7308 63.7282 43.4174C63.7931 44.7149 63.2741 45.6879 62.3011 47.3746Z" fill="white"/>
<path d="M46.8624 38.4871C46.7326 38.8114 46.6029 39.1358 46.4083 39.525C46.0191 40.4332 45.6298 41.4711 45.4352 41.8603C45.1109 42.5091 44.8514 42.8983 44.5919 43.2226C44.3324 43.6119 44.1378 43.8714 44.0081 44.3254C43.7486 45.039 43.6837 45.8823 43.8783 46.7905C43.4242 46.7257 42.7106 46.4013 42.5809 46.0121C42.516 45.6877 42.7106 45.4282 43.2296 44.5201C43.3593 44.3254 43.4242 44.1308 43.554 43.9362C44.4621 42.3793 44.8514 41.2116 45.1109 40.3683C45.4352 39.4601 45.565 39.0709 46.0191 38.7465C46.3434 38.6817 46.6029 38.5519 46.8624 38.4871Z" fill="white"/>
<path d="M45.9534 71.1821C45.4345 72.2201 44.8506 73.1283 44.4614 73.6472C44.137 72.8039 43.5532 70.7929 43.7478 69.1711C43.7478 69.1062 43.7478 69.1062 43.7478 69.0414C43.8127 68.5224 43.9424 68.0683 44.2019 67.744C44.3316 67.4845 44.7857 67.3547 45.3047 67.3547C45.6939 67.3547 46.0832 67.4196 46.4075 67.6142C46.6021 67.6791 46.8616 67.9386 46.8616 68.4575C46.7967 69.1711 46.4724 70.2091 45.9534 71.1821Z" fill="white"/>
<path d="M73.5892 59.635C73.6541 59.635 73.6541 59.6999 73.6541 59.7648C73.5243 60.0891 73.3297 60.2837 73.1351 60.5432C72.8756 60.8676 72.6161 61.1919 72.2918 61.7109C71.9025 62.4893 71.7728 63.2029 71.7079 64.9544C71.6431 67.0303 71.7079 68.2629 71.7728 69.1062C71.8377 69.9495 71.8377 70.4685 71.7079 71.2469C71.3836 72.8687 70.7349 73.9715 69.8267 75.3338C68.7239 77.0204 67.5562 78.8368 65.6749 79.4207C65.4803 79.4856 65.4803 79.4855 65.0262 79.4855C64.5721 79.4855 63.8586 79.4855 62.4963 79.5504C60.0312 79.6153 58.7337 79.6802 57.6958 79.8748C56.593 80.0694 56.0092 80.3289 55.4253 80.5884C54.9064 80.783 54.4523 80.9776 53.4792 81.1722C52.9602 81.3019 52.1169 81.4317 49.3274 81.4317C46.4083 81.4317 44.6567 81.4317 42.3214 81.1722C39.1427 80.783 37.5209 80.6532 36.483 80.0694C33.953 78.7071 32.9151 76.3069 31.1636 72.3497C31.1636 72.2849 31.2284 72.22 31.2284 72.2849C31.2933 72.3497 31.4231 72.3497 31.4879 72.4146C31.5528 72.4146 31.6177 72.4795 31.7474 72.4795C31.8772 72.4795 32.0718 72.4795 32.2664 72.4795H32.3313H32.3961C32.5259 72.8038 32.6556 73.0633 32.98 73.1931C33.3043 73.3228 33.6287 73.3877 33.953 73.3877C34.2774 73.3877 34.6666 73.3877 34.991 73.3228C35.1856 73.3228 35.3802 73.3877 35.4451 73.5823C35.7694 74.3607 36.1586 74.8797 36.7425 74.9446C36.7425 74.9446 36.8074 74.9446 36.8722 74.9446C37.002 74.9446 37.1317 74.9446 37.3912 74.75C37.6507 74.5553 38.1048 74.6851 38.2994 74.9446C38.4291 75.0743 38.5589 75.2041 38.6886 75.2689C39.2724 75.8528 40.7645 76.1771 41.9322 76.1771C42.5809 76.1771 43.1647 76.1122 43.5539 75.9176C44.0729 75.6581 44.0729 75.2689 44.008 75.1392C43.9432 74.8797 43.9432 74.6202 43.8783 74.3607C43.8783 74.3607 43.9432 74.2959 43.9432 74.3607C44.008 74.4905 44.0729 74.75 44.3324 74.75H44.3973C44.7216 74.75 45.2406 74.8797 45.3703 75.2041C45.4352 75.3987 45.5001 75.5284 45.5649 75.6582C45.7595 75.9825 46.2136 76.3717 46.9921 76.3717H47.057C48.03 76.3717 48.7436 76.0474 49.1977 75.4635C49.1977 75.3987 49.2626 75.3987 49.2626 75.3338C49.4572 75.0743 49.9762 75.0743 50.1708 75.2689C50.4303 75.5284 50.7546 75.5933 51.079 75.5933C51.1438 75.5933 51.2087 75.5933 51.2736 75.5933C51.7277 75.5284 52.052 75.3338 52.3115 74.9446C52.5061 74.6851 52.6359 74.3607 52.7007 74.0364C52.7007 73.9066 52.8954 73.9066 52.9602 73.9715C53.1548 74.1661 53.4143 74.2959 53.8684 74.2959C53.9982 74.2959 54.063 74.2959 54.1928 74.231C55.0361 74.0364 55.4253 73.3877 55.6199 72.6092C55.6199 72.6092 55.6848 72.5443 55.6848 72.6092C55.8794 72.8687 56.2686 73.1282 56.9174 73.1282C56.9822 73.1282 56.9822 73.1282 57.0471 73.1282C57.3715 73.1282 57.6958 72.9336 57.8904 72.6741C58.1499 72.3497 58.2796 71.8308 58.2796 71.3767C58.2796 71.1821 58.4094 71.0523 58.604 70.9874C59.3176 70.6631 60.096 70.0793 60.3555 69.6252C60.4204 69.4954 60.5501 69.3657 60.6799 69.3657C61.1988 69.2359 61.4583 69.1711 61.6529 69.0413C61.8475 68.9764 61.9773 68.9116 62.3665 68.8467C65.5452 68.3926 66.129 68.2629 66.8426 67.8088C67.8806 67.0952 67.9454 66.187 67.9454 65.2788C68.0103 64.5003 68.0103 63.657 68.659 62.6191C68.8536 62.2299 69.1131 61.7758 69.3726 61.2568C69.8267 60.4135 70.4754 59.2458 70.9295 58.5971C71.0592 58.4674 71.2538 58.4025 71.3836 58.4673C72.4864 58.9863 73.3946 59.4404 73.5892 59.635Z" fill="white"/>
<path d="M42.905 69.0413C42.7753 70.1441 42.7104 71.5713 42.905 73.5174C42.9699 74.0364 43.0348 74.6202 43.0996 75.2041C42.9699 75.2689 42.5158 75.3987 41.7373 75.3987C40.5697 75.3987 39.4669 75.0743 39.1425 74.75L39.0776 74.6851C38.8181 74.4905 38.6235 74.2959 38.6235 73.9067C38.6235 73.7769 38.6884 73.6472 38.8182 73.4526C38.883 73.3228 38.9479 73.1931 39.0776 73.0633C39.2722 72.8038 39.5317 72.4795 39.7263 72.0903C40.4399 70.8577 40.6994 70.5334 41.0238 70.0144C41.0238 69.9495 41.0886 69.9495 41.0886 69.8846C41.2832 69.6252 41.5427 69.3008 41.8671 68.717C42.1266 68.3277 42.3861 68.0034 42.5158 67.7439C42.8401 67.3547 43.0348 67.0952 43.1645 66.9655C43.1645 67.1601 43.0996 67.4196 43.0348 67.679C43.0348 68.0034 42.9699 68.4575 42.905 69.0413Z" fill="white"/>
<path d="M42.3861 52.0452C42.1914 52.3046 42.0617 52.4993 41.8671 52.9534C41.3481 54.1859 41.2832 54.8346 41.2832 55.4185C41.2832 55.6779 41.2832 55.9374 41.2184 56.1969C41.1535 56.3915 41.0886 56.5861 40.9589 56.7807C40.6345 57.4943 40.2453 58.4674 40.375 59.7648C40.1156 59.6351 39.7263 59.3756 39.6615 59.181C39.6615 59.1161 39.6615 59.0512 39.5966 58.9864C39.5317 58.5971 39.4669 58.3377 39.7263 57.7538C40.375 56.1969 40.5048 55.8077 40.5697 55.4185C40.5697 55.3536 40.5697 55.2238 40.6345 55.159C40.7643 54.5751 40.8291 53.9913 40.894 53.6021C40.9589 52.9534 41.0238 52.5641 41.2832 52.2398C41.3481 52.11 41.6076 52.0452 41.932 52.0452C42.0617 52.0452 42.1914 52.0452 42.3861 52.0452Z" fill="white"/>
<path d="M41.4773 67.4196C41.4124 67.0304 41.3475 66.6412 41.2178 66.3168L41.1529 66.1871C41.1529 66.1222 41.0881 66.1222 41.0881 66.0573C41.0881 66.0573 41.0881 65.9924 41.0232 65.9924L40.9583 65.9276C40.9583 65.9276 40.9583 65.9276 40.8935 65.9276C40.8935 65.9276 40.8286 65.9276 40.8286 65.8627C40.8286 65.8627 40.8286 65.8627 40.7637 65.8627C40.5691 65.7978 40.3096 65.6681 40.115 65.6681H40.0501H39.9853C39.9853 65.6681 39.9853 65.6681 39.9204 65.6681C39.8555 65.6681 39.7906 65.6681 39.7906 65.733C39.7906 65.733 39.7258 65.733 39.7258 65.7978C39.7258 65.7978 39.6609 65.7978 39.6609 65.8627L39.596 65.9276C39.596 65.9276 39.596 65.9924 39.5312 65.9924C39.4663 66.1222 39.3365 66.2519 39.2717 66.3817C39.0771 66.706 38.8176 67.0304 38.623 67.3547C38.4284 67.6142 38.2337 67.9386 38.0391 68.1981C37.9094 68.3278 37.8445 68.5224 37.7148 68.6522L37.6499 68.717C37.7796 68.717 37.9094 68.7819 38.0391 68.7819C38.3635 68.8468 38.623 68.9116 38.9473 68.9116C39.5312 68.9765 40.1799 69.0414 40.8286 69.0414H40.8935C41.0232 68.8468 41.2178 68.5873 41.4124 68.2629C41.5422 68.0683 41.6719 67.8737 41.7368 67.744C41.5422 67.6142 41.4773 67.5493 41.4773 67.4196Z" fill="white"/>
<path d="M39.337 69.9497C39.2721 70.4038 38.7532 71.6364 37.9099 72.804C37.1963 73.7771 36.807 74.0366 36.7422 74.0366C36.4178 73.9717 36.0935 73.1933 35.834 72.3499C35.7042 72.0256 35.6394 71.7012 35.5745 71.4417C35.3799 70.793 35.3799 70.0146 35.3799 69.4956C36.0935 69.8848 37.2611 70.0146 39.0127 70.0146C39.0775 69.9497 39.2073 69.9497 39.337 69.9497Z" fill="white"/>
<path d="M38.1049 66.0573C38.1049 66.1222 38.1049 66.1222 38.1049 66.0573C37.7806 66.5114 37.5211 66.9655 37.1968 67.4196C37.067 67.6142 36.8724 67.8737 36.7427 68.0683C36.6778 68.198 36.548 68.3278 36.4832 68.4575C36.2237 68.3926 35.9642 68.3278 35.7696 68.2629C35.575 68.198 35.3804 68.1332 35.1857 68.0683C35.1209 68.0683 35.1209 68.0683 35.056 68.0034C35.056 67.9386 34.9911 67.8737 34.9263 67.8088C34.9911 67.6791 35.056 67.5493 35.1209 67.3547C35.2506 67.0952 35.3804 66.8357 35.5101 66.5763C35.7696 66.1222 36.0939 65.6681 36.548 65.3437C36.548 65.3437 36.6129 65.3437 36.6129 65.2788C36.8075 65.1491 36.9373 65.0842 37.1968 65.0842C37.1968 65.0842 37.3914 65.0842 37.4562 65.0842C37.5211 65.0842 37.586 65.0842 37.586 65.1491H37.6508C37.7157 65.1491 37.7157 65.214 37.7806 65.214C37.7157 65.1491 37.8455 65.3437 37.8455 65.3437C38.0401 65.6681 38.0401 65.8627 38.1049 66.0573Z" fill="white"/>
<path d="M35.7686 64.8248C35.2496 65.2789 34.8604 65.8627 34.4712 66.5114C34.2766 66.8358 34.1468 67.225 33.9522 67.5494C33.9522 67.6142 33.8873 67.6142 33.8873 67.6791C33.6927 67.6142 33.563 67.6142 33.3684 67.5494C33.1738 67.4845 33.044 67.4196 32.8494 67.3548C32.7845 67.2899 32.7197 67.2899 32.6548 67.225C32.8494 66.9007 33.044 66.6412 33.1738 66.3168C33.4332 65.9276 33.6927 65.5384 34.0171 65.1491C34.1468 65.0194 34.2766 64.8248 34.4063 64.7599C34.6009 64.6302 34.7955 64.695 34.9901 64.695C35.1848 64.695 35.3794 64.6951 35.574 64.7599C35.7037 64.8248 35.7686 64.8248 35.7686 64.8248Z" fill="white"/>
<path d="M34.9263 72.1551L34.8615 72.22H34.7966C34.6669 72.22 34.5371 72.22 34.4074 72.22C34.1479 72.22 33.8884 72.22 33.6289 72.22C33.4992 72.22 33.3694 72.22 33.3046 72.0903C33.2397 71.9605 33.1748 71.701 33.1748 71.5064C32.9802 70.5982 32.9802 69.6252 33.11 68.6521C33.5641 68.8467 34.083 68.9764 34.602 69.0413C34.4722 69.8846 34.6669 71.1172 34.7966 71.5064C34.7966 71.8308 34.8615 71.9605 34.9263 72.1551Z" fill="white"/>
<path d="M33.3687 64.5654C32.9146 65.0844 32.5254 65.6682 32.201 66.2521C32.0713 66.5116 31.8767 66.7062 31.8118 66.9657C31.6172 66.9008 31.4874 66.8359 31.2928 66.7711C31.1631 66.7062 31.0333 66.5764 30.9036 66.5116C30.9036 66.5116 30.7739 66.4467 30.7739 66.3818C30.7739 66.3818 30.7739 66.3818 30.709 66.3818C30.7739 66.2521 30.8387 66.1224 30.8387 66.0575C30.9036 65.8629 31.0333 65.6682 31.1631 65.4736C31.3577 65.1493 31.6172 64.7601 31.8118 64.4357C31.8767 64.306 32.0064 64.1762 32.1361 64.1114C32.2659 64.0465 32.4605 64.1114 32.5254 64.1114C32.9146 64.1762 33.1092 64.306 33.3687 64.5654Z" fill="white"/>
<path d="M30.06 66.8357C30.2546 66.9654 30.3844 67.0952 30.579 67.2249C30.6438 67.2898 30.7087 67.3547 30.7736 67.4195C30.7736 67.4195 30.7736 67.4195 30.7736 67.4844C30.579 68.198 30.4492 68.9764 30.4492 69.69C30.4492 69.7549 30.3844 69.7549 30.3844 69.69C30.1898 68.7818 29.8654 67.3547 30.06 66.8357Z" fill="white"/>
<path d="M32.1356 68.4574C32.0707 69.1061 32.0059 69.7548 32.0059 70.4035C32.0059 70.7279 32.0707 71.1171 32.1356 71.4415C32.0707 71.4415 32.0058 71.4415 31.8761 71.4415C31.8761 71.4415 31.8761 71.4415 31.8112 71.4415C31.8112 71.4415 31.8112 71.4415 31.7464 71.4415C31.6815 71.4415 31.6166 71.4415 31.5518 71.3766C31.4869 71.3117 31.3571 71.182 31.2923 71.1171C31.0977 70.7928 31.0977 70.4684 31.0977 70.1441C31.0977 69.4953 31.0977 68.8466 31.2274 68.1331C31.3571 68.1979 31.422 68.1979 31.5518 68.2628C31.8112 68.3277 32.0058 68.3925 32.1356 68.4574Z" fill="white"/>
</svg>
