<svg width="113" height="113" viewBox="0 0 113 113" fill="none" xmlns="http://www.w3.org/2000/svg">
<rect width="113" height="113" rx="56.5" fill="#EC255A"/>
<path d="M82.9373 66.0052C82.928 65.9678 82.928 65.9024 82.9186 65.7996C80.6755 65.5566 74.2733 65.407 68.3291 70.3138C68.3291 70.3138 66.4132 61.5283 57.4408 61.5283C48.4684 61.5283 45.1411 70.3138 45.1411 70.3138C40.1128 64.9023 33.3835 65.2949 30.9535 65.65C30.9535 65.7061 30.9442 65.7715 30.9442 65.8276C30.8694 67.1828 30.9068 67.8277 31.1311 68.6782C31.8321 71.3419 33.9911 74.2766 37.3744 77.1552C42.9167 81.8657 50.4311 85.2678 56.123 85.6603C62.0578 86.0622 70.8152 82.5947 76.6473 77.5291C77.5632 76.716 78.4231 75.8561 79.2269 74.9402C79.8063 74.2672 80.6662 73.1083 80.6008 73.1083C80.5821 73.1083 80.6008 73.0896 80.6381 73.0709C80.6662 73.0522 80.6942 73.0242 80.6755 73.0055C80.6662 72.9962 80.6849 72.9681 80.7129 72.9588C80.741 72.9494 80.7596 72.9307 80.7503 72.912C80.741 72.8933 80.7503 72.8747 80.7877 72.8653C80.8157 72.856 80.8251 72.8279 80.8157 72.8092C80.8064 72.7905 80.8157 72.7718 80.8344 72.7718C80.8531 72.7718 80.8718 72.7438 80.8718 72.7251C80.8718 72.7064 80.8905 72.6784 80.9092 72.6784C80.9279 72.6784 80.9466 72.6597 80.9466 72.641C80.9746 72.5662 81.0213 72.4915 81.0681 72.426C81.2083 72.2111 81.769 71.211 81.8438 71.0428C82.3765 69.8371 82.713 68.7623 82.8719 67.6875C82.928 67.1735 82.9747 66.2295 82.9373 66.0052ZM59.5717 77.4076C59.3941 77.5104 59.2726 77.5571 59.2446 77.5384C59.2166 77.5291 59.0857 77.4169 58.9455 77.3141L58.6932 77.1085L58.4315 77.3889C57.8613 78.0057 57.8427 78.0338 57.6744 78.0431C57.4127 78.0712 57.3567 78.0244 57.0389 77.5478C56.8707 77.3048 56.7398 77.0992 56.7398 77.0992C56.7398 77.0992 56.6183 77.0805 56.4781 77.0711L56.2164 77.0431L56.0949 77.2954L55.9734 77.5478L55.7584 77.4824C55.5902 77.4263 55.422 77.3609 55.2631 77.2861L54.9827 77.1459V76.6132L57.4688 76.6225L59.9549 76.6318L59.9643 76.8842C59.9736 77.1833 59.983 77.1739 59.5717 77.4076ZM64.2448 75.7253C64.1046 76.258 63.9925 76.6879 63.9925 76.7066C63.8897 76.716 63.7962 76.7253 63.6934 76.716H63.3943L62.9924 77.6973C62.7681 78.2301 62.5625 78.7254 62.5345 78.8002L62.4784 78.931L62.2821 78.6132L62.0859 78.2955V75.7066L62.0111 75.7253C61.8522 75.7626 60.7213 75.9122 60.226 75.9589C58.1791 76.1645 56.1229 76.1178 54.0855 75.8281C53.7583 75.7813 53.478 75.744 53.4686 75.7533C53.4593 75.7626 53.4686 76.3608 53.4873 77.0992L53.5153 78.4263L53.3565 78.6693C53.2724 78.8002 53.1882 78.9123 53.1882 78.9217C53.1602 78.9497 53.0667 78.8002 52.8518 78.3702C52.6181 77.9216 52.4499 77.445 52.3284 76.9496L52.2629 76.6786L51.9732 76.6973L51.6835 76.7253L51.6087 76.3795C51.5713 76.1926 51.5246 75.9028 51.5059 75.744L51.4779 75.4449L51.2349 75.2299C51.0947 75.1084 50.9545 74.9869 50.9264 74.9682C50.8797 74.9308 50.861 74.8654 50.861 74.8093V74.6972L52.0293 74.7065L53.1976 74.7159L53.235 74.8374L53.2723 74.9589L53.6742 74.9776C53.8986 74.9869 54.6089 75.0056 55.2444 75.0243L56.4127 75.0523L56.7118 74.585L57.0202 74.1177H57.4127L57.4034 73.1457L57.394 72.1737L56.88 71.9494C55.2257 71.2204 54.2537 70.3886 53.8892 69.3792C53.8144 69.1735 53.8144 69.0988 53.7957 68.1642C53.7864 67.2389 53.7864 67.1548 53.8518 66.9491C53.9827 66.4818 54.3472 66.1173 54.8145 65.9958C54.9734 65.9491 55.3939 65.9491 57.5997 65.9491L60.1979 65.9584L60.4876 66.0986C60.8335 66.2669 60.9923 66.3884 61.1886 66.6501C61.4129 66.9491 61.4784 67.1828 61.4784 67.7529C61.4784 68.566 61.4223 69.267 61.3382 69.5474C61.2167 69.9306 61.0297 70.2951 60.7961 70.6222C60.3288 71.2204 59.4782 71.8185 58.7025 72.0896L58.4782 72.1737L58.4876 73.155L58.4969 74.1364L58.7025 74.1551L58.9081 74.1738L59.1885 74.5944L59.4596 75.0149H60.712C61.4036 75.0149 62.0111 75.0243 62.0672 75.0336C62.1606 75.0523 62.1793 75.043 62.2728 74.8841L62.3849 74.7159H63.4598C64.2916 74.7159 64.5346 74.7252 64.5346 74.7533C64.5065 74.7439 64.385 75.2019 64.2448 75.7253Z" fill="white"/>
<path d="M82.8623 65.052C82.8436 64.6314 82.8062 64.0426 82.7782 63.7528C82.3763 59.5096 81.2921 56.0422 79.236 52.3691C79.1518 52.2289 79.0771 52.0887 79.0303 51.9766C79.0116 51.9485 79.0023 51.9205 78.9929 51.9018C79.2827 51.0326 80.4697 47.3969 81.4136 43.2378C82.6941 37.5927 83.5072 30.9942 81.0211 29.0128C81.0211 29.0128 76.7218 28.6951 70.9645 34.3402C69.4037 35.901 67.9737 37.5927 66.7026 39.3965L66.3008 39.2657C63.9829 38.5086 61.5809 38.0413 59.1602 37.8824C58.4312 37.8263 55.7115 37.8263 54.8236 37.8824C52.1412 38.06 50.085 38.4619 47.7485 39.275C47.655 39.3124 47.5709 39.3404 47.4868 39.3685C46.1689 37.574 44.7016 35.8917 43.0847 34.3495C37.0937 28.6764 32.6356 29.0035 32.6356 29.0035C29.9999 31.0503 30.8972 37.9479 32.2617 43.7799C33.159 47.6399 34.2618 51.0326 34.6731 52.2569C34.645 52.3224 34.6076 52.3971 34.5703 52.4626C32.3926 56.874 31.215 61.1265 30.9346 65.6501C33.3739 65.2949 40.0939 64.8931 45.1315 70.3139C45.1315 70.3139 48.4588 61.5284 57.4312 61.5284C66.4036 61.5284 68.3195 70.3139 68.3195 70.3139C74.2637 65.4071 80.6659 65.566 82.909 65.7997C82.8997 65.6127 82.881 65.3323 82.8623 65.052ZM36.4395 48.7334C36.4395 48.7334 32.944 39.9947 33.8412 35.0038C33.9908 34.1626 34.2712 33.4243 34.7105 32.8635C34.7105 32.8635 38.6733 33.256 45.0661 40.3592C45.0661 40.3592 43.8511 40.948 42.2248 42.2004C42.2248 42.2004 42.2155 42.2097 42.2061 42.2097C40.4397 43.5649 38.1779 45.7146 36.4395 48.7334ZM51.272 61.7153C51.2159 61.8275 50.9355 61.949 50.6178 61.9957C50.3 62.0425 49.328 62.0144 48.7765 61.949C46.7951 61.6873 44.6922 61.0798 43.1595 60.3321C42.2996 59.9115 41.6827 59.4909 41.2248 59.033L40.9631 58.7619L40.935 58.4068C40.8883 57.7899 40.8977 56.8179 40.9724 56.4721C41.0192 56.1824 41.122 55.902 41.2622 55.6496C41.3369 55.5562 41.3369 55.5562 41.6734 55.5562C42.0846 55.5562 42.4304 55.6216 42.9912 55.7992C44.1408 56.1543 45.8512 57.0142 47.9354 58.2666C49.6551 59.2947 50.3 59.7994 50.7953 60.491C51.1318 60.9209 51.3561 61.5284 51.272 61.7153ZM73.2917 58.6217C73.2637 58.7713 72.8244 59.2199 72.3852 59.547C71.0954 60.491 68.7869 61.3695 66.4409 61.7901C65.1044 62.0331 63.7679 62.0705 63.366 61.8742C63.1043 61.7434 63.067 61.6406 63.1604 61.3041C63.3567 60.6031 63.9922 59.8367 64.9829 59.1171C65.4876 58.7526 67.5345 57.5095 68.4878 56.9861C70.0579 56.1263 71.329 55.6122 72.1889 55.4907C72.4599 55.4534 72.787 55.444 72.8899 55.4907C73.0581 55.5562 73.245 56.0515 73.3198 56.6497C73.3572 56.9675 73.3385 58.3694 73.2917 58.6217ZM71.7403 42.2004L71.7216 42.191C70.1514 40.9386 68.9738 40.3498 68.9738 40.3498C75.1516 33.2467 78.9743 32.8541 78.9743 32.8541C79.3948 33.4243 79.6659 34.1533 79.8154 34.9944C80.6846 39.9853 77.3106 48.7334 77.3106 48.7334C75.8993 46.2193 74.0021 43.9949 71.7403 42.2004Z" fill="#EAEAEA"/>
<path d="M79.8251 34.9943C79.0961 34.9008 75.6473 34.8821 71.7406 42.2002L71.7219 42.1909C70.1517 40.9385 68.9741 40.3497 68.9741 40.3497C75.152 33.2465 78.9746 32.854 78.9746 32.854C79.4045 33.4241 79.6756 34.1531 79.8251 34.9943Z" fill="#EAEAEA"/>
<path d="M77.3199 48.7334C75.8993 46.2099 74.0114 43.9948 71.7402 42.2003C75.647 34.8822 79.0864 34.9009 79.8247 34.9944C80.6939 39.9946 77.3199 48.7334 77.3199 48.7334Z" fill="white"/>
<path d="M79.9649 35.0224C79.9182 35.0131 79.8714 35.0037 79.8247 34.9944L79.9649 35.0224Z" fill="white"/>
<path d="M45.0667 40.3497C45.0667 40.3497 43.8517 40.9385 42.2254 42.1909C42.2254 42.1909 42.2161 42.2002 42.2067 42.2002C38.1598 34.8728 34.5989 34.9008 33.8325 34.9943C33.9821 34.1531 34.2625 33.4148 34.7017 32.854C34.7111 32.854 38.6739 33.2465 45.0667 40.3497Z" fill="#EAEAEA"/>
<path d="M42.2154 42.2003C40.4396 43.5649 38.1778 45.7052 36.4394 48.7334C36.4394 48.7334 32.9439 39.9946 33.8411 34.9944C34.5982 34.9009 38.1684 34.8822 42.2154 42.2003Z" fill="white"/>
<path d="M33.8409 34.9944C33.7942 35.0037 33.7381 35.0131 33.6914 35.0224L33.8409 34.9944Z" fill="white"/>
<path d="M67.8617 53.584C67.8617 53.584 64.8709 53.7709 65.2447 51.4344C65.6186 49.0978 67.9552 48.8174 68.6094 48.9109C69.2636 49.0044 71.8806 49.939 71.4133 51.9017C70.946 53.8644 70.2917 53.4906 69.9179 53.584C69.544 53.6775 67.8617 53.584 67.8617 53.584Z" fill="white"/>
<path d="M45.8046 53.584C45.8046 53.584 42.8138 53.7709 43.1876 51.4344C43.5615 49.0978 45.898 48.8174 46.5523 48.9109C47.2065 49.0044 49.8234 49.939 49.3561 51.9017C48.8888 53.8644 48.2346 53.4906 47.8607 53.584C47.4869 53.6775 45.8046 53.584 45.8046 53.584Z" fill="white"/>
</svg>
