<svg width="113" height="113" viewBox="0 0 113 113" fill="none" xmlns="http://www.w3.org/2000/svg">
<rect width="113" height="113" rx="56.5" fill="#EC255A"/>
<path d="M41.3885 45.8067C40.9866 45.3244 40.4641 45.0833 39.8612 45.0833H27.4019C27.2813 45.0833 27.201 45.0431 27.1206 44.9627C27.0402 44.8823 27 44.8019 27 44.7215V36.3617C27 36.2813 27.0402 36.201 27.1206 36.1206C27.201 36.0402 27.2813 36 27.4019 36H40.5847C43.9206 36 46.7742 37.3665 49.1856 40.0593L52.401 43.9579L46.1713 51.5139L41.4287 45.7665L41.3885 45.8067ZM64.4182 40.0995C66.8297 37.4067 69.7234 36.0804 73.0593 36.0804H86.2019C86.3225 36.0804 86.4029 36.1206 86.4431 36.1608C86.4833 36.201 86.5234 36.2813 86.5234 36.4019V44.7617C86.5234 44.8421 86.4833 44.9225 86.4431 45.0029C86.4029 45.0833 86.3225 45.1234 86.2019 45.1234H73.7426C73.1397 45.1234 72.6172 45.3646 72.2153 45.8469L63.0115 56.9799L72.2555 68.1933C72.6574 68.6354 73.1799 68.8766 73.7426 68.8766H86.2019C86.3225 68.8766 86.4029 68.9167 86.4431 68.9971C86.4833 69.0775 86.5234 69.1579 86.5234 69.2785V77.6383C86.5234 77.7187 86.4833 77.799 86.4431 77.8794C86.4029 77.9598 86.3225 78 86.2019 78H73.0593C69.7234 78 66.8297 76.6335 64.4584 73.9407L56.822 64.6565L49.1856 73.9407C46.7742 76.6335 43.8804 78 40.5445 78H27.4019C27.2813 78 27.201 77.9598 27.1608 77.8794C27.1206 77.799 27.0804 77.7187 27.0804 77.5981V69.2383C27.0804 69.1579 27.1206 69.0775 27.1608 68.9971C27.201 68.9167 27.2813 68.8766 27.4019 68.8766H39.8612C40.4239 68.8766 40.9464 68.6354 41.3885 68.1531L50.3914 57.2211L64.378 40.1799L64.4182 40.0995Z" fill="white"/>
</svg>
