<svg width="113" height="113" viewBox="0 0 113 113" fill="none" xmlns="http://www.w3.org/2000/svg">
<rect width="113" height="113" rx="56.5" fill="#EC255A"/>
<g clip-path="url(#clip0_890_274)">
<path d="M31.7017 72.418C32.1435 71.9747 32.7432 71.7251 33.369 71.7241H90.902C91.1353 71.7237 91.3634 71.7927 91.5575 71.9221C91.7515 72.0516 91.9027 72.2358 91.992 72.4513C92.0812 72.6669 92.1044 72.9041 92.0586 73.1328C92.0129 73.3615 91.9003 73.5716 91.735 73.7362L80.3703 85.1009C80.1513 85.3197 79.8913 85.4932 79.6052 85.6116C79.3191 85.7299 79.0126 85.7907 78.703 85.7905H21.1699C20.9383 85.7891 20.7122 85.7195 20.5199 85.5903C20.3276 85.4612 20.1775 85.2783 20.0885 85.0644C19.9996 84.8505 19.9755 84.6152 20.0194 84.3877C20.0634 84.1603 20.1733 83.9508 20.3356 83.7855L31.7017 72.418Z" fill="white"/>
<path d="M31.7017 29.9845C32.1482 29.5492 32.7454 29.3027 33.369 29.2963H90.902C91.1353 29.296 91.3634 29.3649 91.5575 29.4944C91.7515 29.6239 91.9027 29.8081 91.992 30.0236C92.0812 30.2391 92.1044 30.4763 92.0586 30.7051C92.0129 30.9338 91.9003 31.1438 91.735 31.3085L80.3703 42.6732C80.1513 42.892 79.8913 43.0655 79.6052 43.1838C79.3191 43.3022 79.0126 43.363 78.703 43.3628H21.1699C20.9383 43.3614 20.7122 43.2917 20.5199 43.1626C20.3276 43.0335 20.1775 42.8505 20.0885 42.6367C19.9996 42.4228 19.9755 42.1875 20.0194 41.96C20.0634 41.7326 20.1733 41.5231 20.3356 41.3578L31.7017 29.9845Z" fill="white"/>
<path d="M80.3714 51.0664C80.1524 50.8476 79.8924 50.6741 79.6064 50.5557C79.3203 50.4374 79.0137 50.3766 78.7041 50.3768H21.1711C20.938 50.3768 20.7101 50.446 20.5163 50.5755C20.3225 50.7049 20.1714 50.889 20.0821 51.1043C19.9928 51.3196 19.9694 51.5565 20.0147 51.7852C20.06 52.0138 20.1721 52.2239 20.3367 52.3889L31.7028 63.7536C31.9218 63.9725 32.1817 64.1461 32.4678 64.2644C32.7539 64.3827 33.0605 64.4435 33.3701 64.4432H90.9032C91.1364 64.4436 91.3646 64.3746 91.5586 64.2452C91.7526 64.1157 91.9039 63.9315 91.9931 63.716C92.0823 63.5004 92.1055 63.2632 92.0598 63.0345C92.014 62.8058 91.9014 62.5957 91.7361 62.4311L80.3714 51.0664Z" fill="white"/>
</g>
<defs>
<clipPath id="clip0_890_274">
<rect width="72.0947" height="56.5" fill="white" transform="translate(19.9888 29.2963)"/>
</clipPath>
</defs>
</svg>
