<svg width="113" height="113" viewBox="0 0 113 113" fill="none" xmlns="http://www.w3.org/2000/svg">
<rect width="113" height="113" rx="56.5" fill="#EC255A"/>
<path d="M54.0601 85.2C53.6467 85.2 53.2954 85.0553 53.0061 84.766C52.7167 84.4767 52.5721 84.1253 52.5721 83.712V79.372C49.5134 79.0827 46.9301 78.3593 44.8221 77.202C42.7141 76.0033 41.1227 74.5773 40.0481 72.924C38.9734 71.2293 38.3947 69.4727 38.3121 67.654C38.3121 67.282 38.4361 66.972 38.6841 66.724C38.9734 66.476 39.3041 66.352 39.6761 66.352H45.1941C45.6901 66.352 46.0827 66.476 46.3721 66.724C46.6614 66.9307 46.8887 67.1993 47.0541 67.53C47.3434 68.3153 47.8187 69.1007 48.4801 69.886C49.1827 70.63 50.1541 71.25 51.3941 71.746C52.6341 72.242 54.1841 72.49 56.0441 72.49C59.0201 72.49 61.2314 71.994 62.6781 71.002C64.1247 70.01 64.8481 68.6667 64.8481 66.972C64.8481 65.7733 64.4554 64.8227 63.6701 64.12C62.9261 63.376 61.7274 62.7147 60.0741 62.136C58.4207 61.516 56.2507 60.8753 53.5641 60.214C50.5054 59.47 47.9221 58.5813 45.8141 57.548C43.7061 56.4733 42.1147 55.13 41.0401 53.518C40.0067 51.906 39.4901 49.86 39.4901 47.38C39.4901 44.1973 40.6474 41.49 42.9621 39.258C45.2767 37.026 48.4801 35.662 52.5721 35.166V30.888C52.5721 30.4747 52.7167 30.1233 53.0061 29.834C53.2954 29.5447 53.6467 29.4 54.0601 29.4H57.8421C58.2554 29.4 58.6067 29.5447 58.8961 29.834C59.1854 30.1233 59.3301 30.4747 59.3301 30.888V35.29C62.1407 35.7033 64.4967 36.53 66.3981 37.77C68.2994 39.01 69.7461 40.436 70.7381 42.048C71.7301 43.6187 72.2467 45.148 72.2881 46.636C72.2881 46.9667 72.1641 47.2767 71.9161 47.566C71.7094 47.814 71.3994 47.938 70.9861 47.938H65.2201C64.8481 47.938 64.4967 47.8553 64.1661 47.69C63.8354 47.5247 63.5667 47.2147 63.3601 46.76C63.1534 45.4787 62.3681 44.3833 61.0041 43.474C59.6401 42.5647 57.8627 42.11 55.6721 42.11C53.4401 42.11 51.6421 42.5233 50.2781 43.35C48.9554 44.1767 48.2941 45.458 48.2941 47.194C48.2941 48.3513 48.6247 49.3227 49.2861 50.108C49.9474 50.852 51.0221 51.5133 52.5101 52.092C54.0394 52.6707 56.0647 53.2907 58.5861 53.952C62.0994 54.7373 64.9514 55.6467 67.1421 56.68C69.3741 57.7133 71.0067 59.036 72.0401 60.648C73.1147 62.2187 73.6521 64.2233 73.6521 66.662C73.6521 69.0593 73.0527 71.1673 71.8541 72.986C70.6967 74.7633 69.0434 76.21 66.8941 77.326C64.7447 78.4007 62.2234 79.1033 59.3301 79.434V83.712C59.3301 84.1253 59.1854 84.4767 58.8961 84.766C58.6067 85.0553 58.2554 85.2 57.8421 85.2H54.0601Z" fill="white"/>
</svg>
