<svg width="113" height="113" viewBox="0 0 113 113" fill="none" xmlns="http://www.w3.org/2000/svg">
<rect width="113" height="113" rx="56.5" fill="#EC255A"/>
<path d="M54.1359 81.5C53.7325 81.5 53.4025 81.3717 53.1459 81.115C52.8892 80.8583 52.7609 80.5283 52.7609 80.125V76.33C49.9375 75.9633 47.5725 75.2483 45.6659 74.185C43.7959 73.1217 42.3842 71.8383 41.4309 70.335C40.4775 68.795 39.9642 67.1817 39.8909 65.495C39.8909 65.2017 40.0009 64.945 40.2209 64.725C40.4775 64.4683 40.7709 64.34 41.1009 64.34H48.0309C48.5442 64.34 48.9292 64.4317 49.1859 64.615C49.4425 64.7983 49.6992 65.0367 49.9559 65.33C50.2492 65.88 50.6525 66.4117 51.1659 66.925C51.7159 67.4383 52.4125 67.86 53.2559 68.19C54.1359 68.4833 55.2175 68.63 56.5009 68.63C58.6275 68.63 60.2225 68.3 61.2859 67.64C62.3859 66.98 62.9359 66.0817 62.9359 64.945C62.9359 64.1383 62.6425 63.4783 62.0559 62.965C61.4692 62.415 60.5159 61.9383 59.1959 61.535C57.9125 61.095 56.1892 60.655 54.0259 60.215C51.2392 59.6283 48.8559 58.8767 46.8759 57.96C44.9325 57.0067 43.4475 55.7783 42.4209 54.275C41.3942 52.735 40.8809 50.8283 40.8809 48.555C40.8809 45.6217 41.9259 43.1283 44.0159 41.075C46.1425 39.0217 49.0575 37.7383 52.7609 37.225V33.375C52.7609 32.9717 52.8892 32.6417 53.1459 32.385C53.4025 32.1283 53.7325 32 54.1359 32H58.7009C59.0675 32 59.3792 32.1283 59.6359 32.385C59.9292 32.6417 60.0759 32.9717 60.0759 33.375V37.335C62.6059 37.775 64.7325 38.5633 66.4559 39.7C68.1792 40.8367 69.4809 42.12 70.3609 43.55C71.2775 44.98 71.7542 46.355 71.7909 47.675C71.7909 47.9683 71.6809 48.2433 71.4609 48.5C71.2409 48.72 70.9659 48.83 70.6359 48.83H63.3759C62.9725 48.83 62.6242 48.7567 62.3309 48.61C62.0375 48.4633 61.7809 48.225 61.5609 47.895C61.3409 47.0883 60.7542 46.3917 59.8009 45.805C58.8475 45.1817 57.6192 44.87 56.1159 44.87C54.5392 44.87 53.2925 45.1633 52.3759 45.75C51.4592 46.3 51.0009 47.1617 51.0009 48.335C51.0009 49.0683 51.2392 49.71 51.7159 50.26C52.2292 50.81 53.0725 51.2867 54.2459 51.69C55.4192 52.0933 57.0142 52.515 59.0309 52.955C62.3675 53.5783 65.0625 54.3667 67.1159 55.32C69.1692 56.2367 70.6725 57.4467 71.6259 58.95C72.5792 60.4167 73.0559 62.2683 73.0559 64.505C73.0559 66.6683 72.5059 68.575 71.4059 70.225C70.3425 71.875 68.8392 73.2133 66.8959 74.24C64.9525 75.2667 62.6792 75.945 60.0759 76.275V80.125C60.0759 80.5283 59.9292 80.8583 59.6359 81.115C59.3792 81.3717 59.0675 81.5 58.7009 81.5H54.1359Z" fill="white"/>
</svg>
