<svg width="113" height="113" viewBox="0 0 113 113" fill="none" xmlns="http://www.w3.org/2000/svg">
<rect width="113" height="113" rx="56.5" fill="#EC255A"/>
<g clip-path="url(#clip0_963_514)">
<path fill-rule="evenodd" clip-rule="evenodd" d="M54.9794 49.1349C54.794 49.3202 54.5716 49.4315 54.3121 49.4685C54.0155 49.4685 53.7189 49.3202 53.4964 49.0978C50.3821 44.9825 48.1206 27.9652 54.9053 26.2227C62.3573 24.406 65.4345 34.9723 66.9175 40.0886C67.0287 40.4594 67.1029 40.756 67.2141 41.0526C63.8774 39.0876 60.0216 38.1608 56.1658 38.3832C55.7209 42.3873 55.4243 46.243 55.276 48.5046C55.2389 48.7271 55.1277 48.9495 54.9794 49.1349Z" fill="white"/>
<path fill-rule="evenodd" clip-rule="evenodd" d="M62.5056 50.8771C62.3944 50.7659 62.3203 50.6176 62.2832 50.4693C62.2461 50.321 62.2461 50.1356 62.2832 49.9873C63.4696 44.9822 74.2583 31.7095 80.8947 36.7146C87.1232 41.4231 80.7464 50.5435 77.7433 54.8812C77.558 55.1778 77.3726 55.4373 77.1872 55.6598C76.5569 51.8411 74.8515 48.2819 72.3304 45.353C69.5869 47.0955 67.0287 48.838 65.175 50.0986C64.693 50.4322 64.2481 50.7288 63.8403 51.0254L63.8032 51.0625C63.7291 51.0996 63.692 51.1367 63.6179 51.1367H63.5808C63.4325 51.1737 63.2842 51.2108 63.1359 51.2108C63.0988 51.2108 63.0617 51.2108 63.0247 51.1737H62.9876C62.8022 51.0996 62.6539 50.9884 62.5056 50.8771Z" fill="white"/>
<path fill-rule="evenodd" clip-rule="evenodd" d="M67.14 57.5134L66.7322 57.81L66.5098 58.2549C66.5098 58.292 66.5098 58.3291 66.5098 58.3661V58.4403C66.5098 58.6257 66.5839 58.811 66.6581 58.9964C66.8064 59.2189 67.0288 59.3672 67.2883 59.4042L68.3635 59.7379L68.4377 59.775C70.6251 60.4423 73.7764 61.4063 76.9648 62.5185C76.2975 66.3001 74.555 69.8222 71.9598 72.6399C72.2193 72.6399 72.5159 72.6028 72.8125 72.6028C78.04 72.3062 89.2737 71.676 89.0883 63.8532C88.8658 56.8461 71.7373 55.326 67.14 57.5134Z" fill="white"/>
<path fill-rule="evenodd" clip-rule="evenodd" d="M64.0252 65.8923C64.0993 65.9294 64.1735 65.9294 64.2105 65.9665C68.8449 68.191 79.4112 81.8345 72.9972 87.0991C66.9541 92.0671 59.502 83.6882 56.017 79.7954C55.8316 79.5729 55.6092 79.3505 55.4238 79.128C59.2425 79.3875 63.0612 78.5719 66.435 76.7552C65.1745 73.0477 63.8398 69.6739 62.9871 67.5607L62.8758 67.2641C62.7646 67.0416 62.7646 66.7821 62.8388 66.5226L62.8758 66.4855L62.9129 66.4484L62.95 66.4114C63.0612 66.226 63.2095 66.1148 63.3578 66.0406C63.5061 65.9665 63.6544 65.9294 63.8027 65.9294C63.8398 65.8553 63.9139 65.8923 64.0252 65.8923Z" fill="white"/>
<path fill-rule="evenodd" clip-rule="evenodd" d="M55.7951 68.9698C55.758 68.8215 55.6839 68.6732 55.5727 68.5619C55.4985 68.4507 55.3502 68.3395 55.2019 68.3024C54.9795 68.1912 54.72 68.1912 54.4975 68.3024C54.2751 68.3766 54.0526 68.5249 53.9414 68.7473C52.8291 70.6752 50.9013 74.0119 48.7509 77.4599C45.1917 75.9769 42.1887 73.4929 40.0384 70.3044L39.9271 70.8606L39.8901 71.083C38.9632 76.2364 36.9982 87.3959 44.7098 88.9901C51.5686 90.3248 56.8332 73.9378 55.7951 68.9698Z" fill="white"/>
<path fill-rule="evenodd" clip-rule="evenodd" d="M48.454 63.8533C48.4169 64.0016 48.3428 64.1499 48.2316 64.2612C44.9319 68.2282 28.8415 74.2713 25.6531 68.0799C22.131 61.0357 32.1411 55.5486 36.6642 53.0646C36.8867 52.9534 37.1091 52.8051 37.3316 52.6938C36.2193 56.3642 36.1823 60.2942 37.1833 64.0016C41.2244 63.5567 45.0061 62.9635 47.3047 62.5928C47.5642 62.5557 47.7867 62.6299 48.0091 62.7782C48.2316 62.8894 48.3799 63.1118 48.454 63.3343C48.4911 63.5197 48.4911 63.668 48.454 63.8533Z" fill="white"/>
<path fill-rule="evenodd" clip-rule="evenodd" d="M47.157 55.4003C47.3053 55.4374 47.4907 55.4003 47.639 55.3262C47.7873 55.252 47.8985 55.1037 47.9727 54.9554C48.121 54.7701 48.1951 54.5105 48.158 54.2881C48.121 54.0286 48.0097 53.8061 47.8244 53.6207C46.1931 52.1377 43.3754 49.5425 40.5577 46.6507C42.7822 43.4993 45.8965 41.0895 49.4927 39.7177L48.8254 39.4582C44.0427 37.382 33.4764 32.896 30.2139 40.0885C27.3591 46.5024 42.0407 55.3262 47.157 55.4003Z" fill="white"/>
</g>
<defs>
<clipPath id="clip0_963_514">
<rect width="64.1764" height="63.0641" fill="white" transform="translate(24.9116 26)"/>
</clipPath>
</defs>
</svg>
