<svg width="113" height="113" viewBox="0 0 113 113" fill="none" xmlns="http://www.w3.org/2000/svg">
<rect width="113" height="113" rx="56.5" fill="#EC255A"/>
<g clip-path="url(#clip0_890_281)">
<path d="M81.2501 29.2963H91.1109L70.5897 49.615C63.1581 56.9693 51.1092 56.9693 43.6723 49.615L23.1431 29.2963H33.0119L48.6027 44.7312C50.8743 46.97 53.9356 48.2251 57.125 48.2251C60.3144 48.2251 63.3757 46.97 65.6473 44.7312L81.2501 29.2963Z" fill="white"/>
<path d="M32.8861 85.7962H23.0186L43.673 65.3522C51.1046 57.9979 63.1535 57.9979 70.5905 65.3522L91.245 85.7962H81.3841L65.6601 70.236C63.3885 67.9972 60.3272 66.7422 57.1378 66.7422C53.9483 66.7422 50.887 67.9972 48.6154 70.236L32.8861 85.7962Z" fill="white"/>
</g>
<defs>
<clipPath id="clip0_890_281">
<rect width="68.2264" height="56.5" fill="white" transform="translate(21.7944 29.2963)"/>
</clipPath>
</defs>
</svg>
