<svg width="54" height="54" viewBox="0 0 54 54" fill="none" xmlns="http://www.w3.org/2000/svg">
<path d="M54 6L48 0H0V48L6 54H54V6Z" fill="url(#paint0_linear_204_148)"/>
<path d="M27.1863 12.0917C26.4548 11.7104 25.5625 12.595 25.951 13.3255C26.1766 13.9209 27.0321 14.0793 27.4691 13.6254C27.9321 13.1898 27.7811 12.3287 27.1863 12.0916M35.0509 12.9394C34.6067 12.7566 34.0444 13.1636 34.0897 13.6477C34.0426 14.1733 34.6852 14.5601 35.138 14.3103C35.7379 14.078 35.6693 13.1042 35.0514 12.9395M18.9434 14.3254C19.6375 14.2416 19.7474 13.1502 19.0791 12.9305C18.5607 12.6777 18.0852 13.1519 18.0093 13.6427C18.118 14.0622 18.4693 14.4463 18.9429 14.3251M33.2616 16.2869C32.519 15.8172 31.4593 16.5167 31.5736 17.3792C31.6121 18.2501 32.7689 18.7547 33.4214 18.1659C34.0525 17.7034 33.9569 16.6424 33.2614 16.2868M21.9249 16.7851C21.5936 15.9312 20.2511 15.9054 19.874 16.737C19.5013 17.3838 19.9598 18.1848 20.6239 18.4047C21.5035 18.5689 22.3391 17.618 21.9249 16.7854M28.1334 18.356C28.1406 17.6221 27.4721 17.0753 26.7746 17.0252C26.312 17.118 25.8078 17.3151 25.6093 17.7819C25.2395 18.4258 25.5679 19.3121 26.2361 19.6082C26.5418 19.7795 26.9031 19.7152 27.2359 19.6948C27.7447 19.4446 28.1731 18.9552 28.1334 18.3555M39.83 19.4254C39.1516 19.0084 38.2364 19.7695 38.4932 20.5064C38.6346 21.1438 39.4914 21.4031 39.9813 20.9962C40.5042 20.6145 40.4217 19.6982 39.83 19.4254M14.7142 19.4241C14.1387 18.9772 13.1889 19.4898 13.2575 20.2165C13.219 20.8792 14.04 21.3789 14.6113 21.0377C15.2405 20.7548 15.3043 19.7865 14.7141 19.4242M24.8447 20.7434C23.8949 20.4022 22.7668 20.8107 22.2254 21.6577C21.5113 22.6929 21.8913 24.2693 22.9994 24.8633C24.1477 25.5659 25.8242 24.9703 26.2484 23.6881C26.7296 22.5402 26.0285 21.1036 24.8447 20.7438M30.4171 20.8567C29.3645 20.3598 27.9479 20.7768 27.4395 21.8535C26.8411 22.9016 27.3038 24.361 28.373 24.9021C29.4441 25.5103 30.9551 25.0492 31.4735 23.924C32.0547 22.8358 31.5385 21.3578 30.4166 20.8567M35.997 22.7639C35.917 22.0857 35.2772 21.6444 34.6317 21.5987C34.2927 21.6368 33.9767 21.789 33.7357 22.0304C33.4946 22.2717 33.3427 22.5878 33.305 22.9268C33.3506 23.6236 33.8891 24.3047 34.6274 24.3005C35.4398 24.3704 36.1521 23.5622 35.9969 22.7641M19.5161 21.7463C18.6821 21.2609 17.5239 21.9677 17.561 22.9258C17.5039 23.9409 18.7856 24.6564 19.6161 24.0609C20.4788 23.5651 20.4116 22.1686 19.5161 21.7464M32.685 25.3242C31.7096 25.0558 30.5942 25.5156 30.1153 26.4118C29.5913 27.3142 29.8055 28.5676 30.6194 29.2299C31.6633 30.2008 33.5885 29.811 34.1441 28.486C34.7826 27.2713 34.0071 25.6435 32.6846 25.3238M22.115 25.3188C21.1668 25.0476 20.0528 25.4131 19.543 26.277C18.8693 27.265 19.1907 28.7387 20.1941 29.376C21.2452 30.1156 22.8733 29.7273 23.4518 28.5709C24.153 27.3747 23.4474 25.6842 22.115 25.3193M38.9583 26.4468C38.1157 26.128 37.1817 27.0579 37.5231 27.8932C37.7315 28.6543 38.8042 28.9356 39.3582 28.3744C40.0066 27.8473 39.7668 26.6749 38.9583 26.4468ZM16.12 27.6594C16.138 27.3208 16.0218 26.9888 15.7968 26.7352C15.5718 26.4816 15.2559 26.3268 14.9176 26.3043C14.3401 26.3958 13.7794 26.8613 13.825 27.4895C13.7722 28.3192 14.7719 28.8831 15.4788 28.4933C15.8101 28.3249 15.9801 27.985 16.12 27.6594M43.1014 26.8562C42.5945 26.6348 41.9675 27.0743 42.0831 27.6372C42.1103 28.2746 43.0513 28.5198 43.3971 27.9871C43.7026 27.6173 43.5198 27.047 43.1014 26.8562V26.8562ZM11.1385 26.8435C10.7815 26.5893 10.2089 26.772 10.0674 27.189C9.82758 27.6444 10.2674 28.2685 10.7796 28.1915C11.4992 28.257 11.7324 27.1603 11.1381 26.8435M29.9308 29.9033C28.5969 29.5569 27.163 30.6688 27.1546 32.0422C27.068 33.4301 28.4798 34.6609 29.8452 34.3403C30.9007 34.1703 31.7289 33.1536 31.6946 32.0872C31.685 31.5789 31.5065 31.0884 31.1871 30.6929C30.8677 30.2975 30.4256 30.0196 29.9308 29.9033M24.6481 29.9004C23.2943 29.522 21.8176 30.6543 21.839 32.0595C21.7676 33.4219 23.1357 34.6111 24.4726 34.3405C25.7307 34.1778 26.659 32.7955 26.3078 31.5747C26.2101 31.1707 26.0039 30.8012 25.7114 30.506C25.4188 30.2108 25.0511 30.0013 24.6481 29.9001M34.8339 30.7459C33.897 30.5861 33.0186 31.6314 33.3986 32.5208C33.6757 33.4687 35.0552 33.7259 35.6652 32.9516C36.3807 32.208 35.8465 30.8486 34.8339 30.7459M19.3416 30.7877C18.5062 30.4378 17.4808 31.1604 17.5451 32.0671C17.5115 33.0653 18.777 33.7535 19.5945 33.171C20.5197 32.6479 20.3513 31.1087 19.3416 30.7878M15.0114 35.1311C15.3386 34.5213 14.7443 33.7132 14.0674 33.8261C13.7305 33.8204 13.4947 34.0859 13.2789 34.3086C13.2347 34.6699 13.1604 35.1011 13.4603 35.3795C13.8676 35.895 14.7901 35.7479 15.0114 35.1311ZM39.8323 33.9955C39.1996 33.5742 38.2891 34.2025 38.4313 34.9422C38.507 35.5967 39.3311 35.9704 39.8739 35.5991C40.4564 35.2622 40.435 34.3026 39.8323 33.9954M27.3323 35.3652C26.5039 34.9995 25.4486 35.7213 25.5271 36.6332C25.4657 37.6413 26.771 38.3395 27.5808 37.7341C28.4804 37.2144 28.3305 35.6849 27.3323 35.3652M33.1219 36.7159C32.4164 36.3446 31.4696 36.9853 31.5339 37.7754C31.5124 38.4238 32.1451 38.9763 32.7851 38.8805C33.315 38.8692 33.6609 38.394 33.8304 37.9424C33.8217 37.45 33.6187 36.9017 33.1221 36.716M21.3943 36.7273C20.6688 36.2789 19.6377 36.9229 19.7063 37.7673C19.6877 38.6498 20.853 39.2151 21.5285 38.6354C22.183 38.181 22.1027 37.0886 21.3944 36.7273M19.3549 41.7693C19.6776 41.2809 19.2977 40.6927 18.7737 40.5812C18.3524 40.667 17.9068 40.9838 17.9954 41.4724C18.0568 42.1334 19.0236 42.3362 19.355 41.7693M35.544 41.3451C35.4156 40.9581 35.1042 40.5734 34.649 40.6741C33.9849 40.7213 33.7878 41.7222 34.369 42.0311C34.8917 42.3836 35.4981 41.9009 35.5444 41.3456M27.734 41.7897C27.6068 41.2171 26.8657 40.9387 26.377 41.2428C26.0543 41.3814 25.9599 41.7425 25.8771 42.0495C25.9213 42.2094 25.9609 42.3694 25.9999 42.5293C26.1999 42.7663 26.4568 43.0034 26.7896 42.9948C27.4081 43.0673 27.966 42.3681 27.7337 41.7897" fill="white"/>
<defs>
<linearGradient id="paint0_linear_204_148" x1="0" y1="0" x2="54" y2="54" gradientUnits="userSpaceOnUse">
<stop stop-color="#F65200"/>
<stop offset="1" stop-color="#FE9000"/>
</linearGradient>
</defs>
</svg>
