<svg width="100" height="100" viewBox="0 0 100 100" fill="none" xmlns="http://www.w3.org/2000/svg">
<circle cx="50" cy="50" r="37" fill="#3EE6C4"/>
<circle cx="49.8472" cy="50.1504" r="31.435" fill="white"/>
<path d="M42.6529 35.8775C43.5887 36.1329 44.5245 36.3032 45.4604 36.5586C46.3962 36.814 47.332 36.9843 48.2678 37.2397C48.523 37.3249 48.6081 37.2397 48.6932 36.9843C49.0335 35.537 49.3737 34.1748 49.714 32.7274C49.7991 32.472 49.8842 32.3869 50.1394 32.472C50.9901 32.7274 51.7558 32.8977 52.6065 33.068C52.8618 33.1531 52.8618 33.2382 52.7767 33.4085C52.4364 34.7707 52.0961 36.2181 51.7558 37.5803C51.7558 37.6654 51.7558 37.7505 51.6707 37.9208C52.3513 38.0911 53.117 38.2614 53.7976 38.4317C53.8827 38.4317 53.9677 38.2614 54.0528 38.1762C54.308 37.0694 54.5632 36.0478 54.9035 34.941L55.1588 33.9193C55.1588 33.7491 55.2438 33.6639 55.414 33.7491C56.2647 34.0045 57.1155 34.1748 58.0513 34.4302C58.1363 34.4302 58.1363 34.5153 58.2214 34.5153C57.9662 35.6221 57.711 36.6438 57.4557 37.6654C57.3707 38.0911 57.2856 38.5168 57.1154 38.9425C57.0304 39.1979 57.1155 39.283 57.3707 39.3682L60.1781 40.6452C61.0288 41.1561 61.7945 41.8372 62.39 42.6886C63.1557 43.9656 63.2408 45.3278 62.9005 46.69C62.6452 47.6266 62.3049 48.4779 61.6244 49.159C61.1139 49.6699 60.4333 50.0104 59.7527 50.2658C59.6677 50.2658 59.5826 50.351 59.4124 50.351C59.7527 50.6064 60.093 50.7767 60.4333 51.0321C61.4542 51.7983 62.1348 52.7348 62.4751 53.9268C62.6452 54.8633 62.5602 55.885 62.3049 56.8215C61.9646 58.0134 61.5393 59.0351 60.7736 59.9716C59.8378 61.0784 58.6468 61.6743 57.2856 61.8446C55.499 62.1 53.7976 61.9298 52.0961 61.6743C51.8409 61.5892 51.6707 61.6743 51.5857 61.9298C51.2454 63.292 50.9051 64.7393 50.5648 66.1015C50.4797 66.4421 50.4797 66.5272 50.0543 66.3569C49.2887 66.1867 48.4379 65.9312 47.6723 65.761C47.4171 65.6758 47.4171 65.5907 47.5021 65.4204C47.8424 63.9731 48.1827 62.5257 48.6081 61.1635C48.6081 60.9932 48.6932 60.9081 48.523 60.823C47.8424 60.6527 47.1618 60.4824 46.3962 60.3121C46.226 61.0784 45.9708 61.8446 45.8007 62.6109C45.6305 63.3771 45.3753 64.1433 45.2051 64.9096C45.1201 65.0799 45.1201 65.165 44.8648 65.0799C44.0141 64.8244 43.1634 64.6542 42.3126 64.4839C42.0574 64.3988 42.0574 64.3136 42.1425 64.1433C42.4828 62.696 42.8231 61.2487 43.2484 59.8864C43.2484 59.8013 43.3335 59.7162 43.3335 59.5459C41.3768 59.0351 39.4201 58.5242 37.3784 58.0134C37.5485 57.6729 37.6336 57.4174 37.8037 57.0769C38.144 56.3106 38.4843 55.5444 38.7395 54.8633C38.8246 54.6079 38.9097 54.6079 39.1649 54.6079C39.7604 54.7782 40.441 54.9484 41.0365 55.0336C41.7171 55.2038 42.2276 54.8633 42.3126 54.2673C43.4186 49.9253 44.5245 45.5833 45.5454 41.1561C45.7156 40.475 45.2902 39.7087 44.5245 39.4533C43.7589 39.1979 42.9932 39.0276 42.3126 38.8573C42.1425 38.8573 42.0574 38.7722 42.1425 38.6019C42.3977 37.6654 42.6529 36.6438 42.9081 35.7072C42.5679 35.9627 42.5679 35.9626 42.6529 35.8775V35.8775ZM46.9917 56.9066C47.0768 56.9066 47.1618 56.9917 47.1618 56.9917C48.523 57.3323 49.9693 57.758 51.4155 57.8431C52.4364 57.9283 53.3722 57.9283 54.308 57.5877C55.9244 57.0769 56.605 54.9484 55.6692 53.5862C55.2438 52.9051 54.5632 52.4794 53.8826 52.0537C52.3513 51.2024 50.5648 50.8618 48.8633 50.5213C48.6081 50.4361 48.6081 50.5213 48.523 50.7767C48.3529 51.6281 48.0976 52.3943 47.9275 53.2457C47.5872 54.4376 47.332 55.6295 46.9917 56.9066ZM54.1379 48.2225C54.308 48.2225 54.7334 48.1374 55.0737 48.0523C56.6901 47.7117 57.5408 45.8387 56.6901 44.3913C56.2647 43.6251 55.499 43.1142 54.7334 42.7737C53.5424 42.2629 52.3513 42.0075 51.0752 41.6669C50.82 41.5818 50.7349 41.6669 50.6499 41.9223C50.2245 43.7102 49.7991 45.413 49.2887 47.2009C49.2036 47.3711 49.2887 47.4563 49.4588 47.5414C49.7991 47.6266 50.0543 47.7117 50.3946 47.7968C51.6707 47.9671 52.7767 48.2225 54.1379 48.2225Z" fill="white"/>
<g clip-path="url(#clip0_2_20)">
<path d="M50 77C35.0883 77 23 64.9117 23 50C23 35.0883 35.0883 23 50 23C64.9117 23 77 35.0883 77 50C77 64.9117 64.9117 77 50 77Z" fill="#006CC4"/>
<path d="M50.4199 33.12C49.6183 32.7022 48.6404 33.6715 49.0662 34.472C49.3134 35.1246 50.2509 35.2982 50.7298 34.8007C51.2372 34.3233 51.0718 33.3797 50.4199 33.1199M59.0384 34.049C58.5517 33.8486 57.9354 34.2946 57.9851 34.8251C57.9334 35.4011 58.6377 35.825 59.1339 35.5513C59.7913 35.2967 59.7161 34.2296 59.039 34.0491M41.3868 35.5679C42.1474 35.476 42.2679 34.28 41.5355 34.0392C40.9674 33.7621 40.4463 34.2818 40.3632 34.8197C40.4823 35.2794 40.8672 35.7003 41.3862 35.5674M57.0776 37.7173C56.2638 37.2026 55.1026 37.9692 55.2277 38.9144C55.2699 39.8688 56.5377 40.4217 57.2528 39.7765C57.9443 39.2697 57.8396 38.1069 57.0774 37.7172M44.6541 38.2633C44.2911 37.3276 42.8199 37.2993 42.4067 38.2106C41.9982 38.9194 42.5006 39.7972 43.2284 40.0382C44.1923 40.2181 45.108 39.1761 44.6541 38.2636M51.4578 39.9848C51.4657 39.1806 50.7331 38.5813 49.9688 38.5265C49.4618 38.6281 48.9092 38.8441 48.6917 39.3557C48.2864 40.0614 48.6464 41.0326 49.3787 41.357C49.7136 41.5448 50.1096 41.4743 50.4743 41.452C51.0318 41.1777 51.5013 40.6414 51.4578 39.9843M64.2757 41.1568C63.5323 40.6998 62.5293 41.5338 62.8107 42.3414C62.9657 43.0399 63.9047 43.324 64.4415 42.8781C65.0145 42.4598 64.9241 41.4557 64.2757 41.1568M36.7522 41.1553C36.1215 40.6656 35.0806 41.2273 35.1558 42.0237C35.1136 42.7499 36.0133 43.2975 36.6394 42.9236C37.329 42.6136 37.3988 41.5525 36.7521 41.1554M47.8538 42.601C46.8129 42.2272 45.5767 42.6749 44.9835 43.603C44.2009 44.7374 44.6173 46.465 45.8316 47.116C47.09 47.8859 48.9273 47.2332 49.3921 45.8281C49.9194 44.5701 49.1511 42.9958 47.8538 42.6016M53.9604 42.7253C52.8069 42.1808 51.2545 42.6377 50.6973 43.8176C50.0416 44.9662 50.5486 46.5655 51.7204 47.1585C52.8941 47.825 54.55 47.3197 55.1181 46.0866C55.755 44.894 55.1894 43.2744 53.9599 42.7253M60.0752 44.8153C59.9876 44.072 59.2864 43.5884 58.579 43.5383C58.2075 43.5801 57.8613 43.747 57.5971 44.0114C57.333 44.2759 57.1665 44.6223 57.1251 44.9938C57.1751 45.7574 57.7652 46.5038 58.5744 46.4992C59.4646 46.5758 60.2452 45.6901 60.0751 44.8155M42.0144 43.7001C41.1004 43.1682 39.8312 43.9427 39.8719 44.9927C39.8093 46.1051 41.2139 46.8892 42.124 46.2367C43.0694 45.6933 42.9957 44.1629 42.0144 43.7002M56.4457 47.621C55.3768 47.3269 54.1545 47.8308 53.6297 48.8128C53.0554 49.8018 53.2902 51.1753 54.1821 51.9012C55.326 52.9651 57.4358 52.538 58.0447 51.0859C58.7444 49.7548 57.8945 47.971 56.4453 47.6206M44.8625 47.6151C43.8233 47.3179 42.6025 47.7185 42.0438 48.6652C41.3056 49.7479 41.6578 51.3629 42.7574 52.0613C43.9093 52.8718 45.6935 52.4462 46.3273 51.1789C47.0958 49.8681 46.3226 48.0155 44.8624 47.6157M63.3205 48.8512C62.3971 48.5019 61.3735 49.521 61.7476 50.4363C61.9761 51.2704 63.1515 51.5786 63.7587 50.9637C64.4692 50.386 64.2064 49.1012 63.3205 48.8512ZM38.2927 50.1801C38.3124 49.8091 38.1852 49.4452 37.9385 49.1673C37.6919 48.8894 37.3458 48.7197 36.975 48.6951C36.3422 48.7953 35.7277 49.3055 35.7777 49.9939C35.7198 50.9031 36.8154 51.5211 37.5901 51.0939C37.9531 50.9094 38.1394 50.5369 38.2927 50.1801M67.8607 49.2999C67.3052 49.0573 66.6181 49.5389 66.7448 50.1558C66.7746 50.8543 67.8058 51.1229 68.1848 50.5393C68.5196 50.1339 68.3192 49.5089 67.8607 49.2999V49.2999ZM32.8337 49.286C32.4425 49.0074 31.815 49.2076 31.6599 49.6646C31.3971 50.1637 31.8791 50.8475 32.4404 50.7632C33.229 50.835 33.4845 49.6332 32.8333 49.286M53.4275 52.6391C51.9657 52.2595 50.3943 53.4779 50.3851 54.9831C50.2902 56.504 51.8373 57.8528 53.3337 57.5015C54.4904 57.3152 55.398 56.201 55.3604 55.0323C55.3499 54.4754 55.1542 53.9378 54.8042 53.5044C54.4542 53.071 53.9698 52.7666 53.4275 52.6391M47.6384 52.636C46.1548 52.2213 44.5365 53.4621 44.56 55.0021C44.4817 56.495 45.981 57.7983 47.4461 57.5017C48.8247 57.3233 49.8421 55.8086 49.4571 54.4707C49.3502 54.028 49.1242 53.623 48.8036 53.2996C48.483 52.9761 48.08 52.7465 47.6383 52.6356M58.8006 53.5625C57.774 53.3873 56.8114 54.5328 57.2278 55.5076C57.5314 56.5463 59.0432 56.8282 59.7116 55.9797C60.4957 55.1647 59.9104 53.6751 58.8006 53.5625M41.8232 53.6083C40.9077 53.2248 39.784 54.0168 39.8544 55.0104C39.8176 56.1042 41.2044 56.8584 42.1003 56.22C43.1142 55.6468 42.9297 53.96 41.8232 53.6084M37.0778 58.3681C37.4364 57.6999 36.7852 56.8142 36.0433 56.9379C35.6742 56.9317 35.4158 57.2227 35.1793 57.4668C35.1308 57.8627 35.0494 58.3352 35.378 58.6403C35.8244 59.2052 36.8354 59.0441 37.0778 58.3681ZM64.2782 57.1236C63.5849 56.6619 62.587 57.3504 62.7429 58.1611C62.8258 58.8783 63.729 59.2878 64.3238 58.8809C64.9622 58.5117 64.9387 57.4601 64.2782 57.1235M50.5798 58.6246C49.6721 58.2238 48.5156 59.0148 48.6017 60.0141C48.5344 61.1189 49.9648 61.884 50.8523 61.2206C51.8381 60.6511 51.6738 58.975 50.5798 58.6246M56.9245 60.1047C56.1513 59.698 55.1138 60.4001 55.1843 61.2659C55.1608 61.9764 55.8541 62.5819 56.5554 62.4769C57.1361 62.4645 57.5152 61.9438 57.701 61.4489C57.6914 60.9093 57.469 60.3084 56.9247 60.1049M44.0726 60.1173C43.2776 59.6259 42.1476 60.3316 42.2228 61.257C42.2025 62.2241 43.4795 62.8436 44.2198 62.2083C44.937 61.7103 44.849 60.5132 44.0727 60.1173M41.8378 65.6426C42.1914 65.1075 41.7751 64.4628 41.2008 64.3407C40.7391 64.4347 40.2508 64.7819 40.3479 65.3172C40.4152 66.0417 41.4747 66.2639 41.8379 65.6426M59.5789 65.1778C59.4381 64.7537 59.0969 64.3321 58.598 64.4425C57.8703 64.4941 57.6543 65.591 58.2912 65.9296C58.864 66.3158 59.5286 65.7869 59.5793 65.1783M51.0201 65.665C50.8807 65.0375 50.0685 64.7324 49.533 65.0657C49.1793 65.2176 49.076 65.6133 48.9852 65.9497C49.0337 66.1249 49.077 66.3003 49.1197 66.4755C49.3389 66.7353 49.6205 66.995 49.9852 66.9856C50.663 67.065 51.2744 66.2988 51.0198 65.6651" fill="white"/>
</g>
<defs>
<clipPath id="clip0_2_20">
<rect width="54" height="54" fill="white" transform="matrix(-1 0 0 1 77 23)"/>
</clipPath>
</defs>
</svg>
