<svg width="100" height="100" viewBox="0 0 100 100" fill="none" xmlns="http://www.w3.org/2000/svg">
<circle cx="50" cy="50" r="37" fill="#3EE6C4"/>
<circle cx="49.8472" cy="50.1504" r="31.435" fill="white"/>
<g clip-path="url(#clip0_1_3)">
<path d="M49.5981 76.9937C64.4923 76.9937 76.5665 64.9104 76.5665 50.0049C76.5665 35.0995 64.4923 23.0162 49.5981 23.0162C34.7039 23.0162 22.6298 35.0995 22.6298 50.0049C22.6298 64.9104 34.7039 76.9937 49.5981 76.9937Z" fill="#F5B300"/>
<path d="M42.2832 36.2126C43.219 36.468 44.1549 36.6383 45.0907 36.8937C46.0265 37.1491 46.9623 37.3194 47.8981 37.5748C48.1533 37.6599 48.2384 37.5748 48.3235 37.3194C48.6638 35.872 49.0041 34.5098 49.3443 33.0625C49.4294 32.8071 49.5145 32.7219 49.7697 32.8071C50.6205 33.0625 51.3861 33.2328 52.2369 33.403C52.4921 33.4882 52.4921 33.5733 52.407 33.7436C52.0667 35.1058 51.7264 36.5531 51.3861 37.9154C51.3861 38.0005 51.3861 38.0856 51.301 38.2559C51.9816 38.4262 52.7473 38.5965 53.4279 38.7667C53.513 38.7667 53.598 38.5965 53.6831 38.5113C53.9383 37.4045 54.1935 36.3829 54.5338 35.2761L54.7891 34.2544C54.7891 34.0841 54.8741 33.999 55.0443 34.0841C55.895 34.3396 56.7458 34.5098 57.6816 34.7652C57.7666 34.7652 57.7666 34.8504 57.8517 34.8504C57.5965 35.9572 57.3413 36.9788 57.0861 38.0005C57.001 38.4262 56.9159 38.8519 56.7458 39.2776C56.6607 39.533 56.7458 39.6181 57.001 39.7033L59.8084 40.9803C60.6591 41.4912 61.4248 42.1723 62.0203 43.0236C62.786 44.3007 62.8711 45.6629 62.5308 47.0251C62.2756 47.9616 61.9353 48.813 61.2547 49.4941C60.7442 50.005 60.0636 50.3455 59.383 50.6009C59.298 50.6009 59.2129 50.6861 59.0427 50.6861C59.383 50.9415 59.7233 51.1118 60.0636 51.3672C61.0845 52.1334 61.7651 53.0699 62.1054 54.2619C62.2755 55.1984 62.1905 56.22 61.9353 57.1566C61.595 58.3485 61.1696 59.3701 60.4039 60.3067C59.4681 61.4135 58.2771 62.0094 56.9159 62.1797C55.1294 62.4351 53.4279 62.2648 51.7264 62.0094C51.4712 61.9243 51.301 62.0094 51.216 62.2648C50.8757 63.6271 50.5354 65.0744 50.1951 66.4366C50.11 66.7772 50.11 66.8623 49.6846 66.692C48.919 66.5217 48.0682 66.2663 47.3026 66.0961C47.0474 66.0109 47.0474 65.9258 47.1324 65.7555C47.4727 64.3082 47.813 62.8608 48.2384 61.4986C48.2384 61.3283 48.3235 61.2432 48.1533 61.158C47.4727 60.9878 46.7921 60.8175 46.0265 60.6472C45.8563 61.4135 45.6011 62.1797 45.431 62.9459C45.2608 63.7122 45.0056 64.4784 44.8354 65.2447C44.7504 65.415 44.7504 65.5001 44.4952 65.4149C43.6444 65.1595 42.7937 64.9893 41.9429 64.819C41.6877 64.7338 41.6877 64.6487 41.7728 64.4784C42.1131 63.0311 42.4534 61.5837 42.8788 60.2215C42.8788 60.1364 42.9638 60.0513 42.9638 59.881C41.0071 59.3701 39.0504 58.8593 37.0087 58.3485C37.1788 58.0079 37.2639 57.7525 37.434 57.412C37.7743 56.6457 38.1146 55.8795 38.3698 55.1984C38.4549 54.943 38.54 54.943 38.7952 54.943C39.3907 55.1132 40.0713 55.2835 40.6668 55.3687C41.3474 55.5389 41.8579 55.1984 41.9429 54.6024C43.0489 50.2604 44.1549 45.9183 45.1757 41.4912C45.3459 40.8101 44.9205 40.0438 44.1549 39.7884C43.3892 39.533 42.6235 39.3627 41.9429 39.1924C41.7728 39.1924 41.6877 39.1073 41.7728 38.937C42.028 38.0005 42.2832 36.9788 42.5385 36.0423C42.1982 36.2977 42.1982 36.2977 42.2832 36.2126ZM46.622 57.2417C46.7071 57.2417 46.7921 57.3268 46.7921 57.3268C48.1533 57.6674 49.5996 58.0931 51.0458 58.1782C52.0667 58.2634 53.0025 58.2634 53.9383 57.9228C55.5547 57.412 56.2353 55.2835 55.2995 53.9213C54.8741 53.2402 54.1935 52.8145 53.513 52.3888C51.9816 51.5374 50.1951 51.1969 48.4936 50.8563C48.2384 50.7712 48.2384 50.8563 48.1533 51.1118C47.9832 51.9631 47.7279 52.7294 47.5578 53.5808C47.2175 54.7727 46.9623 55.9646 46.622 57.2417ZM53.7682 48.5576C53.9383 48.5576 54.3637 48.4725 54.704 48.3873C56.3204 48.0468 57.1711 46.1737 56.3204 44.7264C55.895 43.9602 55.1294 43.4493 54.3637 43.1088C53.1727 42.5979 51.9816 42.3425 50.7055 42.002C50.4503 41.9168 50.3652 42.002 50.2802 42.2574C49.8548 44.0453 49.4294 45.7481 48.919 47.536C48.8339 47.7062 48.919 47.7914 49.0891 47.8765C49.4294 47.9616 49.6846 48.0468 50.0249 48.1319C51.301 48.3022 52.407 48.5576 53.7682 48.5576Z" fill="white"/>
</g>
<defs>
<clipPath id="clip0_1_3">
<rect width="54.4472" height="55.3397" fill="white" transform="translate(22.6298 22.3351)"/>
</clipPath>
</defs>
</svg>
