<svg width="54" height="54" viewBox="0 0 54 54" fill="none" xmlns="http://www.w3.org/2000/svg">
<path d="M54 6L48 0H0V48L6 54H54V6Z" fill="url(#paint0_linear_204_142)"/>
<path d="M19.513 15.9318C20.3137 16.1496 21.1144 16.2948 21.9151 16.5127C22.7158 16.7305 23.5165 16.8757 24.3172 17.0936C24.5356 17.1662 24.6084 17.0936 24.6812 16.8757C24.9723 15.6413 25.2635 14.4795 25.5547 13.2451C25.6275 13.0272 25.7002 12.9546 25.9186 13.0272C26.6465 13.2451 27.3016 13.3903 28.0296 13.5355C28.2479 13.6081 28.2479 13.6808 28.1751 13.826C27.884 14.9878 27.5928 16.2222 27.3016 17.384C27.3016 17.4567 27.3016 17.5293 27.2289 17.6745C27.8112 17.8197 28.4663 17.9649 29.0486 18.1102C29.1214 18.1102 29.1942 17.9649 29.267 17.8923C29.4854 16.9484 29.7037 16.077 29.9949 15.133L30.2133 14.2617C30.2133 14.1164 30.2861 14.0438 30.4316 14.1164C31.1596 14.3343 31.8875 14.4795 32.6882 14.6973C32.761 14.6973 32.761 14.77 32.8337 14.77C32.6154 15.7139 32.397 16.5853 32.1786 17.4567C32.1058 17.8197 32.033 18.1828 31.8875 18.5459C31.8147 18.7637 31.8875 18.8363 32.1058 18.9089L34.5079 19.9981C35.2358 20.4338 35.891 21.0147 36.4005 21.7408C37.0556 22.83 37.1284 23.9919 36.8372 25.1537C36.6189 25.9524 36.3277 26.6786 35.7454 27.2595C35.3086 27.6951 34.7263 27.9856 34.144 28.2034C34.0712 28.2034 33.9984 28.2761 33.8528 28.2761C34.144 28.4939 34.4351 28.6391 34.7263 28.857C35.5998 29.5105 36.1821 30.3092 36.4733 31.3258C36.6189 32.1246 36.5461 32.9959 36.3277 33.7947C36.0365 34.8113 35.6726 35.6826 35.0175 36.4814C34.2168 37.4254 33.1977 37.9336 32.033 38.0789C30.5044 38.2967 29.0486 38.1515 27.5928 37.9336C27.3744 37.861 27.2289 37.9336 27.1561 38.1515C26.8649 39.3133 26.5737 40.5477 26.2826 41.7095C26.2098 42 26.2098 42.0726 25.8458 41.9274C25.1907 41.7822 24.4628 41.5643 23.8077 41.4191C23.5893 41.3465 23.5893 41.2739 23.6621 41.1286C23.9533 39.8942 24.2444 38.6598 24.6084 37.498C24.6084 37.3527 24.6812 37.2801 24.5356 37.2075C23.9533 37.0623 23.3709 36.9171 22.7158 36.7718C22.5702 37.4254 22.3519 38.0789 22.2063 38.7324C22.0607 39.3859 21.8423 40.0394 21.6968 40.693C21.624 40.8382 21.624 40.9108 21.4056 40.8382C20.6777 40.6203 19.9498 40.4751 19.2219 40.3299C19.0035 40.2573 19.0035 40.1847 19.0763 40.0394C19.3674 38.805 19.6586 37.5706 20.0226 36.4088C20.0226 36.3362 20.0954 36.2635 20.0954 36.1183C18.4212 35.6826 16.747 35.2469 15 34.8113C15.1456 34.5208 15.2184 34.303 15.364 34.0125C15.6551 33.359 15.9463 32.7055 16.1647 32.1246C16.2374 31.9067 16.3102 31.9067 16.5286 31.9067C17.0381 32.052 17.6205 32.1972 18.13 32.2698C18.7123 32.415 19.1491 32.1246 19.2219 31.6163C20.1681 27.913 21.1144 24.2097 21.9879 20.4338C22.1335 19.8529 21.7695 19.1994 21.1144 18.9815C20.4593 18.7637 19.8042 18.6185 19.2219 18.4732C19.0763 18.4732 19.0035 18.4006 19.0763 18.2554C19.2947 17.4567 19.513 16.5853 19.7314 15.7865C19.4402 16.0044 19.4402 16.0044 19.513 15.9318ZM23.2254 33.8673C23.2982 33.8673 23.3709 33.9399 23.3709 33.9399C24.5356 34.2304 25.773 34.5934 27.0105 34.666C27.884 34.7387 28.6847 34.7387 29.4854 34.4482C30.8684 34.0125 31.4507 32.1972 30.65 31.0354C30.2861 30.4545 29.7037 30.0914 29.1214 29.7283C27.8112 29.0022 26.2826 28.7117 24.8268 28.4213C24.6084 28.3487 24.6084 28.4213 24.5356 28.6391C24.39 29.3653 24.1716 30.0188 24.0261 30.7449C23.7349 31.7615 23.5165 32.7781 23.2254 33.8673ZM29.3398 26.4607C29.4854 26.4607 29.8493 26.3881 30.1405 26.3155C31.5235 26.025 32.2514 24.4275 31.5235 23.1931C31.1596 22.5396 30.5044 22.1039 29.8493 21.8135C28.8302 21.3778 27.8112 21.1599 26.7193 20.8695C26.5009 20.7969 26.4282 20.8695 26.3554 21.0873C25.9914 22.6122 25.6275 24.0645 25.1907 25.5894C25.1179 25.7346 25.1907 25.8072 25.3363 25.8798C25.6275 25.9524 25.8458 26.025 26.137 26.0977C27.2289 26.2429 28.1751 26.4607 29.3398 26.4607Z" fill="white"/>
<defs>
<linearGradient id="paint0_linear_204_142" x1="0" y1="0" x2="54" y2="54" gradientUnits="userSpaceOnUse">
<stop stop-color="#F65200"/>
<stop offset="1" stop-color="#FE9000"/>
</linearGradient>
</defs>
</svg>
