<svg width="54" height="54" viewBox="0 0 54 54" fill="none" xmlns="http://www.w3.org/2000/svg">
<path d="M54 6L48 0H0V48L6 54H54V6Z" fill="url(#paint0_linear_204_147)"/>
<path d="M14 41.2959V34.638H17.8837V19.4201H14V13H30.2483C31.358 13 32.4676 13.317 33.498 13.7133C35.5588 14.5059 37.3817 15.6948 38.8084 17.4386C40.0766 18.9445 40.9484 20.6882 41.424 22.6697C42.2166 25.9987 42.2166 29.4068 41.2655 32.7358C39.9973 37.0951 37.3025 40.0277 32.7054 41.0581C31.9128 41.2166 31.0409 41.2959 30.2483 41.3751H14.6341C14.3963 41.2959 14.2378 41.2959 14 41.2959ZM25.8098 34.638C26.6816 34.638 27.5535 34.7173 28.4253 34.638C29.535 34.5588 30.5654 34.1625 31.2787 33.2113C31.9128 32.4187 32.4676 31.5469 32.7846 30.5957C33.4187 28.4557 33.1809 26.3157 32.7054 24.1757C32.4676 22.9075 31.8335 21.7186 31.0409 20.7675C30.5654 20.2127 29.9313 19.5786 29.2179 19.4993C28.1083 19.2616 26.9194 19.4201 25.8098 19.4201V34.638Z" fill="white"/>
<defs>
<linearGradient id="paint0_linear_204_147" x1="0" y1="0" x2="54" y2="54" gradientUnits="userSpaceOnUse">
<stop stop-color="#F65200"/>
<stop offset="1" stop-color="#FE9000"/>
</linearGradient>
</defs>
</svg>
