<svg width="100" height="100" viewBox="0 0 100 100" fill="none" xmlns="http://www.w3.org/2000/svg">
<circle cx="50" cy="50" r="37" fill="#3EE6C4"/>
<circle cx="49.849" cy="50.1504" r="31.435" fill="white"/>
<path d="M42.6535 35.8775C43.5893 36.1329 44.5251 36.3032 45.4609 36.5586C46.3967 36.814 47.3325 36.9843 48.2683 37.2397C48.5236 37.3249 48.6086 37.2397 48.6937 36.9843C49.034 35.537 49.3743 34.1748 49.7146 32.7274C49.7997 32.472 49.8847 32.3869 50.14 32.472C50.9907 32.7274 51.7564 32.8977 52.6071 33.068C52.8623 33.1531 52.8623 33.2382 52.7772 33.4085C52.4369 34.7707 52.0967 36.2181 51.7564 37.5803C51.7564 37.6654 51.7564 37.7505 51.6713 37.9208C52.3519 38.0911 53.1175 38.2614 53.7981 38.4317C53.8832 38.4317 53.9683 38.2614 54.0533 38.1762C54.3086 37.0694 54.5638 36.0478 54.9041 34.941L55.1593 33.9193C55.1593 33.7491 55.2444 33.6639 55.4145 33.7491C56.2653 34.0045 57.116 34.1748 58.0518 34.4302C58.1369 34.4302 58.1369 34.5153 58.222 34.5153C57.9667 35.6221 57.7115 36.6438 57.4563 37.6654C57.3712 38.0911 57.2861 38.5168 57.116 38.9425C57.0309 39.1979 57.116 39.283 57.3712 39.3682L60.1787 40.6452C61.0294 41.1561 61.795 41.8372 62.3906 42.6886C63.1562 43.9656 63.2413 45.3278 62.901 46.69C62.6458 47.6266 62.3055 48.4779 61.6249 49.159C61.1145 49.6699 60.4339 50.0104 59.7533 50.2658C59.6682 50.2658 59.5831 50.351 59.413 50.351C59.7533 50.6064 60.0936 50.7767 60.4339 51.0321C61.4548 51.7983 62.1353 52.7348 62.4756 53.9268C62.6458 54.8633 62.5607 55.885 62.3055 56.8215C61.9652 58.0134 61.5398 59.0351 60.7742 59.9716C59.8384 61.0784 58.6473 61.6743 57.2861 61.8446C55.4996 62.1 53.7981 61.9298 52.0967 61.6743C51.8414 61.5892 51.6713 61.6743 51.5862 61.9298C51.2459 63.292 50.9056 64.7393 50.5653 66.1015C50.4803 66.4421 50.4803 66.5272 50.0549 66.3569C49.2892 66.1867 48.4385 65.9312 47.6728 65.761C47.4176 65.6758 47.4176 65.5907 47.5027 65.4204C47.843 63.9731 48.1833 62.5257 48.6086 61.1635C48.6086 60.9932 48.6937 60.9081 48.5236 60.823C47.843 60.6527 47.1624 60.4824 46.3967 60.3121C46.2266 61.0784 45.9713 61.8446 45.8012 62.6109C45.6311 63.3771 45.3758 64.1433 45.2057 64.9096C45.1206 65.0799 45.1206 65.165 44.8654 65.0799C44.0147 64.8244 43.1639 64.6542 42.3132 64.4839C42.058 64.3988 42.058 64.3136 42.143 64.1433C42.4833 62.696 42.8236 61.2487 43.249 59.8864C43.249 59.8013 43.3341 59.7162 43.3341 59.5459C41.3774 59.0351 39.4207 58.5242 37.3789 58.0134C37.5491 57.6729 37.6341 57.4174 37.8043 57.0769C38.1446 56.3106 38.4849 55.5444 38.7401 54.8633C38.8252 54.6079 38.9102 54.6079 39.1655 54.6079C39.761 54.7782 40.4416 54.9484 41.0371 55.0336C41.7177 55.2038 42.2281 54.8633 42.3132 54.2673C43.4191 49.9253 44.5251 45.5833 45.546 41.1561C45.7161 40.475 45.2908 39.7087 44.5251 39.4533C43.7594 39.1979 42.9938 39.0276 42.3132 38.8573C42.143 38.8573 42.058 38.7722 42.143 38.6019C42.3983 37.6654 42.6535 36.6438 42.9087 35.7072C42.5684 35.9627 42.5684 35.9626 42.6535 35.8775ZM46.9922 56.9066C47.0773 56.9066 47.1624 56.9917 47.1624 56.9917C48.5236 57.3323 49.9698 57.758 51.4161 57.8431C52.4369 57.9283 53.3728 57.9283 54.3086 57.5877C55.925 57.0769 56.6056 54.9484 55.6697 53.5862C55.2444 52.9051 54.5638 52.4794 53.8832 52.0537C52.3519 51.2024 50.5653 50.8618 48.8639 50.5213C48.6086 50.4361 48.6086 50.5213 48.5236 50.7767C48.3534 51.6281 48.0982 52.3943 47.928 53.2457C47.5877 54.4376 47.3325 55.6295 46.9922 56.9066ZM54.1384 48.2225C54.3086 48.2225 54.7339 48.1374 55.0742 48.0523C56.6906 47.7117 57.5414 45.8387 56.6906 44.3913C56.2653 43.6251 55.4996 43.1142 54.7339 42.7737C53.5429 42.2629 52.3519 42.0075 51.0758 41.6669C50.8205 41.5818 50.7355 41.6669 50.6504 41.9223C50.225 43.7102 49.7997 45.413 49.2892 47.2009C49.2041 47.3711 49.2892 47.4563 49.4594 47.5414C49.7997 47.6266 50.0549 47.7117 50.3952 47.7968C51.6713 47.9671 52.7772 48.2225 54.1384 48.2225Z" fill="white"/>
<path d="M50.4198 33.1201C49.6183 32.7022 48.6404 33.6716 49.0662 34.4721C49.3134 35.1246 50.2509 35.2982 50.7298 34.8007C51.2372 34.3234 51.0718 33.3797 50.4198 33.12M59.0384 34.049C58.5517 33.8486 57.9354 34.2947 57.9851 34.8252C57.9334 35.4011 58.6377 35.825 59.1339 35.5513C59.7913 35.2967 59.7161 34.2296 59.039 34.0491M41.3868 35.5679C42.1474 35.476 42.2679 34.28 41.5355 34.0392C40.9674 33.7622 40.4463 34.2818 40.3632 34.8197C40.4823 35.2794 40.8672 35.7004 41.3862 35.5675M57.0776 37.7173C56.2638 37.2027 55.1026 37.9692 55.2277 38.9144C55.2699 39.8688 56.5377 40.4218 57.2528 39.7765C57.9443 39.2697 57.8396 38.1069 57.0774 37.7172M44.6541 38.2634C44.2911 37.3276 42.8199 37.2994 42.4067 38.2106C41.9982 38.9195 42.5006 39.7972 43.2284 40.0382C44.1923 40.2181 45.108 39.1761 44.6541 38.2637M51.4578 39.9848C51.4657 39.1806 50.7331 38.5813 49.9688 38.5265C49.4618 38.6282 48.9092 38.8442 48.6917 39.3557C48.2864 40.0614 48.6464 41.0326 49.3787 41.3571C49.7136 41.5448 50.1096 41.4744 50.4743 41.452C51.0318 41.1778 51.5013 40.6415 51.4578 39.9843M64.2757 41.1568C63.5323 40.6998 62.5293 41.5338 62.8107 42.3414C62.9657 43.0399 63.9047 43.3241 64.4415 42.8781C65.0145 42.4599 64.9241 41.4557 64.2757 41.1568ZM36.7522 41.1553C36.1215 40.6656 35.0806 41.2274 35.1558 42.0237C35.1136 42.7499 36.0133 43.2975 36.6394 42.9236C37.329 42.6136 37.3988 41.5525 36.7521 41.1554M47.8538 42.6011C46.8129 42.2272 45.5767 42.6749 44.9835 43.603C44.2009 44.7375 44.6173 46.465 45.8316 47.116C47.09 47.8859 48.9273 47.2333 49.3921 45.8281C49.9194 44.5702 49.1511 42.9959 47.8538 42.6016M53.9604 42.7253C52.8069 42.1808 51.2545 42.6377 50.6973 43.8177C50.0416 44.9662 50.5486 46.5655 51.7204 47.1585C52.8941 47.825 54.55 47.3197 55.1181 46.0866C55.755 44.8941 55.1894 43.2744 53.9599 42.7253M60.0752 44.8153C59.9876 44.0721 59.2864 43.5885 58.579 43.5384C58.2075 43.5802 57.8613 43.747 57.5971 44.0115C57.333 44.2759 57.1665 44.6223 57.1251 44.9939C57.1751 45.7574 57.7652 46.5038 58.5744 46.4992C59.4646 46.5759 60.2452 45.6902 60.0751 44.8155M42.0144 43.7002C41.1004 43.1682 39.8312 43.9428 39.8719 44.9927C39.8093 46.1052 41.2139 46.8892 42.124 46.2367C43.0694 45.6933 42.9957 44.163 42.0144 43.7003M56.4457 47.6211C55.3768 47.3269 54.1545 47.8309 53.6297 48.8129C53.0554 49.8019 53.2902 51.1754 54.1821 51.9012C55.326 52.9652 57.4358 52.538 58.0447 51.0859C58.7444 49.7548 57.8945 47.971 56.4453 47.6207M44.8625 47.6152C43.8233 47.318 42.6025 47.7185 42.0438 48.6652C41.3056 49.748 41.6578 51.3629 42.7574 52.0613C43.9093 52.8718 45.6935 52.4463 46.3273 51.179C47.0958 49.8681 46.3226 48.0155 44.8624 47.6157M63.3205 48.8513C62.3971 48.502 61.3735 49.521 61.7476 50.4363C61.9761 51.2704 63.1515 51.5787 63.7587 50.9637C64.4692 50.386 64.2064 49.1012 63.3205 48.8513ZM38.2927 50.1802C38.3124 49.8091 38.1852 49.4452 37.9385 49.1673C37.6919 48.8894 37.3458 48.7198 36.975 48.6952C36.3422 48.7954 35.7277 49.3055 35.7777 49.9939C35.7198 50.9032 36.8154 51.5211 37.5901 51.094C37.9531 50.9094 38.1394 50.537 38.2927 50.1802ZM67.8607 49.2999C67.3052 49.0574 66.6181 49.5389 66.7448 50.1558C66.7746 50.8543 67.8058 51.123 68.1848 50.5393C68.5196 50.134 68.3192 49.509 67.8607 49.2999ZM32.8337 49.286C32.4425 49.0075 31.815 49.2076 31.6599 49.6646C31.3971 50.1637 31.8791 50.8476 32.4404 50.7632C33.229 50.835 33.4845 49.6332 32.8333 49.286M53.4275 52.6392C51.9657 52.2595 50.3943 53.478 50.3851 54.9831C50.2902 56.5041 51.8373 57.8528 53.3337 57.5015C54.4904 57.3152 55.398 56.2011 55.3604 55.0324C55.3499 54.4754 55.1542 53.9378 54.8042 53.5044C54.4542 53.0711 53.9698 52.7666 53.4275 52.6392ZM47.6384 52.636C46.1548 52.2213 44.5365 53.4621 44.56 55.0021C44.4817 56.495 45.981 57.7983 47.4461 57.5017C48.8247 57.3234 49.8421 55.8086 49.4571 54.4707C49.3502 54.0281 49.1242 53.6231 48.8036 53.2996C48.483 52.9761 48.08 52.7465 47.6383 52.6356M58.8006 53.5626C57.774 53.3874 56.8114 54.5329 57.2278 55.5076C57.5314 56.5464 59.0432 56.8282 59.7116 55.9797C60.4957 55.1647 59.9104 53.6751 58.8006 53.5626ZM41.8232 53.6083C40.9077 53.2248 39.784 54.0168 39.8544 55.0104C39.8176 56.1042 41.2044 56.8584 42.1003 56.22C43.1142 55.6468 42.9297 53.9601 41.8232 53.6084M37.0778 58.3681C37.4364 57.6999 36.7852 56.8143 36.0433 56.938C35.6742 56.9317 35.4158 57.2227 35.1793 57.4668C35.1308 57.8627 35.0494 58.3352 35.378 58.6403C35.8243 59.2052 36.8354 59.0441 37.0778 58.3681ZM64.2782 57.1236C63.5849 56.662 62.587 57.3505 62.7429 58.1611C62.8258 58.8783 63.729 59.2878 64.3238 58.8809C64.9622 58.5118 64.9387 57.4601 64.2782 57.1235M50.5798 58.6246C49.6721 58.2239 48.5156 59.0149 48.6017 60.0142C48.5344 61.119 49.9648 61.884 50.8523 61.2206C51.8381 60.6511 51.6738 58.975 50.5798 58.6246ZM56.9245 60.1048C56.1513 59.698 55.1138 60.4001 55.1843 61.2659C55.1608 61.9764 55.8541 62.5819 56.5554 62.477C57.1361 62.4645 57.5152 61.9438 57.701 61.4489C57.6914 60.9093 57.469 60.3084 56.9247 60.1049M44.0726 60.1173C43.2776 59.6259 42.1476 60.3316 42.2228 61.257C42.2025 62.2242 43.4795 62.8436 44.2198 62.2084C44.937 61.7103 44.849 60.5133 44.0727 60.1173M41.8378 65.6426C42.1914 65.1075 41.7751 64.4629 41.2008 64.3407C40.7391 64.4347 40.2508 64.7819 40.3479 65.3173C40.4152 66.0417 41.4747 66.264 41.8379 65.6426M59.5789 65.1778C59.4381 64.7537 59.0969 64.3322 58.598 64.4425C57.8703 64.4942 57.6543 65.5911 58.2912 65.9296C58.864 66.3158 59.5286 65.7869 59.5793 65.1783M51.0201 65.665C50.8807 65.0375 50.0685 64.7324 49.533 65.0657C49.1793 65.2176 49.076 65.6133 48.9852 65.9497C49.0337 66.1249 49.077 66.3003 49.1197 66.4755C49.3389 66.7353 49.6205 66.995 49.9852 66.9857C50.663 67.0651 51.2744 66.2988 51.0198 65.6651" fill="white"/>
<rect x="49" y="23" width="4" height="12" fill="#D9D9D9"/>
<path d="M50 77C64.9117 77 77 64.9117 77 50C77 35.0883 64.9117 23 50 23C35.0883 23 23 35.0883 23 50C23 64.9117 35.0883 77 50 77Z" fill="#F8BF1A"/>
<path d="M35 65.4069V58.2524H39.1735V41.8991H35V35H52.4606C53.653 35 54.8454 35.3407 55.9527 35.7666C58.1672 36.6183 60.1262 37.8959 61.6593 39.7697C63.0221 41.388 63.959 43.2618 64.47 45.3912C65.3218 48.9685 65.3218 52.6309 64.2997 56.2082C62.9369 60.8927 60.041 64.0442 55.1009 65.1514C54.2492 65.3218 53.3123 65.4069 52.4606 65.4921H35.6814C35.4259 65.4069 35.2555 65.4069 35 65.4069ZM47.6909 58.2524C48.6278 58.2524 49.5647 58.3375 50.5016 58.2524C51.694 58.1672 52.8013 57.7413 53.5678 56.7192C54.2492 55.8675 54.8454 54.9306 55.1861 53.9085C55.8675 51.6088 55.612 49.3091 55.1009 47.0095C54.8454 45.6467 54.164 44.3691 53.3123 43.347C52.8013 42.7508 52.1199 42.0694 51.3533 41.9842C50.1609 41.7287 48.8833 41.8991 47.6909 41.8991V58.2524Z" fill="white"/>
</svg>
