<svg width="88" height="88" viewBox="0 0 88 88" fill="none" xmlns="http://www.w3.org/2000/svg">
<circle cx="44.0067" cy="43.9969" r="34.7489" stroke="white" stroke-width="7.5"/>
<circle cx="43.9987" cy="43.9987" r="41.2488" stroke="url(#paint0_linear_7_220)" stroke-width="5.49984"/>
<g clip-path="url(#clip0_7_220)">
<rect x="9" y="9" width="70" height="70" rx="35" fill="#F8BF1A"/>
<path d="M26 63.8883L26 54.5028H31.5482V33.0503H26V24H49.2119C50.7971 24 52.3823 24.4469 53.8543 25.0056C56.7982 26.1229 59.4025 27.7989 61.4406 30.257C63.2523 32.3799 64.4978 34.838 65.1772 37.6313C66.3094 42.324 66.3094 47.1285 64.9507 51.8212C63.139 57.9665 59.2893 62.1006 52.722 63.5531C51.5897 63.7765 50.3442 63.8883 49.2119 64H26.9058C26.5661 63.8883 26.3397 63.8883 26 63.8883ZM42.8711 54.5028C44.1166 54.5028 45.3621 54.6145 46.6076 54.5028C48.1928 54.3911 49.6648 53.8324 50.6839 52.4916C51.5897 51.3743 52.3823 50.1453 52.8352 48.8045C53.7411 45.7877 53.4014 42.771 52.722 39.7542C52.3823 37.9665 51.4765 36.2905 50.3442 34.9497C49.6648 34.1676 48.759 33.2737 47.7399 33.162C46.1547 32.8268 44.4563 33.0503 42.8711 33.0503V54.5028V54.5028Z" fill="white"/>
</g>
<defs>
<linearGradient id="paint0_linear_7_220" x1="43.9987" y1="0" x2="43.9987" y2="87.9974" gradientUnits="userSpaceOnUse">
<stop stop-color="#02F9D2"/>
<stop offset="1" stop-color="#0029FF"/>
</linearGradient>
<clipPath id="clip0_7_220">
<rect x="9" y="9" width="70" height="70" rx="35" fill="white"/>
</clipPath>
</defs>
</svg>
