<svg width="54" height="54" viewBox="0 0 54 54" fill="none" xmlns="http://www.w3.org/2000/svg">
<path d="M54 6L48 0H0V48L6 54H54V6Z" fill="url(#paint0_linear_204_149)"/>
<g clip-path="url(#clip0_204_149)">
<path d="M26.9998 18.1318C30.3858 18.1318 33.1307 16.5353 33.1307 14.5659C33.1307 12.5965 30.3858 11 26.9998 11C23.6138 11 20.869 12.5965 20.869 14.5659C20.869 16.5353 23.6138 18.1318 26.9998 18.1318Z" fill="white"/>
<path d="M26.9998 44.9998C30.3858 44.9998 33.1307 43.4032 33.1307 41.4338C33.1307 39.4644 30.3858 37.8679 26.9998 37.8679C23.6138 37.8679 20.869 39.4644 20.869 41.4338C20.869 43.4032 23.6138 44.9998 26.9998 44.9998Z" fill="white"/>
<path d="M18.4567 23.0672C20.1496 20.1349 20.1385 16.9589 18.4316 15.9735C16.7248 14.988 13.9688 16.5663 12.2758 19.4985C10.5828 22.4308 10.594 25.6067 12.3008 26.5922C14.0076 27.5776 16.7637 25.9994 18.4567 23.0672Z" fill="white"/>
<path d="M41.7207 36.5011C43.4137 33.5688 43.4036 30.3935 41.6981 29.4088C39.9926 28.4241 37.2376 30.0029 35.5446 32.9352C33.8516 35.8674 33.8617 39.0428 35.5672 40.0275C37.2727 41.0122 40.0277 39.4334 41.7207 36.5011Z" fill="white"/>
<path d="M18.4321 40.026C20.1389 39.0406 20.1501 35.8646 18.4571 32.9324C16.7641 30.0001 14.008 28.4219 12.3012 29.4073C10.5944 30.3928 10.5832 33.5687 12.2762 36.501C13.9692 39.4333 16.7253 41.0115 18.4321 40.026Z" fill="white"/>
<path d="M41.7007 26.5933C43.4062 25.6086 43.4164 22.4333 41.7234 19.501C40.0304 16.5687 37.2753 14.9899 35.5698 15.9746C33.8643 16.9593 33.8542 20.1346 35.5472 23.0669C37.2402 25.9992 39.9952 27.578 41.7007 26.5933Z" fill="white"/>
</g>
<defs>
<linearGradient id="paint0_linear_204_149" x1="0" y1="0" x2="54" y2="54" gradientUnits="userSpaceOnUse">
<stop stop-color="#F65200"/>
<stop offset="1" stop-color="#FE9000"/>
</linearGradient>
<clipPath id="clip0_204_149">
<rect width="34" height="34" fill="white" transform="translate(10 11)"/>
</clipPath>
</defs>
</svg>
