<svg width="100" height="100" viewBox="0 0 100 100" fill="none" xmlns="http://www.w3.org/2000/svg">
<circle cx="50" cy="50" r="37" fill="#3EE6C4"/>
<circle cx="49.8472" cy="50.1504" r="31.435" fill="white"/>
<g clip-path="url(#clip0_2_72)">
<path d="M50 77C64.9117 77 77 64.9117 77 50C77 35.0883 64.9117 23 50 23C35.0883 23 23 35.0883 23 50C23 64.9117 35.0883 77 50 77Z" fill="#FFB508"/>
<path d="M43.0657 47.1342L49.9796 40.223L56.8965 47.1399L60.9173 43.1163L49.9796 32.1758L39.0426 43.1129L43.0657 47.1342Z" fill="white"/>
<path d="M32.1758 49.9769L36.1966 45.9532L40.2202 49.9769L36.1966 53.9982L32.1758 49.9769Z" fill="white"/>
<path d="M43.0656 52.817L49.9797 59.7311L56.8966 52.8141L60.9202 56.8325L49.9825 67.7724L39.0417 56.8404L43.0656 52.817Z" fill="white"/>
<path d="M59.7308 49.9769L63.7516 45.9532L67.7753 49.974L63.7516 54.0005L59.7308 49.9769Z" fill="white"/>
<path d="M54.0596 49.9741L49.9797 45.8914L46.9627 48.9085L46.6141 49.2543L45.8999 49.9685L49.9797 54.0455L54.0596 49.9769V49.9741Z" fill="white"/>
</g>
<defs>
<clipPath id="clip0_2_72">
<rect width="54" height="54" fill="white" transform="translate(23 23)"/>
</clipPath>
</defs>
</svg>
