<svg width="88" height="88" viewBox="0 0 88 88" fill="none" xmlns="http://www.w3.org/2000/svg">
<circle cx="44.0067" cy="43.9969" r="34.7489" stroke="white" stroke-width="7.5"/>
<circle cx="43.9987" cy="43.9987" r="41.2488" stroke="url(#paint0_linear_7_164)" stroke-width="5.49984"/>
<g clip-path="url(#clip0_7_164)">
<rect x="9" y="9" width="70" height="70" rx="35" fill="white"/>
<path d="M43.9951 17L43.6328 18.2308V53.936L43.9951 54.2983L60.5686 44.5018L43.9951 17Z" fill="#343434"/>
<path d="M43.9976 17L27.4219 44.5018L43.9954 54.2983V17H43.9976Z" fill="#8C8C8C"/>
<path d="M43.9938 57.4365L43.7891 57.6863V70.4055L43.9938 70.9995L60.5786 47.6445L43.9938 57.4365Z" fill="#3C3C3B"/>
<path d="M43.9954 70.9995V57.4365L27.4219 47.6445L43.9954 70.9995Z" fill="#8C8C8C"/>
<path d="M43.9922 54.2983L60.5657 44.5017L43.9922 36.9688V54.2983V54.2983Z" fill="#141414"/>
<path d="M27.4219 44.502L43.9954 54.2985V36.9668L27.4219 44.502Z" fill="#393939"/>
</g>
<defs>
<linearGradient id="paint0_linear_7_164" x1="43.9987" y1="0" x2="43.9987" y2="87.9974" gradientUnits="userSpaceOnUse">
<stop stop-color="#02F9D2"/>
<stop offset="1" stop-color="#0029FF"/>
</linearGradient>
<clipPath id="clip0_7_164">
<rect x="9" y="9" width="70" height="70" rx="35" fill="white"/>
</clipPath>
</defs>
</svg>
