<svg width="54" height="54" viewBox="0 0 54 54" fill="none" xmlns="http://www.w3.org/2000/svg">
<path d="M54 6L48 0H0V48L6 54H54V6Z" fill="url(#paint0_linear_204_150)"/>
<path d="M26.8987 29.1078L24.7156 36.894H36.3904C36.5465 36.8881 36.6984 36.948 36.8127 37.0606C36.9271 37.1733 36.9944 37.3293 37 37.4944V37.6984L35.9851 41.4084C35.9404 41.5837 35.8407 41.7376 35.7024 41.845C35.564 41.9524 35.3953 42.0068 35.2239 41.9993H17.3559L20.3504 31.2056L17 32.2793L17.762 29.8094L21.1115 28.7348L25.3252 13.5913C25.3715 13.417 25.4716 13.2641 25.6096 13.157C25.7475 13.05 25.9154 12.9948 26.0864 13.0004H30.6041C30.7602 12.9947 30.912 13.0549 31.0262 13.1677C31.1403 13.2805 31.2075 13.4366 31.2129 13.6017V13.8065L27.6599 26.5874L31.0102 25.5128L30.3009 28.0907L26.8987 29.1078Z" fill="white"/>
<defs>
<linearGradient id="paint0_linear_204_150" x1="0" y1="0" x2="54" y2="54" gradientUnits="userSpaceOnUse">
<stop stop-color="#F65200"/>
<stop offset="1" stop-color="#FE9000"/>
</linearGradient>
</defs>
</svg>
