<svg width="54" height="54" viewBox="0 0 54 54" fill="none" xmlns="http://www.w3.org/2000/svg">
<path d="M54 6L48 0H0V48L6 54H54V6Z" fill="url(#paint0_linear_204_145)"/>
<path d="M16.9985 21.9215L11.8424 19.2961C11.4378 20.0881 11.0978 20.9187 10.8223 21.7666L16.3271 23.5484C16.5078 22.9889 16.7316 22.4423 16.9985 21.9215Z" fill="white"/>
<path d="M21.3749 17.2952L24.2327 22.2146C24.6502 21.9736 25.0978 21.7885 25.5583 21.6637L24.0821 16.1719C24.4565 16.0729 24.8396 15.9868 25.2269 15.9266L24.3188 10.2109C23.4408 10.3487 22.5671 10.5596 21.7235 10.835L23.4882 16.2494C22.9243 16.4344 22.3777 16.6625 21.8527 16.9294L19.2574 11.8637C18.4698 12.2682 17.7037 12.7374 16.9892 13.2624L20.4022 17.9365C20.7121 17.7041 21.0392 17.4932 21.3749 17.2952Z" fill="white"/>
<path d="M36.7013 21.3709L31.7819 24.2287C32.0229 24.6462 32.2123 25.0938 32.3371 25.5543L37.8289 24.0738C37.9322 24.4482 38.014 24.8313 38.0742 25.2143L43.7899 24.3062C43.6521 23.4282 43.4412 22.5545 43.1615 21.7109L37.7514 23.4798C37.5664 22.916 37.3383 22.3694 37.0714 21.8443L42.1372 19.2447C41.7326 18.4571 41.2635 17.691 40.7384 16.9766L36.0686 20.3896C36.2924 20.7081 36.5033 21.0352 36.7013 21.3709Z" fill="white"/>
<path d="M34.6958 11.8378C33.9039 11.4332 33.0732 11.0932 32.2253 10.8177L30.4478 16.3225C31.003 16.5033 31.5496 16.7271 32.0747 16.9939L34.6958 11.8378Z" fill="white"/>
<path d="M32.6385 17.1959L29.7505 22.21C30.168 22.451 30.5554 22.748 30.8954 23.088L38.9954 14.9578C38.367 14.3295 37.6827 13.7484 36.9683 13.2277L33.6284 17.8372C33.3099 17.6048 32.9828 17.3896 32.6385 17.1959Z" fill="white"/>
<path d="M17.1953 21.354L22.205 24.2463C22.4461 23.8288 22.743 23.4414 23.0831 23.0971L14.9615 14.9928C14.3331 15.6212 13.7521 16.3055 13.2313 17.02L17.8365 20.3641C17.6084 20.6826 17.3932 21.014 17.1953 21.354Z" fill="white"/>
<path d="M28.7517 15.8274L29.6254 10.2022C28.7603 10.0687 27.878 9.99988 26.9957 9.99988H26.9828V21.4742H26.9957C27.4777 21.4742 27.9598 21.5344 28.4203 21.6593L29.9052 16.0684C29.5264 15.9651 29.1434 15.8877 28.7517 15.8274Z" fill="white"/>
<path d="M21.6594 25.5753L16.0686 24.0862C15.9696 24.4649 15.8878 24.8523 15.8275 25.2396L10.2023 24.3616C10.0689 25.2267 10 26.1176 10 27H21.4743C21.4743 26.5136 21.5389 26.0359 21.6594 25.5753Z" fill="white"/>
<path d="M37.0013 32.0786L42.1574 34.704C42.562 33.912 42.902 33.0814 43.1774 32.2335L37.6727 30.4517C37.4919 31.0112 37.2681 31.5578 37.0013 32.0786Z" fill="white"/>
<path d="M32.621 36.7009L29.7675 31.7815C29.35 32.0225 28.9024 32.2076 28.4419 32.3324L29.9181 37.8242C29.5437 37.9232 29.1607 38.0093 28.7733 38.0696L29.6814 43.7852C30.5594 43.6475 31.4331 43.4366 32.2767 43.1611L30.5121 37.7468C31.0759 37.5617 31.6225 37.3336 32.1476 37.0667L34.7429 42.1325C35.5305 41.7279 36.2966 41.2588 37.011 40.7337L33.6023 36.0596C33.2881 36.2963 32.961 36.5072 32.621 36.7009Z" fill="white"/>
<path d="M17.299 32.6295L22.2185 29.7717C21.9774 29.3542 21.7881 28.9066 21.6632 28.446L16.1714 29.9266C16.0681 29.5522 15.9863 29.1691 15.9261 28.7861L10.2104 29.6942C10.3482 30.5722 10.5591 31.4459 10.8388 32.2895L16.2489 30.5205C16.434 31.0801 16.6621 31.631 16.9289 32.156L11.8632 34.7556C12.2677 35.5433 12.7369 36.3094 13.2619 37.0238L17.9317 33.6108C17.7079 33.2923 17.497 32.9652 17.299 32.6295Z" fill="white"/>
<path d="M19.3051 42.1626C20.097 42.5672 20.9277 42.9072 21.7756 43.1826L23.5531 37.6779C22.9979 37.4971 22.4513 37.2733 21.9262 37.0065L19.3051 42.1626Z" fill="white"/>
<path d="M21.3563 36.8043L24.2443 31.7902C23.8268 31.5492 23.4394 31.2522 23.0994 30.9122L14.9994 39.0424C15.6278 39.6708 16.3121 40.2518 17.0265 40.7726L20.3664 36.163C20.6849 36.3912 21.0163 36.6064 21.3563 36.8043Z" fill="white"/>
<path d="M36.7992 32.6466L31.7894 29.7544C31.5484 30.1719 31.2514 30.5592 30.9114 30.9035L39.0373 39.0079C39.6657 38.3795 40.2467 37.6952 40.7675 36.9807L36.1622 33.6366C36.3904 33.3138 36.6056 32.9867 36.7992 32.6466Z" fill="white"/>
<path d="M25.5749 32.3408L24.09 37.9316C24.4688 38.0306 24.8561 38.1124 25.2435 38.1727L24.3698 43.7979C25.2349 43.9313 26.1172 44.0002 26.9995 44.0002H27.0124V32.5259H26.9995C26.5175 32.5259 26.0354 32.4613 25.5749 32.3408Z" fill="white"/>
<path d="M32.5255 27C32.5255 27.4863 32.4652 27.9641 32.3404 28.4246L37.9312 29.9138C38.0302 29.535 38.112 29.1477 38.1722 28.7603L43.7975 29.6383C43.9309 28.7732 43.9998 27.8823 43.9998 27H32.5255Z" fill="white"/>
<defs>
<linearGradient id="paint0_linear_204_145" x1="0" y1="0" x2="54" y2="54" gradientUnits="userSpaceOnUse">
<stop stop-color="#F65200"/>
<stop offset="1" stop-color="#FE9000"/>
</linearGradient>
</defs>
</svg>
