<svg width="100" height="100" viewBox="0 0 100 100" fill="none" xmlns="http://www.w3.org/2000/svg">
<circle cx="50" cy="50" r="37" fill="#3EE6C4"/>
<circle cx="49.8472" cy="50.1504" r="31.435" fill="white"/>
<path d="M42.6529 35.8775C43.5887 36.1329 44.5245 36.3032 45.4604 36.5586C46.3962 36.814 47.332 36.9843 48.2678 37.2397C48.523 37.3249 48.6081 37.2397 48.6932 36.9843C49.0335 35.537 49.3737 34.1748 49.714 32.7274C49.7991 32.472 49.8842 32.3869 50.1394 32.472C50.9901 32.7274 51.7558 32.8977 52.6065 33.068C52.8618 33.1531 52.8618 33.2382 52.7767 33.4085C52.4364 34.7707 52.0961 36.2181 51.7558 37.5803C51.7558 37.6654 51.7558 37.7505 51.6707 37.9208C52.3513 38.0911 53.117 38.2614 53.7976 38.4317C53.8827 38.4317 53.9677 38.2614 54.0528 38.1762C54.308 37.0694 54.5632 36.0478 54.9035 34.941L55.1588 33.9193C55.1588 33.7491 55.2438 33.6639 55.414 33.7491C56.2647 34.0045 57.1155 34.1748 58.0513 34.4302C58.1363 34.4302 58.1363 34.5153 58.2214 34.5153C57.9662 35.6221 57.711 36.6438 57.4557 37.6654C57.3707 38.0911 57.2856 38.5168 57.1154 38.9425C57.0304 39.1979 57.1155 39.283 57.3707 39.3682L60.1781 40.6452C61.0288 41.1561 61.7945 41.8372 62.39 42.6886C63.1557 43.9656 63.2408 45.3278 62.9005 46.69C62.6452 47.6266 62.3049 48.4779 61.6244 49.159C61.1139 49.6699 60.4333 50.0104 59.7527 50.2658C59.6677 50.2658 59.5826 50.351 59.4124 50.351C59.7527 50.6064 60.093 50.7767 60.4333 51.0321C61.4542 51.7983 62.1348 52.7348 62.4751 53.9268C62.6452 54.8633 62.5602 55.885 62.3049 56.8215C61.9646 58.0134 61.5393 59.0351 60.7736 59.9716C59.8378 61.0784 58.6468 61.6743 57.2856 61.8446C55.499 62.1 53.7976 61.9298 52.0961 61.6743C51.8409 61.5892 51.6707 61.6743 51.5857 61.9298C51.2454 63.292 50.9051 64.7393 50.5648 66.1015C50.4797 66.4421 50.4797 66.5272 50.0543 66.3569C49.2887 66.1867 48.4379 65.9312 47.6723 65.761C47.4171 65.6758 47.4171 65.5907 47.5021 65.4204C47.8424 63.9731 48.1827 62.5257 48.6081 61.1635C48.6081 60.9932 48.6932 60.9081 48.523 60.823C47.8424 60.6527 47.1618 60.4824 46.3962 60.3121C46.226 61.0784 45.9708 61.8446 45.8007 62.6109C45.6305 63.3771 45.3753 64.1433 45.2051 64.9096C45.1201 65.0799 45.1201 65.165 44.8648 65.0799C44.0141 64.8244 43.1634 64.6542 42.3126 64.4839C42.0574 64.3988 42.0574 64.3136 42.1425 64.1433C42.4828 62.696 42.8231 61.2487 43.2484 59.8864C43.2484 59.8013 43.3335 59.7162 43.3335 59.5459C41.3768 59.0351 39.4201 58.5242 37.3784 58.0134C37.5485 57.6729 37.6336 57.4174 37.8037 57.0769C38.144 56.3106 38.4843 55.5444 38.7395 54.8633C38.8246 54.6079 38.9097 54.6079 39.1649 54.6079C39.7604 54.7782 40.441 54.9484 41.0365 55.0336C41.7171 55.2038 42.2276 54.8633 42.3126 54.2673C43.4186 49.9253 44.5245 45.5833 45.5454 41.1561C45.7156 40.475 45.2902 39.7087 44.5245 39.4533C43.7589 39.1979 42.9932 39.0276 42.3126 38.8573C42.1425 38.8573 42.0574 38.7722 42.1425 38.6019C42.3977 37.6654 42.6529 36.6438 42.9081 35.7072C42.5679 35.9627 42.5679 35.9626 42.6529 35.8775V35.8775ZM46.9917 56.9066C47.0768 56.9066 47.1618 56.9917 47.1618 56.9917C48.523 57.3323 49.9693 57.758 51.4155 57.8431C52.4364 57.9283 53.3722 57.9283 54.308 57.5877C55.9244 57.0769 56.605 54.9484 55.6692 53.5862C55.2438 52.9051 54.5632 52.4794 53.8826 52.0537C52.3513 51.2024 50.5648 50.8618 48.8633 50.5213C48.6081 50.4361 48.6081 50.5213 48.523 50.7767C48.3529 51.6281 48.0976 52.3943 47.9275 53.2457C47.5872 54.4376 47.332 55.6295 46.9917 56.9066ZM54.1379 48.2225C54.308 48.2225 54.7334 48.1374 55.0737 48.0523C56.6901 47.7117 57.5408 45.8387 56.6901 44.3913C56.2647 43.6251 55.499 43.1142 54.7334 42.7737C53.5424 42.2629 52.3513 42.0075 51.0752 41.6669C50.82 41.5818 50.7349 41.6669 50.6499 41.9223C50.2245 43.7102 49.7991 45.413 49.2887 47.2009C49.2036 47.3711 49.2887 47.4563 49.4588 47.5414C49.7991 47.6266 50.0543 47.7117 50.3946 47.7968C51.6707 47.9671 52.7767 48.2225 54.1379 48.2225Z" fill="white"/>
<g clip-path="url(#clip0_2_116)">
<path d="M50 77C35.0883 77 23 64.9117 23 50C23 35.0883 35.0883 23 50 23C64.9117 23 77 35.0883 77 50C77 64.9117 64.9117 77 50 77Z" fill="#F60DC9"/>
<path d="M60.3016 63.7595C61.0187 63.4513 61.6668 63.0026 62.2077 62.44C62.7487 61.8774 63.1716 61.2123 63.4514 60.4837C64.3229 58.0618 63.9624 55.3634 62.3805 53.9985C60.7986 52.6336 57.0153 50.6247 57.0153 50.6247C57.0153 50.6247 56.0668 52.4411 57.7153 54.9855C59.2902 57.4353 60.1441 58.7058 60.6726 60.0777C61.3516 61.8416 60.3016 63.7595 60.3016 63.7595Z" fill="white"/>
<path d="M64.3612 55.3599C64.3612 55.3599 64.7356 52.7596 60.6409 51.1601C57.5365 49.9422 54.9467 48.9063 53.6867 47.3804C53.29 46.9129 53.0005 46.3642 52.8384 45.7729C52.6764 45.1816 52.6458 44.5619 52.7488 43.9575C52.7488 43.9575 53.7497 45.165 57.722 45.5814C61.3758 45.9664 63.6717 47.2719 64.6306 49.3717C65.0867 50.3137 65.3008 51.3545 65.2538 52.3999C65.2067 53.4454 64.8999 54.4627 64.3612 55.3599ZM55.1881 49.7637C55.1881 49.7637 56.0456 52.4166 54.5092 53.988C53.1688 55.3564 51.1844 55.3599 49.6094 55.6644C48.5235 55.8749 47.4884 56.2932 46.5611 56.8963C48.0487 56.5109 49.5748 56.2937 51.1109 56.2489C53.2597 56.2489 55.0832 55.3704 55.7516 53.855C56.8821 51.3176 55.1881 49.7637 55.1881 49.7637ZM47.5621 60.6901C48.8115 60.1547 50.1134 60.7636 50.9359 61.8661C51.7583 62.9685 52.0978 65.2889 53.8757 66.3353C55.6536 67.3818 57.554 65.7159 57.554 65.7159C57.554 65.7159 55.7761 66.4683 54.7052 65.9469C53.5537 65.3869 53.3787 64.4069 53.1758 62.72C52.8258 59.9657 51.3804 58.8702 50.1099 58.4083C48.3132 57.8249 46.3599 57.9642 44.6642 58.7967C43.4569 59.4027 42.3266 60.1511 41.2974 61.0261C41.2974 61.0261 43.3973 61.3761 44.2372 61.8766C45.0772 62.377 46.1481 64.078 47.2121 64.4104C48.1885 64.7184 49.2 64.5644 49.7459 63.7735C50.2919 62.9825 50.0539 61.5966 49.165 61.2991C48.0765 60.9316 47.2996 61.4496 47.3451 62.1216C47.3362 62.3016 47.3971 62.4781 47.5151 62.6144C47.6331 62.7506 47.7991 62.8361 47.9785 62.853C47.9785 62.853 47.2786 62.503 47.5726 61.9081C47.9225 61.2536 48.7275 61.3481 49.165 61.6561C49.7004 62.0341 49.7809 63.336 48.8675 63.707C47.954 64.078 46.7991 63.4725 46.6241 62.748C46.4491 62.0236 46.5156 61.1416 47.5621 60.6901ZM44.8637 42.4771L30 26C30 26 42.6238 41.5672 43.0753 42.0991C43.5268 42.6311 43.7753 43.1001 43.3833 43.4606C43.0566 43.7303 42.6618 43.9047 42.2423 43.9645C41.9502 44.0302 41.6452 44.0082 41.3657 43.9011C41.0861 43.7939 40.8444 43.6066 40.6709 43.3626C40.034 42.5961 35.3827 35.236 35.3827 35.236C35.3827 35.236 39.5475 42.7746 39.761 43.2191C39.9745 43.6636 40.111 44.0555 39.901 44.3355C39.5571 44.6963 39.266 45.104 39.0365 45.5465C38.8055 46.1134 38.6165 47.7723 38.424 48.4898C37.9067 50.0295 37.0721 51.4435 35.9742 52.6406C34.9732 53.6905 34.1998 55.0554 34.5043 56.9838C34.7947 58.8282 35.9812 60.2912 36.1807 60.6061C36.3853 60.8878 36.5066 61.2213 36.5306 61.5686C36.5306 61.5686 39.5055 61.2186 41.2029 59.6612C42.7288 58.2613 41.9029 56.6934 41.4549 56.2979C41.1364 56.0144 39.096 54.646 38.893 53.925C38.69 53.204 38.361 52.6966 39.334 50.7472C40.3069 48.7978 40.0585 48.5913 40.188 47.9193C40.3174 47.2474 40.2894 45.8614 41.0629 45.5814C41.8364 45.3015 42.8128 45.431 43.7438 44.8815C45.1017 44.0555 44.8637 42.4771 44.8637 42.4771ZM36.4642 57.1343C36.4075 57.1349 36.3513 57.1238 36.2992 57.1018C36.247 57.0797 36.1999 57.0472 36.1608 57.0061C36.1218 56.9651 36.0915 56.9165 36.0721 56.8633C36.0526 56.81 36.0443 56.7534 36.0477 56.6969C36.0477 56.4624 36.2927 56.2944 36.2507 56.1474C36.2087 56.0004 35.9952 55.9934 35.9497 55.7974C35.9252 55.6924 36.0162 55.4929 36.4012 55.4789C36.6218 55.4915 36.829 55.5888 36.9797 55.7506C37.1303 55.9123 37.2127 56.1259 37.2096 56.3469C37.2034 56.5472 37.1236 56.7383 36.9854 56.8835C36.8473 57.0288 36.6605 57.1181 36.4607 57.1343H36.4642ZM46.1061 45.6129C45.8524 45.6287 45.6047 45.6969 45.3787 45.8132C45.1527 45.9296 44.9533 46.0915 44.7932 46.2889C44.633 46.4863 44.5155 46.7147 44.4481 46.9598C44.3807 47.2049 44.3649 47.4613 44.4017 47.7128C44.5172 48.6018 45.6862 48.5353 46.4106 48.3113C47.1351 48.0873 47.9085 47.9613 47.842 47.0549C47.7755 46.1484 46.6906 45.5814 46.1061 45.6129ZM46.1306 47.0514C45.6757 47.0514 45.3082 46.7994 45.3082 46.4879C45.3082 46.1764 45.6582 45.9244 46.1306 45.9244C46.6031 45.9244 46.9531 46.1764 46.9531 46.4879C46.9531 46.7994 46.5856 47.0514 46.1306 47.0514ZM43.3168 36.0795C43.3168 36.0795 44.9512 36.2335 45.7422 37.4794C46.5331 38.7253 46.4421 40.3947 46.8726 41.1332C47.083 41.5373 47.3167 41.9287 47.5726 42.3056C47.695 42.4596 47.7895 42.6906 47.4956 42.7431C46.7746 42.8761 45.1507 42.2181 44.2617 40.4612C42.9318 37.8469 43.3168 36.0795 43.3168 36.0795ZM59.9724 35.7715C59.9724 35.7715 59.5104 36.7164 59.8639 38.3788C59.9657 38.8405 60.2106 39.2581 60.5639 39.5723C61.2347 40.2323 61.8635 40.9336 62.4468 41.6722L60.8018 40.3387C60.4519 40.0587 60.2419 40.0692 60.2209 40.3667C60.1999 40.6642 60.0739 41.9626 60.0284 42.2461C59.9227 42.6141 59.7857 42.9724 59.6189 43.3171C59.6189 43.3171 59.7904 42.5086 59.8079 42.2881C59.8464 41.7492 59.8394 40.1042 59.4299 39.5828C58.73 38.6938 56.6301 37.8959 56.6301 37.8959C57.4466 38.0166 58.2419 38.2522 58.9924 38.5958C59.3074 38.7428 59.3774 38.6343 59.3774 38.4138C59.4008 37.8273 59.4616 37.2428 59.5594 36.6639C59.6245 36.3379 59.766 36.0321 59.9724 35.7715V35.7715Z" fill="white"/>
<path d="M60.7812 41.7841C60.5083 43.331 59.9798 43.884 59.8083 44.017C59.6986 44.1148 59.5583 44.1714 59.4115 44.1772C59.2646 44.1829 59.1203 44.1374 59.0033 44.0485C58.8956 43.9506 58.8244 43.8189 58.8015 43.6752C58.7786 43.5314 58.8053 43.3841 58.8774 43.2576C59.0282 42.9832 59.1345 42.6867 59.1923 42.3791C59.2371 41.6754 59.1853 40.9689 59.0383 40.2792C58.4593 39.8864 57.8398 39.5567 57.1904 39.2958C53.2672 37.6928 50.2363 38.6938 50.2363 38.6938C50.2363 38.6938 48.6159 36.7409 47.027 35.8939C45.9091 35.344 44.6647 35.1023 43.4222 35.194C43.4222 35.194 45.6621 35.544 46.922 36.5589C49.1829 38.4033 51.5242 42.2461 53.1762 43.1421C56.5605 44.9795 59.5178 43.884 61.3342 44.794C62.7061 45.4939 63.0841 46.3374 63.0841 46.3374C62.7395 44.6403 61.944 43.0674 60.7812 41.7841V41.7841Z" fill="white"/>
</g>
<defs>
<clipPath id="clip0_2_116">
<rect width="54" height="54" fill="white" transform="matrix(-1 0 0 1 77 23)"/>
</clipPath>
</defs>
</svg>
