<svg width="54" height="54" viewBox="0 0 54 54" fill="none" xmlns="http://www.w3.org/2000/svg">
<path d="M54 6L48 0H0V48L6 54H54V6Z" fill="url(#paint0_linear_204_144)"/>
<path d="M34.5 32.1769C34.5 33.8276 33.9846 35.249 32.9537 36.4411C31.9228 37.6333 30.5837 38.3696 28.9364 38.6501V41.4821C28.9364 41.6332 28.8898 41.7573 28.7965 41.8544C28.7033 41.9515 28.5842 42 28.4391 42H26.3411C26.2064 42 26.0899 41.9488 25.9914 41.8463C25.893 41.7438 25.8438 41.6224 25.8438 41.4821V38.6501C25.16 38.553 24.4995 38.3858 23.8624 38.1484C23.2252 37.9111 22.6994 37.671 22.285 37.4283C21.8706 37.1855 21.4872 36.9266 21.135 36.6515C20.7827 36.3764 20.5418 36.1741 20.4123 36.0446C20.2828 35.9152 20.1922 35.8181 20.1404 35.7533C19.9642 35.5268 19.9539 35.3056 20.1093 35.0898L21.71 32.9051C21.7825 32.7972 21.9016 32.7325 22.0674 32.7109C22.2228 32.6894 22.3471 32.7379 22.4404 32.8566L22.4715 32.889C23.6422 33.957 24.901 34.6313 26.2479 34.9118C26.6312 34.9981 27.0145 35.0413 27.3979 35.0413C28.2371 35.0413 28.9753 34.8093 29.6124 34.3454C30.2496 33.8815 30.5682 33.2234 30.5682 32.3711C30.5682 32.069 30.4905 31.7831 30.3351 31.5134C30.1797 31.2437 30.0061 31.0171 29.8145 30.8337C29.6228 30.6503 29.3198 30.448 28.9053 30.2268C28.4909 30.0057 28.149 29.8331 27.8796 29.709C27.6103 29.5849 27.1959 29.4096 26.6364 29.183C26.2323 29.0104 25.9137 28.8756 25.6806 28.7785C25.4475 28.6814 25.1289 28.5384 24.7249 28.3496C24.3208 28.1608 23.997 27.9936 23.7536 27.8479C23.5101 27.7023 23.2174 27.5108 22.8755 27.2734C22.5336 27.0361 22.2565 26.8068 22.0441 26.5857C21.8317 26.3645 21.6064 26.1002 21.3681 25.7927C21.1298 25.4852 20.9459 25.1723 20.8164 24.8541C20.6869 24.5358 20.5781 24.1771 20.49 23.7779C20.402 23.3787 20.3579 22.958 20.3579 22.5156C20.3579 21.0268 20.8656 19.7214 21.8809 18.5993C22.8962 17.4773 24.2172 16.7545 25.8438 16.4308V13.5179C25.8438 13.3776 25.893 13.2562 25.9914 13.1537C26.0899 13.0512 26.2064 13 26.3411 13H28.4391C28.5842 13 28.7033 13.0485 28.7965 13.1456C28.8898 13.2427 28.9364 13.3668 28.9364 13.5179V16.3661C29.527 16.4308 30.0994 16.5549 30.6537 16.7383C31.208 16.9217 31.6586 17.1024 32.0057 17.2804C32.3528 17.4584 32.6817 17.6607 32.9925 17.8873C33.3034 18.1138 33.5054 18.2703 33.5986 18.3566C33.6919 18.4429 33.7696 18.5184 33.8317 18.5831C34.0079 18.7773 34.0338 18.9823 33.9095 19.1981L32.6507 21.5608C32.5678 21.7227 32.4486 21.809 32.2932 21.8198C32.1482 21.8521 32.0083 21.8144 31.8736 21.7065C31.8425 21.6741 31.7674 21.6094 31.6483 21.5123C31.5291 21.4152 31.3271 21.2722 31.0422 21.0834C30.7573 20.8946 30.4542 20.722 30.1331 20.5656C29.8119 20.4091 29.4259 20.2689 28.9753 20.1448C28.5246 20.0207 28.0817 19.9587 27.6465 19.9587C26.6623 19.9587 25.8593 20.1907 25.2377 20.6546C24.6161 21.1185 24.3053 21.7173 24.3053 22.4509C24.3053 22.7314 24.3493 22.9903 24.4374 23.2277C24.5254 23.465 24.6782 23.6889 24.8958 23.8993C25.1134 24.1097 25.318 24.2877 25.5097 24.4333C25.7013 24.579 25.9914 24.7462 26.38 24.935C26.7685 25.1238 27.0819 25.2694 27.3202 25.3719C27.5585 25.4744 27.9211 25.6228 28.408 25.817C28.9571 26.0327 29.3767 26.2027 29.6668 26.3267C29.9569 26.4508 30.3506 26.6396 30.8479 26.8931C31.3452 27.1467 31.7363 27.3759 32.0213 27.5809C32.3062 27.7859 32.6273 28.0556 32.9848 28.3901C33.3422 28.7245 33.6168 29.0671 33.8084 29.4177C34.0001 29.7683 34.1633 30.181 34.298 30.6557C34.4327 31.1304 34.5 31.6375 34.5 32.1769Z" fill="white"/>
<defs>
<linearGradient id="paint0_linear_204_144" x1="0" y1="0" x2="54" y2="54" gradientUnits="userSpaceOnUse">
<stop stop-color="#F65200"/>
<stop offset="1" stop-color="#FE9000"/>
</linearGradient>
</defs>
</svg>
