<svg width="88" height="88" viewBox="0 0 88 88" fill="none" xmlns="http://www.w3.org/2000/svg">
<circle cx="44.0067" cy="43.9969" r="34.7489" stroke="white" stroke-width="7.5"/>
<circle cx="43.9987" cy="43.9987" r="41.2488" stroke="url(#paint0_linear_7_139)" stroke-width="5.49984"/>
<g clip-path="url(#clip0_7_139)">
<rect x="9" y="9" width="70" height="70" rx="35" fill="#02F9D2"/>
<g clip-path="url(#clip1_7_139)">
<rect x="9" y="9" width="70.7578" height="70.7578" rx="35.3789" fill="white"/>
<g clip-path="url(#clip2_7_139)">
<path d="M44.7315 80.5411C64.5388 80.5411 80.5958 64.4841 80.5958 44.6768C80.5958 24.8695 64.5388 8.8125 44.7315 8.8125C24.9242 8.8125 8.86719 24.8695 8.86719 44.6768C8.86719 64.4841 24.9242 80.5411 44.7315 80.5411Z" fill="url(#paint1_linear_7_139)"/>
<path d="M55 50.4509C55 52.7277 54.2891 54.6882 52.8672 56.3326C51.4453 57.9769 49.5983 58.9926 47.3261 59.3795V63.2857C47.3261 63.494 47.2618 63.6652 47.1332 63.7991C47.0046 63.933 46.8402 64 46.6402 64H43.7464C43.5606 64 43.3998 63.9293 43.2641 63.7879C43.1283 63.6466 43.0604 63.4792 43.0604 63.2857V59.3795C42.1173 59.2455 41.2062 59.0149 40.3274 58.6875C39.4485 58.3601 38.7233 58.029 38.1517 57.6942C37.5801 57.3594 37.0513 57.0022 36.5655 56.6228C36.0796 56.2433 35.7473 55.9643 35.5687 55.7857C35.3901 55.6071 35.265 55.4732 35.1936 55.3839C34.9507 55.0714 34.9364 54.7664 35.1507 54.4688L37.3586 51.4554C37.4586 51.3065 37.6229 51.2173 37.8516 51.1875C38.0659 51.1577 38.2374 51.2247 38.366 51.3884L38.4089 51.433C40.0237 52.9063 41.76 53.8363 43.6177 54.2232C44.1465 54.3423 44.6752 54.4018 45.204 54.4018C46.3615 54.4018 47.3797 54.0818 48.2585 53.442C49.1374 52.8021 49.5768 51.8943 49.5768 50.7188C49.5768 50.3021 49.4696 49.9077 49.2553 49.5357C49.0409 49.1637 48.8016 48.8512 48.5372 48.5982C48.2728 48.3452 47.8548 48.0662 47.2832 47.7612C46.7116 47.4561 46.24 47.218 45.8685 47.0469C45.4969 46.8757 44.9253 46.6339 44.1536 46.3214C43.5963 46.0833 43.1569 45.8973 42.8353 45.7634C42.5138 45.6295 42.0744 45.4323 41.5171 45.1719C40.9597 44.9115 40.5132 44.6808 40.1773 44.4799C39.8415 44.279 39.4378 44.0149 38.9662 43.6875C38.4947 43.3601 38.1124 43.0439 37.8194 42.7388C37.5265 42.4338 37.2157 42.0692 36.887 41.6451C36.5583 41.221 36.3047 40.7894 36.126 40.3504C35.9474 39.9115 35.7974 39.4167 35.6759 38.8661C35.5544 38.3155 35.4937 37.7351 35.4937 37.125C35.4937 35.0714 36.1939 33.2708 37.5944 31.7232C38.9948 30.1756 40.8168 29.1786 43.0604 28.7321V24.7143C43.0604 24.5208 43.1283 24.3534 43.2641 24.2121C43.3998 24.0707 43.5606 24 43.7464 24H46.6402C46.8402 24 47.0046 24.067 47.1332 24.2009C47.2618 24.3348 47.3261 24.506 47.3261 24.7143V28.6429C48.1406 28.7321 48.9302 28.9033 49.6947 29.1563C50.4592 29.4092 51.0809 29.6585 51.5596 29.904C52.0383 30.1496 52.492 30.4286 52.9208 30.7411C53.3495 31.0536 53.6281 31.2693 53.7567 31.3884C53.8854 31.5074 53.9925 31.6116 54.0783 31.7009C54.3212 31.9688 54.3569 32.2515 54.1854 32.5491L52.4492 35.808C52.3349 36.0313 52.1705 36.1503 51.9562 36.1652C51.7561 36.2098 51.5632 36.1577 51.3774 36.0089C51.3345 35.9643 51.2309 35.875 51.0666 35.7411C50.9022 35.6071 50.6236 35.41 50.2306 35.1496C49.8376 34.8891 49.4196 34.651 48.9766 34.4353C48.5336 34.2195 48.0013 34.026 47.3797 33.8549C46.758 33.6838 46.1471 33.5982 45.5469 33.5982C44.1894 33.5982 43.0819 33.9182 42.2244 34.558C41.367 35.1979 40.9383 36.0238 40.9383 37.0357C40.9383 37.4226 40.999 37.7798 41.1205 38.1071C41.242 38.4345 41.4528 38.7433 41.7529 39.0335C42.053 39.3237 42.3352 39.5692 42.5996 39.7701C42.8639 39.971 43.2641 40.2016 43.7999 40.4621C44.3358 40.7225 44.7681 40.9234 45.0968 41.0647C45.4255 41.2061 45.9256 41.4107 46.5973 41.6786C47.3547 41.9762 47.9334 42.2106 48.3336 42.3817C48.7337 42.5528 49.2767 42.8132 49.9627 43.1629C50.6486 43.5126 51.1881 43.8289 51.581 44.1116C51.974 44.3943 52.417 44.7664 52.91 45.2277C53.4031 45.689 53.7817 46.1615 54.0461 46.6451C54.3105 47.1287 54.5356 47.6979 54.7213 48.3527C54.9071 49.0074 55 49.7068 55 50.4509Z" fill="white"/>
</g>
</g>
</g>
<defs>
<linearGradient id="paint0_linear_7_139" x1="43.9987" y1="0" x2="43.9987" y2="87.9974" gradientUnits="userSpaceOnUse">
<stop stop-color="#02F9D2"/>
<stop offset="1" stop-color="#0029FF"/>
</linearGradient>
<linearGradient id="paint1_linear_7_139" x1="44.7315" y1="8.8125" x2="44.7315" y2="80.5411" gradientUnits="userSpaceOnUse">
<stop stop-color="#03F6D3"/>
<stop offset="1" stop-color="#0134FD"/>
</linearGradient>
<clipPath id="clip0_7_139">
<rect x="9" y="9" width="70" height="70" rx="35" fill="white"/>
</clipPath>
<clipPath id="clip1_7_139">
<rect x="9" y="9" width="70.7578" height="70.7578" rx="35.3789" fill="white"/>
</clipPath>
<clipPath id="clip2_7_139">
<rect width="71.7286" height="71.7286" fill="white" transform="translate(8.89062 8.80859)"/>
</clipPath>
</defs>
</svg>
