<svg width="88" height="88" viewBox="0 0 88 88" fill="none" xmlns="http://www.w3.org/2000/svg">
<circle cx="44.0067" cy="43.9969" r="34.7489" stroke="white" stroke-width="7.5"/>
<circle cx="43.9987" cy="43.9987" r="41.2488" stroke="url(#paint0_linear_1301_100)" stroke-width="5.49984"/>
<g clip-path="url(#clip0_1301_100)">
<path d="M44 78C62.8418 78 78 62.8418 78 44C78 25.1582 62.8418 10 44 10C25.1582 10 10 25.1582 10 44C10 62.8418 25.1582 78 44 78Z" fill="#2775CA"/>
<path d="M53.3504 49.3832C53.3504 44.425 50.3754 42.725 44.4254 42.0168C40.1754 41.45 39.3254 40.3168 39.3254 38.3332C39.3254 36.3496 40.7422 35.075 43.5754 35.075C46.1254 35.075 47.5422 35.925 48.2504 38.05C48.3922 38.475 48.8172 38.7582 49.2422 38.7582H51.5086C52.0754 38.7582 52.5004 38.3332 52.5004 37.7668V37.625C51.9336 34.5082 49.3836 32.1 46.1254 31.8168V28.4168C46.1254 27.85 45.7004 27.425 44.9922 27.2832H42.8672C42.3004 27.2832 41.8754 27.7082 41.7336 28.4168V31.675C37.4836 32.2418 34.7922 35.075 34.7922 38.6168C34.7922 43.2918 37.6254 45.1332 43.5754 45.8418C47.5422 46.55 48.8172 47.4 48.8172 49.6668C48.8172 51.9335 46.8336 53.4918 44.1422 53.4918C40.4586 53.4918 39.1836 51.9332 38.7586 49.8082C38.6172 49.2418 38.1922 48.9582 37.7672 48.9582H35.3586C34.7922 48.9582 34.3672 49.3832 34.3672 49.95V50.0918C34.9336 53.6332 37.2004 56.1832 41.8754 56.8918V60.2918C41.8754 60.8582 42.3004 61.2832 43.0086 61.425H45.1336C45.7004 61.425 46.1254 61 46.2672 60.2918V56.8918C50.5172 56.1832 53.3504 53.2082 53.3504 49.3832Z" fill="white"/>
<path d="M36.7739 64.2575C25.7239 60.291 20.0571 47.966 24.1656 37.0575C26.2906 31.1075 30.9656 26.5742 36.7739 24.4492C37.3406 24.166 37.6239 23.741 37.6239 23.0325V21.0492C37.6239 20.4825 37.3406 20.0575 36.7739 19.916C36.6321 19.916 36.3489 19.916 36.2071 20.0575C22.7489 24.3075 15.3821 38.616 19.6321 52.0742C22.1821 60.0075 28.2739 66.0992 36.2071 68.6492C36.7739 68.9325 37.3406 68.6492 37.4821 68.0825C37.6239 67.941 37.6239 67.7992 37.6239 67.516V65.5325C37.6239 65.1075 37.1989 64.541 36.7739 64.2575ZM51.7906 20.0575C51.2239 19.7742 50.6571 20.0575 50.5156 20.6242C50.3739 20.766 50.3739 20.9075 50.3739 21.191V23.1742C50.3739 23.741 50.7989 24.3075 51.2239 24.591C62.2739 28.5575 67.9406 40.8825 63.8321 51.791C61.7071 57.741 57.0321 62.2742 51.2239 64.3992C50.6571 64.6825 50.3739 65.1075 50.3739 65.816V67.7992C50.3739 68.366 50.6571 68.791 51.2239 68.9325C51.3656 68.9325 51.6489 68.9325 51.7906 68.791C65.2489 64.541 72.6156 50.2325 68.3656 36.7742C65.8156 28.6992 59.5821 22.6075 51.7906 20.0575Z" fill="white"/>
</g>
<defs>
<linearGradient id="paint0_linear_1301_100" x1="43.9987" y1="0" x2="43.9987" y2="87.9974" gradientUnits="userSpaceOnUse">
<stop stop-color="#02F9D2"/>
<stop offset="1" stop-color="#0029FF"/>
</linearGradient>
<clipPath id="clip0_1301_100">
<rect width="68" height="68" fill="white" transform="translate(10 10)"/>
</clipPath>
</defs>
</svg>
