<svg width="100" height="100" viewBox="0 0 100 100" fill="none" xmlns="http://www.w3.org/2000/svg">
<circle cx="50" cy="50" r="37" fill="#3EE6C4"/>
<circle cx="49.8472" cy="50.1504" r="31.435" fill="white"/>
<g clip-path="url(#clip0_10_1277)">
<path d="M50 77C64.9117 77 77 64.9117 77 50C77 35.0883 64.9117 23 50 23C35.0883 23 23 35.0883 23 50C23 64.9117 35.0883 77 50 77Z" fill="#42A5F5"/>
<path d="M57 53.8544C57 55.3912 56.5023 56.7146 55.507 57.8245C54.5117 58.9344 53.2188 59.62 51.6283 59.8811V62.5179C51.6283 62.6585 51.5832 62.774 51.4932 62.8644C51.4032 62.9548 51.2882 63 51.1481 63H49.1225C48.9924 63 48.8799 62.9523 48.7848 62.8569C48.6898 62.7614 48.6423 62.6484 48.6423 62.5179V59.8811C47.9821 59.7907 47.3444 59.635 46.7292 59.4141C46.114 59.1931 45.6063 58.9696 45.2062 58.7436C44.8061 58.5176 44.4359 58.2765 44.0958 58.0204C43.7557 57.7642 43.5231 57.5759 43.3981 57.4554C43.2731 57.3348 43.1855 57.2444 43.1355 57.1842C42.9655 56.9732 42.9555 56.7673 43.1055 56.5664L44.651 54.5324C44.721 54.4319 44.8361 54.3717 44.9961 54.3516C45.1462 54.3315 45.2662 54.3767 45.3562 54.4872L45.3862 54.5173C46.5166 55.5117 47.732 56.1395 49.0324 56.4007C49.4025 56.481 49.7727 56.5212 50.1428 56.5212C50.953 56.5212 51.6658 56.3052 52.281 55.8733C52.8962 55.4414 53.2038 54.8287 53.2038 54.0352C53.2038 53.7539 53.1287 53.4877 52.9787 53.2366C52.8286 52.9855 52.6611 52.7746 52.476 52.6038C52.291 52.433 51.9984 52.2447 51.5983 52.0388C51.1981 51.8329 50.868 51.6722 50.6079 51.5566C50.3478 51.4411 49.9477 51.2779 49.4075 51.067C49.0174 50.9063 48.7098 50.7807 48.4847 50.6903C48.2597 50.5999 47.9521 50.4668 47.5619 50.291C47.1718 50.1152 46.8592 49.9595 46.6241 49.8239C46.3891 49.6883 46.1065 49.51 45.7764 49.2891C45.4463 49.0681 45.1787 48.8546 44.9736 48.6487C44.7685 48.4428 44.551 48.1967 44.3209 47.9104C44.0908 47.6242 43.9133 47.3329 43.7882 47.0366C43.6632 46.7402 43.5581 46.4063 43.4731 46.0346C43.3881 45.6629 43.3456 45.2712 43.3456 44.8594C43.3456 43.4732 43.8357 42.2578 44.8161 41.2132C45.7964 40.1685 47.0718 39.4955 48.6423 39.1942V36.4821C48.6423 36.3516 48.6898 36.2386 48.7848 36.1431C48.8799 36.0477 48.9924 36 49.1225 36H51.1481C51.2882 36 51.4032 36.0452 51.4932 36.1356C51.5832 36.226 51.6283 36.3415 51.6283 36.4821V39.1339C52.1984 39.1942 52.7511 39.3097 53.2863 39.4805C53.8215 39.6512 54.2566 39.8195 54.5917 39.9852C54.9268 40.1509 55.2444 40.3393 55.5445 40.5502C55.8446 40.7612 56.0397 40.9068 56.1297 40.9872C56.2197 41.0675 56.2948 41.1378 56.3548 41.1981C56.5248 41.3789 56.5499 41.5698 56.4298 41.7706L55.2144 43.9704C55.1344 44.1211 55.0194 44.2015 54.8693 44.2115C54.7293 44.2416 54.5942 44.2065 54.4642 44.106C54.4342 44.0759 54.3616 44.0156 54.2466 43.9252C54.1316 43.8348 53.9365 43.7017 53.6614 43.5259C53.3863 43.3502 53.0937 43.1895 52.7836 43.0438C52.4735 42.8982 52.1009 42.7676 51.6658 42.6521C51.2306 42.5366 50.803 42.4788 50.3829 42.4788C49.4326 42.4788 48.6573 42.6948 48.0571 43.1267C47.4569 43.5586 47.1568 44.1161 47.1568 44.7991C47.1568 45.0603 47.1993 45.3013 47.2844 45.5223C47.3694 45.7433 47.5169 45.9517 47.727 46.1476C47.9371 46.3435 48.1346 46.5092 48.3197 46.6448C48.5048 46.7804 48.7848 46.9361 49.16 47.1119C49.5351 47.2877 49.8377 47.4233 50.0678 47.5187C50.2978 47.6141 50.6479 47.7522 51.1181 47.933C51.6483 48.1339 52.0534 48.2921 52.3335 48.4076C52.6136 48.5232 52.9937 48.6989 53.4739 48.935C53.954 49.171 54.3316 49.3845 54.6067 49.5753C54.8818 49.7662 55.1919 50.0173 55.537 50.3287C55.8821 50.6401 56.1472 50.959 56.3323 51.2854C56.5173 51.6119 56.6749 51.9961 56.8049 52.4381C56.935 52.88 57 53.3521 57 53.8544Z" fill="white"/>
<path d="M42.6818 28C42.5564 28 42.4518 28.0209 42.3264 28.0627C33.1682 31.3036 27 40.0227 27 49.7245C27 59.4263 33.1682 68.1454 42.3264 71.3863C42.87 71.5745 43.4555 71.3027 43.6645 70.7591C43.8527 70.2154 43.5809 69.6091 43.0373 69.4209C34.6945 66.4727 29.0909 58.5482 29.0909 49.7245C29.0909 40.9009 34.6945 32.9763 43.0373 30.0282C43.5809 29.84 43.8736 29.2336 43.6645 28.69C43.5182 28.2718 43.1209 28 42.6818 28Z" fill="white"/>
<path d="M57.3162 28C56.8771 28 56.4799 28.2718 56.3335 28.69C56.1453 29.2336 56.4171 29.84 56.9608 30.0282C65.3035 32.9764 70.9071 40.9009 70.9071 49.7245C70.9071 58.5482 65.3035 66.4727 56.9608 69.4209C56.4171 69.6091 56.1244 70.2154 56.3335 70.7591C56.5217 71.3027 57.128 71.5954 57.6717 71.3864C66.8299 68.1454 72.998 59.4264 72.998 49.7245C72.998 40.0227 66.8299 31.3036 57.6717 28.0627C57.5462 28.0209 57.4417 28 57.3162 28Z" fill="white"/>
</g>
<defs>
<clipPath id="clip0_10_1277">
<rect width="54" height="54" fill="white" transform="translate(23 23)"/>
</clipPath>
</defs>
</svg>
