<svg width="54" height="54" viewBox="0 0 54 54" fill="none" xmlns="http://www.w3.org/2000/svg">
<path d="M54 6L48 0H0V48L6 54H54V6Z" fill="url(#paint0_linear_204_152)"/>
<path d="M37.6108 15.0013H41.9408L32.9297 23.9235C29.6664 27.1529 24.3756 27.1529 21.11 23.9235L12.0953 15.0013H16.4289L23.275 21.779C24.2724 22.7621 25.6167 23.3132 27.0172 23.3132C28.4177 23.3132 29.762 22.7621 30.7594 21.779L37.6108 15.0013Z" fill="white"/>
<path d="M16.3737 39.8111H12.0408L21.1104 30.8339C24.3737 27.6045 29.6645 27.6045 32.9302 30.8339L41.9998 39.8111H37.6698L30.7652 32.9784C29.7677 31.9953 28.4234 31.4442 27.0229 31.4442C25.6224 31.4442 24.2781 31.9953 23.2807 32.9784L16.3737 39.8111Z" fill="white"/>
<defs>
<linearGradient id="paint0_linear_204_152" x1="0" y1="0" x2="54" y2="54" gradientUnits="userSpaceOnUse">
<stop stop-color="#F65200"/>
<stop offset="1" stop-color="#FE9000"/>
</linearGradient>
</defs>
</svg>
