<svg width="55" height="55" viewBox="0 0 55 55" fill="none" xmlns="http://www.w3.org/2000/svg">
<path d="M27.5 55C42.6878 55 55 42.6878 55 27.5C55 12.3122 42.6878 0 27.5 0C12.3122 0 0 12.3122 0 27.5C0 42.6878 12.3122 55 27.5 55Z" fill="white"/>
<mask id="mask0_1782_118" style="mask-type:luminance" maskUnits="userSpaceOnUse" x="3" y="3" width="49" height="49">
<path d="M51.3191 3.16663H3.6875V51.579H51.3191V3.16663Z" fill="white"/>
</mask>
<g mask="url(#mask0_1782_118)">
<path d="M27.2799 50.9831C40.3097 50.9831 50.8725 40.4124 50.8725 27.3727C50.8725 14.3332 40.3097 3.76245 27.2799 3.76245C14.2502 3.76245 3.6875 14.3332 3.6875 27.3727C3.6875 40.4124 14.2502 50.9831 27.2799 50.9831Z" fill="white"/>
<path d="M27.6292 8.99725L27.3828 9.83463V34.1291L27.6292 34.3755L38.9061 27.7099L27.6292 8.99725Z" fill="#343434"/>
<path d="M27.63 8.99725L16.3516 27.7099L27.6284 34.3755V8.99725H27.63Z" fill="#8C8C8C"/>
<path d="M27.6276 36.5112L27.4883 36.6811V45.3355L27.6276 45.7397L38.9121 29.8486L27.6276 36.5112Z" fill="#3C3C3B"/>
<path d="M27.6284 45.7397V36.5112L16.3516 29.8486L27.6284 45.7397Z" fill="#8C8C8C"/>
<path d="M27.6289 34.3755L38.9058 27.7098L27.6289 22.5842V34.3755Z" fill="#141414"/>
<path d="M16.3516 27.7099L27.6284 34.3756V22.5828L16.3516 27.7099Z" fill="#393939"/>
</g>
</svg>
