<svg width="113" height="113" viewBox="0 0 113 113" fill="none" xmlns="http://www.w3.org/2000/svg">
<rect width="113" height="113" rx="56.5" fill="#EC255A"/>
<g clip-path="url(#clip0_950_81)">
<path d="M72.214 76.9338L71.6688 76.9011C70.5274 76.8321 69.4078 76.723 68.3101 76.574C67.2123 76.4249 66.1545 76.2632 65.1367 76.0887C64.1226 75.9106 63.1466 75.6943 62.2087 75.4399V67.0867C63.4356 67.1957 64.766 67.283 66.1945 67.3593C67.6231 67.4356 69.068 67.4847 70.5565 67.5174C72.045 67.5501 73.3863 67.5719 74.6513 67.5719C75.6522 67.5911 76.6522 67.5015 77.6338 67.3048C78.3003 67.187 78.9213 66.887 79.4277 66.4378C79.6316 66.2191 79.7893 65.9615 79.8914 65.6805C79.9935 65.3994 80.0379 65.1007 80.022 64.8021V64.1696C80.044 63.8211 79.9764 63.4727 79.8256 63.1577C79.6748 62.8428 79.4458 62.5717 79.1605 62.3703C78.5809 61.9658 77.8879 61.7558 77.1812 61.7705H74.3296C70.1385 61.7705 66.956 60.849 64.7823 59.0061C62.6086 57.1632 61.5181 54.0734 61.5108 49.7369V47.943C61.5108 43.97 62.7049 40.9966 65.0931 39.0228C66.8742 37.5506 69.237 36.6292 72.1813 36.2584V32H78.07V36.1384C78.8061 36.1766 79.5203 36.2366 80.2128 36.3129C81.7122 36.4765 83.119 36.6728 84.4439 36.9072C85.7689 37.1417 86.9466 37.387 87.9935 37.6379V45.991C86.3287 45.8493 84.4585 45.7311 82.3829 45.6366C80.3001 45.5494 78.4135 45.5003 76.7123 45.5003C75.7989 45.4928 74.8867 45.5657 73.9861 45.7184C73.2979 45.8131 72.6549 46.1156 72.1432 46.5854C71.9191 46.8446 71.7491 47.146 71.6433 47.4718C71.5375 47.7977 71.498 48.1414 71.527 48.4828V49.0281C71.5003 49.4131 71.5632 49.7992 71.7108 50.1558C71.8584 50.5125 72.0866 50.8301 72.3776 51.0837C73.1577 51.6116 74.0938 51.8595 75.033 51.787H78.6152C80.8112 51.7076 82.9897 52.2039 84.9347 53.2265C86.5649 54.1218 87.8931 55.4804 88.7514 57.1305C89.6241 58.87 90.0619 60.7952 90.0273 62.7411V64.5295C90.0273 67.9645 89.4311 70.5872 88.2389 72.3974C87.0464 74.2016 85.2318 75.5039 83.1408 76.056C81.4844 76.5136 79.7851 76.7987 78.07 76.9066V81.563H72.214V76.9338ZM23 76.7103L34.93 36.3947H48.0814L59.9841 76.7103H49.0792L47.4434 70.3145H35.3662L33.7904 76.7103H23ZM37.8035 60.8981H45.0171L41.3857 45.3422L37.8035 60.849V60.8981Z" fill="white"/>
</g>
<defs>
<clipPath id="clip0_950_81">
<rect width="67" height="49.563" fill="white" transform="translate(23 32)"/>
</clipPath>
</defs>
</svg>
