<svg width="113" height="113" viewBox="0 0 113 113" fill="none" xmlns="http://www.w3.org/2000/svg">
<rect width="113" height="113" rx="56.5" fill="#EC255A"/>
<path d="M70.54 78.1396L70.0094 78.1078C68.8173 78.0335 67.6411 77.9203 66.4808 77.7682C65.3205 77.6161 64.2116 77.4392 63.1539 77.2375C62.0927 77.0501 61.0686 76.8237 60.0816 76.5584V67.8086C61.3693 67.9253 62.763 68.0208 64.2629 68.0951C65.7645 68.1694 67.2767 68.2278 68.8155 68.2649C70.3543 68.302 71.7816 68.3233 73.1135 68.3233C74.1626 68.3425 75.2106 68.2464 76.2388 68.0367C76.9395 67.9175 77.5924 67.603 78.1224 67.1294C78.3374 66.9021 78.5038 66.6333 78.6114 66.3396C78.7191 66.0458 78.7657 65.7332 78.7486 65.4208V64.7363C78.7738 64.3749 78.7061 64.013 78.552 63.6851C78.3978 63.3573 78.1622 63.0743 77.8678 62.8633C77.2604 62.4391 76.5336 62.2198 75.7931 62.2371H72.758C68.3574 62.2371 65.0163 61.2697 62.7347 59.3347C60.4531 57.3997 59.3193 54.1559 59.3335 49.6033V47.7249C59.3335 43.5543 60.5839 40.4361 63.0849 38.3702C64.9597 36.8279 67.4359 35.8604 70.5135 35.4678V31H76.6845V35.3404C77.4539 35.3829 78.2073 35.4465 78.9343 35.5208C80.5155 35.6906 81.9941 35.8993 83.3702 36.1469C84.7463 36.3946 85.9844 36.651 87.0845 36.9163V45.6767C85.3388 45.5282 83.3702 45.4061 81.1947 45.3106C79.0192 45.2151 77.0347 45.1673 75.2518 45.1673C74.2989 45.1574 73.347 45.2338 72.4078 45.3955C71.6847 45.4933 71.0089 45.8099 70.471 46.3029C70.2299 46.5729 70.0455 46.8887 69.9288 47.2314C69.8121 47.5742 69.7655 47.9369 69.7918 48.298V48.8657C69.7646 49.271 69.8319 49.677 69.9884 50.0518C70.145 50.4266 70.3865 50.7598 70.6939 51.0253C71.5136 51.5812 72.4973 51.843 73.4849 51.7682H77.2363C79.8965 51.7682 82.1056 52.2705 83.8637 53.2751C85.5681 54.2161 86.9549 55.6418 87.8486 57.3714C88.7637 59.1978 89.2225 61.2187 89.1857 63.2612V65.1396C89.1857 68.7407 88.5596 71.4893 87.3073 73.3853C86.0591 75.2815 84.1543 76.6497 81.9588 77.2269C80.2248 77.7031 78.447 78.0018 76.6527 78.1184V83H70.54V78.1396ZM24 77.8796V35.611H42.0408C43.7703 35.5977 45.4927 35.8318 47.1559 36.3061C48.6674 36.7382 50.0524 37.5281 51.1939 38.609C52.4179 39.8249 53.3283 41.3198 53.8469 42.9653C54.5338 45.1981 54.851 47.5281 54.7861 49.8633C54.8077 51.3932 54.6546 52.9207 54.3298 54.4159C54.0817 55.56 53.6707 56.6625 53.1094 57.6898C52.6317 58.5354 52.0146 59.2943 51.2841 59.9343C50.59 60.5373 49.8382 61.0705 49.0396 61.5261L56.3673 77.8796H45.1661L39.2498 63.3143H35.0367V77.8796H24ZM35.0367 54.5327H40.0457C40.5873 54.5431 41.1263 54.4569 41.6376 54.278C42.0922 54.1086 42.4947 53.8232 42.8049 53.4502C43.1495 53.028 43.3927 52.5325 43.5159 52.0016C43.6777 51.306 43.7544 50.5933 43.7441 49.8792C43.758 49.1649 43.6813 48.4517 43.5159 47.7567C43.4151 47.2783 43.1876 46.8358 42.8572 46.4755C42.5267 46.1151 42.1055 45.8503 41.6376 45.7086C41.1222 45.5495 40.585 45.4725 40.0457 45.4804H35.0367V54.5539V54.5327Z" fill="white"/>
</svg>
