<svg width="113" height="113" viewBox="0 0 113 113" fill="none" xmlns="http://www.w3.org/2000/svg">
<rect width="113" height="113" rx="56.5" fill="#EC255A"/>
<path d="M69.202 77.5965L68.7097 77.5669C67.5709 77.498 66.4485 77.3897 65.3425 77.242C64.2365 77.0943 63.1781 76.9302 62.1672 76.7497C61.1531 76.566 60.1686 76.3493 59.2135 76.0999V67.7311C60.4442 67.8394 61.7783 67.928 63.206 68.0019C64.6336 68.0757 66.0858 68.1299 67.5528 68.1643C69.0198 68.1988 70.3834 68.2185 71.6486 68.2185C72.6516 68.2377 73.6536 68.1469 74.6368 67.9477C75.3032 67.827 75.9223 67.5217 76.4238 67.0665C76.6284 66.8505 76.7868 66.5951 76.8892 66.3157C76.9916 66.0364 77.0359 65.7391 77.0194 65.442V64.8069C77.0416 64.4615 76.976 64.1161 76.8288 63.8028C76.6816 63.4895 76.4576 63.2185 76.1776 63.015C75.6006 62.6135 74.9113 62.405 74.2085 62.4194H71.3188C67.118 62.4194 63.9329 61.4955 61.7636 59.6478C59.5942 57.8001 58.5129 54.7053 58.5194 50.3633V48.5714C58.5194 44.5905 59.714 41.6122 62.1032 39.6365C63.8787 38.1629 66.245 37.2407 69.202 36.8699V32.6067H75.0651V36.7517C75.8035 36.7911 76.5419 36.8502 77.2114 36.924C78.6883 37.0865 80.1257 37.2883 81.4451 37.5197C82.7644 37.7511 83.9557 38.012 85.0043 38.2532V46.622C83.3403 46.4809 81.4664 46.3627 79.3824 46.2676C77.2984 46.1724 75.4064 46.1281 73.7064 46.1346C72.7975 46.1247 71.8896 46.1972 70.9939 46.3512C70.3039 46.4429 69.6592 46.7455 69.1478 47.2177C68.9182 47.475 68.7424 47.7757 68.6308 48.1021C68.5192 48.4284 68.474 48.7738 68.498 49.1179V49.6643C68.471 50.0498 68.5338 50.4363 68.6816 50.7934C68.8294 51.1505 69.0581 51.4684 69.3497 51.7221C70.133 52.2495 71.0713 52.4975 72.0129 52.426H75.5967C77.7943 52.3488 79.9742 52.8442 81.9226 53.8635C83.5515 54.7708 84.8742 56.1415 85.723 57.8018C86.5961 59.5434 87.0337 61.4708 86.998 63.4187V65.2106C86.998 68.65 86.4007 71.2756 85.2061 73.0872C84.0136 74.8951 82.1958 76.1993 80.1011 76.7497C78.4508 77.2044 76.7585 77.4898 75.0503 77.6014V82.2633H69.202V77.5965ZM41.3436 77.6752C39.2705 77.7031 37.2043 77.4295 35.2098 76.863C33.4039 76.323 31.7855 75.2878 30.538 73.8748C29.2253 72.4275 28.2309 70.3468 27.5548 67.6327C26.8787 64.9185 26.5341 61.3889 26.521 57.0436C26.521 52.8428 26.8836 49.3968 27.6089 46.7057C28.3342 44.0145 29.3565 41.9486 30.6759 40.5078C31.9346 39.0798 33.5632 38.027 35.3821 37.4655C37.3157 36.8872 39.3255 36.6034 41.3436 36.6237C43.3316 36.6078 45.3184 36.7262 47.2904 36.9782C48.7733 37.1684 50.2431 37.4495 51.6914 37.82C52.6834 38.0731 53.6545 38.4023 54.5959 38.8045V46.9961C53.9067 46.8534 53.0206 46.7057 51.9327 46.5629C50.8447 46.4202 49.6091 46.302 48.2159 46.2085C46.8228 46.1149 45.3115 46.0756 43.682 46.0756C42.6272 46.0514 41.5744 46.1791 40.556 46.4546C39.7168 46.6994 38.9946 47.2398 38.5229 47.9758C37.9221 48.998 37.5431 50.1352 37.4103 51.3135C37.1434 53.2477 37.0249 55.1996 37.0559 57.1519C37.0367 58.9608 37.1271 60.7691 37.3266 62.5671C37.4301 63.7511 37.7646 64.9035 38.3112 65.9589C38.7628 66.7597 39.4829 67.3752 40.3443 67.6966C41.4538 68.0678 42.6213 68.2346 43.7903 68.1889C46.5438 68.1889 48.7788 68.143 50.4952 68.0511C52.2116 67.9592 53.5736 67.8558 54.5812 67.741V75.9276C53.5513 76.3269 52.489 76.6365 51.4059 76.8531C49.9975 77.1333 48.5741 77.3322 47.1427 77.4488C45.5018 77.5965 43.5638 77.6687 41.3289 77.6654L41.3436 77.6752Z" fill="white"/>
</svg>
