<svg width="113" height="113" viewBox="0 0 113 113" fill="none" xmlns="http://www.w3.org/2000/svg">
<rect width="113" height="113" rx="56.5" fill="#EC255A"/>
<path d="M72.6482 75.2707L73.9624 81.2411C74.0375 81.5415 74 81.8231 73.8498 82.086C73.6996 82.3488 73.4868 82.5303 73.2115 82.6304L73.0237 82.668C72.9236 82.718 72.7922 82.7619 72.6294 82.7994C72.4667 82.8369 72.2665 82.8933 72.0287 82.9684C71.7908 83.0435 71.5217 83.1123 71.2213 83.1749C70.9209 83.2375 70.6018 83.3001 70.2638 83.3626C69.9259 83.4252 69.5504 83.4878 69.1374 83.5504C68.7243 83.613 68.305 83.6693 67.8794 83.7194C67.4539 83.7694 66.997 83.807 66.5089 83.832C66.0208 83.857 65.5389 83.8696 65.0632 83.8696C59.2055 83.8696 54.0863 82.2362 49.7055 78.9694C45.3248 75.7026 42.3458 71.303 40.7688 65.7707H37.2016C36.8762 65.7707 36.5945 65.6518 36.3567 65.414C36.1189 65.1762 36 64.8946 36 64.5692V60.3261C36 60.0007 36.1189 59.719 36.3567 59.4812C36.5945 59.2434 36.8762 59.1245 37.2016 59.1245H39.6798C39.6298 57.6976 39.6423 56.3834 39.7174 55.1818H37.2016C36.8511 55.1818 36.5632 55.0692 36.3379 54.8439C36.1126 54.6186 36 54.3307 36 53.9802V49.6996C36 49.3491 36.1126 49.0613 36.3379 48.836C36.5632 48.6107 36.8511 48.498 37.2016 48.498H40.8814C42.5586 43.2411 45.6064 39.0105 50.0247 35.8063C54.443 32.6021 59.4559 31 65.0632 31C67.6166 31 70.0448 31.2879 72.3478 31.8636C72.6232 31.9387 72.8735 32.1265 73.0988 32.4269C73.249 32.7022 73.2866 33.0026 73.2115 33.3281L71.5968 39.2984C71.5217 39.6238 71.3465 39.8679 71.0711 40.0306C70.7958 40.1933 70.4954 40.2246 70.17 40.1245L70.0198 40.087C69.9196 40.0619 69.7757 40.0306 69.5879 39.9931L68.9308 39.8617L68.086 39.7302L67.1097 39.6176L66.0208 39.5237L64.913 39.4862C61.7589 39.4862 58.9302 40.2872 56.4269 41.8893C53.9236 43.4914 52.0461 45.6943 50.7945 48.498H68.3676C68.7681 48.498 69.081 48.6482 69.3063 48.9486C69.5567 49.249 69.6443 49.5744 69.5692 49.9249L68.668 54.2055C68.5428 54.8564 68.1423 55.1818 67.4664 55.1818H49.1423C49.0672 56.108 49.0672 57.4223 49.1423 59.1245H66.3775C66.753 59.1245 67.0659 59.2747 67.3162 59.5751C67.5415 59.8755 67.6166 60.2134 67.5415 60.5889L66.6403 64.7945C66.5903 65.0698 66.4526 65.3014 66.2273 65.4891C66.002 65.6769 65.7516 65.7707 65.4763 65.7707H50.9447C52.1462 68.6996 54.0175 71.0214 56.5583 72.7362C59.0991 74.4509 61.9592 75.3083 65.1383 75.3083C65.5889 75.3083 66.0395 75.2895 66.4901 75.252C66.9407 75.2144 67.36 75.1706 67.748 75.1205C68.136 75.0705 68.5053 75.0142 68.8557 74.9516C69.2062 74.889 69.5128 74.8264 69.7757 74.7638C70.0385 74.7012 70.2701 74.6449 70.4704 74.5949L70.9209 74.4822L71.1087 74.4071C71.4341 74.2819 71.7596 74.307 72.085 74.4822C72.3854 74.6574 72.5731 74.9203 72.6482 75.2707Z" fill="white"/>
</svg>
