<svg width="88" height="88" viewBox="0 0 88 88" fill="none" xmlns="http://www.w3.org/2000/svg">
<circle cx="43.9987" cy="43.9987" r="41.2488" stroke="url(#paint0_linear_7_61)" stroke-width="5.49984"/>
<circle cx="44.0067" cy="43.9969" r="35.7489" stroke="white" stroke-width="5.49984"/>
<g clip-path="url(#clip0_7_61)">
<rect x="9" y="9" width="70" height="70" rx="35" fill="white"/>
<rect x="38" y="9" width="11" height="70" fill="#CF142B"/>
<rect x="9" y="50" width="11" height="70" transform="rotate(-90 9 50)" fill="#CF142B"/>
<path d="M35 32V10L22.8611 12.5L18.1111 16.5L16 22L35 32Z" fill="#00247D"/>
<path d="M35 56V78L22.8611 75.5L18.1111 71.5L16 66L35 56Z" fill="#00247D"/>
<path d="M52 32V10L64.1389 12.5L68.8889 16.5L71 22L52 32Z" fill="#00247D"/>
<path d="M52 56V78L64.1389 75.5L68.8889 71.5L71 66L52 56Z" fill="#00247D"/>
<path d="M29 36H10C10 34.6667 10.1 32 10.5 32C10.9 32 11 30.6667 11 30L12 27H13.5L29 36Z" fill="#00247D"/>
<path d="M59 36H78C78 34.6667 77.9 32 77.5 32C77.1 32 77 30.6667 77 30L76 27H74.5L59 36Z" fill="#00247D"/>
<path d="M59 53H78C78 54.3333 77.9 57 77.5 57C77.1 57 77 58.3333 77 59L76 62H74.5L59 53Z" fill="#00247D"/>
<path d="M29 53H10C10 54.3333 10.1 57 10.5 57C10.9 57 11 58.3333 11 59L12 62H13.5L29 53Z" fill="#00247D"/>
</g>
<defs>
<linearGradient id="paint0_linear_7_61" x1="43.9987" y1="0" x2="43.9987" y2="87.9974" gradientUnits="userSpaceOnUse">
<stop stop-color="#0029FF"/>
<stop offset="1" stop-color="#FFB200"/>
</linearGradient>
<clipPath id="clip0_7_61">
<rect x="9" y="9" width="70" height="70" rx="35" fill="white"/>
</clipPath>
</defs>
</svg>
