<svg width="113" height="113" viewBox="0 0 113 113" fill="none" xmlns="http://www.w3.org/2000/svg">
<rect width="113" height="113" rx="56.5" fill="#EC255A"/>
<g clip-path="url(#clip0_950_97)">
<path d="M55.1129 52.8593H64.8758V60.6073H56.244C56.1329 62.4296 55.8035 64.0725 55.2439 65.54C54.7954 66.6525 54.0453 67.8129 52.9937 69.0172C54.1922 68.754 55.224 68.6184 56.0813 68.6184C57.1806 68.6184 58.6053 68.8298 60.3634 69.2485C62.7684 69.7987 64.6893 70.0779 66.1299 70.0779C67.3046 70.0779 68.3285 69.9782 69.1937 69.7788C70.0707 69.5794 71.2137 69.1607 72.6186 68.5227L77 78.1887C74.8807 79.2494 73.0115 79.9871 71.3963 80.3979C69.7929 80.8046 68.0705 81.004 66.2212 81.004C64.2011 81.004 61.9033 80.6491 59.2998 79.9433C55.8947 79.0062 53.7874 78.4639 52.9619 78.3083C52.1483 78.1648 51.2713 78.089 50.3267 78.089C47.5606 78.089 44.5047 79.058 41.1671 81.004L37 71.7966C41.5243 68.5506 43.7864 65.3087 43.7864 62.0627C43.7864 61.8873 43.7626 61.4008 43.7189 60.6073H37V52.8593H41.81C40.9964 50.0241 40.5242 48.3692 40.4249 47.9146C40.294 47.2288 40.2265 46.3794 40.2265 45.3665C40.2265 42.6749 40.9409 40.2584 42.3696 38.117C43.7864 35.9757 45.6636 34.4205 47.9932 33.4595C50.3228 32.4865 53.454 32 57.3949 32C61.0857 32 64.0066 32.4187 66.1577 33.2481C68.3126 34.0736 70.1382 35.4533 71.6185 37.3753C73.1107 39.3053 74.1346 41.6341 74.6942 44.3736L62.3716 46.3036C61.7564 44.0068 61.0421 42.4835 60.2404 41.7338C59.4387 40.9841 58.5259 40.6093 57.506 40.6093C56.2638 40.6093 55.2637 41.016 54.4978 41.8335C53.7278 42.651 53.3429 43.8074 53.3429 45.3107C53.3429 46.1162 53.4183 46.8778 53.5731 47.6156C53.7159 48.3652 54.2319 50.1118 55.1129 52.8593Z" fill="white"/>
</g>
<defs>
<clipPath id="clip0_950_97">
<rect width="40" height="49" fill="white" transform="translate(37 32)"/>
</clipPath>
</defs>
</svg>
