<svg width="113" height="113" viewBox="0 0 113 113" fill="none" xmlns="http://www.w3.org/2000/svg">
<rect width="113" height="113" rx="56.5" fill="#EC255A"/>
<path d="M81.697 71.6181H81.3153C80.4811 71.568 79.6469 71.4867 78.8127 71.3741C77.9868 71.2677 77.1985 71.1488 76.4415 71.0112C75.6844 70.8735 74.9524 70.7171 74.2517 70.5232V64.2666C75.1714 64.3479 76.1286 64.4168 77.2298 64.4731C78.331 64.5294 79.3821 64.5669 80.477 64.5919C81.5719 64.617 82.5917 64.6357 83.5364 64.6357C84.2842 64.6496 85.0313 64.5804 85.7638 64.4293C86.2606 64.3528 86.7252 64.1357 87.1027 63.8036C87.256 63.6426 87.3746 63.4517 87.451 63.2429C87.5275 63.0341 87.5601 62.8118 87.5469 62.5898V62.1018C87.5639 61.844 87.5155 61.5861 87.4061 61.352C87.2967 61.1179 87.1299 60.9153 86.9212 60.7629C86.4863 60.4619 85.9672 60.3064 85.4384 60.3187H83.2924C80.1558 60.3187 77.7762 59.6305 76.1537 58.254C74.5311 56.8776 73.7157 54.5522 73.7073 51.2779V49.939C73.7073 46.9693 74.5999 44.7461 76.3852 43.2695C77.9213 42.0865 79.7651 41.3699 81.697 41.2049V38.0203H86.0766V41.1486C86.6272 41.1486 87.159 41.2174 87.6783 41.2737C88.7982 41.3988 89.8556 41.5427 90.8441 41.7242C91.8326 41.9056 92.7211 42.0808 93.4969 42.2685V48.5251C92.2456 48.4187 90.8566 48.3311 89.2987 48.2623C87.7408 48.1935 86.3331 48.1622 85.063 48.1622C84.3837 48.1536 83.7051 48.2081 83.0359 48.3248C82.5244 48.3896 82.0446 48.6077 81.6595 48.9505C81.4872 49.1425 81.3552 49.3672 81.2714 49.6111C81.1876 49.8551 81.1536 50.1134 81.1714 50.3707V50.7774C81.1506 51.0648 81.1962 51.3531 81.3047 51.62C81.4132 51.8869 81.5817 52.1252 81.7971 52.3165C82.3779 52.7156 83.0779 52.9033 83.7804 52.8483H86.4582C88.0989 52.7896 89.7267 53.1583 91.182 53.9182C92.3978 54.5741 93.3942 55.5727 94.0475 56.79C94.6971 58.0926 95.0234 59.5327 94.9985 60.9881V62.3271C94.9985 64.8923 94.5522 66.8506 93.6596 68.202C92.7694 69.5526 91.413 70.5282 89.8493 70.9424C88.623 71.2803 87.365 71.49 86.0954 71.568V75.0529H81.7158V71.6181H81.697ZM18.1177 71.4304V41.305H25.9822V52.9047H34.9041V41.305H42.7686V71.4304H34.9041V59.9558H25.9822V71.4304H18.1177ZM47.2295 71.4304V41.305H55.1003V53.036H58.2286L63.0461 41.305H71.3987L64.4664 56.4709L71.7615 71.4304H63.409L58.2223 60.0809H55.094V71.4304H47.2295Z" fill="white"/>
</svg>
