<svg width="113" height="113" viewBox="0 0 113 113" fill="none" xmlns="http://www.w3.org/2000/svg">
<rect width="113" height="113" rx="56.5" fill="#EC255A"/>
<path d="M30.5217 77C30.1028 77 29.7602 76.8667 29.4936 76.6002C29.2271 76.2956 29.0938 75.9529 29.0938 75.5721V38.4472C29.0938 38.0283 29.2271 37.6856 29.4936 37.4191C29.7602 37.1525 30.1028 37.0193 30.5217 37.0193H37.7182C38.1371 37.0193 38.4798 37.1525 38.7463 37.4191C39.0128 37.6856 39.1461 38.0283 39.1461 38.4472V51.1268L49.7124 38.1045C49.8648 37.876 50.1123 37.6475 50.4549 37.4191C50.8357 37.1525 51.3307 37.0193 51.9399 37.0193H60.1645C60.5072 37.0193 60.7928 37.1525 61.0213 37.4191C61.2497 37.6475 61.364 37.9141 61.364 38.2187C61.364 38.4852 61.3069 38.7137 61.1926 38.9041L47.4849 56.1529L62.2207 75.1152C62.373 75.2675 62.4492 75.496 62.4492 75.8006C62.4492 76.1052 62.3349 76.3908 62.1065 76.6573C61.878 76.8858 61.5924 77 61.2497 77H52.7396C52.0542 77 51.5211 76.8477 51.1403 76.5431C50.7976 76.2385 50.5692 76.01 50.4549 75.8577L39.1461 61.7502V75.5721C39.1461 75.9529 39.0128 76.2956 38.7463 76.6002C38.4798 76.8667 38.1371 77 37.7182 77H30.5217ZM67.7658 77C67.3469 77 67.0043 76.8667 66.7377 76.6002C66.4712 76.2956 66.3379 75.9529 66.3379 75.5721V48.7279C66.3379 48.3471 66.4712 48.0235 66.7377 47.757C67.0043 47.4523 67.3469 47.3 67.7658 47.3H74.3341C74.7529 47.3 75.0956 47.4523 75.3621 47.757C75.6667 48.0235 75.8191 48.3471 75.8191 48.7279V51.0125C76.8091 49.8321 78.0085 48.9183 79.4173 48.271C80.8642 47.6237 82.4825 47.3 84.2721 47.3H86.7852C87.204 47.3 87.5467 47.4333 87.8133 47.6998C88.0798 47.9664 88.2131 48.3091 88.2131 48.7279V54.6108C88.2131 54.9916 88.0798 55.3343 87.8133 55.6389C87.5467 55.9054 87.204 56.0387 86.7852 56.0387H81.245C79.6839 56.0387 78.4654 56.4766 77.5896 57.3523C76.7519 58.19 76.3331 59.3894 76.3331 60.9506V75.5721C76.3331 75.9529 76.1808 76.2956 75.8762 76.6002C75.6096 76.8667 75.2669 77 74.8481 77H67.7658Z" fill="white"/>
</svg>
