<svg width="113" height="113" viewBox="0 0 113 113" fill="none" xmlns="http://www.w3.org/2000/svg">
<rect width="113" height="113" rx="56.5" fill="#EC255A"/>
<g clip-path="url(#clip0_950_110)">
<path d="M79.6172 72.4468H79.2178C78.3474 72.3912 77.4889 72.3077 76.6423 72.1964C75.8017 72.0891 74.9849 71.958 74.2099 71.8208C73.4349 71.6837 72.6837 71.5168 71.9683 71.326V64.8993C72.9103 64.9827 73.9297 65.0483 75.0207 65.1079C76.1117 65.1676 77.2266 65.2033 78.3474 65.2331C79.4682 65.2629 80.5174 65.2749 81.4892 65.2749C82.2616 65.2893 83.0332 65.2194 83.7904 65.0662C84.3002 64.9741 84.7747 64.743 85.1616 64.3985C85.3184 64.2327 85.44 64.0367 85.5189 63.8226C85.5978 63.6084 85.6324 63.3804 85.6207 63.1525V62.6517C85.6373 62.3874 85.5871 62.1232 85.4745 61.8836C85.362 61.6439 85.1908 61.4365 84.9768 61.2805C84.5314 60.9704 83.9991 60.8097 83.4565 60.8215H81.2567C78.0453 60.8215 75.605 60.116 73.9357 58.7051C72.2664 57.2941 71.4318 54.9233 71.4318 51.5927V50.2215C71.4318 47.1771 72.3459 44.8977 74.1741 43.3834C75.7494 42.1721 77.6378 41.4357 79.6172 41.2611V38H84.1064V41.1716C84.6668 41.1716 85.2212 41.2491 85.7458 41.3028C86.8965 41.428 87.9815 41.583 88.989 41.7618C89.9966 41.9407 90.9087 42.1315 91.7135 42.3222V48.7311C90.4377 48.6238 89.0009 48.5284 87.4092 48.4628C85.8174 48.3972 84.3687 48.3555 83.069 48.3555C82.372 48.3506 81.6758 48.4065 80.9884 48.5224C80.4604 48.5959 79.9674 48.8289 79.5755 49.1901C79.3986 49.3865 79.263 49.6166 79.177 49.8665C79.091 50.1164 79.0562 50.3811 79.0747 50.6448V51.0621C79.0559 51.3592 79.1064 51.6566 79.2223 51.9308C79.3382 52.205 79.5162 52.4484 79.7424 52.642C80.3403 53.0446 81.0566 53.2337 81.7753 53.1785H84.5237C86.2058 53.1189 87.8744 53.499 89.3646 54.2815C90.6066 54.9671 91.6187 56.004 92.2739 57.2623C92.9412 58.5976 93.2766 60.0741 93.2517 61.5667V62.9379C93.2517 65.567 92.7926 67.5821 91.8805 68.9652C90.9672 70.3548 89.572 71.3571 87.9636 71.7791C86.7009 72.1247 85.4067 72.3424 84.1004 72.4289V76.006H79.6172V72.4289V72.4468ZM20 72.256V41.3684H26.4029L37.2532 58.5799V41.3684H45.3194V72.256H38.9165L28.0662 55.0446V72.256H20ZM48.1035 72.256V65.8532L59.6216 48.5999H48.1035V41.3684H69.4346V47.7713L57.9165 65.0245H69.4346V72.256H48.1035Z" fill="white"/>
</g>
<defs>
<clipPath id="clip0_950_110">
<rect width="73.2576" height="38" fill="white" transform="translate(20 38)"/>
</clipPath>
</defs>
</svg>
