<svg width="113" height="113" viewBox="0 0 113 113" fill="none" xmlns="http://www.w3.org/2000/svg">
<rect width="113" height="113" rx="56.5" fill="#EC255A"/>
<g clip-path="url(#clip0_953_172)">
<path d="M64.1808 67.7084V76.3325H53.7357V83.7755H38.9098V76.3325H33V67.7084H38.9098V63.0656H33V54.4415H38.9098V31H62.0162C67.9131 31 72.4571 32.3142 75.6396 34.9427C78.8092 37.5712 80.4069 41.4666 80.4069 46.6505C80.4069 51.9805 78.6975 56.0477 75.2702 58.848C71.8558 61.6612 66.8308 63.0613 60.2081 63.0613H53.7357V67.7041H64.1808V67.7084ZM53.7357 54.4415H57.7299C59.3405 54.4415 60.6891 54.231 61.7843 53.8273C62.8666 53.4236 63.7514 52.8824 64.3999 52.1952C65.0613 51.5209 65.5423 50.735 65.8258 49.8502C66.1221 48.9655 66.2553 48.055 66.2553 47.123C66.2553 46.3241 66.1436 45.5253 65.8988 44.7136C65.6669 43.8889 65.246 43.1545 64.6576 42.5017C64.0692 41.8403 63.2703 41.312 62.2481 40.904C61.226 40.5003 59.9375 40.2898 58.3785 40.2898H53.7357V54.4415Z" fill="white"/>
</g>
<defs>
<clipPath id="clip0_953_172">
<rect width="47.4069" height="52.7755" fill="white" transform="translate(33 31)"/>
</clipPath>
</defs>
</svg>
