<svg width="113" height="113" viewBox="0 0 113 113" fill="none" xmlns="http://www.w3.org/2000/svg">
<rect width="113" height="113" rx="56.5" fill="#EC255A"/>
<path d="M42.681 77C42.2622 77 41.9195 76.8667 41.6529 76.6002C41.3864 76.2956 41.2531 75.9529 41.2531 75.5721V38.4472C41.2531 38.0283 41.3864 37.6856 41.6529 37.4191C41.9195 37.1525 42.2622 37.0193 42.681 37.0193H58.2164C63.1664 37.0193 67.0502 38.1616 69.8679 40.4462C72.6856 42.6927 74.0944 45.8912 74.0944 50.0416C74.0944 52.745 73.4471 55.0296 72.1525 56.8954C70.8579 58.7612 69.1444 60.17 67.0121 61.1219L74.8369 75.1723C74.9512 75.4008 75.0083 75.6102 75.0083 75.8006C75.0083 76.1052 74.875 76.3908 74.6085 76.6573C74.38 76.8858 74.1135 77 73.8089 77H66.2125C65.4891 77 64.956 76.8287 64.6133 76.486C64.2706 76.1052 64.0231 75.7625 63.8708 75.4579L57.3596 62.8925H51.5339V75.5721C51.5339 75.9529 51.3816 76.2956 51.077 76.6002C50.8104 76.8667 50.4677 77 50.0489 77H42.681ZM51.5339 54.7821H58.1021C59.8918 54.7821 61.2245 54.3443 62.1002 53.4685C63.0141 52.5927 63.471 51.4123 63.471 49.9273C63.471 48.4423 63.0331 47.2429 62.1573 46.3291C61.3196 45.4152 59.9679 44.9583 58.1021 44.9583H51.5339V54.7821Z" fill="white"/>
</svg>
