<svg width="113" height="113" viewBox="0 0 113 113" fill="none" xmlns="http://www.w3.org/2000/svg">
<rect width="113" height="113" rx="56.5" fill="#EC255A"/>
<path d="M36.7345 62.556L41.1637 56.8992L51.5796 45.6018H63.0339L48.2645 61.7286L63.9478 82.82H52.2178L41.5044 67.7153L37.1455 71.2143V82.7984H27V31H37.1455V54.1032L36.6047 62.556H36.7345ZM90.0147 44.9041C91.1647 44.8854 92.3137 44.9851 93.4434 45.2016L92.6808 54.7197C91.7002 54.4832 90.6934 54.3724 89.6848 54.3898C86.4399 54.3898 83.9162 55.2227 82.1135 56.8884C80.3108 58.5541 79.4095 60.8831 79.4095 63.8756V82.8038H69.2694V45.6018H76.9596L78.4468 51.8697H78.9498C80.0707 49.8303 81.6775 48.099 83.6278 46.8294C85.5247 45.5745 87.7511 44.9102 90.0255 44.9203L90.0147 44.9041Z" fill="white"/>
</svg>
