<svg width="113" height="113" viewBox="0 0 113 113" fill="none" xmlns="http://www.w3.org/2000/svg">
<rect width="113" height="113" rx="56.5" fill="#EC255A"/>
<g clip-path="url(#clip0_953_187)">
<path d="M70.1949 78.1377L69.6754 78.1065C68.4806 78.0338 67.3014 77.9195 66.1481 77.7636C64.9949 77.6078 63.8832 77.4416 62.8183 77.2442C61.7533 77.0468 60.7403 76.8286 59.7481 76.5636V67.8104C61.0364 67.9247 62.4217 68.0199 63.904 68.0961C65.3862 68.1723 66.9031 68.2294 68.4546 68.2675C69.9854 68.3056 71.4174 68.3247 72.7507 68.3247C73.7969 68.3415 74.8419 68.2458 75.8676 68.039C76.5664 67.9171 77.2165 67.6002 77.7429 67.1247C77.9588 66.8989 78.126 66.6311 78.2341 66.338C78.3423 66.0449 78.389 65.7327 78.3715 65.4208V64.7662C78.3946 64.4038 78.3258 64.0413 78.1714 63.7126C78.017 63.3838 77.7821 63.0994 77.4884 62.8857C76.8792 62.4632 76.1516 62.2449 75.4105 62.2623H72.3975C67.9992 62.2623 64.6607 61.2944 62.3819 59.3584C60.1031 57.4225 58.9637 54.1706 58.9637 49.6026V47.7273C58.9637 43.5714 60.2157 40.4545 62.7196 38.3766C64.5862 36.8286 67.078 35.8589 70.1949 35.4675V31H76.3196V35.3429C77.0884 35.3844 77.8364 35.4468 78.5637 35.5247C80.1395 35.6944 81.6183 35.9022 83.0001 36.1481C84.3819 36.3939 85.6252 36.6502 86.7299 36.9169V45.6805C84.9845 45.5247 83.0209 45.4052 80.839 45.3065C78.6572 45.2078 76.6832 45.1662 74.8962 45.1662C73.9424 45.158 72.9897 45.2345 72.0494 45.3948C71.3268 45.4909 70.6517 45.8085 70.117 46.3039C69.8748 46.5725 69.6894 46.887 69.5715 47.2289C69.4537 47.5707 69.406 47.9328 69.4312 48.2935V48.8649C69.4054 49.2714 69.4746 49.6783 69.6333 50.0534C69.792 50.4285 70.0358 50.7615 70.3455 51.026C70.9377 51.5281 71.8659 51.7792 73.1299 51.7792H76.8858C79.5386 51.7792 81.7481 52.2831 83.5144 53.2909C85.217 54.2328 86.6032 55.657 87.4988 57.3844C88.4118 59.2118 88.8698 61.2328 88.8338 63.2753V65.1507C88.8338 68.7558 88.2087 71.5056 86.9585 73.4C85.713 75.2913 83.8132 76.6564 81.6234 77.2338C79.8904 77.709 78.1131 78.0049 76.3196 78.1169V83H70.1949V78.1377ZM39.3377 78.2208C38.0858 78.2208 36.865 78.1844 35.665 78.1065C34.465 78.0286 33.3118 77.9195 32.1429 77.7532C30.9741 77.587 29.8728 77.4312 28.8131 77.2338C27.7533 77.0364 26.7351 76.8182 25.7377 76.5532V67.8104C27.033 67.9247 28.4269 68.0199 29.9196 68.0961C31.4122 68.1723 32.9308 68.2294 34.4754 68.2675C36.0338 68.3039 37.4416 68.3247 38.7663 68.3247C39.8125 68.3411 40.8574 68.2454 41.8832 68.039C42.5817 67.9161 43.2315 67.5992 43.7585 67.1247C43.9734 66.8982 44.1399 66.6303 44.248 66.3374C44.3561 66.0444 44.4034 65.7326 44.3871 65.4208V64.7662C44.4102 64.4038 44.3414 64.0413 44.187 63.7126C44.0326 63.3838 43.7977 63.0994 43.504 62.8857C42.8945 62.4638 42.1671 62.2456 41.426 62.2623H38.4131C34.0113 62.2623 30.6728 61.2944 28.3975 59.3584C26.1221 57.4225 24.9897 54.1706 25.0001 49.6026V47.7273C25.0001 43.5714 26.252 40.4545 28.7559 38.3766C31.2598 36.2987 34.8563 35.2615 39.5455 35.2649C41.2269 35.2605 42.9073 35.3473 44.5793 35.5247C46.155 35.6944 47.6338 35.9022 49.0157 36.1481C50.3975 36.3939 51.6408 36.6502 52.7455 36.9169V45.6805C51.0001 45.5247 49.0364 45.4052 46.8546 45.3065C44.6728 45.2078 42.6988 45.1662 40.9118 45.1662C39.9579 45.158 39.0053 45.2345 38.065 45.3948C37.3421 45.4899 36.6667 45.8076 36.1325 46.3039C35.8904 46.5725 35.7049 46.887 35.5871 47.2289C35.4693 47.5707 35.4216 47.9328 35.4468 48.2935V48.8649C35.4216 49.2708 35.4905 49.6771 35.6482 50.052C35.8059 50.4268 36.0481 50.7602 36.3559 51.026C36.9793 51.5281 37.9161 51.7792 39.1663 51.7792H42.9221C45.575 51.7792 47.7845 52.2831 49.5507 53.2909C51.2527 54.2319 52.6375 55.6565 53.5299 57.3844C54.4447 59.2059 54.9045 61.2218 54.8702 63.2597V65.1351C54.8702 68.7403 54.2434 71.49 52.9897 73.3844C51.744 75.2833 49.8401 76.6544 47.6442 77.2338C44.9331 77.9487 42.1359 78.2844 39.3325 78.2312L39.3377 78.2208Z" fill="white"/>
</g>
<defs>
<clipPath id="clip0_953_187">
<rect width="63.8338" height="52" fill="white" transform="translate(25 31)"/>
</clipPath>
</defs>
</svg>
