<svg width="1580" height="1580" viewBox="0 0 1580 1580" fill="none" xmlns="http://www.w3.org/2000/svg">
<g clip-path="url(#clip0_131_2)">
<path d="M1579.4 0H0V1579.4H1579.4V0Z" fill="black"/>
<path d="M456.515 620.527L284.761 533.073C271.284 559.452 259.958 587.122 250.783 615.366L434.15 674.72C440.171 656.082 447.626 637.874 456.515 620.527Z" fill="white"/>
<path d="M602.319 466.407L697.372 630.276C711.278 622.247 726.188 616.082 741.529 611.925L692.354 428.988C704.827 425.691 717.586 422.824 730.489 420.816L700.239 230.425C670.992 235.013 641.888 242.038 613.789 251.213L672.569 431.569C653.788 437.734 635.58 445.332 618.09 454.221L531.783 285.478C505.546 298.954 480.027 314.581 456.228 332.072L569.775 487.626C580.241 480.027 591.137 473.002 602.319 466.407Z" fill="white"/>
<path d="M1112.85 602.176L948.981 697.372C957.009 711.278 963.317 726.188 967.475 741.529L1150.41 692.21C1153.85 704.683 1156.58 717.443 1158.58 730.203L1348.98 699.952C1344.39 670.705 1337.36 641.602 1328.04 613.502L1147.83 672.569C1141.67 653.788 1134.07 635.58 1125.18 618.09L1293.92 531.496C1280.45 505.26 1264.82 479.74 1247.33 455.941L1091.77 569.631C1099.23 580.097 1106.25 590.993 1112.85 602.176Z" fill="white"/>
<path d="M1046.04 284.618C1019.66 271.141 991.991 259.815 963.747 250.64L904.537 434.006C923.031 440.028 941.239 447.483 958.73 456.371L1046.04 284.618Z" fill="white"/>
<path d="M977.511 463.11L881.312 630.132C895.218 638.161 908.121 648.053 919.447 659.379L1189.26 388.559C1168.33 367.627 1145.54 348.273 1121.74 330.925L1010.49 484.471C999.876 476.73 988.98 469.561 977.511 463.11Z" fill="white"/>
<path d="M463.11 601.602L629.989 697.945C638.018 684.038 647.91 671.135 659.236 659.666L388.702 389.706C367.771 410.637 348.416 433.433 331.069 457.232L484.471 568.628C476.873 579.237 469.705 590.276 463.11 601.602Z" fill="white"/>
<path d="M848.05 417.519L877.154 230.138C848.337 225.694 818.947 223.4 789.557 223.4H789.126V605.617H789.557C805.614 605.617 821.671 607.624 837.011 611.781L886.473 425.548C873.856 422.107 861.097 419.526 848.05 417.519Z" fill="white"/>
<path d="M611.781 742.245L425.548 692.64C422.25 705.257 419.526 718.16 417.519 731.063L230.138 701.816C225.694 730.633 223.4 760.31 223.4 789.7H605.617C605.617 773.5 607.767 757.586 611.781 742.245Z" fill="white"/>
<path d="M1122.89 958.873L1294.64 1046.33C1308.12 1019.95 1319.44 992.278 1328.62 964.034L1145.25 904.68C1139.23 923.318 1131.77 941.526 1122.89 958.873Z" fill="white"/>
<path d="M976.937 1112.85L881.885 948.981C867.978 957.009 853.068 963.174 837.728 967.332L886.903 1150.27C874.43 1153.57 861.67 1156.43 848.767 1158.44L879.018 1348.83C908.265 1344.24 937.368 1337.22 965.468 1328.04L906.688 1147.69C925.469 1141.52 943.676 1133.92 961.167 1125.04L1047.62 1293.78C1073.85 1280.3 1099.37 1264.68 1123.17 1247.18L1009.63 1091.49C999.159 1099.37 988.263 1106.4 976.937 1112.85Z" fill="white"/>
<path d="M466.551 977.224L630.419 881.885C622.391 867.978 616.082 853.068 611.925 837.728L428.988 887.046C425.548 874.573 422.824 861.814 420.816 849.054L230.425 879.304C235.013 908.551 242.038 937.655 251.357 965.755L431.569 906.831C437.734 925.469 445.332 943.82 454.221 961.311L285.478 1047.9C298.954 1074.14 314.581 1099.66 332.072 1123.46L487.626 1009.77C480.17 999.303 473.145 988.407 466.551 977.224Z" fill="white"/>
<path d="M533.36 1294.78C559.739 1308.26 587.409 1319.58 615.652 1328.76L674.863 1145.39C656.369 1139.37 638.161 1131.92 620.67 1123.03L533.36 1294.78Z" fill="white"/>
<path d="M601.746 1116.29L697.945 949.268C684.038 941.239 671.135 931.347 659.809 920.021L389.992 1190.84C410.924 1211.77 433.719 1231.13 457.518 1248.47L568.771 1094.93C579.38 1102.53 590.42 1109.7 601.746 1116.29Z" fill="white"/>
<path d="M1116.15 977.798L949.267 881.455C941.239 895.362 931.347 908.265 920.021 919.734L1190.7 1189.69C1211.63 1168.76 1230.98 1145.97 1248.33 1122.17L1094.93 1010.77C1102.53 1000.02 1109.7 989.124 1116.15 977.798Z" fill="white"/>
<path d="M742.245 967.619L692.784 1153.85C705.4 1157.15 718.303 1159.87 731.206 1161.88L702.103 1349.26C730.919 1353.71 760.31 1356 789.7 1356H790.13V973.783H789.7C773.643 973.783 757.586 971.633 742.245 967.619Z" fill="white"/>
<path d="M973.783 789.7C973.783 805.9 971.776 821.814 967.618 837.154L1153.85 886.76C1157.15 874.143 1159.87 861.24 1161.88 848.337L1349.26 877.584C1353.71 848.767 1356 819.09 1356 789.7H973.783Z" fill="white"/>
</g>
<defs>
<clipPath id="clip0_131_2">
<rect width="1579.4" height="1579.4" rx="789.7" fill="white"/>
</clipPath>
</defs>
</svg>
