<svg width="99" height="99" viewBox="0 0 99 99" fill="none" xmlns="http://www.w3.org/2000/svg">
<circle cx="49.8186" cy="49.1159" r="38.7924" stroke="white" stroke-width="8.37273"/>
<circle cx="49.81" cy="49.1186" r="46.0486" stroke="url(#paint0_linear_282_1275)" stroke-width="6.13982"/>
<g clip-path="url(#clip0_282_1275)">
<rect x="10.7041" y="10.0129" width="78.1455" height="78.1455" rx="39.0727" fill="white"/>
<g clip-path="url(#clip1_282_1275)">
<path d="M57.2685 28.4529C58.2668 27.2984 59.028 25.9573 59.5083 24.5067C59.9887 23.056 60.1787 21.5245 60.0676 20C57.0028 20.2483 54.1578 21.6947 52.1456 24.0277C51.182 25.1459 50.4518 26.4467 49.9982 27.8531C49.5446 29.2596 49.3769 30.743 49.5049 32.2157C50.9999 32.2282 52.4777 31.8953 53.824 31.2428C55.1702 30.5903 56.3488 29.6358 57.2685 28.4529ZM63.923 48.1676C63.9407 46.1372 64.4737 44.1447 65.4717 42.3783C66.4696 40.6119 67.8997 39.1298 69.6268 38.0718C68.5368 36.4958 67.0959 35.1963 65.4183 34.2764C63.7406 33.3565 61.8725 32.8415 59.962 32.7722C55.8425 32.3482 52.0399 35.1835 49.8482 35.1835C47.6564 35.1835 44.5668 32.8251 41.134 32.8781C38.8897 32.9523 36.703 33.6089 34.787 34.7839C32.8709 35.9588 31.2911 37.612 30.2016 39.5822C25.554 47.6907 29.0133 59.7474 33.6608 66.2924C35.7734 69.4987 38.4141 73.129 41.8998 72.9965C45.3854 72.864 46.5209 70.8236 50.5612 70.8236C54.6014 70.8236 55.8425 72.9965 59.2754 72.917C62.7083 72.8375 65.1377 69.6312 67.3559 66.4249C68.9272 64.0971 70.1546 61.5534 71 58.8729C68.9072 57.9773 67.1217 56.4862 65.864 54.5837C64.6063 52.6812 63.9315 50.4507 63.923 48.1676Z" fill="black"/>
</g>
</g>
<defs>
<linearGradient id="paint0_linear_282_1275" x1="49.81" y1="0" x2="49.81" y2="98.2371" gradientUnits="userSpaceOnUse">
<stop stop-color="#F76E11"/>
<stop offset="1" stop-color="#2400FF"/>
</linearGradient>
<clipPath id="clip0_282_1275">
<rect x="10.7041" y="10.0129" width="78.1455" height="78.1455" rx="39.0727" fill="white"/>
</clipPath>
<clipPath id="clip1_282_1275">
<rect width="52.5685" height="52.5685" fill="white" transform="translate(23.2207 20.0261)"/>
</clipPath>
</defs>
</svg>
