<svg width="88" height="88" viewBox="0 0 88 88" fill="none" xmlns="http://www.w3.org/2000/svg">
<circle cx="44.0067" cy="43.9969" r="34.7489" stroke="white" stroke-width="7.5"/>
<circle cx="43.9987" cy="43.9987" r="41.2488" stroke="url(#paint0_linear_7_200)" stroke-width="5.49984"/>
<g clip-path="url(#clip0_7_200)">
<rect x="9" y="9" width="70" height="70" rx="35" fill="#F5B300"/>
<path d="M35.5801 40.6565L44.2034 32.0367L52.8303 40.6636L57.8451 35.6452L44.2034 22L30.5625 35.641L35.5801 40.6565Z" fill="white"/>
<path d="M22 44.2018L27.0148 39.1834L32.0332 44.2018L27.0148 49.2173L22 44.2018Z" fill="white"/>
<path d="M35.5812 47.7438L44.2046 56.3672L52.8314 47.7402L57.8498 52.752L44.208 66.3965L30.5625 52.7619L35.5812 47.7438Z" fill="white"/>
<path d="M56.3672 44.2019L61.382 39.1836L66.4004 44.1984L61.382 49.2204L56.3672 44.2019Z" fill="white"/>
<path d="M49.2942 44.1975L44.2056 39.1055L40.4428 42.8684L40.0079 43.2997L39.1172 44.1904L44.2056 49.2753L49.2942 44.2009V44.1975Z" fill="white"/>
</g>
<defs>
<linearGradient id="paint0_linear_7_200" x1="43.9987" y1="0" x2="43.9987" y2="87.9974" gradientUnits="userSpaceOnUse">
<stop stop-color="#02F9D2"/>
<stop offset="1" stop-color="#0029FF"/>
</linearGradient>
<clipPath id="clip0_7_200">
<rect x="9" y="9" width="70" height="70" rx="35" fill="white"/>
</clipPath>
</defs>
</svg>
