<svg width="88" height="88" viewBox="0 0 88 88" fill="none" xmlns="http://www.w3.org/2000/svg">
<circle cx="44.0067" cy="43.9969" r="34.7489" stroke="white" stroke-width="7.5"/>
<circle cx="43.9987" cy="43.9987" r="41.2488" stroke="url(#paint0_linear_7_194)" stroke-width="5.49984"/>
<g clip-path="url(#clip0_7_194)">
<rect x="9" y="9" width="70" height="70" rx="35" fill="#F5B300"/>
<path d="M33.7695 27.3471C34.9706 27.6701 36.1716 27.8854 37.3727 28.2085C38.5737 28.5315 39.7748 28.7468 40.9758 29.0698C41.3034 29.1775 41.4126 29.0698 41.5218 28.7468C41.9585 26.9164 42.3953 25.1937 42.832 23.3634C42.9412 23.0404 43.0504 22.9327 43.3779 23.0404C44.4698 23.3634 45.4525 23.5787 46.5443 23.7941C46.8719 23.9017 46.8719 24.0094 46.7627 24.2247C46.326 25.9474 45.8892 27.7778 45.4525 29.5005C45.4525 29.6081 45.4525 29.7158 45.3433 29.9311C46.2168 30.1465 47.1994 30.3618 48.0729 30.5772C48.1821 30.5772 48.2913 30.3618 48.4005 30.2541C48.728 28.8545 49.0556 27.5624 49.4924 26.1628L49.8199 24.8707C49.8199 24.6554 49.9291 24.5477 50.1475 24.6554C51.2393 24.9784 52.3312 25.1937 53.5322 25.5167C53.6414 25.5167 53.6414 25.6244 53.7506 25.6244C53.4231 27.0241 53.0955 28.3161 52.7679 29.6081C52.6588 30.1465 52.5496 30.6848 52.3312 31.2232C52.222 31.5462 52.3312 31.6538 52.6588 31.7615L56.2619 33.3765C57.3538 34.0225 58.3364 34.8839 59.1007 35.9606C60.0834 37.5756 60.1926 39.2983 59.7559 41.021C59.4283 42.2053 58.9916 43.282 58.1181 44.1433C57.4629 44.7894 56.5895 45.22 55.716 45.543C55.6068 45.543 55.4976 45.6507 55.2792 45.6507C55.716 45.9737 56.1527 46.189 56.5895 46.512C57.8997 47.4811 58.7732 48.6654 59.2099 50.1728C59.4283 51.3571 59.3191 52.6491 58.9915 53.8335C58.5548 55.3408 58.0089 56.6329 57.0262 57.8172C55.8252 59.2169 54.2965 59.9706 52.5496 60.1859C50.2567 60.5089 48.0729 60.2936 45.8892 59.9706C45.5617 59.8629 45.3433 59.9706 45.2341 60.2936C44.7973 62.0163 44.3606 63.8466 43.9239 65.5693C43.8147 66 43.8147 66.1077 43.2687 65.8923C42.2861 65.677 41.1942 65.354 40.2115 65.1387C39.884 65.031 39.884 64.9233 39.9932 64.708C40.4299 62.8776 40.8666 61.0473 41.4126 59.3246C41.4126 59.1092 41.5218 59.0016 41.3034 58.8939C40.4299 58.6786 39.5564 58.4632 38.5737 58.2479C38.3554 59.2169 38.0278 60.1859 37.8094 61.1549C37.5911 62.1239 37.2635 63.093 37.0451 64.062C36.9359 64.2773 36.9359 64.385 36.6084 64.2773C35.5165 63.9543 34.4247 63.739 33.3328 63.5236C33.0052 63.416 33.0052 63.3083 33.1144 63.093C33.5512 61.2626 33.9879 59.4322 34.5338 57.7095C34.5338 57.6019 34.643 57.4942 34.643 57.2789C32.1318 56.6329 29.6205 55.9869 27 55.3408C27.2184 54.9102 27.3276 54.5872 27.5459 54.1565C27.9827 53.1875 28.4194 52.2185 28.747 51.3571C28.8562 51.0341 28.9654 51.0341 29.2929 51.0341C30.0572 51.2495 30.9307 51.4648 31.695 51.5725C32.5685 51.7878 33.2236 51.3571 33.3328 50.6034C34.7522 45.1124 36.1716 39.6213 37.4819 34.0225C37.7002 33.1612 37.1543 32.1922 36.1716 31.8692C35.189 31.5462 34.2063 31.3308 33.3328 31.1155C33.1144 31.1155 33.0052 31.0078 33.1144 30.7925C33.442 29.6081 33.7695 28.3161 34.0971 27.1318C33.6604 27.4548 33.6604 27.4548 33.7695 27.3471V27.3471ZM39.338 53.9412C39.4472 53.9412 39.5564 54.0488 39.5564 54.0488C41.3034 54.4795 43.1596 55.0178 45.0157 55.1255C46.326 55.2332 47.527 55.2332 48.728 54.8025C50.8026 54.1565 51.6761 51.4648 50.475 49.7421C49.9291 48.8807 49.0556 48.3424 48.1821 47.8041C46.2168 46.7274 43.9239 46.2967 41.7401 45.866C41.4126 45.7584 41.4126 45.866 41.3034 46.189C41.085 47.2657 40.7575 48.2347 40.5391 49.3114C40.1023 50.8188 39.7748 52.3261 39.338 53.9412ZM48.5097 42.959C48.728 42.959 49.274 42.8513 49.7107 42.7437C51.7853 42.313 52.8771 39.9443 51.7853 38.1139C51.2393 37.1449 50.2567 36.4989 49.274 36.0682C47.7454 35.4222 46.2168 35.0992 44.579 34.6685C44.2514 34.5609 44.1422 34.6685 44.033 34.9915C43.4871 37.2526 42.9412 39.4059 42.2861 41.667C42.1769 41.8823 42.2861 41.99 42.5044 42.0977C42.9412 42.2053 43.2687 42.313 43.7055 42.4207C45.3433 42.636 46.7627 42.959 48.5097 42.959Z" fill="white"/>
</g>
<defs>
<linearGradient id="paint0_linear_7_194" x1="43.9987" y1="0" x2="43.9987" y2="87.9974" gradientUnits="userSpaceOnUse">
<stop stop-color="#02F9D2"/>
<stop offset="1" stop-color="#0029FF"/>
</linearGradient>
<clipPath id="clip0_7_194">
<rect x="9" y="9" width="70" height="70" rx="35" fill="white"/>
</clipPath>
</defs>
</svg>
