<svg width="99" height="99" viewBox="0 0 99 99" fill="none" xmlns="http://www.w3.org/2000/svg">
<circle cx="49.1272" cy="49.1223" r="38.7924" stroke="white" stroke-width="8.37273"/>
<circle cx="49.1186" cy="49.1249" r="46.0486" stroke="url(#paint0_linear_282_1261)" stroke-width="6.13982"/>
<g clip-path="url(#clip0_282_1261)">
<rect x="10.0469" y="10.054" width="78.1455" height="78.1455" rx="39.0727" fill="#0052FF"/>
<path d="M49.3708 62.901C46.8308 62.8497 44.3569 62.0838 42.2339 60.6918C40.111 59.2996 38.4254 57.3377 37.3712 55.032C36.317 52.7264 35.937 50.1706 36.2749 47.659C36.6129 45.1472 37.6551 42.7818 39.2815 40.835C40.9079 38.8882 43.0525 37.4391 45.4682 36.6547C47.8839 35.8701 50.4726 35.7821 52.9364 36.4007C55.4001 37.0193 57.6386 38.3192 59.3942 40.1511C61.1498 41.9829 62.351 44.272 62.8596 46.7549H76.3484C75.6564 39.8858 72.344 33.5446 67.0964 29.0432C61.849 24.5417 55.0678 22.224 48.1554 22.5697C41.2429 22.9153 34.7281 25.8977 29.9582 30.9001C25.1883 35.9026 22.5283 42.5422 22.5283 49.4459C22.5283 56.3497 25.1883 62.9893 29.9582 67.9917C34.7281 72.9942 41.2429 75.9765 48.1554 76.3222C55.0678 76.6678 61.849 74.3503 67.0964 69.8487C72.344 65.3472 75.6564 59.006 76.3484 52.1369H62.8596C62.8596 57.5189 54.7663 62.901 49.3708 62.901Z" fill="white"/>
</g>
<defs>
<linearGradient id="paint0_linear_282_1261" x1="49.1186" y1="0.00634766" x2="49.1186" y2="98.2435" gradientUnits="userSpaceOnUse">
<stop stop-color="#F76E11"/>
<stop offset="1" stop-color="#2400FF"/>
</linearGradient>
<clipPath id="clip0_282_1261">
<rect x="10.0469" y="10.054" width="78.1455" height="78.1455" rx="39.0727" fill="white"/>
</clipPath>
</defs>
</svg>
