<svg width="99" height="99" viewBox="0 0 99 99" fill="none" xmlns="http://www.w3.org/2000/svg">
<circle cx="49.8" cy="49.1159" r="38.7924" stroke="white" stroke-width="8.37273"/>
<circle cx="49.7914" cy="49.1186" r="46.0486" stroke="url(#paint0_linear_282_1260)" stroke-width="6.13982"/>
<g clip-path="url(#clip0_282_1260)">
<rect x="10.6855" y="10.0129" width="78.1455" height="78.1455" rx="39.0727" fill="white"/>
<g clip-path="url(#clip1_282_1260)">
<path d="M35.373 53.2724L33.4561 60.4287L26.4496 60.577C24.3557 56.6932 23.168 52.2497 23.168 47.5277C23.168 42.9616 24.2784 38.6557 26.2468 34.8643H26.2483L32.4861 36.0079L35.2186 42.2082C34.6467 43.8755 34.335 45.6653 34.335 47.5277C34.3352 49.5491 34.7013 51.4857 35.373 53.2724Z" fill="#FBBB00"/>
<path d="M77.758 42.3838C78.0742 44.0495 78.2391 45.7697 78.2391 47.5278C78.2391 49.4992 78.0318 51.4222 77.637 53.2771C76.2965 59.5892 72.794 65.1009 67.942 69.0013L67.9405 68.9998L60.0837 68.5989L58.9717 61.6574C62.1913 59.7693 64.7074 56.8144 66.0328 53.2771H51.3086V42.3838H77.758Z" fill="#518EF8"/>
<path d="M67.9416 68.9996L67.9431 69.0011C63.2243 72.7941 57.2298 75.0636 50.7045 75.0636C40.2181 75.0636 31.1011 69.2024 26.4502 60.577L35.3736 53.2725C37.699 59.4786 43.6858 63.8965 50.7045 63.8965C53.7213 63.8965 56.5476 63.0809 58.9728 61.6572L67.9416 68.9996Z" fill="#28B446"/>
<path d="M68.2802 26.3312L59.3597 33.6343C56.8498 32.0654 53.8828 31.159 50.7041 31.159C43.5266 31.159 37.4278 35.7796 35.2189 42.2082L26.2486 34.8643H26.2471C30.8299 26.0286 40.0619 19.9919 50.7041 19.9919C57.3853 19.9919 63.5113 22.3719 68.2802 26.3312Z" fill="#F14336"/>
</g>
</g>
<defs>
<linearGradient id="paint0_linear_282_1260" x1="49.7914" y1="0" x2="49.7914" y2="98.2371" gradientUnits="userSpaceOnUse">
<stop stop-color="#F76E11"/>
<stop offset="1" stop-color="#2400FF"/>
</linearGradient>
<clipPath id="clip0_282_1260">
<rect x="10.6855" y="10.0129" width="78.1455" height="78.1455" rx="39.0727" fill="white"/>
</clipPath>
<clipPath id="clip1_282_1260">
<rect width="55.0718" height="55.0718" fill="white" transform="translate(23.168 19.9919)"/>
</clipPath>
</defs>
</svg>
