<svg width="88" height="88" viewBox="0 0 88 88" fill="none" xmlns="http://www.w3.org/2000/svg">
<circle cx="44.0067" cy="43.9969" r="34.7489" stroke="white" stroke-width="7.5"/>
<circle cx="43.9987" cy="43.9987" r="41.2488" stroke="url(#paint0_linear_1455_82)" stroke-width="5.49984"/>
<g clip-path="url(#clip0_1455_82)">
<path d="M44.5004 74.2663C61.4919 74.2663 75.2663 60.4919 75.2663 43.5004C75.2663 26.5088 61.4919 12.7344 44.5004 12.7344C27.5088 12.7344 13.7344 26.5088 13.7344 43.5004C13.7344 60.4919 27.5088 74.2663 44.5004 74.2663Z" fill="white"/>
<path d="M44.5 9C37.6766 9 31.0063 11.0234 25.3328 14.8143C19.6593 18.6052 15.2374 23.9934 12.6262 30.2974C10.0149 36.6015 9.33173 43.5383 10.6629 50.2306C11.9941 56.923 15.2799 63.0703 20.1048 67.8952C24.9297 72.7201 31.0771 76.0059 37.7694 77.3371C44.4617 78.6683 51.3985 77.9851 57.7026 75.3738C64.0066 72.7626 69.3948 68.3407 73.1857 62.6672C76.9766 56.9937 79 50.3235 79 43.5C79.0132 38.9826 78.1365 34.5067 76.4199 30.3281C74.7033 26.1495 72.1805 22.3499 68.9955 19.1463C65.8105 15.9427 62.0257 13.3978 57.8571 11.6568C53.6886 9.91594 49.2179 9.01314 44.7005 9H44.5ZM45.0848 44.6695L41.4928 56.7821H60.7058C60.8331 56.7776 60.96 56.7983 61.0793 56.8429C61.1986 56.8875 61.3079 56.9552 61.401 57.0421C61.4941 57.129 61.5691 57.2334 61.6219 57.3493C61.6746 57.4652 61.7039 57.5904 61.7083 57.7177V58.0351L60.0375 63.799C59.9639 64.0716 59.7997 64.311 59.572 64.478C59.3443 64.645 59.0666 64.7296 58.7845 64.7179H29.3802L34.3087 47.9274L28.7954 49.5981L30.0484 45.7555L35.5618 44.0847L42.4952 20.5278C42.5715 20.2568 42.7363 20.0191 42.9634 19.8526C43.1905 19.686 43.4667 19.6003 43.7482 19.609H51.1828C51.3101 19.6045 51.437 19.6252 51.5563 19.6698C51.6756 19.7144 51.7849 19.7821 51.878 19.869C51.9711 19.9559 52.0461 20.0603 52.0988 20.1762C52.1516 20.2921 52.1809 20.4173 52.1852 20.5446V20.862L46.3378 40.7433L51.8511 39.0726L50.6816 43.0823L45.0848 44.6695Z" fill="#345D9D"/>
</g>
<defs>
<linearGradient id="paint0_linear_1455_82" x1="43.9987" y1="0" x2="43.9987" y2="87.9974" gradientUnits="userSpaceOnUse">
<stop stop-color="#02F9D2"/>
<stop offset="1" stop-color="#0029FF"/>
</linearGradient>
<clipPath id="clip0_1455_82">
<rect width="69" height="69" fill="white" transform="translate(10 9)"/>
</clipPath>
</defs>
</svg>
