<svg width="99" height="99" viewBox="0 0 99 99" fill="none" xmlns="http://www.w3.org/2000/svg">
<circle cx="49.4729" cy="49.1159" r="38.7924" stroke="white" stroke-width="8.37273"/>
<circle cx="49.4643" cy="49.1186" r="46.0486" stroke="url(#paint0_linear_282_1259)" stroke-width="6.13982"/>
<g clip-path="url(#clip0_282_1259)">
<rect x="10.3594" y="10.0129" width="78.1455" height="78.1455" rx="39.0727" fill="white"/>
<g clip-path="url(#clip1_282_1259)">
<path d="M50.4893 47.4838H70.4371V28.8657C70.4371 28.513 70.297 28.1748 70.0476 27.9254C69.7982 27.676 69.46 27.5359 69.1073 27.5359H50.4893V47.4838Z" fill="#4CAF50"/>
<path d="M47.8297 47.4838V27.5359H29.2117C28.859 27.5359 28.5207 27.676 28.2713 27.9254C28.0219 28.1748 27.8818 28.513 27.8818 28.8657V47.4838H47.8297Z" fill="#F44336"/>
<path d="M47.8297 50.1433H27.8818V68.7613C27.8818 69.114 28.0219 69.4523 28.2713 69.7017C28.5207 69.9511 28.859 70.0912 29.2117 70.0912H47.8297V50.1433Z" fill="#2196F3"/>
<path d="M50.4893 50.1433V70.0912H69.1073C69.46 70.0912 69.7982 69.9511 70.0476 69.7017C70.297 69.4523 70.4371 69.114 70.4371 68.7613V50.1433H50.4893Z" fill="#FFC107"/>
</g>
</g>
<defs>
<linearGradient id="paint0_linear_282_1259" x1="49.4643" y1="0" x2="49.4643" y2="98.2371" gradientUnits="userSpaceOnUse">
<stop stop-color="#F76E11"/>
<stop offset="1" stop-color="#2400FF"/>
</linearGradient>
<clipPath id="clip0_282_1259">
<rect x="10.3594" y="10.0129" width="78.1455" height="78.1455" rx="39.0727" fill="white"/>
</clipPath>
<clipPath id="clip1_282_1259">
<rect width="42.5555" height="42.5555" fill="white" transform="translate(27.8818 27.5359)"/>
</clipPath>
</defs>
</svg>
