<svg width="99" height="99" viewBox="0 0 99 99" fill="none" xmlns="http://www.w3.org/2000/svg">
<circle cx="49.1457" cy="49.1159" r="38.7924" stroke="white" stroke-width="8.37273"/>
<circle cx="49.1371" cy="49.1186" r="46.0486" stroke="url(#paint0_linear_282_1258)" stroke-width="6.13982"/>
<g clip-path="url(#clip0_282_1258)">
<rect x="10.0645" y="10.0471" width="78.1455" height="78.1455" rx="39.0727" fill="#02F9D2"/>
<g clip-path="url(#clip1_282_1258)">
<rect x="10.0645" y="10.0481" width="78.9915" height="78.9915" rx="39.4957" fill="white"/>
<g clip-path="url(#clip2_282_1258)">
<path d="M49.9536 89.9146C72.0658 89.9146 89.9912 71.9891 89.9912 49.877C89.9912 27.7648 72.0658 9.83936 49.9536 9.83936C27.8415 9.83936 9.91602 27.7648 9.91602 49.877C9.91602 71.9891 27.8415 89.9146 49.9536 89.9146Z" fill="url(#paint1_linear_282_1258)"/>
<path d="M61.4181 56.3215C61.4181 58.8633 60.6244 61.052 59.0371 62.8877C57.4497 64.7234 55.3878 65.8572 52.8512 66.2891V70.6499C52.8512 70.8825 52.7794 71.0735 52.6359 71.223C52.4923 71.3725 52.3088 71.4473 52.0855 71.4473H48.8549C48.6475 71.4473 48.4681 71.3684 48.3165 71.2106C48.165 71.0527 48.0892 70.8658 48.0892 70.6499V66.2891C47.0363 66.1396 46.0193 65.8821 45.0381 65.5166C44.057 65.1511 43.2474 64.7815 42.6093 64.4077C41.9711 64.0339 41.3809 63.6352 40.8384 63.2116C40.296 62.788 39.9251 62.4765 39.7257 62.2772C39.5263 62.0778 39.3867 61.9283 39.3069 61.8286C39.0357 61.4797 39.0198 61.1392 39.2591 60.8069L41.7238 57.4429C41.8355 57.2768 42.019 57.1771 42.2742 57.1439C42.5135 57.1106 42.705 57.1854 42.8486 57.3681L42.8964 57.418C44.6991 59.0626 46.6374 60.1009 48.7114 60.5328C49.3016 60.6657 49.8919 60.7322 50.4822 60.7322C51.7744 60.7322 52.911 60.375 53.8922 59.6607C54.8733 58.9463 55.3639 57.933 55.3639 56.6206C55.3639 56.1554 55.2442 55.7152 55.0049 55.2999C54.7656 54.8846 54.4984 54.5357 54.2033 54.2533C53.9081 53.9709 53.4415 53.6594 52.8034 53.3188C52.1652 52.9783 51.6388 52.7125 51.224 52.5214C50.8092 52.3304 50.1711 52.0604 49.3096 51.7116C48.6874 51.4458 48.1969 51.2381 47.8379 51.0886C47.479 50.9391 46.9884 50.719 46.3662 50.4282C45.7441 50.1375 45.2455 49.88 44.8706 49.6558C44.4957 49.4315 44.045 49.1366 43.5186 48.7711C42.9921 48.4057 42.5654 48.0526 42.2383 47.7121C41.9113 47.3715 41.5643 46.9645 41.1974 46.4911C40.8305 46.0176 40.5473 45.5358 40.3479 45.0458C40.1485 44.5557 39.981 44.0033 39.8454 43.3887C39.7098 42.774 39.642 42.1261 39.642 41.445C39.642 39.1525 40.4237 37.1423 41.9871 35.4146C43.5505 33.6869 45.5845 32.5739 48.0892 32.0755V27.5901C48.0892 27.3742 48.165 27.1873 48.3165 27.0295C48.4681 26.8716 48.6475 26.7927 48.8549 26.7927H52.0855C52.3088 26.7927 52.4923 26.8675 52.6359 27.017C52.7794 27.1665 52.8512 27.3576 52.8512 27.5901V31.9758C53.7606 32.0755 54.642 32.2666 55.4955 32.549C56.349 32.8314 57.0429 33.1097 57.5774 33.3838C58.1118 33.6579 58.6183 33.9694 59.0969 34.3182C59.5755 34.6671 59.8866 34.908 60.0302 35.0409C60.1737 35.1738 60.2934 35.29 60.3891 35.3897C60.6603 35.6888 60.7002 36.0044 60.5088 36.3366L58.5704 39.9748C58.4428 40.224 58.2594 40.3569 58.0201 40.3735C57.7967 40.4233 57.5814 40.3652 57.374 40.1991C57.3261 40.1492 57.2104 40.0495 57.027 39.9C56.8435 39.7505 56.5324 39.5304 56.0937 39.2397C55.655 38.949 55.1884 38.6832 54.6938 38.4423C54.1993 38.2014 53.605 37.9854 52.911 37.7944C52.2171 37.6033 51.5351 37.5078 50.865 37.5078C49.3495 37.5078 48.1131 37.865 47.1559 38.5793C46.1987 39.2937 45.7201 40.2157 45.7201 41.3453C45.7201 41.7773 45.7879 42.176 45.9235 42.5414C46.0591 42.9069 46.2944 43.2516 46.6295 43.5756C46.9645 43.8995 47.2796 44.1736 47.5747 44.3979C47.8698 44.6222 48.3165 44.8796 48.9148 45.1704C49.513 45.4611 49.9956 45.6854 50.3625 45.8432C50.7294 46.001 51.2878 46.2294 52.0376 46.5284C52.8831 46.8607 53.5292 47.1223 53.9759 47.3134C54.4226 47.5044 55.0288 47.7952 55.7946 48.1855C56.5603 48.5759 57.1626 48.929 57.6013 49.2446C58.04 49.5602 58.5346 49.9756 59.0849 50.4905C59.6353 51.0055 60.0581 51.533 60.3532 52.0729C60.6484 52.6128 60.8996 53.2482 61.107 53.9792C61.3144 54.7101 61.4181 55.4909 61.4181 56.3215Z" fill="white"/>
</g>
</g>
</g>
<defs>
<linearGradient id="paint0_linear_282_1258" x1="49.1371" y1="0" x2="49.1371" y2="98.2371" gradientUnits="userSpaceOnUse">
<stop stop-color="#F76E11"/>
<stop offset="1" stop-color="#2400FF"/>
</linearGradient>
<linearGradient id="paint1_linear_282_1258" x1="49.9536" y1="9.83936" x2="49.9536" y2="89.9146" gradientUnits="userSpaceOnUse">
<stop stop-color="#EE691B"/>
<stop offset="1" stop-color="#2500FE"/>
</linearGradient>
<clipPath id="clip0_282_1258">
<rect x="10.0645" y="10.0471" width="78.1455" height="78.1455" rx="39.0727" fill="white"/>
</clipPath>
<clipPath id="clip1_282_1258">
<rect x="10.0645" y="10.0481" width="78.9915" height="78.9915" rx="39.4957" fill="white"/>
</clipPath>
<clipPath id="clip2_282_1258">
<rect width="80.0752" height="80.0752" fill="white" transform="translate(9.94238 9.83276)"/>
</clipPath>
</defs>
</svg>
