<svg width="100" height="100" viewBox="0 0 100 100" fill="none" xmlns="http://www.w3.org/2000/svg">
<circle cx="50" cy="50" r="37" fill="#3EE6C4"/>
<circle cx="49.8472" cy="50.1504" r="31.435" fill="white"/>
<path d="M42.6529 35.8775C43.5887 36.1329 44.5245 36.3032 45.4603 36.5586C46.3961 36.814 47.3319 36.9843 48.2677 37.2397C48.5229 37.3248 48.608 37.2397 48.6931 36.9843C49.0334 35.5369 49.3737 34.1747 49.714 32.7274C49.7991 32.472 49.8841 32.3868 50.1393 32.472C50.9901 32.7274 51.7557 32.8977 52.6065 33.0679C52.8617 33.1531 52.8617 33.2382 52.7766 33.4085C52.4363 34.7707 52.096 36.218 51.7557 37.5802C51.7557 37.6654 51.7557 37.7505 51.6707 37.9208C52.3513 38.0911 53.1169 38.2614 53.7975 38.4316C53.8826 38.4316 53.9677 38.2614 54.0527 38.1762C54.308 37.0694 54.5632 36.0478 54.9035 34.941L55.1587 33.9193C55.1587 33.749 55.2438 33.6639 55.4139 33.749C56.2647 34.0045 57.1154 34.1747 58.0512 34.4301C58.1363 34.4301 58.1363 34.5153 58.2213 34.5153C57.9661 35.6221 57.7109 36.6437 57.4557 37.6654C57.3706 38.0911 57.2855 38.5168 57.1154 38.9425C57.0303 39.1979 57.1154 39.283 57.3706 39.3681L60.178 40.6452C61.0288 41.156 61.7944 41.8372 62.39 42.6885C63.1556 43.9656 63.2407 45.3278 62.9004 46.69C62.6452 47.6265 62.3049 48.4779 61.6243 49.159C61.1139 49.6699 60.4333 50.0104 59.7527 50.2658C59.6676 50.2658 59.5825 50.351 59.4124 50.351C59.7527 50.6064 60.093 50.7766 60.4333 51.0321C61.4541 51.7983 62.1347 52.7348 62.475 53.9268C62.6452 54.8633 62.5601 55.8849 62.3049 56.8215C61.9646 58.0134 61.5392 59.035 60.7736 59.9716C59.8377 61.0784 58.6467 61.6743 57.2855 61.8446C55.499 62.1 53.7975 61.9297 52.096 61.6743C51.8408 61.5892 51.6707 61.6743 51.5856 61.9297C51.2453 63.2919 50.905 64.7393 50.5647 66.1015C50.4796 66.442 50.4796 66.5272 50.0543 66.3569C49.2886 66.1866 48.4379 65.9312 47.6722 65.7609C47.417 65.6758 47.417 65.5907 47.5021 65.4204C47.8424 63.973 48.1827 62.5257 48.608 61.1635C48.608 60.9932 48.6931 60.9081 48.5229 60.8229C47.8424 60.6527 47.1618 60.4824 46.3961 60.3121C46.226 61.0784 45.9707 61.8446 45.8006 62.6108C45.6304 63.3771 45.3752 64.1433 45.2051 64.9096C45.12 65.0798 45.12 65.165 44.8648 65.0798C44.014 64.8244 43.1633 64.6542 42.3126 64.4839C42.0573 64.3987 42.0573 64.3136 42.1424 64.1433C42.4827 62.696 42.823 61.2486 43.2484 59.8864C43.2484 59.8013 43.3335 59.7161 43.3335 59.5459C41.3768 59.035 39.4201 58.5242 37.3783 58.0134C37.5484 57.6728 37.6335 57.4174 37.8037 57.0769C38.144 56.3106 38.4843 55.5444 38.7395 54.8633C38.8245 54.6079 38.9096 54.6079 39.1648 54.6079C39.7604 54.7781 40.4409 54.9484 41.0365 55.0336C41.7171 55.2038 42.2275 54.8633 42.3126 54.2673C43.4185 49.9253 44.5245 45.5832 45.5454 41.156C45.7155 40.4749 45.2901 39.7087 44.5245 39.4533C43.7588 39.1979 42.9932 39.0276 42.3126 38.8573C42.1424 38.8573 42.0573 38.7722 42.1424 38.6019C42.3976 37.6654 42.6529 36.6437 42.9081 35.7072C42.5678 35.9626 42.5678 35.9626 42.6529 35.8775V35.8775ZM46.9916 56.9066C47.0767 56.9066 47.1618 56.9917 47.1618 56.9917C48.5229 57.3323 49.9692 57.758 51.4155 57.8431C52.4363 57.9282 53.3721 57.9282 54.308 57.5877C55.9244 57.0769 56.6049 54.9484 55.6691 53.5862C55.2438 52.9051 54.5632 52.4794 53.8826 52.0537C52.3513 51.2023 50.5647 50.8618 48.8632 50.5212C48.608 50.4361 48.608 50.5212 48.5229 50.7766C48.3528 51.628 48.0976 52.3943 47.9274 53.2457C47.5871 54.4376 47.3319 55.6295 46.9916 56.9066ZM54.1378 48.2225C54.308 48.2225 54.7333 48.1374 55.0736 48.0522C56.69 47.7117 57.5408 45.8386 56.69 44.3913C56.2647 43.6251 55.499 43.1142 54.7333 42.7737C53.5423 42.2628 52.3513 42.0074 51.0752 41.6669C50.8199 41.5817 50.7349 41.6669 50.6498 41.9223C50.2244 43.7102 49.7991 45.413 49.2886 47.2009C49.2035 47.3711 49.2886 47.4563 49.4588 47.5414C49.7991 47.6265 50.0543 47.7117 50.3946 47.7968C51.6707 47.9671 52.7766 48.2225 54.1378 48.2225Z" fill="white"/>
<circle cx="50" cy="50" r="27" fill="#DC241F"/>
<path d="M44.4232 52.2888C44.4232 52.6862 44.347 53.0591 44.1946 53.4076C44.0476 53.756 43.8434 54.0609 43.5821 54.3222C43.3208 54.5835 43.0159 54.7904 42.6675 54.9428C42.319 55.0898 41.9461 55.1633 41.5487 55.1633H41.0505C40.6531 55.1633 40.2774 55.0898 39.9236 54.9428C39.5751 54.7904 39.2703 54.5835 39.0089 54.3222C38.7476 54.0609 38.5407 53.756 38.3883 53.4076C38.2413 53.0591 38.1678 52.6862 38.1678 52.2888V52.1091H39.2213V52.2888C39.2213 52.5501 39.2703 52.7951 39.3682 53.0237C39.4662 53.247 39.5996 53.4457 39.7684 53.6199C39.9426 53.7887 40.1413 53.922 40.3645 54.02C40.5932 54.118 40.8382 54.167 41.0995 54.167H41.4997C41.761 54.167 42.0033 54.118 42.2265 54.02C42.4551 53.922 42.6539 53.7887 42.8226 53.6199C42.9914 53.4457 43.1248 53.247 43.2228 53.0237C43.3208 52.7951 43.3698 52.5501 43.3698 52.2888V50.0185C43.3698 49.7572 43.3208 49.5149 43.2228 49.2917C43.1248 49.063 42.9914 48.8643 42.8226 48.6956C42.6539 48.5213 42.4551 48.3852 42.2265 48.2872C42.0033 48.1892 41.761 48.1402 41.4997 48.1402H41.0995C40.8382 48.1402 40.5932 48.1892 40.3645 48.2872C40.1413 48.3852 39.9426 48.5213 39.7684 48.6956C39.5996 48.8643 39.4662 49.063 39.3682 49.2917C39.2703 49.5149 39.2213 49.7572 39.2213 50.0185H38.1678L38.8374 43.2894H43.8434V44.2939H39.8256L39.4417 47.8953C39.6922 47.6557 39.9834 47.4706 40.3155 47.3399C40.6476 47.2038 41.0042 47.1358 41.3853 47.1358H41.5487C41.9461 47.1358 42.319 47.212 42.6675 47.3644C43.0159 47.5114 43.3208 47.7156 43.5821 47.9769C43.8434 48.2382 44.0476 48.5458 44.1946 48.8997C44.347 49.2481 44.4232 49.6211 44.4232 50.0185V52.2888ZM52.8673 52.2888C52.8673 52.6862 52.791 53.0591 52.6386 53.4076C52.4916 53.756 52.2875 54.0609 52.0261 54.3222C51.7648 54.5835 51.4599 54.7904 51.1115 54.9428C50.7631 55.0898 50.3901 55.1633 49.9927 55.1633H49.4946C49.0971 55.1633 48.7215 55.0898 48.3676 54.9428C48.0192 54.7904 47.7143 54.5835 47.453 54.3222C47.1916 54.0609 46.9848 53.756 46.8323 53.4076C46.6853 53.0591 46.6118 52.6862 46.6118 52.2888V46.0007C46.6118 45.6032 46.6853 45.2303 46.8323 44.8819C46.9848 44.5334 47.1916 44.2286 47.453 43.9672C47.7143 43.7059 48.0192 43.5017 48.3676 43.3547C48.7215 43.2023 49.0971 43.1261 49.4946 43.1261H49.9927C50.3901 43.1261 50.7631 43.2023 51.1115 43.3547C51.4599 43.5017 51.7648 43.7059 52.0261 43.9672C52.2875 44.2286 52.4916 44.5334 52.6386 44.8819C52.791 45.2303 52.8673 45.6032 52.8673 46.0007V52.2888ZM51.8138 46.0007C51.8138 45.7393 51.7648 45.4971 51.6668 45.2738C51.5688 45.0452 51.4354 44.8465 51.2667 44.6777C51.0979 44.5089 50.8992 44.3755 50.6705 44.2775C50.4473 44.1796 50.205 44.1306 49.9437 44.1306H49.5436C49.2822 44.1306 49.0372 44.1796 48.8086 44.2775C48.5854 44.3755 48.3866 44.5089 48.2124 44.6777C48.0437 44.8465 47.9103 45.0452 47.8123 45.2738C47.7143 45.4971 47.6653 45.7393 47.6653 46.0007V52.2888C47.6653 52.5501 47.7143 52.7951 47.8123 53.0237C47.9103 53.247 48.0437 53.4457 48.2124 53.6199C48.3866 53.7887 48.5854 53.922 48.8086 54.02C49.0372 54.118 49.2822 54.167 49.5436 54.167H49.9437C50.205 54.167 50.4473 54.118 50.6705 54.02C50.8992 53.922 51.0979 53.7887 51.2667 53.6199C51.4354 53.4457 51.5688 53.247 51.6668 53.0237C51.7648 52.7951 51.8138 52.5501 51.8138 52.2888V46.0007ZM61.4746 52.2888C61.4746 52.6862 61.3984 53.0591 61.246 53.4076C61.099 53.756 60.8948 54.0609 60.6335 54.3222C60.3722 54.5835 60.0673 54.7904 59.7189 54.9428C59.3704 55.0898 58.9975 55.1633 58.6001 55.1633H58.1019C57.7045 55.1633 57.3288 55.0898 56.975 54.9428C56.6265 54.7904 56.3216 54.5835 56.0603 54.3222C55.799 54.0609 55.5921 53.756 55.4397 53.4076C55.2927 53.0591 55.2192 52.6862 55.2192 52.2888V46.0007C55.2192 45.6032 55.2927 45.2303 55.4397 44.8819C55.5921 44.5334 55.799 44.2286 56.0603 43.9672C56.3216 43.7059 56.6265 43.5017 56.975 43.3547C57.3288 43.2023 57.7045 43.1261 58.1019 43.1261H58.6001C58.9975 43.1261 59.3704 43.2023 59.7189 43.3547C60.0673 43.5017 60.3722 43.7059 60.6335 43.9672C60.8948 44.2286 61.099 44.5334 61.246 44.8819C61.3984 45.2303 61.4746 45.6032 61.4746 46.0007V52.2888ZM60.4212 46.0007C60.4212 45.7393 60.3722 45.4971 60.2742 45.2738C60.1762 45.0452 60.0428 44.8465 59.874 44.6777C59.7052 44.5089 59.5065 44.3755 59.2779 44.2775C59.0547 44.1796 58.8124 44.1306 58.5511 44.1306H58.1509C57.8896 44.1306 57.6446 44.1796 57.4159 44.2775C57.1927 44.3755 56.994 44.5089 56.8198 44.6777C56.651 44.8465 56.5176 45.0452 56.4196 45.2738C56.3216 45.4971 56.2726 45.7393 56.2726 46.0007V52.2888C56.2726 52.5501 56.3216 52.7951 56.4196 53.0237C56.5176 53.247 56.651 53.4457 56.8198 53.6199C56.994 53.7887 57.1927 53.922 57.4159 54.02C57.6446 54.118 57.8896 54.167 58.1509 54.167H58.5511C58.8124 54.167 59.0547 54.118 59.2779 54.02C59.5065 53.922 59.7052 53.7887 59.874 53.6199C60.0428 53.4457 60.1762 53.247 60.2742 53.0237C60.3722 52.7951 60.4212 52.5501 60.4212 52.2888V46.0007Z" fill="white"/>
</svg>
