<svg width="113" height="113" viewBox="0 0 113 113" fill="none" xmlns="http://www.w3.org/2000/svg">
<rect width="113" height="113" rx="56.5" fill="#EC255A"/>
<path d="M64.9094 39.4516C65.9338 38.3123 66.7149 36.989 67.2078 35.5577C67.7007 34.1263 67.8958 32.6151 67.7817 31.1108C64.6367 31.3558 61.7172 32.7831 59.6524 35.0851C58.6636 36.1884 57.9143 37.472 57.4488 38.8597C56.9834 40.2475 56.8112 41.7113 56.9426 43.1644C58.4767 43.1767 59.9932 42.8483 61.3747 42.2044C62.7562 41.5606 63.9656 40.6187 64.9094 39.4516ZM71.738 58.9046C71.7562 56.9011 72.3031 54.9351 73.3272 53.1921C74.3513 51.4491 75.8187 49.9867 77.5911 48.9428C76.4726 47.3877 74.9939 46.1054 73.2724 45.1977C71.5509 44.29 69.6338 43.7818 67.6733 43.7135C63.4461 43.2951 59.544 46.0928 57.2949 46.0928C55.0458 46.0928 51.8753 43.7658 48.3526 43.8181C46.0497 43.8912 43.8057 44.5391 41.8395 45.6985C39.8734 46.8578 38.2522 48.4891 37.1342 50.4331C32.365 58.434 35.9148 70.3306 40.684 76.7888C42.8518 79.9525 45.5616 83.5346 49.1385 83.4039C52.7154 83.2731 53.8806 81.2599 58.0265 81.2599C62.1725 81.2599 63.4461 83.4039 66.9688 83.3254C70.4915 83.247 72.9845 80.0833 75.2607 76.9195C76.8731 74.6226 78.1327 72.1127 79.0002 69.4678C76.8526 68.5841 75.0204 67.1127 73.7298 65.2355C72.4392 63.3582 71.7467 61.1573 71.738 58.9046Z" fill="white"/>
</svg>
