<svg width="100" height="100" viewBox="0 0 100 100" fill="none" xmlns="http://www.w3.org/2000/svg">
<circle cx="50" cy="50" r="37" fill="#3EE6C4"/>
<circle cx="49.8472" cy="50.1504" r="31.435" fill="white"/>
<g clip-path="url(#clip0_2_393)">
<path d="M49.5982 76.9937C64.4924 76.9937 76.5665 64.9104 76.5665 50.0049C76.5665 35.0995 64.4924 23.0162 49.5982 23.0162C34.704 23.0162 22.6298 35.0995 22.6298 50.0049C22.6298 64.9104 34.704 76.9937 49.5982 76.9937Z" fill="#767676"/>
<path d="M54.3788 37.1036C55.0056 36.4065 55.4836 35.5968 55.7852 34.721C56.0868 33.8452 56.2062 32.9205 56.1364 32C54.212 32.1499 52.4256 33.0232 51.1621 34.4318C50.557 35.1069 50.0985 35.8923 49.8137 36.7415C49.5289 37.5907 49.4236 38.4863 49.504 39.3755C50.4427 39.383 51.3707 39.1821 52.216 38.7881C53.0613 38.3942 53.8013 37.8178 54.3788 37.1036ZM58.5572 49.0069C58.5683 47.7809 58.903 46.5779 59.5296 45.5114C60.1563 44.4449 61.0542 43.55 62.1387 42.9113C61.4543 41.9597 60.5495 41.1751 59.4961 40.6197C58.4427 40.0643 57.2697 39.7533 56.0701 39.7115C53.4834 39.4555 51.0958 41.1674 49.7195 41.1674C48.3433 41.1674 46.4033 39.7435 44.2478 39.7755C42.8386 39.8203 41.4656 40.2167 40.2625 40.9261C39.0594 41.6355 38.0674 42.6337 37.3833 43.8232C34.465 48.7189 36.6371 55.9984 39.5554 59.9501C40.8819 61.886 42.54 64.0779 44.7287 63.9979C46.9174 63.9179 47.6303 62.6859 50.1672 62.6859C52.7041 62.6859 53.4834 63.9979 55.639 63.9499C57.7945 63.9019 59.3199 61.966 60.7127 60.0301C61.6994 58.6247 62.4701 57.0889 63.0009 55.4704C61.6868 54.9297 60.5657 54.0294 59.776 52.8807C58.9863 51.732 58.5626 50.3853 58.5572 49.0069Z" fill="white"/>
</g>
<defs>
<clipPath id="clip0_2_393">
<rect width="54.4472" height="55.3397" fill="white" transform="translate(22.6298 22.3351)"/>
</clipPath>
</defs>
</svg>
