<svg width="113" height="113" viewBox="0 0 113 113" fill="none" xmlns="http://www.w3.org/2000/svg">
<rect width="113" height="113" rx="56.5" fill="#EC255A"/>
<path d="M29.1022 72.6697C29.2725 72.3972 29.545 72.3802 29.9196 72.6186C38.3522 77.5354 47.9519 80.0942 57.713 80.0267C64.477 80.0103 71.1799 78.7459 77.4851 76.2971C77.6554 76.229 77.9024 76.1268 78.2259 75.9906C78.5495 75.8543 78.7794 75.7522 78.9157 75.684C79.1175 75.574 79.3535 75.5444 79.5762 75.6013C79.799 75.6581 79.9919 75.7972 80.1163 75.9906C80.4058 76.3993 80.3121 76.774 79.8353 77.1146C79.2222 77.5574 78.4388 78.0683 77.4851 78.6473C74.4184 80.4412 71.1169 81.7997 67.6757 82.6835C64.2271 83.6155 60.6722 84.0963 57.0999 84.114C51.9454 84.1435 46.8318 83.1988 42.0281 81.3296C37.348 79.5067 33.0376 76.8495 29.3065 73.4871C29.2209 73.4299 29.149 73.3544 29.096 73.2661C29.043 73.1777 29.0102 73.0787 29 72.9762C29.0026 72.8661 29.0382 72.7593 29.1022 72.6697ZM44.4805 58.1088C44.4192 55.9676 45.0264 53.8605 46.2176 52.0801C47.4039 50.3883 49.054 49.0754 50.969 48.2994C53.1466 47.4302 55.4328 46.8629 57.7641 46.6134C58.6837 46.5112 60.1824 46.375 62.2601 46.2047V45.3361C62.3892 43.8349 62.1434 42.3251 61.5448 40.9423C61.1582 40.4225 60.6462 40.0093 60.0564 39.7412C59.4667 39.4731 58.8186 39.3591 58.1728 39.4096H57.7641C56.7116 39.4852 55.7019 39.8572 54.8519 40.4825C54.0261 41.1087 53.4617 42.0189 53.2681 43.0371C53.2479 43.3171 53.1374 43.5831 52.9531 43.795C52.7689 44.0069 52.5208 44.1533 52.2463 44.2121L46.3709 43.4969C45.7918 43.3606 45.5023 43.0541 45.5023 42.5772C45.5049 42.4564 45.522 42.3363 45.5534 42.2196C45.7512 40.859 46.2333 39.5553 46.9683 38.3934C47.7034 37.2314 48.6748 36.2373 49.8195 35.4756C52.2055 33.9729 54.9461 33.1269 57.7641 33.0233H59.0414C62.3471 32.8246 65.6029 33.9037 68.1355 36.0376C68.4774 36.3798 68.7934 36.747 69.0807 37.1361C69.3325 37.4703 69.5629 37.8201 69.7704 38.1834C69.9813 38.6041 70.1359 39.0507 70.2302 39.5118C70.3665 40.0908 70.4686 40.491 70.5368 40.7124C70.6349 41.1831 70.6862 41.6622 70.69 42.143C70.7241 42.8753 70.7411 43.3095 70.7411 43.4458V55.8097C70.7314 56.6345 70.8609 57.4549 71.1243 58.2366C71.2967 58.7963 71.546 59.3293 71.8651 59.8204C72.1036 60.1439 72.4952 60.6634 73.0402 61.3786C73.2197 61.6155 73.3262 61.8996 73.3468 62.1961C73.3418 62.3395 73.302 62.4796 73.2308 62.6042C73.1596 62.7289 73.0591 62.8343 72.938 62.9114C70.111 65.3637 68.5783 66.6921 68.3399 66.8964C68.1263 67.0483 67.8749 67.1381 67.6134 67.1562C67.352 67.1742 67.0907 67.1197 66.8582 66.9986C66.3814 66.5899 65.9641 66.1982 65.6065 65.8235C65.2489 65.4489 64.9934 65.1764 64.8402 65.0061C64.5753 64.6877 64.328 64.3551 64.0993 64.0098C63.7587 63.5159 63.5203 63.1838 63.3841 63.0135C61.906 64.8028 59.9605 66.1469 57.7641 66.8964C56.3646 67.2673 54.9199 67.4393 53.4725 67.4073C52.2882 67.4507 51.1071 67.2586 49.9976 66.842C48.8882 66.4254 47.8725 65.7927 47.0095 64.9805C46.1338 64.0736 45.4567 62.9941 45.0213 61.811C44.5859 60.6279 44.4017 59.3671 44.4805 58.1088ZM53.2681 57.087C53.2102 58.236 53.5634 59.368 54.2644 60.2802C54.5886 60.6736 54.9994 60.9867 55.4647 61.195C55.93 61.4033 56.4372 61.5011 56.9466 61.4808C57.0926 61.476 57.2378 61.4589 57.3809 61.4297C57.5072 61.4032 57.6353 61.3862 57.7641 61.3786C58.4831 61.1839 59.1519 60.8367 59.7249 60.3607C60.2979 59.8847 60.7618 59.2909 61.085 58.6197C61.4659 57.9569 61.7498 57.2429 61.928 56.4995C62.0906 55.8893 62.1932 55.2647 62.2345 54.6347C62.2516 54.1578 62.2601 53.3744 62.2601 52.2845V51.0072C60.7504 50.9605 59.2406 51.0978 57.7641 51.4159C56.4532 51.6528 55.2736 52.3593 54.4461 53.4032C53.6185 54.447 53.1997 55.7567 53.2681 57.087ZM74.7262 73.5382C74.8058 73.3864 74.9093 73.2484 75.0328 73.1295C75.7773 72.6011 76.6067 72.2036 77.4851 71.9544C78.7196 71.6226 79.9882 71.4341 81.2658 71.3924C81.59 71.3575 81.9178 71.3747 82.2365 71.4435C83.7693 71.5798 84.6889 71.8352 84.9954 72.2099C85.1503 72.4905 85.2212 72.8097 85.1998 73.1295V73.4871C85.1422 74.9404 84.813 76.3701 84.2291 77.7021C83.6606 79.2073 82.7307 80.5495 81.5213 81.6106C81.3951 81.7282 81.2333 81.8001 81.0615 81.8149C80.9903 81.8142 80.9203 81.7967 80.8571 81.7638C80.6527 81.6617 80.6016 81.4743 80.7038 81.2018C81.6736 79.2607 82.3125 77.1714 82.5942 75.0199C82.618 74.7323 82.5461 74.4449 82.3898 74.2024C82.0492 73.7937 81.0955 73.5893 79.5287 73.5893C78.9497 73.5893 78.2685 73.6234 77.4851 73.6915C76.6336 73.7937 75.8502 73.8959 75.1349 73.998C74.9908 74.0153 74.8453 73.9789 74.7262 73.8959C74.6955 73.8729 74.6736 73.84 74.6643 73.8028C74.655 73.7655 74.6588 73.7262 74.6751 73.6915C74.6813 73.6374 74.6987 73.5852 74.7262 73.5382Z" fill="white"/>
</svg>
