<svg width="100" height="100" viewBox="0 0 100 100" fill="none" xmlns="http://www.w3.org/2000/svg">
<circle cx="50" cy="50" r="37" fill="#3EE6C4"/>
<circle cx="49.8472" cy="50.1504" r="31.435" fill="white"/>
<g clip-path="url(#clip0_2_352)">
<path d="M50 77C64.9117 77 77 64.9117 77 50C77 35.0883 64.9117 23 50 23C35.0883 23 23 35.0883 23 50C23 64.9117 35.0883 77 50 77Z" fill="#FF9A00"/>
<g clip-path="url(#clip1_2_352)">
<path fill-rule="evenodd" clip-rule="evenodd" d="M51.9354 51.3067C51.4401 52.2947 50.5921 52.9307 49.6734 53.1453C49.5347 53.1453 49.3221 53.2153 49.1094 53.2153C47.5567 53.2153 46.6387 52.014 46.6387 50.2487C46.6387 47.986 47.9801 46.928 49.6734 46.4313C50.5921 46.22 51.6534 46.1487 52.7121 46.1487V46.9973C52.7121 48.622 52.7821 49.8927 51.9354 51.3067ZM52.7121 42.9013C51.7941 42.9713 50.7327 43.0413 49.6734 43.18C48.0501 43.3947 46.4267 43.6773 45.0867 44.3133C42.4734 45.3733 40.7067 47.6333 40.7067 50.9527C40.7067 55.124 43.3894 57.2413 46.7821 57.2413C47.9107 57.2413 48.8287 57.0987 49.6734 56.8893C51.0187 56.464 52.1461 55.6867 53.4874 54.2727C54.2647 55.3327 54.4787 55.8293 55.8187 56.9593C56.1721 57.0987 56.5254 57.0987 56.8061 56.8893C57.6547 56.1813 59.1394 54.9093 59.9147 54.2027C60.2681 53.9207 60.1987 53.496 59.9841 53.1453C59.2087 52.1553 58.4301 51.3067 58.4301 49.3993V43.0407C58.4301 40.3567 58.6447 37.8833 56.6667 36.048C55.0434 34.5667 52.5001 34 50.5221 34H49.6734C46.0747 34.2087 42.2627 35.764 41.4121 40.2153C41.2707 40.782 41.6961 40.9927 41.9787 41.062L45.9334 41.5573C46.3567 41.486 46.5694 41.132 46.6387 40.782C46.9907 39.2273 48.2627 38.45 49.6734 38.3067H49.9581C50.8061 38.3067 51.7247 38.6607 52.2174 39.3687C52.7821 40.2153 52.7121 41.3467 52.7121 42.3367V42.9013Z" fill="white"/>
<path fill-rule="evenodd" clip-rule="evenodd" d="M66.9961 57.964V57.9627C66.9814 57.6293 66.9114 57.3753 66.7727 57.164L66.7574 57.144L66.7407 57.1227C66.5994 56.9687 66.4641 56.91 66.3174 56.846C65.8787 56.6767 65.2407 56.586 64.4734 56.5847C63.9221 56.5847 63.3141 56.6373 62.7027 56.7713L62.7007 56.7293L62.0854 56.9347L62.0741 56.94L61.7261 57.0533V57.068C61.3282 57.2331 60.9514 57.4448 60.6034 57.6987C60.3887 57.8587 60.2121 58.072 60.2021 58.3973C60.2021 58.4927 60.2229 58.5868 60.2632 58.6732C60.3036 58.7596 60.3623 58.8361 60.4354 58.8973C60.5154 58.9611 60.6076 59.0077 60.7063 59.0343C60.8051 59.0609 60.9082 59.0669 61.0094 59.052L61.0394 59.0507L61.0621 59.0467C61.3634 58.9827 61.8021 58.9393 62.3154 58.868C62.7554 58.8187 63.2221 58.7833 63.6267 58.7833C63.9127 58.7813 64.1701 58.802 64.3467 58.8393C64.4228 58.8532 64.4964 58.8779 64.5654 58.9127C64.5793 58.9707 64.5849 59.0304 64.5821 59.09C64.5861 59.4287 64.4434 60.0573 64.2454 60.6713C64.0534 61.2847 63.8201 61.9 63.6661 62.3087C63.6257 62.4073 63.6046 62.5128 63.6041 62.6193C63.6001 62.7833 63.6681 62.9827 63.8107 63.1147C63.9507 63.246 64.1307 63.2987 64.2814 63.2987H64.2887C64.5147 63.2967 64.7067 63.2067 64.8721 63.0767C66.4341 61.6727 66.9774 59.4287 67.0001 58.1653L66.9961 57.964V57.964ZM62.3661 59.9107C62.2014 59.91 62.0387 59.9465 61.8901 60.0173C61.7187 60.0853 61.5434 60.1647 61.3781 60.2347L61.1354 60.336L60.8194 60.4627V60.466C57.3861 61.8593 53.7794 62.676 50.4414 62.7473C50.3187 62.7513 50.1947 62.7513 50.0761 62.7513C44.8267 62.7547 40.5447 60.3193 36.2247 57.9193C36.0845 57.8428 35.9278 57.8014 35.7681 57.7987C35.5741 57.7987 35.3747 57.872 35.2294 58.0073C35.1567 58.0765 35.0989 58.1598 35.0595 58.2521C35.0201 58.3443 34.9999 58.4437 35.0001 58.544C34.9981 58.8053 35.1394 59.0467 35.3367 59.2027C39.3914 62.7247 43.8354 65.996 49.8134 66C49.9301 66 50.0487 65.996 50.1667 65.9947C53.9694 65.9093 58.2687 64.624 61.6067 62.5273L61.6267 62.514C62.0745 62.2468 62.5039 61.9499 62.9121 61.6253C63.1681 61.4353 63.3454 61.138 63.3454 60.8293C63.3341 60.2813 62.8687 59.9107 62.3667 59.9107H62.3661Z" fill="white"/>
</g>
</g>
<defs>
<clipPath id="clip0_2_352">
<rect width="54" height="54" fill="white" transform="translate(23 23)"/>
</clipPath>
<clipPath id="clip1_2_352">
<rect width="32" height="32" fill="white" transform="translate(35 34)"/>
</clipPath>
</defs>
</svg>
