<svg width="113" height="113" viewBox="0 0 113 113" fill="none" xmlns="http://www.w3.org/2000/svg">
<rect width="113" height="113" rx="56.5" fill="#EC255A"/>
<path d="M71.25 66.3619C71.25 69.5778 70.2458 72.3471 68.2374 74.6698C66.229 76.9924 63.62 78.427 60.4106 78.9735V84.4911C60.4106 84.7853 60.3198 85.0271 60.1381 85.2162C59.9564 85.4054 59.7243 85.5 59.4417 85.5H55.3542C55.0918 85.5 54.8647 85.4002 54.673 85.2005C54.4812 85.0008 54.3853 84.7643 54.3853 84.4911V78.9735C53.0531 78.7843 51.7663 78.4585 50.5249 77.9961C49.2836 77.5337 48.2592 77.066 47.4518 76.5931C46.6444 76.1201 45.8975 75.6157 45.2112 75.0797C44.5249 74.5437 44.0556 74.1496 43.8033 73.8973C43.551 73.6451 43.3744 73.4559 43.2734 73.3298C42.9303 72.8884 42.9101 72.4575 43.2129 72.0371L46.3315 67.7807C46.4728 67.5705 46.7049 67.4444 47.0279 67.4023C47.3307 67.3603 47.5729 67.4549 47.7545 67.6861L47.8151 67.7492C50.096 69.8301 52.5485 71.1438 55.1726 71.6903C55.9194 71.8584 56.6663 71.9425 57.4131 71.9425C59.0481 71.9425 60.4863 71.4906 61.7277 70.5868C62.9691 69.6829 63.5898 68.4008 63.5898 66.7402C63.5898 66.1517 63.4384 65.5947 63.1356 65.0692C62.8328 64.5437 62.4947 64.1023 62.1213 63.745C61.7479 63.3876 61.1574 62.9935 60.35 62.5626C59.5426 62.1317 58.8765 61.7954 58.3517 61.5537C57.8269 61.312 57.0195 60.9704 55.9295 60.529C55.1423 60.1927 54.5216 59.93 54.0674 59.7408C53.6133 59.5516 52.9926 59.2731 52.2054 58.9053C51.4181 58.5374 50.7874 58.2116 50.313 57.9279C49.8387 57.6441 49.2684 57.271 48.6023 56.8086C47.9362 56.3462 47.3963 55.8995 46.9825 55.4686C46.5687 55.0377 46.1296 54.5227 45.6654 53.9237C45.2011 53.3246 44.8428 52.7151 44.5905 52.095C44.3382 51.4749 44.1263 50.776 43.9547 49.9983C43.7831 49.2206 43.6973 48.4009 43.6973 47.5391C43.6973 44.6384 44.6864 42.0951 46.6645 39.909C48.6427 37.723 51.2163 36.3147 54.3853 35.6842V30.0089C54.3853 29.7357 54.4812 29.4992 54.673 29.2995C54.8647 29.0998 55.0918 29 55.3542 29H59.4417C59.7243 29 59.9564 29.0946 60.1381 29.2838C60.3198 29.4729 60.4106 29.7147 60.4106 30.0089V35.558C61.5611 35.6842 62.6764 35.9259 63.7563 36.2832C64.8362 36.6405 65.7142 36.9926 66.3904 37.3394C67.0666 37.6862 67.7075 38.0804 68.3131 38.5218C68.9186 38.9632 69.3122 39.268 69.4939 39.4361C69.6756 39.6043 69.827 39.7514 69.9481 39.8775C70.2912 40.2559 70.3417 40.6552 70.0994 41.0756L67.647 45.6789C67.4855 45.9941 67.2533 46.1623 66.9506 46.1833C66.668 46.2464 66.3955 46.1728 66.1331 45.9626C66.0725 45.8996 65.9262 45.7734 65.694 45.5843C65.4619 45.3951 65.0683 45.1166 64.5132 44.7487C63.9581 44.3809 63.3677 44.0446 62.742 43.7398C62.1162 43.435 61.3643 43.1618 60.4863 42.9201C59.6082 42.6783 58.7453 42.5575 57.8976 42.5575C55.98 42.5575 54.4156 43.0094 53.2045 43.9132C51.9934 44.8171 51.3879 45.9836 51.3879 47.4129C51.3879 47.9594 51.4736 48.4639 51.6452 48.9263C51.8168 49.3888 52.1145 49.8249 52.5384 50.2348C52.9623 50.6447 53.361 50.9915 53.7344 51.2752C54.1078 51.559 54.673 51.8848 55.4299 52.2526C56.1869 52.6205 56.7975 52.9042 57.2617 53.1039C57.726 53.3036 58.4325 53.5926 59.3812 53.971C60.451 54.3914 61.2685 54.7224 61.8336 54.9641C62.3988 55.2059 63.1659 55.5737 64.1348 56.0677C65.1036 56.5616 65.8656 57.0083 66.4207 57.4076C66.9758 57.807 67.6015 58.3325 68.2979 58.9841C68.9943 59.6357 69.5292 60.3031 69.9026 60.9862C70.2761 61.6693 70.594 62.4733 70.8564 63.3982C71.1188 64.323 71.25 65.3109 71.25 66.3619Z" fill="white"/>
</svg>
