<svg width="55" height="55" viewBox="0 0 55 55" fill="none" xmlns="http://www.w3.org/2000/svg">
<mask id="mask0_1779_166" style="mask-type:luminance" maskUnits="userSpaceOnUse" x="0" y="0" width="55" height="55">
<path d="M55 0H0V55H55V0Z" fill="white"/>
</mask>
<g mask="url(#mask0_1779_166)">
<path d="M27.5 55C42.6878 55 55 42.6878 55 27.5C55 12.3122 42.6878 0 27.5 0C12.3122 0 0 12.3122 0 27.5C0 42.6878 12.3122 55 27.5 55Z" fill="#42A5F5"/>
<path d="M34.6303 31.4258C34.6303 32.991 34.1234 34.3389 33.1097 35.4694C32.0959 36.5998 30.7791 37.2981 29.1591 37.5641V40.2497C29.1591 40.3929 29.1132 40.5105 29.0215 40.6026C28.9299 40.6947 28.8127 40.7407 28.6701 40.7407H26.6069C26.4744 40.7407 26.3598 40.6921 26.263 40.595C26.1662 40.4977 26.1178 40.3826 26.1178 40.2497V37.5641C25.4454 37.472 24.7959 37.3134 24.1693 37.0884C23.5427 36.8633 23.0256 36.6357 22.6181 36.4055C22.2106 36.1753 21.8336 35.9298 21.4872 35.6689C21.1408 35.408 20.9039 35.2162 20.7765 35.0934C20.6492 34.9706 20.56 34.8785 20.5091 34.8172C20.3359 34.6023 20.3257 34.3926 20.4785 34.188L22.0526 32.1163C22.1239 32.014 22.2412 31.9526 22.4041 31.9322C22.557 31.9117 22.6792 31.9577 22.7709 32.0703L22.8015 32.1009C23.9528 33.1138 25.1907 33.7532 26.5152 34.0192C26.8921 34.101 27.2692 34.1419 27.6461 34.1419C28.4713 34.1419 29.1973 33.9219 29.8239 33.482C30.4505 33.0421 30.7638 32.4181 30.7638 31.6099C30.7638 31.3234 30.6873 31.0523 30.5346 30.7965C30.3817 30.5408 30.2111 30.326 30.0225 30.152C29.8341 29.978 29.5361 29.7863 29.1286 29.5765C28.721 29.3668 28.3848 29.2031 28.1198 29.0854C27.8549 28.9678 27.4474 28.8015 26.8972 28.5867C26.4999 28.4231 26.1866 28.2951 25.9573 28.2031C25.7282 28.111 25.4149 27.9754 25.0174 27.7964C24.6201 27.6173 24.3017 27.4587 24.0623 27.3206C23.8229 27.1825 23.5351 27.0009 23.1989 26.7759C22.8627 26.5508 22.5901 26.3334 22.3812 26.1237C22.1723 25.9139 21.9508 25.6633 21.7164 25.3717C21.4821 25.0802 21.3013 24.7835 21.1739 24.4817C21.0465 24.1798 20.9395 23.8397 20.8529 23.4611C20.7663 23.0826 20.7231 22.6836 20.7231 22.2642C20.7231 20.8523 21.2222 19.6144 22.2208 18.5505C23.2192 17.4864 24.5183 16.801 26.1178 16.4941V13.7318C26.1178 13.5988 26.1662 13.4837 26.263 13.3865C26.3598 13.2893 26.4744 13.2407 26.6069 13.2407H28.6701C28.8127 13.2407 28.9299 13.2868 29.0215 13.3788C29.1132 13.4709 29.1591 13.5885 29.1591 13.7318V16.4327C29.7398 16.4941 30.3027 16.6117 30.8478 16.7857C31.393 16.9595 31.8361 17.131 32.1774 17.2997C32.5187 17.4685 32.8422 17.6604 33.1479 17.8752C33.4535 18.0901 33.6522 18.2384 33.7439 18.3203C33.8356 18.4021 33.9121 18.4737 33.9732 18.5351C34.1463 18.7192 34.1719 18.9137 34.0496 19.1182L32.8117 21.3587C32.7302 21.5122 32.613 21.5941 32.4602 21.6043C32.3176 21.6349 32.18 21.5992 32.0476 21.4968C32.017 21.4662 31.9431 21.4048 31.8259 21.3127C31.7088 21.2206 31.5101 21.085 31.2299 20.906C30.9497 20.727 30.6517 20.5634 30.3358 20.415C30.02 20.2667 29.6405 20.1336 29.1973 20.016C28.7541 19.8984 28.3186 19.8395 27.8907 19.8395C26.9228 19.8395 26.1331 20.0595 25.5218 20.4994C24.9105 20.9393 24.6048 21.5071 24.6048 22.2028C24.6048 22.4688 24.6481 22.7143 24.7348 22.9394C24.8214 23.1645 24.9716 23.3767 25.1856 23.5762C25.3996 23.7758 25.6007 23.9445 25.7893 24.0826C25.9778 24.2208 26.263 24.3793 26.6451 24.5584C27.0272 24.7375 27.3354 24.8756 27.5697 24.9727C27.804 25.0699 28.1606 25.2106 28.6395 25.3947C29.1795 25.5993 29.5921 25.7605 29.8774 25.8781C30.1627 25.9958 30.5498 26.1748 31.0389 26.4153C31.5279 26.6556 31.9125 26.8731 32.1927 27.0674C32.4729 27.2619 32.7887 27.5176 33.1402 27.8348C33.4917 28.1519 33.7617 28.4767 33.9503 28.8092C34.1387 29.1417 34.2992 29.533 34.4316 29.9832C34.5641 30.4333 34.6303 30.9142 34.6303 31.4258Z" fill="white"/>
<path d="M20.0464 5.09259C19.9187 5.09259 19.8122 5.11388 19.6844 5.15645C10.3566 8.45737 4.07422 17.3379 4.07422 27.2194C4.07422 37.1009 10.3566 45.9814 19.6844 49.2823C20.2381 49.474 20.8345 49.1972 21.0473 48.6435C21.239 48.0898 20.9622 47.4722 20.4085 47.2805C11.9112 44.2777 6.20384 36.2065 6.20384 27.2194C6.20384 18.2324 11.9112 10.161 20.4085 7.15835C20.9622 6.96666 21.2603 6.34904 21.0473 5.79537C20.8983 5.36942 20.4937 5.09259 20.0464 5.09259Z" fill="white"/>
<path d="M34.9528 5.09259C34.5056 5.09259 34.101 5.36942 33.9519 5.79537C33.7602 6.34904 34.037 6.96666 34.5908 7.15835C43.088 10.1611 48.7954 18.2324 48.7954 27.2194C48.7954 36.2065 43.088 44.2777 34.5908 47.2805C34.037 47.4722 33.7389 48.0898 33.9519 48.6435C34.1436 49.1972 34.7611 49.4953 35.3149 49.2824C44.6427 45.9814 50.925 37.101 50.925 27.2194C50.925 17.3379 44.6427 8.45737 35.3149 5.15645C35.187 5.11388 35.0806 5.09259 34.9528 5.09259Z" fill="white"/>
</g>
</svg>
