<svg width="100" height="100" viewBox="0 0 100 100" fill="none" xmlns="http://www.w3.org/2000/svg">
<circle cx="50" cy="50" r="37" fill="#3EE6C4"/>
<circle cx="49.8472" cy="50.1504" r="31.435" fill="white"/>
<g clip-path="url(#clip0_2_344)">
<path d="M77 50C77 35.0883 64.9117 23 50 23C35.0883 23 23 35.0883 23 50C23 63.4765 32.8735 74.6465 45.7812 76.6719V57.8047H38.9258V50H45.7812V44.0516C45.7812 37.2847 49.8122 33.5469 55.9795 33.5469C58.9336 33.5469 62.0234 34.0742 62.0234 34.0742V40.7188H58.6188C55.2647 40.7188 54.2188 42.8 54.2188 44.9352V50H61.707L60.51 57.8047H54.2188V76.6719C67.1265 74.6465 77 63.4765 77 50Z" fill="#1877F2"/>
<path d="M60.51 57.8047L61.707 50H54.2188V44.9352C54.2188 42.8 55.2647 40.7188 58.6188 40.7188H62.0234V34.0742C62.0234 34.0742 58.9336 33.5469 55.9795 33.5469C49.8122 33.5469 45.7812 37.2847 45.7812 44.0516V50H38.9258V57.8047H45.7812V76.6719C48.5767 77.1094 51.4233 77.1094 54.2188 76.6719V57.8047H60.51Z" fill="white"/>
</g>
<defs>
<clipPath id="clip0_2_344">
<rect width="54" height="54" fill="white" transform="translate(23 23)"/>
</clipPath>
</defs>
</svg>
