<svg width="113" height="113" viewBox="0 0 113 113" fill="none" xmlns="http://www.w3.org/2000/svg">
<rect width="113" height="113" rx="56.5" fill="#EC255A"/>
<path d="M57.5 53.418H84.4043C84.7012 55.0755 84.8496 56.6589 84.8496 58.168C84.8496 63.5365 83.724 68.3298 81.4727 72.5479C79.2214 76.7659 76.0114 80.0625 71.8428 82.4375C67.6742 84.8125 62.8932 86 57.5 86C53.6159 86 49.9173 85.2516 46.4043 83.7549C42.8913 82.2581 39.8607 80.2357 37.3125 77.6875C34.7643 75.1393 32.7419 72.1087 31.2451 68.5957C29.7484 65.0827 29 61.3841 29 57.5C29 53.6159 29.7484 49.9173 31.2451 46.4043C32.7419 42.8913 34.7643 39.8607 37.3125 37.3125C39.8607 34.7643 42.8913 32.7419 46.4043 31.2451C49.9173 29.7484 53.6159 29 57.5 29C64.9219 29 71.2923 31.4863 76.6113 36.459L68.8555 43.918C65.8125 40.974 62.0273 39.502 57.5 39.502C54.3086 39.502 51.3584 40.306 48.6494 41.9141C45.9404 43.5221 43.7943 45.7054 42.2109 48.4639C40.6276 51.2223 39.8359 54.2344 39.8359 57.5C39.8359 60.7656 40.6276 63.7777 42.2109 66.5361C43.7943 69.2946 45.9404 71.4779 48.6494 73.0859C51.3584 74.694 54.3086 75.498 57.5 75.498C59.6523 75.498 61.6315 75.2012 63.4375 74.6074C65.2435 74.0137 66.7279 73.2715 67.8906 72.3809C69.0534 71.4902 70.0677 70.4759 70.9336 69.3379C71.7995 68.1999 72.4365 67.1237 72.8447 66.1094C73.2529 65.0951 73.5312 64.1302 73.6797 63.2148H57.5V53.418Z" fill="white"/>
</svg>
