<svg width="100" height="100" viewBox="0 0 100 100" fill="none" xmlns="http://www.w3.org/2000/svg">
<circle cx="50" cy="50" r="37" fill="#3EE6C4"/>
<circle cx="49.8472" cy="50.1504" r="31.435" fill="white"/>
<g clip-path="url(#clip0_2_272)">
<path d="M75.972 50.5052C75.972 48.2928 75.7917 46.6784 75.4014 45.0042H50.0278V54.9896H64.9216C64.6214 57.4712 62.9999 61.2083 59.3965 63.7195L59.346 64.0538L67.3686 70.2418L67.9245 70.297C73.0291 65.6031 75.972 58.6969 75.972 50.5052" fill="#4285F4"/>
<path d="M50.0279 76.8145C57.3246 76.8145 63.4502 74.4226 67.9245 70.297L59.3966 63.7195C57.1145 65.3041 54.0516 66.4102 50.0279 66.4102C42.8813 66.4102 36.8157 61.7166 34.6535 55.2289L34.3366 55.2557L25.9945 61.6836L25.8854 61.9855C30.3295 70.7752 39.458 76.8145 50.0279 76.8145Z" fill="#34A853"/>
<path d="M34.6534 55.2289C34.0829 53.5547 33.7527 51.7608 33.7527 49.9072C33.7527 48.0535 34.0829 46.2598 34.6234 44.5856L34.6083 44.229L26.1617 37.6979L25.8853 37.8288C24.0537 41.4762 23.0027 45.5722 23.0027 49.9072C23.0027 54.2423 24.0537 58.338 25.8853 61.9855L34.6534 55.2289" fill="#FBBC05"/>
<path d="M50.0279 33.4041C55.1025 33.4041 58.5257 35.5865 60.4776 37.4104L68.1046 29.9959C63.4204 25.6608 57.3246 23 50.0279 23C39.458 23 30.3295 29.0391 25.8854 37.8288L34.6235 44.5856C36.8157 38.0979 42.8813 33.4041 50.0279 33.4041" fill="#EB4335"/>
</g>
<defs>
<clipPath id="clip0_2_272">
<rect width="53" height="54" fill="white" transform="translate(23 23)"/>
</clipPath>
</defs>
</svg>
