<svg width="113" height="113" viewBox="0 0 113 113" fill="none" xmlns="http://www.w3.org/2000/svg">
<rect width="113" height="113" rx="56.5" fill="#EC255A"/>
<path d="M83.2729 49.9H75.241C75.241 47.8273 73.7729 46.1864 71.8729 45.7546C71.441 37.55 64.7047 31.0728 56.5001 31.0728C48.2092 31.0728 41.4729 37.6364 41.1274 45.7546C39.2274 46.1 37.7592 47.8273 37.7592 49.9H29.7274C29.2956 49.9 28.8638 50.2455 28.8638 50.7637V54.9091C28.8638 55.3409 29.2092 55.7728 29.7274 55.7728H31.282V78.0546H29.7274C29.2956 78.0546 28.8638 78.4 28.8638 78.9182V83.0637C28.8638 83.4955 29.2092 83.9273 29.7274 83.9273H83.2729C83.7047 83.9273 84.1365 83.5818 84.1365 83.0637V78.9182C84.1365 78.4864 83.791 78.0546 83.2729 78.0546H81.7183V55.7728H83.2729C83.7047 55.7728 84.1365 55.4273 84.1365 54.9091V50.7637C84.1365 50.2455 83.791 49.9 83.2729 49.9ZM70.232 45.7546H66.5183C66.3456 41.0046 64.791 36.7728 62.4592 34.1818C66.8638 36.2546 69.8865 40.5728 70.232 45.7546ZM48.2092 45.7546C48.4683 39.7091 50.9729 34.7864 54.4274 33.3182C53.0456 36.7728 52.7865 43.4228 52.7001 45.7546H48.2092ZM56.5001 32.8C57.2774 33.4046 58.5729 37.9818 58.6592 45.6682H54.341C54.4274 37.9818 55.7229 33.4046 56.5001 32.8ZM60.3001 45.7546C60.2138 43.4228 60.041 36.7728 58.5729 33.3182C61.941 34.7864 64.532 39.7955 64.791 45.7546H60.3001ZM50.541 34.1818C48.2092 36.8591 46.6547 41.0046 46.482 45.7546H42.7683C43.1138 40.5728 46.2229 36.2546 50.541 34.1818ZM39.4001 49.9C39.4001 48.5182 40.5229 47.3955 41.9047 47.3955H71.0956C72.4774 47.3955 73.6001 48.5182 73.6001 49.9H39.4001ZM82.4956 82.2H30.5047V79.6955C68.0729 79.6955 45.532 79.6955 82.4092 79.6955V82.2H82.4956ZM60.991 78.0546H52.0092V67C52.0092 64.4955 53.9956 62.5091 56.5001 62.5091C59.0047 62.5091 60.991 64.4955 60.991 67V78.0546ZM80.0774 78.0546H62.632V67C62.632 63.6318 59.8683 60.8682 56.5001 60.8682C53.132 60.8682 50.3683 63.5455 50.3683 67V78.0546H32.9229V55.7728H80.1638V78.0546H80.0774ZM82.4956 54.1318C77.141 54.1318 37.5865 54.1318 30.591 54.1318V51.6273C62.632 51.6273 48.1229 51.6273 82.4956 51.6273V54.1318Z" fill="white"/>
<path d="M36.6366 74.6864H47.0002C47.432 74.6864 47.8639 74.3409 47.8639 73.8227V59.9182C47.8639 59.4864 47.5184 59.0546 47.0002 59.0546H36.6366C36.2048 59.0546 35.7729 59.4 35.7729 59.9182V73.8227C35.7729 74.3409 36.2048 74.6864 36.6366 74.6864ZM37.5002 67.7773H41.3866V73.0455H37.5002V67.7773ZM43.1139 73.0455V67.7773H46.1366V73.0455H43.1139ZM46.1366 66.05H43.0275V60.7818H46.1366V66.05ZM41.3866 60.7818V66.05H37.5002V60.7818H41.3866ZM66.0002 74.6864H76.3639C76.7957 74.6864 77.2275 74.3409 77.2275 73.8227V59.9182C77.2275 59.4864 76.882 59.0546 76.3639 59.0546H66.0002C65.5684 59.0546 65.1366 59.4 65.1366 59.9182V73.8227C65.2229 74.3409 65.5684 74.6864 66.0002 74.6864ZM66.8639 67.7773H70.7502V73.0455H66.8639V67.7773ZM72.4775 73.0455V67.7773H75.5002V73.0455H72.4775ZM75.5002 66.05H72.3911V60.7818H75.5002V66.05ZM70.7502 60.7818V66.05H66.8639V60.7818H70.7502Z" fill="white"/>
</svg>
