<svg width="113" height="113" viewBox="0 0 113 113" fill="none" xmlns="http://www.w3.org/2000/svg">
<rect width="113" height="113" rx="56.5" fill="#EC255A"/>
<g clip-path="url(#clip0_941_908)">
<path d="M18.6852 47.4991H16.8251V56.8415C16.8251 60.3503 15.6188 61.4055 12.5606 61.4055C9.99703 61.3971 9 60.3847 9 59.0721C9 58.7717 9.10882 57.8025 10.0472 57.8025C10.9771 57.8025 11.0358 58.4459 11.0358 59.4926C11.0358 59.93 11.2119 60.7878 12.3093 60.7878C14.0521 60.7878 14.8312 59.9729 14.8312 57.0904V47.4991H13.0383V47.0015H18.6852V47.4991ZM19.0622 59.175C18.7522 59.175 18.4842 59.2778 18.2748 59.501C18.057 59.724 17.948 59.9899 17.948 60.3073C17.948 60.6248 18.057 60.8907 18.2748 61.0967C18.4925 61.3197 18.7522 61.4227 19.0622 61.4227C19.3722 61.4227 19.6319 61.3198 19.8583 61.0967C20.076 60.8907 20.1849 60.6248 20.1849 60.3073C20.1849 59.9813 20.076 59.724 19.8583 59.501C19.6405 59.278 19.3805 59.175 19.0622 59.175ZM31.1687 59.175C30.8587 59.175 30.599 59.2778 30.3812 59.501C30.1634 59.7242 30.0627 59.9899 30.0627 60.3073C30.0627 60.6248 30.1633 60.8907 30.3812 61.0967C30.6074 61.3197 30.8671 61.4227 31.1687 61.4227C31.4787 61.4227 31.7468 61.3198 31.9645 61.0967C32.1823 60.8907 32.2913 60.6248 32.2913 60.3073C32.2913 59.9813 32.1823 59.724 31.9645 59.501C31.7468 59.278 31.4787 59.175 31.1687 59.175ZM27.6582 47.0015C31.9897 47.0015 32.727 48.6742 32.727 51.0593C32.727 53.4185 31.5288 55.1428 27.2476 55.1428L25.7731 55.1514V58.7115C25.7731 59.1491 25.8234 59.3637 25.924 59.6037C26.0328 59.8868 26.2675 60.1013 26.6192 60.2471C26.8706 60.3415 27.2561 60.393 27.7588 60.41V61.045H21.8103V60.41C22.3129 60.393 22.6899 60.3413 22.9412 60.2299C23.2764 60.084 23.5026 59.8696 23.6033 59.5865C23.6954 59.3377 23.7456 59.2948 23.7456 58.437V47.499H22.1202V47.0099L27.6582 47.0015ZM26.8957 54.6025C29.5098 54.6025 30.8082 53.4444 30.8082 51.1796C30.8082 48.9233 30.0877 47.542 26.7867 47.542L25.7647 47.5591V54.6109H26.8957M49.7347 59.5525C49.6592 59.3037 49.6173 58.9947 49.6173 58.6002V47.4991H51.0499V47.0015H47.5562C47.5141 47.1302 43.3503 57.7338 43.3503 57.7338C43.3411 57.7509 43.3278 57.7654 43.3117 57.7759C43.2955 57.7864 43.2771 57.7926 43.2581 57.7939C43.2078 57.7939 43.1742 57.7681 43.1576 57.7338C43.1576 57.7338 38.7339 47.1302 38.6838 47.0015H34.8046V47.4904H36.4134V58.1626C36.4134 58.1626 36.3799 59.1492 36.3799 59.1578C36.3547 59.4152 36.2709 59.6469 36.1452 59.8356C36.0112 60.033 35.8016 60.1873 35.5252 60.2903C35.3408 60.3504 35.0645 60.3932 34.7293 60.4017V61.0366H38.6754V60.4017C38.3488 60.3847 38.2063 60.3504 38.0135 60.2903C37.7287 60.1959 37.5191 60.05 37.3767 59.8442C37.251 59.6553 37.1672 59.4237 37.142 59.1492C37.142 59.1492 37.1001 58.1626 37.1001 58.1541V48.9659H37.3263C37.3263 48.9659 42.3197 60.9078 42.3784 61.0452H42.7972L47.5309 49.1032H47.6482V58.6001C47.6482 59.0119 47.6062 59.3379 47.5309 59.5867C47.4387 59.8783 47.2377 60.0929 46.9444 60.2387C46.7266 60.3415 46.3999 60.3932 45.9643 60.4102V61.0452H51.3599V60.4102C50.9242 60.3846 50.589 60.3331 50.3629 60.2301C50.0279 60.0673 49.8267 59.8442 49.7347 59.5525ZM56.9901 50.7592C59.6543 50.7592 61.6314 52.6208 61.6314 56.0351C61.6314 60.4189 58.5484 61.4568 56.9314 61.4568C56.1104 61.4568 52.315 61.1308 52.315 56.1294C52.3068 52.7152 54.1165 50.7592 56.9901 50.7592ZM56.9567 60.8393C58.8921 60.8393 59.4869 59.604 59.4869 56.0094C59.4869 53.5129 59.4784 51.3853 56.9567 51.3853C54.6275 51.3853 54.46 53.4443 54.46 56.1895C54.46 59.7326 54.7866 60.8393 56.9567 60.8393ZM69.1636 50.9135C67.4461 50.9135 66.8513 51.9516 66.3735 53.0154C66.3735 53.0154 66.2477 53.0068 66.2395 53.0068C66.2311 53.0154 65.896 50.9993 65.896 50.9993H62.6284V51.5313H64.4215V58.4459C64.4215 59.1321 64.3879 59.6641 64.2119 59.9557C64.0109 60.2903 63.6003 60.4191 62.9133 60.4191H62.6201V61.0539H68.2083V60.4191H67.9067C67.1779 60.4191 66.8008 60.2562 66.6082 59.93C66.4322 59.6471 66.3485 59.158 66.3485 58.4459V54.8599C66.3485 53.6503 67.2952 52.2604 68.3675 52.2604C69.4902 52.2604 69.5237 53.9076 70.7303 53.3158C71.5848 52.9038 71.3922 50.9135 69.1636 50.9135ZM91.4075 60.0157C91.7594 60.0157 92.1868 59.6382 92.2788 58.9262H92.614C92.5218 60.5562 91.7427 61.2083 90.444 61.2083C89.2879 61.2083 88.6511 60.3674 88.5422 59.6725C87.8637 60.4103 86.8581 61.337 85.2662 61.337C83.8336 61.337 82.7194 60.2045 82.6523 58.9176C82.4597 55.6233 86.6906 55.2717 88.4751 55.1086V53.4271C88.4751 52.818 88.3411 52.3291 88.0814 51.9602C87.805 51.5741 87.3106 51.3854 86.6068 51.3854C86.0036 51.3854 85.5596 51.5399 85.2748 51.84C85.0065 52.1317 84.8893 52.4491 84.8056 52.9983C84.6883 53.7445 84.3783 54.0362 83.8254 54.0362C83.5825 54.0362 83.3897 53.9675 83.2139 53.8132C83.0463 53.6674 82.9626 53.4529 82.9626 53.144C82.9626 52.4834 83.2139 52.0287 83.8507 51.5313C84.5042 51.0167 85.5264 50.7593 86.9087 50.7593C88.3497 50.7593 89.3467 51.0338 89.8577 51.5657C90.3773 52.0975 90.5198 52.7152 90.5198 53.6159V57.8195L90.5533 59.1065C90.6201 59.6812 90.8043 60.0157 91.4075 60.0157ZM88.4835 55.7263C87.1094 55.7263 84.6127 56.6614 84.6127 58.5316C84.6127 59.1149 84.8139 60.2816 86.1878 60.2816C86.724 60.2816 87.4528 59.9642 88.408 59.0721L88.45 59.0291C88.4835 59.0033 88.4835 58.9862 88.4835 58.952V55.7263ZM102.819 59.9557C102.576 59.6471 102.525 58.9691 102.525 58.4545V53.9078C102.525 53.2472 102.442 52.6896 102.199 52.2262C101.956 51.7801 101.612 51.4371 101.185 51.2141C100.749 50.9911 100.255 50.8795 99.7104 50.8795C97.7499 50.8795 96.8953 52.0377 96.5101 52.8183H96.3592L96.0157 50.9996H92.9743V51.5229H94.4991V58.4462C94.4991 58.9782 94.4572 59.3641 94.3817 59.6216C94.298 59.9303 94.1054 60.1363 93.8204 60.2651C93.6362 60.3421 93.3513 60.3938 92.9828 60.4108V61.0458H97.8085V60.4108C97.3227 60.3679 96.9959 60.2393 96.82 59.982C96.6273 59.7073 96.5436 59.2441 96.5436 58.5578V55.907C96.5436 54.8003 96.535 53.7278 96.9037 53.0587C97.3059 52.3381 98.0347 51.9349 98.8473 51.9349C99.5847 51.9349 99.9785 52.1752 100.213 52.6556C100.473 53.196 100.531 54.1997 100.531 54.9975V58.2833C100.531 58.8323 100.515 59.227 100.481 59.4843C100.423 59.7847 100.356 60.0335 100.121 60.1878C99.9535 60.308 99.6938 60.3852 99.3503 60.4108V61.0371H104V60.4017C103.405 60.376 103.053 60.2732 102.819 59.9557ZM81.0019 50.3559C81.5297 50.1844 81.9654 50.313 82.1078 50.9222C82.1748 51.2139 82.1163 51.5657 81.9487 51.8743C81.7896 52.1832 81.5129 52.4063 81.0774 52.5435C80.7003 52.6723 80.2981 52.6723 79.8542 52.5693C80.0637 53.0326 80.2394 53.6846 80.2394 54.448C80.2394 57.1074 78.2539 57.9053 76.1343 58.2399C73.9727 58.5829 73.4198 58.849 73.4198 59.5437C73.4198 60.0157 73.7046 60.2902 75.2043 60.2902C78.3042 60.4447 79.6867 60.2644 80.6586 61.6285C80.96 62.0659 81.1109 62.6494 81.1109 63.3787C81.1109 63.9105 80.9769 64.4681 80.6837 65.0087C80.4072 65.549 79.8877 66.0209 79.142 66.407C78.3963 66.7931 77.3575 66.9991 76.084 66.9991C75.1205 66.9991 74.425 66.9218 73.3695 66.5958C72.6824 66.39 71.7776 65.8238 71.7776 64.6314C71.7776 64.2709 71.8363 63.9708 71.9954 63.7134C72.1714 63.4388 72.5316 63.2758 72.8332 63.3273C73.3693 63.4218 73.5284 63.9193 73.4364 64.391C73.3276 64.8544 73.428 65.5064 73.9476 65.8322C74.6512 66.2784 75.4221 66.3812 76.3688 66.3812C77.4748 66.3812 78.3629 66.184 79.0164 65.815C79.7202 65.4118 80.0637 64.8712 80.0637 64.2022C80.0637 63.7133 79.8961 63.3358 79.5693 63.0784C79.2593 62.8468 78.832 62.6924 78.3042 62.6238C77.8098 62.5638 77.0475 62.521 75.9835 62.5123C74.7603 62.4867 73.7884 62.3408 73.093 62.0491C72.4647 61.7832 71.9788 61.3113 71.9788 60.4362C71.9788 58.9865 73.3024 58.5403 74.7939 58.2315C74.8861 58.2145 74.8861 58.0857 74.7771 58.0686C73.0261 57.691 72.2303 56.6615 72.2303 54.5512C72.2303 52.7411 73.4283 50.7595 76.1512 50.7595C77.8353 50.7595 78.7988 51.3428 79.3014 51.8147C79.4523 51.9347 79.7958 51.9262 79.9968 51.8661C80.1978 51.7974 80.3487 51.5658 80.424 51.1541C80.5244 50.7077 80.7085 50.4503 81.0019 50.3559ZM76.2012 57.6737C77.3908 57.6737 78.2455 57.3048 78.2455 54.5167C78.2455 52.5693 77.7847 51.2996 76.2012 51.2996C74.844 51.2996 74.2071 52.6894 74.2071 54.551C74.1989 57.2018 74.9277 57.6737 76.2012 57.6737Z" fill="white"/>
</g>
<defs>
<clipPath id="clip0_941_908">
<rect width="95" height="20" fill="white" transform="translate(9 47)"/>
</clipPath>
</defs>
</svg>
