<svg width="113" height="113" viewBox="0 0 113 113" fill="none" xmlns="http://www.w3.org/2000/svg">
<rect width="113" height="113" rx="56.5" fill="#EC255A"/>
<path fill-rule="evenodd" clip-rule="evenodd" d="M42.2285 40.8151C40.1592 40.8155 38.1362 41.424 36.4144 42.5639C34.6926 43.7038 33.3489 45.3242 32.5526 47.221C31.0668 50.7646 29.063 59.5387 28.1572 63.7297C27.9033 64.8882 27.8003 65.8866 27.8827 66.7828C28.1503 69.7813 29.0836 71.2124 29.962 71.9483C30.8781 72.7218 32.2712 73.1852 34.3093 73.1852C36.5499 73.1852 38.6326 72.0369 39.8233 70.1527L45.4676 61.1844L52.9716 48.7645L51.2217 45.8682C50.29 44.327 48.9723 43.0516 47.3969 42.1661C45.8216 41.2805 44.0388 40.8151 42.2285 40.8151ZM56.9724 42.1439C55.2915 39.454 52.8967 37.276 50.0509 35.8491C47.2051 34.4222 44.0185 33.8016 40.8408 34.0555C37.6631 34.3093 34.6173 35.4278 32.0378 37.2881C29.4583 39.1483 27.4449 41.6785 26.2186 44.6007C24.4343 48.8565 22.2967 58.3597 21.4492 62.2986C21.0568 63.9656 20.9203 65.6818 21.0443 67.3893C21.4252 71.6144 22.8972 74.9332 25.522 77.1446C28.1057 79.3219 31.3105 80 34.3093 80C36.5758 80.0003 38.8052 79.4281 40.7878 78.3373C42.7703 77.2465 44.441 75.6729 45.6426 73.7645L51.3041 64.769L51.3384 64.7179L56.9724 55.3885L62.6064 64.7179L62.6407 64.769L68.3022 73.7645C69.5035 75.6724 71.1736 77.2457 73.1556 78.3365C75.1375 79.4272 77.3661 79.9997 79.632 80C83.0049 80 86.5116 79.0459 89.1433 76.2996C91.751 73.5771 93 69.6211 93 64.6668C93 61.5217 91.7991 56.9456 90.6839 53.2827C89.8335 50.5051 88.901 47.7531 87.8875 45.03C86.725 42.0425 84.7469 39.4359 82.1752 37.503C79.6036 35.5701 76.5403 34.3874 73.3292 34.0876C70.1182 33.7878 66.8865 34.3829 63.9972 35.806C61.1079 37.2291 58.6752 39.4239 56.9724 42.1439ZM60.9732 48.7645L68.4738 61.1844L74.1181 70.1493C75.3053 72.0369 77.3915 73.1852 79.632 73.1852C81.7491 73.1852 83.2108 72.606 84.1715 71.6008C85.1597 70.5718 86.1376 68.5682 86.1376 64.6668C86.1376 62.6769 85.2626 59.0275 84.1132 55.2488C83.3055 52.6077 82.4199 49.9909 81.4574 47.4015C80.7376 45.5965 79.5239 44.0272 77.9534 42.871C76.3829 41.7147 74.5181 41.0175 72.5697 40.858C70.6213 40.6985 68.6668 41.0832 66.9268 41.9685C65.1869 42.8538 63.7309 44.2046 62.7231 45.8682L60.9732 48.7645Z" fill="white"/>
</svg>
