<svg width="100" height="100" viewBox="0 0 100 100" fill="none" xmlns="http://www.w3.org/2000/svg">
<circle cx="50" cy="50" r="37" fill="#3EE6C4"/>
<circle cx="49.8472" cy="50.1504" r="31.435" fill="white"/>
<path d="M42.6529 35.8775C43.5887 36.1329 44.5245 36.3032 45.4604 36.5586C46.3962 36.814 47.332 36.9843 48.2678 37.2397C48.523 37.3248 48.6081 37.2397 48.6932 36.9843C49.0335 35.5369 49.3737 34.1747 49.714 32.7274C49.7991 32.472 49.8842 32.3868 50.1394 32.472C50.9901 32.7274 51.7558 32.8977 52.6065 33.0679C52.8618 33.1531 52.8618 33.2382 52.7767 33.4085C52.4364 34.7707 52.0961 36.218 51.7558 37.5802C51.7558 37.6654 51.7558 37.7505 51.6707 37.9208C52.3513 38.0911 53.117 38.2614 53.7976 38.4316C53.8827 38.4316 53.9677 38.2614 54.0528 38.1762C54.308 37.0694 54.5632 36.0478 54.9035 34.941L55.1588 33.9193C55.1588 33.749 55.2438 33.6639 55.414 33.749C56.2647 34.0045 57.1155 34.1747 58.0513 34.4301C58.1363 34.4301 58.1363 34.5153 58.2214 34.5153C57.9662 35.6221 57.711 36.6437 57.4557 37.6654C57.3707 38.0911 57.2856 38.5168 57.1154 38.9425C57.0304 39.1979 57.1155 39.283 57.3707 39.3681L60.1781 40.6452C61.0288 41.156 61.7945 41.8372 62.39 42.6885C63.1557 43.9656 63.2408 45.3278 62.9005 46.69C62.6452 47.6265 62.3049 48.4779 61.6244 49.159C61.1139 49.6699 60.4333 50.0104 59.7527 50.2658C59.6677 50.2658 59.5826 50.351 59.4124 50.351C59.7527 50.6064 60.093 50.7766 60.4333 51.0321C61.4542 51.7983 62.1348 52.7348 62.4751 53.9268C62.6452 54.8633 62.5602 55.8849 62.3049 56.8215C61.9646 58.0134 61.5393 59.035 60.7736 59.9716C59.8378 61.0784 58.6468 61.6743 57.2856 61.8446C55.499 62.1 53.7976 61.9297 52.0961 61.6743C51.8409 61.5892 51.6707 61.6743 51.5857 61.9297C51.2454 63.2919 50.9051 64.7393 50.5648 66.1015C50.4797 66.442 50.4797 66.5272 50.0543 66.3569C49.2887 66.1866 48.4379 65.9312 47.6723 65.7609C47.4171 65.6758 47.4171 65.5907 47.5021 65.4204C47.8424 63.973 48.1827 62.5257 48.6081 61.1635C48.6081 60.9932 48.6932 60.9081 48.523 60.8229C47.8424 60.6527 47.1618 60.4824 46.3962 60.3121C46.226 61.0784 45.9708 61.8446 45.8007 62.6108C45.6305 63.3771 45.3753 64.1433 45.2051 64.9096C45.1201 65.0798 45.1201 65.165 44.8648 65.0798C44.0141 64.8244 43.1634 64.6542 42.3126 64.4839C42.0574 64.3987 42.0574 64.3136 42.1425 64.1433C42.4828 62.696 42.8231 61.2486 43.2484 59.8864C43.2484 59.8013 43.3335 59.7161 43.3335 59.5459C41.3768 59.035 39.4201 58.5242 37.3784 58.0134C37.5485 57.6728 37.6336 57.4174 37.8037 57.0769C38.144 56.3106 38.4843 55.5444 38.7395 54.8633C38.8246 54.6079 38.9097 54.6079 39.1649 54.6079C39.7604 54.7781 40.441 54.9484 41.0365 55.0336C41.7171 55.2038 42.2276 54.8633 42.3126 54.2673C43.4186 49.9253 44.5245 45.5832 45.5454 41.156C45.7156 40.4749 45.2902 39.7087 44.5245 39.4533C43.7589 39.1979 42.9932 39.0276 42.3126 38.8573C42.1425 38.8573 42.0574 38.7722 42.1425 38.6019C42.3977 37.6654 42.6529 36.6437 42.9081 35.7072C42.5679 35.9626 42.5679 35.9626 42.6529 35.8775V35.8775ZM46.9917 56.9066C47.0768 56.9066 47.1618 56.9917 47.1618 56.9917C48.523 57.3323 49.9693 57.758 51.4155 57.8431C52.4364 57.9282 53.3722 57.9282 54.308 57.5877C55.9244 57.0769 56.605 54.9484 55.6692 53.5862C55.2438 52.9051 54.5632 52.4794 53.8826 52.0537C52.3513 51.2023 50.5648 50.8618 48.8633 50.5212C48.6081 50.4361 48.6081 50.5212 48.523 50.7766C48.3529 51.628 48.0976 52.3943 47.9275 53.2457C47.5872 54.4376 47.332 55.6295 46.9917 56.9066ZM54.1379 48.2225C54.308 48.2225 54.7334 48.1374 55.0737 48.0522C56.6901 47.7117 57.5408 45.8386 56.6901 44.3913C56.2647 43.6251 55.499 43.1142 54.7334 42.7737C53.5424 42.2628 52.3513 42.0074 51.0752 41.6669C50.82 41.5817 50.7349 41.6669 50.6499 41.9223C50.2245 43.7102 49.7991 45.413 49.2887 47.2009C49.2036 47.3711 49.2887 47.4563 49.4588 47.5414C49.7991 47.6265 50.0543 47.7117 50.3946 47.7968C51.6707 47.9671 52.7767 48.2225 54.1379 48.2225Z" fill="white"/>
<g clip-path="url(#clip0_2_329)">
<path d="M50 77C35.0883 77 23 64.9117 23 50C23 35.0883 35.0883 23 50 23C64.9117 23 77 35.0883 77 50C77 64.9117 64.9117 77 50 77Z" fill="black"/>
<g clip-path="url(#clip1_2_329)">
<path d="M50.4062 48.5938H64V35.9062C64 35.6659 63.9045 35.4354 63.7346 35.2654C63.5646 35.0955 63.3341 35 63.0938 35H50.4062V48.5938Z" fill="#4CAF50"/>
<path d="M48.5938 48.5938V35H35.9062C35.6659 35 35.4354 35.0955 35.2654 35.2654C35.0955 35.4354 35 35.6659 35 35.9062V48.5938H48.5938Z" fill="#F44336"/>
<path d="M48.5938 50.4062H35V63.0938C35 63.3341 35.0955 63.5646 35.2654 63.7346C35.4354 63.9045 35.6659 64 35.9062 64H48.5938V50.4062Z" fill="#2196F3"/>
<path d="M50.4062 50.4062V64H63.0938C63.3341 64 63.5646 63.9045 63.7346 63.7346C63.9045 63.5646 64 63.3341 64 63.0938V50.4062H50.4062Z" fill="#FFC107"/>
</g>
</g>
<defs>
<clipPath id="clip0_2_329">
<rect width="54" height="54" fill="white" transform="matrix(-1 0 0 1 77 23)"/>
</clipPath>
<clipPath id="clip1_2_329">
<rect width="29" height="29" fill="white" transform="translate(35 35)"/>
</clipPath>
</defs>
</svg>
