<svg width="113" height="113" viewBox="0 0 113 113" fill="none" xmlns="http://www.w3.org/2000/svg">
<rect width="113" height="113" rx="56.5" fill="#EC255A"/>
<g clip-path="url(#clip0_926_811)">
<path d="M58.1909 55.3446H79.5355V35.423C79.5355 35.0456 79.3856 34.6836 79.1188 34.4168C78.8519 34.1499 78.49 34 78.1126 34H58.1909V55.3446Z" fill="white"/>
<path d="M55.3446 55.3446V34H35.423C35.0456 34 34.6836 34.1499 34.4168 34.4168C34.1499 34.6836 34 35.0456 34 35.423V55.3446H55.3446Z" fill="white"/>
<path d="M55.3446 58.1903H34V78.112C34 78.4894 34.1499 78.8513 34.4168 79.1182C34.6836 79.385 35.0456 79.5349 35.423 79.5349H55.3446V58.1903Z" fill="white"/>
<path d="M58.1909 58.1903V79.5349H78.1126C78.49 79.5349 78.8519 79.385 79.1188 79.1182C79.3856 78.8513 79.5355 78.4894 79.5355 78.112V58.1903H58.1909Z" fill="white"/>
</g>
<defs>
<clipPath id="clip0_926_811">
<rect width="45.5352" height="45.5352" fill="white" transform="translate(34 34)"/>
</clipPath>
</defs>
</svg>
