<svg width="113" height="113" viewBox="0 0 113 113" fill="none" xmlns="http://www.w3.org/2000/svg">
<rect width="113" height="113" rx="56.5" fill="#EC255A"/>
<path fill-rule="evenodd" clip-rule="evenodd" d="M32.4543 46.0533C28.1595 51.097 24.0416 57.3516 24.0003 62.0267C23.9843 63.7857 24.5458 65.3213 25.8928 66.4844C27.8313 68.1596 29.9672 68.7503 32.0926 68.7537C35.1986 68.7581 38.2829 67.505 40.6978 66.5388C44.7648 64.9123 89.7219 45.3892 89.7219 45.3892C90.1557 45.1719 90.0744 44.9011 89.5315 45.0363C89.3124 45.091 40.5887 58.2952 40.5887 58.2952C39.6658 58.5562 38.7121 58.6928 37.7531 58.7012C34.0086 58.7233 30.6765 56.6449 30.7035 52.2649C30.7139 50.5511 31.2385 48.4843 32.4543 46.0533Z" fill="white"/>
</svg>
