<svg width="113" height="113" viewBox="0 0 113 113" fill="none" xmlns="http://www.w3.org/2000/svg">
<rect width="113" height="113" rx="56.5" fill="#EC255A"/>
<path d="M64.3935 64.9529C59.1252 64.9529 54.323 60.8773 54.1216 60.7035C53.7306 60.3607 53.4906 59.8776 53.4537 59.3589C53.4168 58.8402 53.586 58.3279 53.9245 57.9332C54.263 57.5385 54.7436 57.2933 55.2618 57.2508C55.78 57.2083 56.2941 57.3719 56.6925 57.7061C56.732 57.7377 60.6022 60.9997 64.3935 60.9997C64.425 61.0037 64.4606 60.9918 64.4922 60.9918L64.4922 52.8091C63.6786 52.5642 62.8098 52.3904 61.8265 52.3904C56.187 52.3904 49.5207 56.936 45.5202 60.435C49.9828 64.1078 57.5653 68.5427 63.11 68.5427C63.5602 68.5427 64.0262 68.4874 64.4922 68.4321L64.4922 64.945L64.3935 64.9529Z" fill="white"/>
<path d="M26.9746 80.3906L62.5175 80.3906C63.0412 80.3906 63.5435 80.1826 63.9138 79.8123C64.2841 79.442 64.4921 78.9397 64.4921 78.416L64.4921 72.3935C64.0301 72.4369 63.568 72.4922 63.1099 72.4922C55.2589 72.4922 45.5122 65.9918 41.2155 61.8925C40.8245 61.5252 40.6073 61.0118 40.6033 60.4787C40.5994 59.9455 40.8166 59.4282 41.1957 59.053C42.3055 57.967 52.3088 48.4375 61.8304 48.4375C62.7821 48.4375 63.6589 48.5521 64.4961 48.7179L64.4961 45.0649C64.0103 44.9543 63.5285 44.8477 63.1099 44.8477C57.6047 44.8477 41.3655 49.338 36.2553 54.3377C35.8793 54.6957 35.3774 54.8912 34.8583 54.8819C34.3392 54.8726 33.8446 54.6592 33.4817 54.288C33.1187 53.9167 32.9166 53.4175 32.919 52.8983C32.9215 52.3791 33.1283 51.8818 33.4948 51.514C39.6476 45.4875 56.8465 40.8985 63.1099 40.8985C63.5483 40.8985 64.0301 41.0328 64.4921 41.1038L64.4921 34.9747C64.4921 34.451 64.2841 33.9487 63.9138 33.5784C63.5435 33.2081 63.0412 33.0001 62.5175 33.0001L26.9746 33.0001C26.4509 33.0001 25.9487 33.2081 25.5783 33.5784C25.208 33.9487 25 34.451 25 34.9747L25 78.416C25 78.9397 25.208 79.442 25.5784 79.8123C25.9487 80.1826 26.4509 80.3906 26.9746 80.3906Z" fill="white"/>
<path d="M70.9458 58.5629C69.524 59.5226 66.9887 60.9522 64.4967 60.9917L64.4967 64.9448C69.7294 64.8935 74.4685 60.8771 74.6699 60.7073C74.9687 60.4506 75.1838 60.1102 75.2872 59.7301C75.3907 59.3499 75.3779 58.9475 75.2504 58.5747C75.124 58.1956 72.3003 50.2537 64.4967 48.7175L64.4967 52.8049C68.0352 53.8633 70.0532 56.8213 70.9458 58.5629Z" fill="white"/>
<path d="M83.1553 59.8185C81.7336 60.5807 80.2802 61.4061 78.823 62.2394C73.9141 65.0394 68.8591 67.8986 64.4952 68.4318L64.4952 72.3928C69.7911 71.9031 75.3674 68.7556 80.7778 65.6673C82.9223 64.447 85.039 63.2385 87.0847 62.2394C87.348 62.1094 87.5791 61.9226 87.7613 61.6924C87.9435 61.4622 88.0724 61.1944 88.1385 60.9083C88.2046 60.6223 88.2064 60.3251 88.1437 60.0383C88.081 59.7515 87.9553 59.4822 87.7758 59.2498C81.0661 50.6761 71.5288 42.1339 64.4952 41.1032L64.4952 45.0643C69.1632 46.1029 76.6272 51.9754 83.1553 59.8185Z" fill="white"/>
</svg>
