<svg width="113" height="113" viewBox="0 0 113 113" fill="none" xmlns="http://www.w3.org/2000/svg">
<g clip-path="url(#clip0_943_914)">
<rect width="113" height="113" rx="56.5" fill="#EC255A"/>
<path d="M31.2316 69.407C28.9129 69.407 26.9766 69.0493 25.4226 68.334C23.8686 67.594 22.6846 66.6443 21.8706 65.485C21.0813 64.301 20.6619 63.0307 20.6126 61.674C20.6126 61.452 20.6866 61.267 20.8346 61.119C20.9826 60.971 21.1676 60.897 21.3896 60.897H26.3476C26.6683 60.897 26.9149 60.9587 27.0876 61.082C27.2849 61.2053 27.4329 61.378 27.5316 61.6C27.7536 62.1673 28.0496 62.636 28.4196 63.006C28.7896 63.376 29.2089 63.6473 29.6776 63.82C30.1463 63.9927 30.6766 64.079 31.2686 64.079C31.9593 64.079 32.6006 63.931 33.1926 63.635C33.7846 63.339 34.2533 62.9073 34.5986 62.34C34.9686 61.748 35.1536 61.045 35.1536 60.231C35.1536 59.491 34.9809 58.8497 34.6356 58.307C34.3149 57.7643 33.8586 57.3327 33.2666 57.012C32.6993 56.6913 32.0333 56.531 31.2686 56.531C30.6766 56.531 30.1956 56.605 29.8256 56.753C29.4556 56.8763 29.1473 57.0367 28.9006 57.234C28.6539 57.4313 28.4319 57.604 28.2346 57.752C28.0373 57.8753 27.8153 57.937 27.5686 57.937H22.7216C22.4996 57.937 22.3023 57.863 22.1296 57.715C21.9816 57.5423 21.9076 57.345 21.9076 57.123L23.2396 44.21C23.2889 43.84 23.4246 43.5687 23.6466 43.396C23.8686 43.1987 24.1399 43.1 24.4606 43.1H39.2976C39.5689 43.1 39.7909 43.1863 39.9636 43.359C40.1609 43.5317 40.2596 43.7537 40.2596 44.025V47.503C40.2596 47.7743 40.1609 47.9963 39.9636 48.169C39.7909 48.3417 39.5689 48.428 39.2976 48.428H28.5676L28.0866 53.201C28.6293 52.8557 29.2583 52.5597 29.9736 52.313C30.7136 52.0663 31.7249 51.943 33.0076 51.943C34.1669 51.943 35.2769 52.1527 36.3376 52.572C37.4229 52.9667 38.3849 53.534 39.2236 54.274C40.0869 55.014 40.7529 55.902 41.2216 56.938C41.7149 57.9493 41.9616 59.0963 41.9616 60.379C41.9616 62.1303 41.5299 63.6843 40.6666 65.041C39.8279 66.3977 38.6069 67.4707 37.0036 68.26C35.4003 69.0247 33.4763 69.407 31.2316 69.407ZM55.8545 69.37C54.0785 69.37 52.5369 69.1233 51.2295 68.63C49.9469 68.112 48.8739 67.409 48.0105 66.521C47.1472 65.633 46.4935 64.597 46.0495 63.413C45.6055 62.229 45.3465 60.9587 45.2725 59.602C45.2479 58.936 45.2232 58.1837 45.1985 57.345C45.1985 56.4817 45.1985 55.6183 45.1985 54.755C45.2232 53.867 45.2479 53.0777 45.2725 52.387C45.3465 51.0303 45.6055 49.7723 46.0495 48.613C46.5182 47.429 47.1842 46.4053 48.0475 45.542C48.9355 44.654 50.0209 43.9633 51.3035 43.47C52.6109 42.9767 54.1279 42.73 55.8545 42.73C57.6059 42.73 59.1229 42.9767 60.4055 43.47C61.7129 43.9633 62.7982 44.654 63.6615 45.542C64.5249 46.4053 65.1909 47.429 65.6595 48.613C66.1282 49.7723 66.3995 51.0303 66.4735 52.387C66.4982 53.0777 66.5105 53.867 66.5105 54.755C66.5352 55.6183 66.5352 56.4817 66.5105 57.345C66.5105 58.1837 66.4982 58.936 66.4735 59.602C66.3995 60.9587 66.1282 62.229 65.6595 63.413C65.2155 64.597 64.5619 65.633 63.6985 66.521C62.8599 67.409 61.7869 68.112 60.4795 68.63C59.1969 69.1233 57.6552 69.37 55.8545 69.37ZM55.8545 64.005C57.1372 64.005 58.0622 63.598 58.6295 62.784C59.2215 61.9453 59.5299 60.823 59.5545 59.417C59.6039 58.7017 59.6285 57.9493 59.6285 57.16C59.6532 56.3707 59.6532 55.5813 59.6285 54.792C59.6285 54.0027 59.6039 53.275 59.5545 52.609C59.5299 51.2523 59.2215 50.1547 58.6295 49.316C58.0622 48.4773 57.1372 48.0457 55.8545 48.021C54.5965 48.0457 53.6715 48.4773 53.0795 49.316C52.5122 50.1547 52.2039 51.2523 52.1545 52.609C52.1545 53.275 52.1422 54.0027 52.1175 54.792C52.1175 55.5813 52.1175 56.3707 52.1175 57.16C52.1422 57.9493 52.1545 58.7017 52.1545 59.417C52.2039 60.823 52.5245 61.9453 53.1165 62.784C53.7085 63.598 54.6212 64.005 55.8545 64.005ZM81.003 69.37C79.227 69.37 77.6853 69.1233 76.378 68.63C75.0953 68.112 74.0223 67.409 73.159 66.521C72.2956 65.633 71.642 64.597 71.198 63.413C70.754 62.229 70.495 60.9587 70.421 59.602C70.3963 58.936 70.3716 58.1837 70.347 57.345C70.347 56.4817 70.347 55.6183 70.347 54.755C70.3716 53.867 70.3963 53.0777 70.421 52.387C70.495 51.0303 70.754 49.7723 71.198 48.613C71.6666 47.429 72.3326 46.4053 73.196 45.542C74.084 44.654 75.1693 43.9633 76.452 43.47C77.7593 42.9767 79.2763 42.73 81.003 42.73C82.7543 42.73 84.2713 42.9767 85.554 43.47C86.8613 43.9633 87.9466 44.654 88.81 45.542C89.6733 46.4053 90.3393 47.429 90.808 48.613C91.2766 49.7723 91.548 51.0303 91.622 52.387C91.6466 53.0777 91.659 53.867 91.659 54.755C91.6836 55.6183 91.6836 56.4817 91.659 57.345C91.659 58.1837 91.6466 58.936 91.622 59.602C91.548 60.9587 91.2766 62.229 90.808 63.413C90.364 64.597 89.7103 65.633 88.847 66.521C88.0083 67.409 86.9353 68.112 85.628 68.63C84.3453 69.1233 82.8036 69.37 81.003 69.37ZM81.003 64.005C82.2856 64.005 83.2106 63.598 83.778 62.784C84.37 61.9453 84.6783 60.823 84.703 59.417C84.7523 58.7017 84.777 57.9493 84.777 57.16C84.8016 56.3707 84.8016 55.5813 84.777 54.792C84.777 54.0027 84.7523 53.275 84.703 52.609C84.6783 51.2523 84.37 50.1547 83.778 49.316C83.2106 48.4773 82.2856 48.0457 81.003 48.021C79.745 48.0457 78.82 48.4773 78.228 49.316C77.6606 50.1547 77.3523 51.2523 77.303 52.609C77.303 53.275 77.2906 54.0027 77.266 54.792C77.266 55.5813 77.266 56.3707 77.266 57.16C77.2906 57.9493 77.303 58.7017 77.303 59.417C77.3523 60.823 77.673 61.9453 78.265 62.784C78.857 63.598 79.7696 64.005 81.003 64.005Z" fill="white"/>
</g>
<defs>
<clipPath id="clip0_943_914">
<rect width="113" height="113" rx="56.5" fill="white"/>
</clipPath>
</defs>
</svg>
