<svg width="113" height="113" viewBox="0 0 113 113" fill="none" xmlns="http://www.w3.org/2000/svg">
<rect width="113" height="113" rx="56.5" fill="#EC255A"/>
<path d="M57 33C49.356 33.0325 40.4792 34.3217 31 38.0895C31 38.0895 31.4225 39.227 32.456 41.1142C41.127 37.3095 49.6008 36.1092 57 36.1633V36.1698C64.3992 36.1048 72.873 37.3138 81.544 41.1098C82.7032 39.0125 83 38.0873 83 38.0873C73.5208 34.326 64.644 33.0325 57 33Z" fill="white"/>
<path d="M49.6772 43.9073L57.0027 85.0003L64.2849 43.916C71.2182 43.916 73.4022 44.6765 73.7186 47.7943C73.7186 47.7943 78.3747 46.0566 80.7191 42.512C71.5627 38.2566 62.3652 38.0616 62.3652 38.0616L57.0027 44.618V44.6223H56.9941L57.0027 44.618L51.6402 38.0703C51.6402 38.0703 42.4427 38.2675 33.2886 42.525C35.6351 46.0675 40.2847 47.79 40.2847 47.79C40.6032 44.6743 42.7872 43.9073 49.6772 43.9073Z" fill="white"/>
</svg>
