<svg width="100" height="100" viewBox="0 0 100 100" fill="none" xmlns="http://www.w3.org/2000/svg">
<circle cx="50" cy="50" r="37" fill="#3EE6C4"/>
<circle cx="49.8472" cy="50.1504" r="31.435" fill="white"/>
<g clip-path="url(#clip0_2_366)">
<path d="M49.5982 76.9937C64.4924 76.9937 76.5665 64.9104 76.5665 50.0049C76.5665 35.0995 64.4924 23.0162 49.5982 23.0162C34.704 23.0162 22.6298 35.0995 22.6298 50.0049C22.6298 64.9104 34.704 76.9937 49.5982 76.9937Z" fill="#C70B01"/>
<g clip-path="url(#clip1_2_366)">
<path d="M49.5009 36C44.9439 36.0194 39.652 36.7879 34.0009 39.0341C34.0009 39.0341 34.2528 39.7122 34.8689 40.8373C40.0382 38.5691 45.0899 37.8535 49.5009 37.8858V37.8897C53.912 37.8509 58.9637 38.5717 64.1329 40.8347C64.824 39.5844 65.0009 39.0328 65.0009 39.0328C59.3499 36.7905 54.0579 36.0194 49.5009 36Z" fill="white"/>
<path d="M45.1344 42.5022L49.5015 67L53.8428 42.5074C57.9761 42.5074 59.2781 42.9608 59.4667 44.8195C59.4667 44.8195 62.2425 43.7836 63.6401 41.6704C58.1815 39.1336 52.6984 39.0173 52.6984 39.0173L49.5015 42.9259V42.9285H49.4963L49.5015 42.9259L46.3046 39.0225C46.3046 39.0225 40.8215 39.14 35.3642 41.6782C36.7631 43.79 39.535 44.8169 39.535 44.8169C39.7249 42.9595 41.0269 42.5022 45.1344 42.5022V42.5022Z" fill="white"/>
</g>
</g>
<defs>
<clipPath id="clip0_2_366">
<rect width="54.4472" height="55.3397" fill="white" transform="translate(22.6298 22.3351)"/>
</clipPath>
<clipPath id="clip1_2_366">
<rect width="31" height="31" fill="white" transform="translate(34.0009 36)"/>
</clipPath>
</defs>
</svg>
