<svg width="55" height="55" viewBox="0 0 55 55" fill="none" xmlns="http://www.w3.org/2000/svg">
<g clip-path="url(#clip0_1782_120)">
<path d="M28.0091 50.96C41.2473 50.96 51.9791 40.2283 51.9791 26.99C51.9791 13.7517 41.2473 3.01999 28.0091 3.01999C14.7708 3.01999 4.03906 13.7517 4.03906 26.99C4.03906 40.2283 14.7708 50.96 28.0091 50.96Z" fill="white"/>
<path d="M27.5 53C41.5833 53 53 41.5833 53 27.5C53 13.4167 41.5833 2 27.5 2C13.4167 2 2 13.4167 2 27.5C2 41.5833 13.4167 53 27.5 53Z" stroke="url(#paint0_linear_1782_120)" stroke-width="4"/>
<mask id="mask0_1782_120" style="mask-type:luminance" maskUnits="userSpaceOnUse" x="7" y="7" width="41" height="41">
<path d="M47.8977 7.09998H7.09766V47.9H47.8977V7.09998Z" fill="white"/>
</mask>
<g mask="url(#mask0_1782_120)">
<path d="M27.4977 47.9C38.7643 47.9 47.8977 38.7666 47.8977 27.5C47.8977 16.2334 38.7643 7.09998 27.4977 7.09998C16.231 7.09998 7.09766 16.2334 7.09766 27.5C7.09766 38.7666 16.231 47.9 27.4977 47.9Z" fill="#42A5F5"/>
<path d="M32.7887 30.4122C32.7887 31.5734 32.4128 32.5733 31.6607 33.4118C30.9087 34.2504 29.9318 34.7684 28.7301 34.9658V36.9579C28.7301 37.0642 28.6961 37.1514 28.6281 37.2198C28.56 37.2881 28.4731 37.3222 28.3673 37.3222H26.8368C26.7385 37.3222 26.6535 37.2862 26.5817 37.2141C26.5099 37.1419 26.474 37.0566 26.474 36.9579V34.9658C25.9752 34.8974 25.4934 34.7798 25.0286 34.6129C24.5638 34.4459 24.1801 34.277 23.8778 34.1062C23.5755 33.9355 23.2959 33.7534 23.0389 33.5598C22.7819 33.3663 22.6062 33.224 22.5117 33.1329C22.4173 33.0419 22.3511 32.9735 22.3133 32.928C22.1848 32.7687 22.1773 32.613 22.2907 32.4613L23.4584 30.9244C23.5113 30.8485 23.5982 30.8031 23.7191 30.7879C23.8325 30.7727 23.9232 30.8068 23.9912 30.8903L24.0139 30.9131C24.8679 31.6644 25.7862 32.1387 26.7688 32.336C27.0484 32.3968 27.3281 32.4271 27.6078 32.4271C28.22 32.4271 28.7584 32.264 29.2232 31.9376C29.688 31.6113 29.9205 31.1483 29.9205 30.5488C29.9205 30.3363 29.8638 30.1352 29.7504 29.9454C29.637 29.7557 29.5105 29.5963 29.3706 29.4673C29.2308 29.3383 29.0097 29.1959 28.7074 29.0404C28.4051 28.8848 28.1557 28.7634 27.9591 28.6761C27.7627 28.5888 27.4604 28.4655 27.0522 28.3062C26.7575 28.1847 26.525 28.0899 26.355 28.0215C26.185 27.9533 25.9525 27.8527 25.6577 27.7199C25.363 27.5871 25.1268 27.4694 24.9492 27.367C24.7715 27.2645 24.5581 27.1298 24.3087 26.9629C24.0593 26.7959 23.8571 26.6346 23.7022 26.4791C23.5471 26.3234 23.3828 26.1375 23.209 25.9212C23.0351 25.7049 22.901 25.4849 22.8065 25.261C22.7121 25.0371 22.6327 24.7847 22.5684 24.5039C22.5042 24.2231 22.4721 23.9271 22.4721 23.6159C22.4721 22.5687 22.8424 21.6504 23.583 20.861C24.3238 20.0717 25.2875 19.5633 26.474 19.3356V17.2865C26.474 17.1879 26.5099 17.1024 26.5817 17.0304C26.6535 16.9583 26.7385 16.9222 26.8368 16.9222H28.3673C28.4731 16.9222 28.56 16.9563 28.6281 17.0247C28.6961 17.0929 28.7301 17.1802 28.7301 17.2865V19.2901C29.1609 19.3356 29.5785 19.4229 29.9828 19.5519C30.3872 19.681 30.716 19.8081 30.9692 19.9332C31.2223 20.0585 31.4623 20.2008 31.6891 20.3602C31.9158 20.5195 32.0631 20.6296 32.1311 20.6903C32.1992 20.7511 32.2559 20.8041 32.3013 20.8497C32.4297 20.9863 32.4486 21.1305 32.3579 21.2823L31.4396 22.9444C31.3792 23.0582 31.2922 23.1189 31.1789 23.1264C31.0731 23.1492 30.971 23.1227 30.8728 23.0468C30.8501 23.024 30.7954 22.9784 30.7083 22.9102C30.6214 22.8418 30.4741 22.7413 30.2663 22.6085C30.0584 22.4757 29.8374 22.3543 29.6031 22.2442C29.3688 22.1342 29.0872 22.0355 28.7584 21.9482C28.4297 21.8609 28.1065 21.8173 27.7891 21.8173C27.0711 21.8173 26.4853 21.9805 26.0319 22.3069C25.5784 22.6332 25.3516 23.0543 25.3516 23.5704C25.3516 23.7677 25.3837 23.9499 25.448 24.1169C25.5123 24.2838 25.6238 24.4413 25.7825 24.5893C25.9412 24.7373 26.0904 24.8625 26.2302 24.965C26.3701 25.0674 26.5817 25.1851 26.8652 25.3179C27.1485 25.4507 27.3772 25.5531 27.551 25.6252C27.7249 25.6973 27.9894 25.8017 28.3446 25.9383C28.7452 26.09 29.0513 26.2096 29.2629 26.2969C29.4746 26.3842 29.7618 26.517 30.1245 26.6953C30.4873 26.8737 30.7726 27.035 30.9805 27.1791C31.1884 27.3233 31.4227 27.513 31.6834 27.7484C31.9441 27.9836 32.1444 28.2246 32.2843 28.4712C32.4241 28.7179 32.5431 29.0082 32.6414 29.3421C32.7396 29.6761 32.7887 30.0327 32.7887 30.4122Z" fill="white"/>
<path d="M21.9695 10.8778C21.8748 10.8778 21.7957 10.8936 21.7009 10.9253C14.7815 13.374 10.1211 19.9618 10.1211 27.292C10.1211 34.6222 14.7815 41.21 21.7009 43.6587C22.1117 43.8009 22.5541 43.5955 22.7121 43.1847C22.8543 42.7739 22.6488 42.3159 22.2381 42.1737C15.9347 39.9462 11.7009 33.9587 11.7009 27.292C11.7009 20.6253 15.9347 14.6378 22.2381 12.4103C22.6488 12.2681 22.87 11.8099 22.7121 11.3992C22.6014 11.0833 22.3013 10.8778 21.9695 10.8778Z" fill="white"/>
<path d="M33.0242 10.8777C32.6925 10.8777 32.3923 11.0831 32.2817 11.3991C32.1395 11.8098 32.3449 12.268 32.7556 12.4101C39.059 14.6377 43.2928 20.6251 43.2928 27.2918C43.2928 33.9586 39.059 39.946 32.7556 42.1735C32.3449 42.3157 32.1237 42.7739 32.2817 43.1846C32.4239 43.5954 32.882 43.8165 33.2927 43.6585C40.2122 41.2099 44.8727 34.6221 44.8727 27.2918C44.8727 19.9616 40.2122 13.3738 33.2927 10.9252C33.198 10.8936 33.1189 10.8777 33.0242 10.8777Z" fill="white"/>
</g>
</g>
<defs>
<linearGradient id="paint0_linear_1782_120" x1="44.915" y1="8.87001" x2="13.73" y2="47.345" gradientUnits="userSpaceOnUse">
<stop stop-color="#A55DA3"/>
<stop offset="1" stop-color="#3EADC1"/>
</linearGradient>
<clipPath id="clip0_1782_120">
<rect width="55" height="55" fill="white"/>
</clipPath>
</defs>
</svg>
