<svg width="930" height="300" viewBox="0 0 930 300" fill="none" xmlns="http://www.w3.org/2000/svg">
<path d="M306.72 102.993C304.399 99.0744 305.693 94.0159 309.611 91.6943L339.132 74.2036C343.05 71.882 348.108 73.1764 350.43 77.0948C352.752 81.0131 351.457 86.0716 347.539 88.3932L318.019 105.884C314.1 108.205 309.042 106.911 306.72 102.993Z" fill="#EC255A"/>
<path d="M336.204 119.993C333.882 116.074 335.176 111.016 339.095 108.694L368.615 91.2036C372.533 88.882 377.592 90.1764 379.913 94.0948C382.235 98.0131 380.941 103.072 377.022 105.393L347.502 122.884C343.584 125.205 338.525 123.911 336.204 119.993Z" fill="#EC255A"/>
<path d="M337.608 154.652C335.168 150.806 336.308 145.71 340.154 143.271L369.128 124.89C372.974 122.45 378.07 123.59 380.509 127.436C382.949 131.282 381.809 136.377 377.963 138.817L348.989 157.198C345.143 159.637 340.048 158.498 337.608 154.652Z" fill="#EC255A"/>
<path d="M339.184 222.513C336.873 218.588 338.182 213.533 342.107 211.222L398.949 177.758C402.874 175.447 407.929 176.756 410.239 180.68C412.55 184.605 411.241 189.66 407.317 191.971L350.474 225.435C346.549 227.746 341.494 226.437 339.184 222.513Z" fill="#EC255A"/>
<path d="M403.247 123.806C398.692 123.806 395 120.114 395 115.559L395 81.2466C395 76.6921 398.692 73 403.247 73C407.801 73 411.493 76.6921 411.493 81.2466L411.493 115.559C411.493 120.114 407.801 123.806 403.247 123.806Z" fill="#EC255A"/>
<path d="M410.123 119.545C407.845 123.489 402.802 124.841 398.858 122.563L369.142 105.407C365.197 103.13 363.846 98.0861 366.123 94.1418C368.401 90.1975 373.444 88.8461 377.388 91.1234L407.104 108.28C411.048 110.557 412.4 115.601 410.123 119.545Z" fill="#EC255A"/>
<path d="M307.123 129.142C309.401 125.197 314.444 123.846 318.388 126.123L348.104 143.28C352.048 145.557 353.4 150.601 351.123 154.545C348.845 158.489 343.802 159.841 339.858 157.563L310.142 140.407C306.197 138.13 304.846 133.086 307.123 129.142Z" fill="#EC255A"/>
<path d="M307.123 198.142C309.401 194.197 314.444 192.846 318.388 195.123L348.104 212.28C352.048 214.557 353.4 219.601 351.123 223.545C348.845 227.489 343.802 228.841 339.858 226.563L310.142 209.407C306.197 207.13 304.846 202.086 307.123 198.142Z" fill="#EC255A"/>
<path d="M313 141C308.582 141 305 137.418 305 133L305 100C305 95.5817 308.582 92 313 92C317.418 92 321 95.5817 321 100L321 133C321 137.418 317.418 141 313 141Z" fill="#EC255A"/>
<path d="M313 209C308.582 209 305 205.418 305 201L305 168C305 163.582 308.582 160 313 160C317.418 160 321 163.582 321 168L321 201C321 205.418 317.418 209 313 209Z" fill="#EC255A"/>
<path d="M403 191C398.582 191 395 187.418 395 183L395 150C395 145.582 398.582 142 403 142C407.418 142 411 145.582 411 150L411 183C411 187.418 407.418 191 403 191Z" fill="#EC255A"/>
<path d="M373.5 175C368.806 175 365 171.194 365 166.5L365 132.5C365 127.806 368.806 124 373.5 124C378.194 124 382 127.806 382 132.5L382 166.5C382 171.194 378.194 175 373.5 175Z" fill="#EC255A"/>
<path d="M336.25 188.861C333.903 184.796 335.296 179.597 339.361 177.25L368.806 160.25C372.872 157.903 378.07 159.296 380.417 163.361C382.765 167.427 381.372 172.625 377.306 174.972L347.861 191.972C343.796 194.32 338.597 192.927 336.25 188.861Z" fill="#EC255A"/>
<path d="M828 193C823.582 193 820 189.418 820 185L820 150C820 145.582 823.582 142 828 142C832.418 142 836 145.582 836 150L836 185C836 189.418 832.418 193 828 193Z" fill="#EC255A"/>
<path d="M798 209C793.582 209 790 205.418 790 201L790 29C790 24.5817 793.582 21 798 21C802.418 21 806 24.5817 806 29L806 201C806 205.418 802.418 209 798 209Z" fill="#EC255A"/>
<path d="M888 227C883.582 227 880 223.418 880 219L880 150C880 145.582 883.582 142 888 142C892.418 142 896 145.582 896 150L896 219C896 223.418 892.418 227 888 227Z" fill="#EC255A"/>
<path d="M835.417 7.36119C837.765 11.4267 836.372 16.6252 832.306 18.9724L802.861 35.9724C798.796 38.3196 793.597 36.9267 791.25 32.8612C788.903 28.7957 790.296 23.5972 794.361 21.25L823.806 4.24998C827.872 1.90277 833.07 3.29571 835.417 7.36119Z" fill="#EC255A"/>
<path d="M835.417 223.861C833.07 227.927 827.872 229.32 823.806 226.972L794.361 209.972C790.296 207.625 788.903 202.427 791.25 198.361C793.597 194.296 798.796 192.903 802.861 195.25L832.306 212.25C836.372 214.597 837.765 219.796 835.417 223.861Z" fill="#EC255A"/>
<path d="M858 22C862.418 22 866 25.5817 866 30L866 98C866 102.418 862.418 106 858 106C853.582 106 850 102.418 850 98L850 30C850 25.5817 853.582 22 858 22Z" fill="#EC255A"/>
<path d="M918 90C922.418 90 926 93.5817 926 98L926 202C926 206.418 922.418 210 918 210C913.582 210 910 206.418 910 202L910 98C910 93.5817 913.582 90 918 90Z" fill="#EC255A"/>
<path d="M827 39C831.418 39 835 42.5817 835 47L835 116C835 120.418 831.418 124 827 124C822.582 124 819 120.418 819 116L819 47C819 42.5817 822.582 39 827 39Z" fill="#EC255A"/>
<path d="M820.25 50.8612C817.903 46.7957 819.296 41.5972 823.361 39.25L852.806 22.25C856.872 19.9028 862.07 21.2957 864.417 25.3612C866.765 29.4267 865.372 34.6252 861.306 36.9724L831.861 53.9724C827.796 56.3196 822.597 54.9267 820.25 50.8612Z" fill="#EC255A"/>
<path d="M850.25 171.861C847.903 167.796 849.296 162.597 853.361 160.25L882.806 143.25C886.872 140.903 892.07 142.296 894.417 146.361C896.765 150.427 895.372 155.625 891.306 157.972L861.861 174.972C857.796 177.32 852.597 175.927 850.25 171.861Z" fill="#EC255A"/>
<path d="M924.938 94.3612C927.285 98.4267 925.892 103.625 921.826 105.972L832.696 157.432C828.63 159.779 823.432 158.386 821.084 154.321C818.737 150.255 820.13 145.057 824.196 142.71L913.326 91.25C917.392 88.9028 922.59 90.2957 924.938 94.3612Z" fill="#EC255A"/>
<path d="M434 174C429.582 174 426 170.418 426 166L426 98C426 93.5817 429.582 90 434 90C438.418 90 442 93.5817 442 98L442 166C442 170.418 438.418 174 434 174Z" fill="#EC255A"/>
<path d="M465 158C460.582 158 457 154.418 457 150L457 81C457 76.5817 460.582 73 465 73C469.418 73 473 76.5817 473 81L473 150C473 154.418 469.418 158 465 158Z" fill="#EC255A"/>
<path d="M494 262C489.582 262 486 258.418 486 254L486 81C486 76.5817 489.582 73 494 73C498.418 73 502 76.5817 502 81L502 254C502 258.418 498.418 262 494 262Z" fill="#EC255A"/>
<path d="M524 279C519.582 279 516 275.418 516 271L516 98C516 93.5817 519.582 90 524 90C528.418 90 532 93.5817 532 98L532 271C532 275.418 528.418 279 524 279Z" fill="#EC255A"/>
<path d="M472.417 188.861C470.07 192.927 464.872 194.32 460.806 191.972L431.361 174.972C427.296 172.625 425.903 167.427 428.25 163.361C430.597 159.296 435.796 157.903 439.861 160.25L469.306 177.25C473.372 179.597 474.765 184.796 472.417 188.861Z" fill="#EC255A"/>
<path d="M501.417 291.861C499.07 295.927 493.872 297.32 489.806 294.972L460.361 277.972C456.296 275.625 454.903 270.427 457.25 266.361C459.597 262.296 464.796 260.903 468.861 263.25L498.306 280.25C502.372 282.597 503.765 287.796 501.417 291.861Z" fill="#EC255A"/>
<path d="M530.417 266.361C532.765 270.427 531.372 275.625 527.306 277.972L497.861 294.972C493.796 297.32 488.597 295.927 486.25 291.861C483.903 287.796 485.296 282.597 489.361 280.25L518.806 263.25C522.872 260.903 528.07 262.296 530.417 266.361Z" fill="#EC255A"/>
<path d="M766 210C761.582 210 758 206.418 758 202L758 167C758 162.582 761.582 159 766 159C770.418 159 774 162.582 774 167L774 202C774 206.418 770.418 210 766 210Z" fill="#EC255A"/>
<path d="M707 209C702.582 209 699 205.418 699 201L699 63C699 58.5817 702.582 55 707 55C711.418 55 715 58.5817 715 63L715 201C715 205.418 711.418 209 707 209Z" fill="#EC255A"/>
<path d="M737 193C732.582 193 729 189.418 729 185L729 133C729 128.582 732.582 125 737 125C741.418 125 745 128.582 745 133L745 185C745 189.418 741.418 193 737 193Z" fill="#EC255A"/>
<path d="M774.417 111.361C776.765 115.427 775.372 120.625 771.306 122.972L741.861 139.972C737.796 142.32 732.597 140.927 730.25 136.861C727.903 132.796 729.296 127.597 733.361 125.25L762.806 108.25C766.872 105.903 772.07 107.296 774.417 111.361Z" fill="#EC255A"/>
<path d="M737 106C732.582 106 729 102.418 729 98L729 46C729 41.5817 732.582 38 737 38C741.418 38 745 41.5817 745 46L745 98C745 102.418 741.418 106 737 106Z" fill="#EC255A"/>
<path d="M774.417 76.3612C776.765 80.4267 775.372 85.6252 771.306 87.9724L741.861 104.972C737.796 107.32 732.597 105.927 730.25 101.861C727.903 97.7957 729.296 92.5972 733.361 90.25L762.806 73.25C766.872 70.9028 772.07 72.2957 774.417 76.3612Z" fill="#EC255A"/>
<path d="M744.417 222.861C742.07 226.927 736.872 228.32 732.806 225.972L703.361 208.972C699.296 206.625 697.903 201.427 700.25 197.361C702.597 193.296 707.796 191.903 711.861 194.25L741.306 211.25C745.372 213.597 746.765 218.796 744.417 222.861Z" fill="#EC255A"/>
<path d="M773.417 197.361C775.765 201.427 774.372 206.625 770.306 208.972L740.861 225.972C736.796 228.32 731.597 226.927 729.25 222.861C726.903 218.796 728.296 213.597 732.361 211.25L761.806 194.25C765.872 191.903 771.07 193.296 773.417 197.361Z" fill="#EC255A"/>
<path d="M683.123 102.545C680.845 106.489 675.802 107.841 671.858 105.563L642.142 88.4069C638.197 86.1297 636.846 81.0861 639.123 77.1418C641.401 73.1975 646.444 71.8461 650.388 74.1234L680.104 91.2798C684.048 93.557 685.4 98.6006 683.123 102.545Z" fill="#EC255A"/>
<path d="M556 210C551.582 210 548 206.418 548 202L548 98C548 93.5817 551.582 90 556 90C560.418 90 564 93.5817 564 98L564 202C564 206.418 560.418 210 556 210Z" fill="#EC255A"/>
<path d="M585 227C580.582 227 577 223.418 577 219L577 150C577 145.582 580.582 142 585 142C589.418 142 593 145.582 593 150L593 219C593 223.418 589.418 227 585 227Z" fill="#EC255A"/>
<path d="M616 210C611.582 210 608 206.418 608 202L608 167C608 162.582 611.582 159 616 159C620.418 159 624 162.582 624 167L624 202C624 206.418 620.418 210 616 210Z" fill="#EC255A"/>
<path d="M623.18 197.931C625.387 201.759 624.072 206.651 620.244 208.857L589.921 226.336C586.093 228.543 581.202 227.228 578.995 223.4C576.789 219.572 578.103 214.681 581.931 212.474L612.254 194.995C616.082 192.789 620.974 194.103 623.18 197.931Z" fill="#EC255A"/>
<path d="M676 211C671.582 211 668 207.418 668 203L668 99C668 94.5817 671.582 91 676 91C680.418 91 684 94.5817 684 99L684 203C684 207.418 680.418 211 676 211Z" fill="#EC255A"/>
<path d="M645 228C640.582 228 637 224.418 637 220L637 115C637 110.582 640.582 107 645 107C649.418 107 653 110.582 653 115L653 220C653 224.418 649.418 228 645 228Z" fill="#EC255A"/>
<path d="M594.417 76.3613C596.765 80.4268 595.372 85.6253 591.306 87.9725L561.861 104.973C557.796 107.32 552.597 105.927 550.25 101.861C547.903 97.7958 549.296 92.5973 553.361 90.2501L582.806 73.2501C586.872 70.9029 592.07 72.2958 594.417 76.3613Z" fill="#EC255A"/>
<path d="M651.938 76.3177C654.285 80.3832 652.892 85.5817 648.826 87.929L589.861 121.972C585.796 124.32 580.597 122.927 578.25 118.861C575.903 114.796 577.296 109.597 581.361 107.25L640.326 73.2065C644.392 70.8593 649.59 72.2523 651.938 76.3177Z" fill="#EC255A"/>
<path d="M651.938 111.361C654.285 115.427 652.892 120.625 648.826 122.973L589.861 157.016C585.796 159.363 580.597 157.97 578.25 153.905C575.903 149.839 577.296 144.641 581.361 142.294L640.326 108.25C644.392 105.903 649.59 107.296 651.938 111.361Z" fill="#EC255A"/>
<path d="M682.417 198.361C684.765 202.427 683.372 207.625 679.306 209.972L649.861 226.972C645.796 229.32 640.597 227.927 638.25 223.861C635.903 219.796 637.296 214.597 641.361 212.25L670.806 195.25C674.872 192.903 680.07 194.296 682.417 198.361Z" fill="#EC255A"/>
<path d="M185.429 154.207C183.108 150.289 184.402 145.231 188.321 142.909L246.895 108.204C250.814 105.882 255.872 107.176 258.194 111.095C260.515 115.013 259.221 120.072 255.303 122.393L196.728 157.099C192.809 159.42 187.751 158.126 185.429 154.207Z" fill="#EC255A"/>
<path d="M162 209C157.582 209 154 205.418 154 201L154 29C154 24.5817 157.582 21 162 21C166.418 21 170 24.5817 170 29L170 201C170 205.418 166.418 209 162 209Z" fill="#EC255A"/>
<path d="M192 124C187.582 124 184 120.418 184 116L184 47C184 42.5817 187.582 39 192 39C196.418 39 200 42.5817 200 47L200 116C200 120.418 196.418 124 192 124Z" fill="#EC255A"/>
<path d="M222 106C217.582 106 214 102.418 214 98L214 29C214 24.5817 217.582 21 222 21C226.418 21 230 24.5817 230 29L230 98C230 102.418 226.418 106 222 106Z" fill="#EC255A"/>
<path d="M252 122C247.582 122 244 118.418 244 114L244 63C244 58.5817 247.582 55 252 55C256.418 55 260 58.5817 260 63L260 114C260 118.418 256.418 122 252 122Z" fill="#EC255A"/>
<path d="M282 140C277.582 140 274 136.418 274 132L274 81C274 76.5817 277.582 73 282 73C286.418 73 290 76.5817 290 81L290 132C290 136.418 286.418 140 282 140Z" fill="#EC255A"/>
<path d="M192 193C187.582 193 184 189.418 184 185L184 152C184 147.582 187.582 144 192 144C196.418 144 200 147.582 200 152L200 185C200 189.418 196.418 193 192 193Z" fill="#EC255A"/>
<path d="M252 227C247.582 227 244 223.418 244 219L244 186C244 181.582 247.582 178 252 178C256.418 178 260 181.582 260 186L260 219C260 223.418 256.418 227 252 227Z" fill="#EC255A"/>
<path d="M282 210C277.582 210 274 206.418 274 202L274 169C274 164.582 277.582 161 282 161C286.418 161 290 164.582 290 169L290 202C290 206.418 286.418 210 282 210Z" fill="#EC255A"/>
<path d="M198.31 49.933C196.1 53.7593 191.208 55.0703 187.381 52.8612L157.928 35.8564C154.102 33.6472 152.791 28.7545 155 24.9282C157.209 21.1018 162.102 19.7908 165.928 22L195.381 39.0048C199.208 41.2139 200.519 46.1067 198.31 49.933Z" fill="#EC255A"/>
<path d="M228.31 31.933C226.1 35.7593 221.208 37.0703 217.381 34.8612L187.928 17.8564C184.102 15.6472 182.791 10.7545 185 6.92817C187.209 3.10182 192.102 1.79082 195.928 3.99996L225.381 21.0048C229.208 23.2139 230.519 28.1067 228.31 31.933Z" fill="#EC255A"/>
<path d="M288.31 83.933C286.1 87.7593 281.208 89.0703 277.381 86.8612L247.928 69.8564C244.102 67.6472 242.791 62.7545 245 58.9282C247.209 55.1018 252.102 53.7908 255.928 56L285.381 73.0048C289.208 75.2139 290.519 80.1067 288.31 83.933Z" fill="#EC255A"/>
<path d="M288.31 128.928C290.519 132.755 289.208 137.647 285.381 139.856L255.928 156.861C252.102 159.07 247.209 157.759 245 153.933C242.791 150.107 244.102 145.214 247.928 143.005L277.381 126C281.208 123.791 286.1 125.102 288.31 128.928Z" fill="#EC255A"/>
<path d="M288.31 170.933C286.1 174.759 281.208 176.07 277.381 173.861L247.928 156.856C244.102 154.647 242.791 149.755 245 145.928C247.209 142.102 252.102 140.791 255.928 143L285.381 160.005C289.208 162.214 290.519 167.107 288.31 170.933Z" fill="#EC255A"/>
<path d="M258.31 187.933C256.1 191.759 251.208 193.07 247.381 190.861L217.928 173.856C214.102 171.647 212.791 166.755 215 162.928C217.209 159.102 222.102 157.791 225.928 160L255.381 177.005C259.208 179.214 260.519 184.107 258.31 187.933Z" fill="#EC255A"/>
<path d="M199.31 222.933C197.1 226.759 192.208 228.07 188.381 225.861L158.928 208.856C155.102 206.647 153.791 201.755 156 197.928C158.209 194.102 163.102 192.791 166.928 195L196.381 212.005C200.208 214.214 201.519 219.107 199.31 222.933Z" fill="#EC255A"/>
<path d="M7 91.0565L37.1316 73.2036C41.05 70.882 46.1084 72.1764 48.4301 76.0948C50.7517 80.0131 49.4572 85.0716 45.5389 87.3932L15.4073 105.246L7 91.0565Z" fill="#EC255A"/>
<path d="M61.1233 94.1418C63.4005 90.1975 68.4441 88.8461 72.3884 91.1233L103.202 108.914C107.146 111.191 108.498 116.234 106.221 120.179C103.943 124.123 98.8998 125.474 94.9555 123.197L64.1417 105.407C60.1974 103.13 58.846 98.0861 61.1233 94.1418Z" fill="#EC255A"/>
<path d="M4.20364 136.291C1.88203 132.372 3.17645 127.314 7.09479 124.992L64.1225 91.2037C68.0408 88.8821 73.0993 90.1765 75.4209 94.0948C77.7425 98.0132 76.4481 103.072 72.5298 105.393L15.5021 139.182C11.5837 141.504 6.52525 140.209 4.20364 136.291Z" fill="#EC255A"/>
<path d="M34.2036 223.291C31.882 219.372 33.1764 214.314 37.0948 211.992L125.895 159.378C129.814 157.057 134.872 158.351 137.194 162.27C139.515 166.188 138.221 171.246 134.303 173.568L45.5021 226.182C41.5837 228.504 36.5252 227.209 34.2036 223.291Z" fill="#EC255A"/>
<path d="M4.20364 206.291C1.88203 202.372 3.17645 197.314 7.09479 194.992L125.795 124.663C129.713 122.341 134.772 123.636 137.093 127.554C139.415 131.472 138.121 136.531 134.202 138.852L15.5021 209.182C11.5837 211.504 6.52525 210.209 4.20364 206.291Z" fill="#EC255A"/>
<path d="M6.20364 170.291C3.88203 166.372 5.17645 161.314 9.09479 158.992L66.1225 125.204C70.0408 122.882 75.0993 124.176 77.4209 128.095C79.7425 132.013 78.4481 137.072 74.5298 139.393L17.5021 173.182C13.5837 175.504 8.52525 174.209 6.20364 170.291Z" fill="#EC255A"/>
<path d="M3 133L3 98C3 93.5817 6.58172 90 11 90C15.4183 90 19 93.5817 19 98L19 133L3 133Z" fill="#EC255A"/>
<path d="M131 139C126.582 139 123 135.418 123 131L123 98C123 93.5817 126.582 90 131 90C135.418 90 139 93.5817 139 98L139 131C139 135.418 135.418 139 131 139Z" fill="#EC255A"/>
<path d="M131 209C126.582 209 123 205.418 123 201L123 166C123 161.582 126.582 158 131 158C135.418 158 139 161.582 139 166L139 201C139 205.418 135.418 209 131 209Z" fill="#EC255A"/>
<path d="M93 223.428C90.7909 219.602 92.1019 214.709 95.9282 212.5L126.239 195C130.065 192.791 134.958 194.102 137.167 197.928C139.376 201.755 138.065 206.647 134.239 208.856L103.928 226.356C100.102 228.566 95.2091 227.255 93 223.428Z" fill="#EC255A"/>
<path d="M93 223.428C90.7909 219.602 92.1019 214.709 95.9282 212.5L126.239 195C130.065 192.791 134.958 194.102 137.167 197.928C139.376 201.755 138.065 206.647 134.239 208.856L103.928 226.356C100.102 228.566 95.2091 227.255 93 223.428Z" fill="#EC255A"/>
<path d="M137.239 101.428C135.03 105.255 130.137 106.566 126.311 104.356L96.8577 87.3516C93.0313 85.1425 91.7203 80.2497 93.9295 76.4234C96.1386 72.5971 101.031 71.2861 104.858 73.4952L134.311 90.5C138.137 92.7092 139.448 97.6019 137.239 101.428Z" fill="#EC255A"/>
<path d="M3 202L3 167C3 162.582 6.58172 159 11 159C15.4183 159 19 162.582 19 167L19 202L3 202Z" fill="#EC255A"/>
</svg>
