<svg width="996" height="828" viewBox="0 0 996 828" fill="none" xmlns="http://www.w3.org/2000/svg">
<g clip-path="url(#clip0_49_2)">
<mask id="mask0_49_2" style="mask-type:luminance" maskUnits="userSpaceOnUse" x="0" y="0" width="996" height="828">
<path d="M996 0H0V828H996V0Z" fill="white"/>
</mask>
<g mask="url(#mask0_49_2)">
<g opacity="0.25">
<g filter="url(#filter0_if_49_2)">
<path d="M233.804 569.782C163.72 535.192 70.3858 380.919 189.892 321.225C339.277 246.609 190.128 82.5512 418.966 147.285C647.804 212.019 745.845 131.472 785.339 293.553C808.089 386.916 857.512 431.254 859.762 462.647C863.728 468.665 864.752 477.774 861.772 490.719C834.125 610.797 713.319 729.639 273.532 686.648C194.039 678.878 204.996 569.782 233.804 569.782Z" fill="url(#paint0_linear_49_2)"/>
</g>
</g>
</g>
</g>
<defs>
<filter id="filter0_if_49_2" x="13.249" y="13.2235" width="969.502" height="801.666" filterUnits="userSpaceOnUse" color-interpolation-filters="sRGB">
<feFlood flood-opacity="0" result="BackgroundImageFix"/>
<feBlend mode="normal" in="SourceGraphic" in2="BackgroundImageFix" result="shape"/>
<feColorMatrix in="SourceAlpha" type="matrix" values="0 0 0 0 0 0 0 0 0 0 0 0 0 0 0 0 0 0 127 0" result="hardAlpha"/>
<feOffset dx="230.562" dy="3.97521"/>
<feGaussianBlur stdDeviation="1.98761"/>
<feComposite in2="hardAlpha" operator="arithmetic" k2="-1" k3="1"/>
<feColorMatrix type="matrix" values="0 0 0 0 0 0 0 0 0 0 0 0 0 0 0 0 0 0 0.25 0"/>
<feBlend mode="normal" in2="shape" result="effect1_innerShadow_49_2"/>
<feGaussianBlur stdDeviation="59.6282" result="effect2_foregroundBlur_49_2"/>
</filter>
<linearGradient id="paint0_linear_49_2" x1="298.137" y1="207.552" x2="657.461" y2="760.719" gradientUnits="userSpaceOnUse">
<stop stop-color="#FFB9CC"/>
<stop offset="1" stop-color="#8D6D6D"/>
</linearGradient>
<clipPath id="clip0_49_2">
<rect width="996" height="828" fill="white"/>
</clipPath>
</defs>
</svg>
