<svg width="101" height="101" viewBox="0 0 101 101" fill="none" xmlns="http://www.w3.org/2000/svg">
<circle cx="50.0088" cy="50.0088" r="50" fill="#212936"/>
<path d="M51.259 50.4037L67.8072 25.0088H75.1927L58.526 50.4037L74.7187 75.0088H67.1358L51.259 50.4037Z" fill="#C1F6ED"/>
<path d="M39.1499 31.8411L44.0867 39.424L47.6807 33.8553L46.4564 31.8411H39.1499Z" fill="#B4C7E8"/>
<path d="M32.2758 31.8411L40.6091 44.7952L41.3595 48.3103L40.6091 56.1302L32.9472 67.86H25.5617L36.9756 50.4035L25.0088 31.8411H32.2758Z" fill="#B4C7E8"/>
<path d="M36.9351 50.4037L53.4832 25.0088H60.8687L44.202 50.4037L60.3948 75.0088H52.8118L36.9351 50.4037Z" fill="#C1F6ED"/>
<path d="M47.1593 68.0176H39.8528L44.0787 61.501L47.7122 67.1092L47.1593 68.0176Z" fill="#B4C7E8"/>
<path d="M47.73 67.1504L36.9875 50.5232L47.1771 68.0192L47.73 67.1504Z" fill="#393939"/>
</svg>
