<svg width="989" height="1004" viewBox="0 0 989 1004" fill="none" xmlns="http://www.w3.org/2000/svg">
<rect width="989" height="1003.33" fill="#F76E11"/>
<g clip-path="url(#clip0_68_2)">
<path d="M239.413 301.456L261.659 279.21H461.869L484.114 301.456V367.149L459.783 391.48L484.114 415.464V501.665H395.133V434.929L352.031 393.218V389.395L395.133 347.685V343.861H328.396V501.665H239.413V301.456ZM749.218 501.665H526.415L504.516 479.42V301.456L526.761 279.21H726.971L749.218 301.456V404.341L716.892 437.015H749.218V501.665ZM660.235 343.861H593.499V437.015H609.835L660.235 387.309V343.861ZM261.659 745.332L239.413 723.087V545.123L261.659 522.877H461.869L484.114 545.123V745.332H395.133V716.482L365.935 745.332H261.659ZM328.396 587.528V679.986L395.133 613.249V587.528H328.396ZM593.499 577.447L626.867 609.773L660.235 577.447V522.877H749.218V610.817L724.885 635.147L749.218 659.13V745.332H660.235V692.151L626.867 659.825L593.499 692.151V745.332H504.516V659.13L528.847 635.147L504.516 610.817V522.877H593.499V577.447Z" fill="white"/>
</g>
<defs>
<clipPath id="clip0_68_2">
<rect width="530.333" height="473" fill="white" transform="translate(229.333 272.333)"/>
</clipPath>
</defs>
</svg>
