<svg width="14" height="14" viewBox="0 0 14 14" fill="none" xmlns="http://www.w3.org/2000/svg">
<circle cx="7" cy="7" r="7" fill="#2D3748"/>
<path d="M7.1748 7.05529L9.49155 3.5H10.5255L8.19218 7.05529L10.4592 10.5H9.39755L7.1748 7.05529Z" fill="#C7C7C7"/>
<path d="M5.47949 4.45654L6.17065 5.51815L6.67381 4.73853L6.5024 4.45654H5.47949Z" fill="#9D9D9D"/>
<path d="M4.51738 4.45654L5.68404 6.27013L5.7891 6.76223L5.68404 7.85702L4.61137 9.4992H3.57741L5.17536 7.05528L3.5 4.45654H4.51738Z" fill="#9D9D9D"/>
<path d="M5.16992 7.05529L7.48667 3.5H8.52063L6.1873 7.05529L8.45428 10.5H7.39267L5.16992 7.05529Z" fill="#C7C7C7"/>
<path d="M6.60103 9.52121H5.57812L6.16975 8.60889L6.67844 9.39404L6.60103 9.52121Z" fill="#9D9D9D"/>
<path d="M6.6812 9.39983L5.17725 7.07202L6.60379 9.52147L6.6812 9.39983Z" fill="#393939"/>
</svg>
