<svg width="20" height="16" viewBox="0 0 20 16" fill="none" xmlns="http://www.w3.org/2000/svg">
<path d="M19.4559 3.70588C19.4559 1.66765 17.7882 0 15.75 0C14.036 0 12.6 1.20441 12.1831 2.77941H2.31618C1.01912 2.77941 0 3.79853 0 5.09559V13.4338C0 14.7309 1.01912 15.75 2.31618 15.75H15.2868C16.5838 15.75 17.6029 14.7309 17.6029 13.4338V6.90221C18.7147 6.25368 19.4559 5.09559 19.4559 3.70588ZM16.6765 12.0441H12.9243C12.1831 12.0441 11.5809 11.4419 11.5809 10.6544C11.5809 9.86691 12.1831 9.26471 12.9243 9.26471H16.6765V12.0441ZM16.6765 8.33823H12.9243C11.6735 8.33823 10.6544 9.35735 10.6544 10.6544C10.6544 11.9515 11.6735 12.9706 12.9243 12.9706H16.6765V13.4338C16.6765 14.2213 16.0743 14.8235 15.2868 14.8235H2.31618C1.52868 14.8235 0.926471 14.2213 0.926471 13.4338V5.09559C0.926471 4.30809 1.52868 3.70588 2.31618 3.70588H12.0441C12.0441 5.74412 13.7118 7.41176 15.75 7.41176C16.0743 7.41176 16.3985 7.36544 16.6765 7.27279V8.33823ZM15.75 6.48529C14.2213 6.48529 12.9706 5.23456 12.9706 3.70588C12.9706 2.17721 14.2213 0.926471 15.75 0.926471C17.2787 0.926471 18.5294 2.17721 18.5294 3.70588C18.5294 5.23456 17.2787 6.48529 15.75 6.48529Z" fill="#00FFD1"/>
<path d="M16.0733 1.99262C16.027 1.9463 15.9807 1.89998 15.9344 1.89998C15.8417 1.85365 15.7028 1.85365 15.5638 1.89998C15.5175 1.9463 15.4711 1.9463 15.4248 1.99262L14.4983 2.91909C14.3131 3.10439 14.3131 3.38233 14.4983 3.56762C14.6836 3.75292 14.9616 3.75292 15.1469 3.56762L15.2858 3.42865V5.04998C15.2858 5.32792 15.4711 5.51321 15.7491 5.51321C16.027 5.51321 16.2123 5.32792 16.2123 5.04998V3.42865L16.3513 3.56762C16.4439 3.66027 16.5829 3.70659 16.6756 3.70659C16.7682 3.70659 16.9072 3.66027 16.9998 3.56762C17.1851 3.38233 17.1851 3.10439 16.9998 2.91909L16.0733 1.99262Z" fill="#00FFD1"/>
<path d="M12.971 11.1179C13.2269 11.1179 13.4343 10.9105 13.4343 10.6546C13.4343 10.3988 13.2269 10.1914 12.971 10.1914C12.7152 10.1914 12.5078 10.3988 12.5078 10.6546C12.5078 10.9105 12.7152 11.1179 12.971 11.1179Z" fill="#00FFD1"/>
</svg>
