<svg width="25" height="18" viewBox="0 0 25 18" fill="none" xmlns="http://www.w3.org/2000/svg">
<path d="M18.6671 4.268C18.6671 3.836 18.4391 3.584 17.8311 3.392V2.52C18.0631 2.568 18.1711 2.74 18.1991 2.984H18.6471C18.5951 2.564 18.3351 2.236 17.8311 2.188V1.88H17.5591V2.192C17.1191 2.24 16.7751 2.504 16.7751 2.976C16.7751 3.436 17.0751 3.644 17.5591 3.788V4.716C17.3111 4.668 17.1511 4.5 17.1191 4.24H16.6711C16.6991 4.728 17.0391 5.012 17.5591 5.052V5.36H17.8311V5.048C18.3071 5 18.6671 4.724 18.6671 4.268ZM17.2151 2.92C17.2151 2.692 17.3471 2.556 17.5591 2.52V3.344C17.3271 3.268 17.2151 3.156 17.2151 2.92ZM17.8311 3.844C18.1271 3.948 18.2191 4.104 18.2191 4.308C18.2191 4.56 18.0671 4.688 17.8311 4.72V3.844Z" fill="#00FFD1"/>
<path d="M0.416796 6.89648C0.306255 6.89648 0.200241 6.93761 0.122077 7.01082C0.0439124 7.08403 0 7.18333 0 7.28686V15.2372C0 15.3408 0.0439124 15.4401 0.122077 15.5133C0.200241 15.5865 0.306255 15.6276 0.416796 15.6276H4.97738C5.08792 15.6276 5.19394 15.5865 5.2721 15.5133C5.35026 15.4401 5.39418 15.3408 5.39418 15.2372V14.6626L13.1799 17.1329C13.1907 17.1359 13.2015 17.1385 13.2124 17.1407C14.1186 17.3562 15.1647 17.2282 15.955 16.7308L24.0175 12.6272C24.0197 12.6272 24.0219 12.6272 24.0241 12.6272L24.2217 12.5218C24.5476 12.3497 24.7948 12.0716 24.9167 11.7403C25.0385 11.409 25.0264 11.0473 24.8827 10.7237C24.6268 10.1577 24.1242 9.89769 23.7315 9.84382V9.8407C23.492 9.80893 23.248 9.82625 23.0163 9.89144C23.0024 9.89623 22.9888 9.9017 22.9755 9.90784L18.5308 11.8386C18.5366 11.7855 18.5491 11.7356 18.5491 11.6817C18.5491 10.8041 17.7739 10.0913 16.8327 10.0913H13.1316C13.1166 10.0648 13.0982 10.0273 13.0832 10.0023C12.8855 9.66714 12.6364 9.36095 12.3438 9.09352C11.5318 8.35231 10.4417 7.9391 9.30789 7.94269H5.39418V7.28686C5.39418 7.18333 5.35026 7.08403 5.2721 7.01082C5.19394 6.93761 5.08792 6.89648 4.97738 6.89648H0.416796ZM0.833592 7.67724H4.56058V14.8469H0.833592V7.67724ZM5.39334 8.72344H9.30789C9.87175 8.72119 10.4278 8.84711 10.9282 9.09039C11.4287 9.33367 11.8587 9.68705 12.1813 10.1202C12.243 10.2045 12.3013 10.2912 12.3538 10.381C12.4197 10.4911 12.4639 10.559 12.4989 10.6355L12.6064 10.8721H16.8327C17.3329 10.8721 17.7155 11.2297 17.7155 11.6817C17.7155 12.0206 17.4996 12.304 17.182 12.4258L17.1762 12.4273C17.0711 12.4664 16.9561 12.4898 16.8327 12.4898H11.0351V13.2705H16.8327C17.0078 13.2705 17.172 13.2377 17.3312 13.1925C17.3808 13.1894 17.4293 13.178 17.4746 13.1589L23.2914 10.6324C23.2989 10.6324 23.4365 10.5902 23.6107 10.6144C23.7899 10.6378 23.9608 10.6847 24.1158 11.0259C24.1831 11.1727 24.1891 11.3379 24.1326 11.4887C24.0761 11.6395 23.9613 11.7649 23.8107 11.8402L23.6157 11.9417L15.524 16.0625C15.5123 16.0685 15.5009 16.075 15.4898 16.082C14.9396 16.4287 14.086 16.5427 13.4192 16.3842H13.4175L5.39418 13.8389L5.39334 8.72344Z" fill="#00FFD1"/>
<circle cx="17.6723" cy="3.87931" r="3.52931" stroke="#00FFD1" stroke-width="0.7"/>
</svg>
