<svg width="35" height="35" viewBox="0 0 35 35" fill="none" xmlns="http://www.w3.org/2000/svg">
<rect width="35" height="35" rx="7" fill="#212E44"/>
<path d="M28.4559 11.7059C28.4559 9.66765 26.7882 8 24.75 8C23.036 8 21.6 9.20441 21.1831 10.7794H11.3162C10.0191 10.7794 9 11.7985 9 13.0956V21.4338C9 22.7309 10.0191 23.75 11.3162 23.75H24.2868C25.5838 23.75 26.6029 22.7309 26.6029 21.4338V14.9022C27.7147 14.2537 28.4559 13.0956 28.4559 11.7059ZM25.6765 20.0441H21.9243C21.1831 20.0441 20.5809 19.4419 20.5809 18.6544C20.5809 17.8669 21.1831 17.2647 21.9243 17.2647H25.6765V20.0441ZM25.6765 16.3382H21.9243C20.6735 16.3382 19.6544 17.3574 19.6544 18.6544C19.6544 19.9515 20.6735 20.9706 21.9243 20.9706H25.6765V21.4338C25.6765 22.2213 25.0743 22.8235 24.2868 22.8235H11.3162C10.5287 22.8235 9.92647 22.2213 9.92647 21.4338V13.0956C9.92647 12.3081 10.5287 11.7059 11.3162 11.7059H21.0441C21.0441 13.7441 22.7118 15.4118 24.75 15.4118C25.0743 15.4118 25.3985 15.3654 25.6765 15.2728V16.3382ZM24.75 14.4853C23.2213 14.4853 21.9706 13.2346 21.9706 11.7059C21.9706 10.1772 23.2213 8.92647 24.75 8.92647C26.2787 8.92647 27.5294 10.1772 27.5294 11.7059C27.5294 13.2346 26.2787 14.4853 24.75 14.4853Z" fill="#00FFD1"/>
<path d="M21.9706 19.1176C22.2264 19.1176 22.4338 18.9103 22.4338 18.6544C22.4338 18.3986 22.2264 18.1912 21.9706 18.1912C21.7147 18.1912 21.5073 18.3986 21.5073 18.6544C21.5073 18.9103 21.7147 19.1176 21.9706 19.1176Z" fill="#00FFD1"/>
<path d="M25.0743 9.9924C25.028 9.94607 24.9817 9.89975 24.9354 9.89975C24.8427 9.85342 24.7037 9.85342 24.5648 9.89975C24.5184 9.94607 24.4721 9.94607 24.4258 9.9924L23.4993 10.9189C23.314 11.1042 23.314 11.3821 23.4993 11.5674C23.6846 11.7527 23.9626 11.7527 24.1479 11.5674L24.2868 11.4284V13.0497C24.2868 13.3277 24.4721 13.513 24.7501 13.513C25.028 13.513 25.2133 13.3277 25.2133 13.0497V11.4284L25.3523 11.5674C25.4449 11.66 25.5839 11.7064 25.6765 11.7064C25.7692 11.7064 25.9081 11.66 26.0008 11.5674C26.1861 11.3821 26.1861 11.1042 26.0008 10.9189L25.0743 9.9924Z" fill="#00FFD1"/>
</svg>
