<svg width="35" height="35" viewBox="0 0 35 35" fill="none" xmlns="http://www.w3.org/2000/svg">
<rect width="35" height="35" rx="7" fill="#212E44"/>
<circle cx="23.5" cy="10.5" r="4.15" stroke="#212E44" stroke-width="0.7"/>
<path d="M23.671 13.268C23.671 12.836 23.443 12.584 22.835 12.392V11.52C23.067 11.568 23.175 11.74 23.203 11.984H23.651C23.599 11.564 23.339 11.236 22.835 11.188V10.88H22.563V11.192C22.123 11.24 21.779 11.504 21.779 11.976C21.779 12.436 22.079 12.644 22.563 12.788V13.716C22.315 13.668 22.155 13.5 22.123 13.24H21.675C21.703 13.728 22.043 14.012 22.563 14.052V14.36H22.835V14.048C23.311 14 23.671 13.724 23.671 13.268ZM22.219 11.92C22.219 11.692 22.351 11.556 22.563 11.52V12.344C22.331 12.268 22.219 12.156 22.219 11.92ZM22.835 12.844C23.131 12.948 23.223 13.104 23.223 13.308C23.223 13.56 23.071 13.688 22.835 13.72V12.844Z" fill="#00FFD1"/>
<path d="M5.4168 15.8965C5.30625 15.8965 5.20024 15.9376 5.12208 16.0108C5.04391 16.084 5 16.1833 5 16.2869V24.2372C5 24.3408 5.04391 24.4401 5.12208 24.5133C5.20024 24.5865 5.30625 24.6276 5.4168 24.6276H9.97738C10.0879 24.6276 10.1939 24.5865 10.2721 24.5133C10.3503 24.4401 10.3942 24.3408 10.3942 24.2372V23.6626L18.1799 26.1329C18.1907 26.1359 18.2015 26.1385 18.2124 26.1407C19.1186 26.3562 20.1647 26.2282 20.955 25.7308L29.0175 21.6272C29.0197 21.6272 29.0219 21.6272 29.0241 21.6272L29.2217 21.5218C29.5476 21.3497 29.7948 21.0716 29.9167 20.7403C30.0385 20.409 30.0264 20.0473 29.8827 19.7237C29.6268 19.1577 29.1242 18.8977 28.7315 18.8438V18.8407C28.492 18.8089 28.248 18.8262 28.0163 18.8914C28.0024 18.8962 27.9888 18.9017 27.9755 18.9078L23.5308 20.8386C23.5366 20.7855 23.5491 20.7356 23.5491 20.6817C23.5491 19.8041 22.7739 19.0913 21.8327 19.0913H18.1316C18.1166 19.0648 18.0982 19.0273 18.0832 19.0023C17.8855 18.6671 17.6364 18.3609 17.3438 18.0935C16.5318 17.3523 15.4417 16.9391 14.3079 16.9427H10.3942V16.2869C10.3942 16.1833 10.3503 16.084 10.2721 16.0108C10.1939 15.9376 10.0879 15.8965 9.97738 15.8965H5.4168ZM5.83359 16.6772H9.56058V23.8469H5.83359V16.6772ZM10.3933 17.7234H14.3079C14.8718 17.7212 15.4278 17.8471 15.9282 18.0904C16.4287 18.3337 16.8587 18.6871 17.1813 19.1202C17.243 19.2045 17.3013 19.2912 17.3538 19.381C17.4197 19.4911 17.4639 19.559 17.4989 19.6355L17.6064 19.8721H21.8327C22.3329 19.8721 22.7155 20.2297 22.7155 20.6817C22.7155 21.0206 22.4996 21.304 22.182 21.4258L22.1762 21.4273C22.0711 21.4664 21.9561 21.4898 21.8327 21.4898H16.0351V22.2705H21.8327C22.0078 22.2705 22.172 22.2377 22.3312 22.1925C22.3808 22.1894 22.4293 22.178 22.4746 22.1589L28.2914 19.6324C28.2989 19.6324 28.4365 19.5902 28.6107 19.6144C28.7899 19.6378 28.9608 19.6847 29.1158 20.0259C29.1831 20.1727 29.1891 20.3379 29.1326 20.4887C29.0761 20.6395 28.9613 20.7649 28.8107 20.8402L28.6157 20.9417L20.524 25.0625C20.5123 25.0685 20.5009 25.075 20.4898 25.082C19.9396 25.4287 19.086 25.5427 18.4192 25.3842H18.4175L10.3942 22.8389L10.3933 17.7234Z" fill="#00FFD1"/>
<circle cx="22.6762" cy="12.8793" r="3.52931" stroke="#00FFD1" stroke-width="0.7"/>
</svg>
