<svg width="35" height="35" viewBox="0 0 35 35" fill="none" xmlns="http://www.w3.org/2000/svg">
<rect x="0.5" y="0.5" width="34" height="34" rx="6.5" fill="white" fill-opacity="0.05" stroke="#202A3D"/>
<path d="M10 19.6578C10 21.7096 10.8151 23.6774 12.2659 25.1282C13.7168 26.5791 15.6846 27.3941 17.7364 27.3941C19.7882 27.3941 21.7559 26.5791 23.2068 25.1282C24.6576 23.6774 25.4727 21.7096 25.4727 19.6578C25.4727 16.8305 23.8515 14.2214 21.4606 13.082L21.5848 13.0123C21.6514 12.9689 21.6983 12.901 21.7153 12.8234C21.7323 12.7457 21.7181 12.6645 21.6758 12.5972C21.655 12.563 21.6276 12.5334 21.5953 12.5099C21.563 12.4863 21.5263 12.4695 21.4875 12.4602C21.4486 12.4509 21.4083 12.4493 21.3688 12.4557C21.3294 12.4621 21.2916 12.4761 21.2576 12.4972L21.2091 12.5244L22.2242 9.4002C22.2978 9.23452 22.3054 9.04704 22.2455 8.87596C21.8848 7.82748 19.7818 7.92748 18.7212 8.13051C17.4182 8.37596 16.6758 8.5002 15.3424 8.34869H15.2636C14.3545 8.24566 13.4909 8.14869 12.897 8.75475C12.7647 8.87277 12.6667 9.02431 12.6134 9.19338C12.56 9.36245 12.5533 9.54279 12.5939 9.71536C12.6029 9.75369 12.615 9.7912 12.6303 9.82748V9.81839L13.8091 12.5851C13.0564 12.2199 12.3596 11.7495 11.7394 11.1881H11.7242C11.6934 11.1627 11.6579 11.1437 11.6198 11.1321C11.5816 11.1206 11.5415 11.1166 11.5018 11.1206C11.4621 11.1245 11.4236 11.1362 11.3884 11.1551C11.3533 11.174 11.3222 11.1996 11.297 11.2305C11.2467 11.2926 11.223 11.3719 11.231 11.4514C11.2389 11.5308 11.2779 11.6039 11.3394 11.6547H11.3545C11.8644 12.0967 12.4097 12.496 12.9848 12.8487C12.1174 12.943 11.2825 13.232 10.5424 13.6941C10.4866 13.7288 10.4435 13.7806 10.4196 13.8419C10.3958 13.9031 10.3925 13.9705 10.4103 14.0337C10.4281 14.097 10.466 14.1528 10.5182 14.1926C10.5705 14.2325 10.6343 14.2543 10.7 14.2547C10.7557 14.2544 10.8102 14.2386 10.8576 14.2093C11.544 13.7846 12.3202 13.5262 13.1242 13.4547C12.1559 14.1735 11.369 15.1088 10.8266 16.1858C10.2841 17.2628 10.001 18.4518 10 19.6578ZM20.4818 12.8275C20.0865 12.9565 19.6811 13.0518 19.2697 13.1123L19.8273 10.6214L19.9727 10.5851C20.4405 10.4813 20.8986 10.3383 21.3424 10.1578L20.4818 12.8275ZM18.4455 13.2063C17.9813 13.2352 17.5157 13.2352 17.0515 13.2063L15.6152 11.1941C15.7758 11.1941 15.9333 11.2093 16.0879 11.2093C16.4604 11.2074 16.8327 11.1861 17.203 11.1457C18.0536 11.0364 18.8959 10.8704 19.7242 10.6487L18.4455 13.2063ZM13.2152 9.63051V9.61233L13.1909 9.55475C13.1751 9.48444 13.1798 9.41106 13.2045 9.34337C13.2292 9.27567 13.2729 9.21651 13.3303 9.17293C13.7212 8.77899 14.3727 8.85172 15.2 8.94263H15.2788C16.697 9.1002 17.5121 8.96687 18.8364 8.71536C20.0485 8.48808 21.5061 8.57596 21.6758 9.06687C21.6818 9.08456 21.6818 9.10373 21.6758 9.12142V9.16384C21.571 9.32719 21.4202 9.45583 21.2424 9.53354C20.7935 9.73497 20.3241 9.88737 19.8424 9.98808C18.9518 10.2333 18.0457 10.4186 17.1303 10.5426C16.2197 10.6634 15.2946 10.612 14.403 10.3911C13.8182 10.2244 13.3515 9.92142 13.2152 9.63051ZM13.7061 10.782C13.8764 10.8581 14.0515 10.9228 14.2303 10.976C14.6442 11.0895 15.0686 11.1605 15.497 11.1881L16.1364 13.1184C15.6099 13.0465 15.0879 12.9453 14.5727 12.8154L13.7061 10.782ZM14.2818 13.4214H14.3727H14.4394C15.5222 13.6968 16.6343 13.8402 17.7515 13.8487C18.7347 13.8612 19.7137 13.717 20.6515 13.4214H20.697C23.1515 14.3154 24.8636 16.8699 24.8636 19.6608C24.8636 20.918 24.5312 22.1528 23.9001 23.24C23.269 24.3273 22.3617 25.2284 21.2701 25.852C20.1785 26.4756 18.9414 26.7994 17.6843 26.7908C16.4272 26.7822 15.1947 26.4413 14.1117 25.8028C13.0288 25.1642 12.134 24.2507 11.5179 23.1549C10.9018 22.059 10.5864 20.8198 10.6037 19.5627C10.621 18.3057 10.9703 17.0756 11.6162 15.997C12.2622 14.9185 13.1818 14.03 14.2818 13.4214Z" fill="#00FFD1"/>
</svg>
