<svg width="16" height="20" viewBox="0 0 16 20" fill="none" xmlns="http://www.w3.org/2000/svg">
<path d="M0 11.6578C3.05744e-08 13.7096 0.815079 15.6774 2.26593 17.1282C3.71678 18.5791 5.68455 19.3941 7.73636 19.3941C9.78817 19.3941 11.7559 18.5791 13.2068 17.1282C14.6576 15.6774 15.4727 13.7096 15.4727 11.6578C15.4727 8.83051 13.8515 6.22142 11.4606 5.08202L11.5848 5.01233C11.6514 4.96888 11.6983 4.90102 11.7153 4.82336C11.7323 4.7457 11.7181 4.66447 11.6758 4.59717C11.655 4.56305 11.6276 4.53337 11.5953 4.50986C11.563 4.48634 11.5263 4.46945 11.4875 4.46016C11.4486 4.45086 11.4083 4.44935 11.3688 4.4557C11.3294 4.46205 11.2916 4.47615 11.2576 4.49717L11.2091 4.52445L12.2242 1.4002C12.2978 1.23452 12.3054 1.04704 12.2455 0.875962C11.8848 -0.172523 9.78182 -0.0725231 8.72121 0.130507C7.41818 0.375962 6.67576 0.500204 5.34242 0.348689H5.26364C4.35455 0.245659 3.49091 0.148689 2.89697 0.75475C2.76468 0.872768 2.66669 1.02431 2.61336 1.19338C2.56002 1.36245 2.55331 1.54279 2.59394 1.71536C2.60286 1.75369 2.61502 1.7912 2.6303 1.82748V1.81839L3.80909 4.58505C3.05644 4.21989 2.35956 3.74952 1.73939 3.18808H1.72424C1.69343 3.16274 1.65792 3.14373 1.61975 3.13214C1.58158 3.12056 1.54149 3.11662 1.5018 3.12056C1.4621 3.1245 1.42357 3.13625 1.38842 3.15511C1.35327 3.17398 1.32219 3.1996 1.29697 3.23051C1.24673 3.29255 1.22301 3.37191 1.23095 3.45135C1.2389 3.53079 1.27787 3.60388 1.33939 3.65475H1.35455C1.86441 4.09665 2.40967 4.49597 2.98485 4.84869C2.11743 4.94301 1.28252 5.23201 0.542424 5.69414C0.486557 5.72876 0.44346 5.78061 0.419632 5.84186C0.395803 5.90311 0.392534 5.97045 0.410319 6.03372C0.428104 6.097 0.465977 6.15277 0.518229 6.19264C0.57048 6.23251 0.634277 6.25431 0.7 6.25475C0.755705 6.25437 0.810227 6.23864 0.857576 6.20929C1.544 5.78457 2.32021 5.52618 3.12424 5.45475C2.15589 6.1735 1.36905 7.10875 0.826579 8.1858C0.284109 9.26285 0.00104483 10.4518 0 11.6578ZM10.4818 4.82748C10.0865 4.95648 9.68105 5.05177 9.2697 5.11233L9.82727 2.62142L9.97273 2.58505C10.4405 2.48128 10.8986 2.33835 11.3424 2.15778L10.4818 4.82748ZM8.44545 5.20626C7.98126 5.23523 7.51571 5.23523 7.05151 5.20626L5.61515 3.19414C5.77576 3.19414 5.93333 3.2093 6.08788 3.2093C6.46045 3.20736 6.83266 3.18612 7.20303 3.14566C8.05357 3.03638 8.89585 2.87036 9.72424 2.64869L8.44545 5.20626ZM3.21515 1.63051V1.61233L3.19091 1.55475C3.17508 1.48444 3.17981 1.41106 3.20452 1.34337C3.22924 1.27567 3.2729 1.21651 3.3303 1.17293C3.72121 0.778992 4.37273 0.851719 5.2 0.942628H5.27879C6.69697 1.1002 7.51212 0.966871 8.83636 0.715356C10.0485 0.488083 11.5061 0.575962 11.6758 1.06687C11.6818 1.08456 11.6818 1.10373 11.6758 1.12142V1.16384C11.571 1.32719 11.4202 1.45583 11.2424 1.53354C10.7935 1.73497 10.3241 1.88737 9.84242 1.98808C8.95179 2.23334 8.04572 2.4186 7.1303 2.54263C6.21975 2.66344 5.2946 2.61204 4.40303 2.39111C3.81818 2.22445 3.35152 1.92142 3.21515 1.63051ZM3.70606 2.78202C3.87638 2.85805 4.05151 2.92284 4.2303 2.97596C4.64423 3.08947 5.06864 3.16054 5.49697 3.18808L6.13636 5.11839C5.60993 5.0465 5.0879 4.94534 4.57273 4.81536L3.70606 2.78202ZM4.28182 5.42142H4.37273H4.43939C5.52218 5.69678 6.63429 5.84024 7.75151 5.84869C8.73474 5.86123 9.71368 5.717 10.6515 5.42142H10.697C13.1515 6.31535 14.8636 8.8699 14.8636 11.6608C14.8636 12.918 14.5312 14.1528 13.9001 15.24C13.269 16.3273 12.3617 17.2284 11.2701 17.852C10.1785 18.4756 8.94142 18.7994 7.6843 18.7908C6.42717 18.7822 5.19467 18.4413 4.11175 17.8028C3.02882 17.1642 2.13397 16.2507 1.5179 15.1549C0.901824 14.059 0.586436 12.8198 0.603703 11.5627C0.620969 10.3057 0.970277 9.07557 1.61622 7.99705C2.26216 6.91853 3.18176 6.02996 4.28182 5.42142Z" fill="#00FFD1"/>
</svg>
