<svg width="144" height="68" viewBox="0 0 144 68" fill="none" xmlns="http://www.w3.org/2000/svg">
<g filter="url(#filter0_d_538_482)">
<path d="M125.879 34.3118L137.717 16.1443H143.001L131.078 34.3118L142.662 51.9142H137.237L125.879 34.3118Z" fill="#3EE6C4"/>
</g>
<path d="M117.203 21.0321L120.735 26.4569L123.306 22.4731L122.43 21.0321H117.203Z" fill="#5677FB"/>
<path d="M112.289 21.0321L118.25 30.2995L118.787 32.8141L118.25 38.4085L112.769 46.8H107.485L115.651 34.3116L107.09 21.0321H112.289Z" fill="#5677FB"/>
<path d="M115.621 34.3118L127.46 16.1443H132.743L120.82 34.3118L132.404 51.9142H126.979L115.621 34.3118Z" fill="#3EE6C4"/>
<path d="M122.942 46.9128H117.715L120.738 42.2509L123.337 46.263L122.942 46.9128Z" fill="#5677FB"/>
<path d="M123.337 46.2918L115.652 34.3968L122.942 46.9134L123.337 46.2918Z" fill="#393939"/>
<path d="M1.2451 23.1652C1.2451 21.2086 1.8973 19.6819 3.20169 18.585C4.50608 17.4585 6.32926 16.8953 8.67123 16.8953C11.0429 16.8953 13.0439 17.1472 14.6744 17.6512V20.675C13.1328 20.1118 11.2504 19.8301 9.02698 19.8301C5.97352 19.8301 4.44679 20.9863 4.44679 23.2986V25.4331C4.44679 26.4707 4.63948 27.2859 5.02487 27.8788C5.4399 28.4717 6.12174 29.035 7.07039 29.5686L12.2287 32.459C14.6299 33.7634 15.8306 35.7348 15.8306 38.3732V40.7745C15.8306 42.82 15.1339 44.406 13.7406 45.5326C12.3472 46.6591 10.3314 47.2223 7.69294 47.2223C5.08416 47.2223 3.00899 46.9259 1.46744 46.333V43.3092C3.21651 43.9614 5.20274 44.2875 7.42613 44.2875C10.9243 44.2875 12.6733 43.0572 12.6733 40.5966V38.729C12.6733 37.7507 12.4955 36.9799 12.1397 36.4166C11.784 35.8534 11.1466 35.3198 10.2276 34.8158L5.1138 32.0143C2.53467 30.621 1.2451 28.5458 1.2451 25.7888V23.1652ZM30.5359 21.6978H33.6931L26.7561 53.6257H23.7323L25.1108 47H23.5544L18.0404 21.6978H21.2421L23.9102 34.2822L25.8667 44.7766C26.4597 41.2785 27.1118 37.7803 27.8233 34.2822L30.5359 21.6978ZM40.5721 22.854C42.5583 22.0239 44.3666 21.6089 45.9971 21.6089C47.6573 21.6089 49.021 22.1276 50.0882 23.1652C51.1554 24.1732 51.689 25.611 51.689 27.4786V47H48.5318V27.7899C48.5318 25.6258 47.4349 24.5437 45.2412 24.5437C43.8479 24.5437 42.3359 24.9291 40.7055 25.6999V47H37.5482V21.6978H40.5721V22.854ZM60.7236 17.1176V21.6978H66.3711V24.4993H60.7236V41.397C60.7236 42.4346 60.9756 43.1906 61.4796 43.6649C61.9836 44.1096 62.7543 44.3319 63.7919 44.3319C64.8295 44.3319 65.8374 44.1689 66.8157 43.8428V46.7332C65.6299 47.0296 64.5182 47.1779 63.4806 47.1779C59.5082 47.1779 57.522 45.2954 57.522 41.5305V24.4993H54.7649V21.6978H57.6554L58.5447 17.1176H60.7236ZM70.5517 14.9831H73.6645V22.7205C75.3839 21.9794 77.1033 21.6089 78.8228 21.6089C80.5718 21.6089 81.98 22.1128 83.0472 23.1208C84.1441 24.1287 84.6925 25.5813 84.6925 27.4786V47H81.5353V27.7899C81.5353 25.6258 80.4532 24.5437 78.2891 24.5437C76.7772 24.5437 75.2505 24.9143 73.709 25.6554V47H70.5517V14.9831ZM90.1697 40.5522V28.1901C90.1697 26.0853 90.7626 24.4103 91.9484 23.1652C93.1639 21.8905 94.9871 21.2531 97.418 21.2531C99.8489 21.2531 101.642 21.8905 102.799 23.1652C103.984 24.4103 104.577 26.0853 104.577 28.1901V35.9275H93.2825V40.4188C93.2825 41.7528 93.6975 42.7459 94.5276 43.3981C95.3576 44.0503 96.6472 44.3764 98.3963 44.3764C100.145 44.3764 101.954 44.1096 103.821 43.576V46.5109C102.339 46.9852 100.575 47.2223 98.5297 47.2223C92.9564 47.2223 90.1697 44.9989 90.1697 40.5522ZM93.2825 33.3039H101.553V28.1901C101.553 25.4034 100.175 24.0101 97.418 24.0101C94.661 24.0101 93.2825 25.4034 93.2825 28.1901V33.3039Z" fill="white"/>
<defs>
<filter id="filter0_d_538_482" x="125.774" y="16.1443" width="17.3317" height="35.9804" filterUnits="userSpaceOnUse" color-interpolation-filters="sRGB">
<feFlood flood-opacity="0" result="BackgroundImageFix"/>
<feColorMatrix in="SourceAlpha" type="matrix" values="0 0 0 0 0 0 0 0 0 0 0 0 0 0 0 0 0 0 127 0" result="hardAlpha"/>
<feOffset dy="0.105283"/>
<feGaussianBlur stdDeviation="0.0526416"/>
<feComposite in2="hardAlpha" operator="out"/>
<feColorMatrix type="matrix" values="0 0 0 0 0 0 0 0 0 0 0 0 0 0 0 0 0 0 0.25 0"/>
<feBlend mode="normal" in2="BackgroundImageFix" result="effect1_dropShadow_538_482"/>
<feBlend mode="normal" in="SourceGraphic" in2="effect1_dropShadow_538_482" result="shape"/>
</filter>
</defs>
</svg>
