<svg width="66" height="14" viewBox="0 0 66 14" fill="none" xmlns="http://www.w3.org/2000/svg">
<path d="M0.787291 1.60048L2.16501 0.222759H14.5645L15.9423 1.60048V5.66907L14.4354 7.17596L15.9423 8.66132V14H10.4314V9.86683L7.76202 7.2836V7.0468L10.4314 4.46357V4.22677H6.29819V14H0.787291V1.60048ZM32.3608 14H18.562L17.2058 12.6223V1.60048L18.5835 0.222759H30.983L32.3608 1.60048V7.97246L30.3587 9.99599H32.3608V14ZM26.8499 4.22677H22.7167V9.99599H23.7284L26.8499 6.91764V4.22677ZM35.002 14L33.6243 12.6223V1.60048L35.002 0.222759H47.4015L48.7792 1.60048V14H43.2683V12.2133L41.4601 14H35.002ZM39.1352 4.22677V9.95294L43.2683 5.81976V4.22677H39.1352ZM55.5537 3.60249L57.6203 5.60449L59.6868 3.60249V0.222759H65.1977V5.66907L63.6909 7.17596L65.1977 8.66132V14H59.6868V10.7064L57.6203 8.70437L55.5537 10.7064V14H50.0428V8.66132L51.5497 7.17596L50.0428 5.66907V0.222759H55.5537V3.60249Z" fill="url(#paint0_linear_160_565)"/>
<defs>
<linearGradient id="paint0_linear_160_565" x1="12.8077" y1="4" x2="54.9156" y2="7.65702" gradientUnits="userSpaceOnUse">
<stop stop-color="#F64E00"/>
<stop offset="1" stop-color="#FF8A00"/>
</linearGradient>
</defs>
</svg>
