<svg width="33" height="37" viewBox="0 0 33 37" fill="none" xmlns="http://www.w3.org/2000/svg">
<g clip-path="url(#clip0_31_15)">
<path d="M4.07004 11.1949L15.2901 4.80331C16.3334 4.20905 16.6908 2.89288 16.0885 1.86357L16.0885 1.86356C15.4862 0.834258 14.1522 0.481592 13.109 1.07586L1.88891 7.46742C0.845698 8.06169 0.488265 9.37785 1.09056 10.4072L1.09057 10.4072C1.69287 11.4365 3.02683 11.7891 4.07004 11.1949Z" fill="black"/>
<path d="M4.07012 24.0788L28.3766 10.2325C29.4198 9.63824 29.7772 8.32208 29.1749 7.29277L29.1749 7.29276C28.5726 6.26346 27.2387 5.91079 26.1955 6.50506L1.88899 20.3513C0.845773 20.9456 0.488345 22.2617 1.09065 23.2911C1.69295 24.3204 3.0269 24.673 4.07012 24.0788Z" fill="black"/>
<path d="M5.09564 22.1739L5.09564 9.39081C5.09564 8.20227 4.11912 7.23877 2.91452 7.23877H2.91451C1.70991 7.23877 0.733387 8.20227 0.733387 9.39081L0.733387 22.1739C0.733387 23.3625 1.70991 24.326 2.91451 24.326H2.91452C4.11912 24.326 5.09564 23.3625 5.09564 22.1739Z" fill="black"/>
<path d="M16.628 8.4447V2.89553C16.628 1.69629 15.6426 0.724121 14.4272 0.724121C13.2118 0.724121 12.2265 1.69629 12.2265 2.89553V8.4447C12.2265 9.64394 13.2118 10.6161 14.4272 10.6161C15.6426 10.6161 16.628 9.64394 16.628 8.4447Z" fill="black"/>
<path d="M28.2739 24.5742L17.0538 30.9657C16.0105 31.56 15.6531 32.8762 16.2554 33.9055L16.2554 33.9055C16.8577 34.9348 18.1917 35.2875 19.2349 34.6932L30.455 28.3016C31.4982 27.7074 31.8556 26.3912 31.2533 25.3619L31.2533 25.3619C30.651 24.3326 29.3171 23.9799 28.2739 24.5742Z" fill="black"/>
<path d="M28.2739 11.6905L3.96743 25.5368C2.92421 26.131 2.56678 27.4472 3.16908 28.4765L3.16909 28.4765C3.77139 29.5058 5.10534 29.8585 6.14855 29.2642L30.455 15.418C31.4983 14.8237 31.8557 13.5075 31.2534 12.4782C30.6511 11.4489 29.3171 11.0963 28.2739 11.6905Z" fill="black"/>
<path d="M27.248 13.5951V26.3782C27.248 27.5668 28.2245 28.5303 29.4291 28.5303H29.4291C30.6337 28.5303 31.6102 27.5668 31.6102 26.3782V13.5951C31.6102 12.4066 30.6337 11.4431 29.4291 11.4431H29.4291C28.2245 11.4431 27.248 12.4066 27.248 13.5951Z" fill="black"/>
<path d="M15.7159 27.3243V32.8735C15.7159 34.0727 16.7013 35.0449 17.9167 35.0449C19.1321 35.0449 20.1175 34.0727 20.1175 32.8735V27.3243C20.1175 26.1251 19.1321 25.1529 17.9167 25.1529C16.7013 25.1529 15.7159 26.1251 15.7159 27.3243Z" fill="black"/>
</g>
<defs>
<clipPath id="clip0_31_15">
<rect width="33" height="37" fill="white"/>
</clipPath>
</defs>
</svg>
