<svg width="70" height="70" viewBox="0 0 70 70" fill="none" xmlns="http://www.w3.org/2000/svg">
<g clip-path="url(#clip0_12_57)">
<mask id="mask0_12_57" style="mask-type:luminance" maskUnits="userSpaceOnUse" x="0" y="0" width="70" height="70">
<path d="M70 0H0V70H70V0Z" fill="white"/>
</mask>
<g mask="url(#mask0_12_57)">
<path d="M70 0H0V70H70V0Z" fill="#060606"/>
<path d="M33.985 72.2015C54.6044 72.2015 71.3198 55.4862 71.3198 34.8667C71.3198 14.2472 54.6044 -2.46814 33.985 -2.46814C13.3655 -2.46814 -3.34988 14.2472 -3.34988 34.8667C-3.34988 55.4862 13.3655 72.2015 33.985 72.2015Z" fill="url(#paint0_radial_12_57)"/>
<path d="M8.16343 16.1272C7.46045 15.6414 5.52736 11.1404 4.64867 8.95066C-2.12455 8.85865 -15.7259 8.89545 -16.4398 8.89545C-17.2048 8.89545 -16.3849 11.1588 -16.3849 12.7045C-16.3849 14.2503 -8.64146 17.7282 -10.289 22.4205C-11.9365 27.1129 -7.92754 27.1681 -7.5431 27.9962C-7.15871 28.8243 -5.51115 33.7926 -4.85213 32.8542C-4.19311 31.9157 3.55031 31.8053 4.48391 31.8053C5.41751 31.8053 6.40605 29.1003 6.9003 27.9962C7.39456 26.8921 9.04212 16.7345 8.16343 16.1272Z" fill="#060606"/>
<path d="M22.2182 12.4072C23.142 11.8793 23.2263 9.80455 23.1529 8.83313H5.11786C5.74101 9.52963 7.16329 11.5604 7.86713 14.1117C8.74687 17.3008 15.2901 16.641 16.0599 16.3111C16.8297 15.9812 21.0635 13.067 22.2182 12.4072Z" fill="#060606"/>
<path d="M26.7819 13.067C24.4506 12.9351 23.6845 10.2262 23.5928 8.88818H31.6756C31.0158 10.3361 29.1133 13.199 26.7819 13.067Z" fill="#060606"/>
<path d="M-4.06478 34.4562C-3.66888 34.808 -3.20334 39.6613 -3.02006 42.0439C-2.96507 43.0887 -2.88809 45.3543 -3.02006 46.058C-3.18502 46.9379 -3.02006 48.0376 -0.875638 49.3021C1.26878 50.5666 8.63679 49.2472 9.73647 48.6424C10.8362 48.0376 11.551 39.2947 12.0458 37.8654C12.5407 36.4356 13.4205 35.6108 13.9703 34.6761C14.5202 33.7413 15.3999 33.7413 13.4205 30.6622C11.8369 28.1988 9.27827 29.0126 8.19688 29.7274C7.00556 30.8454 3.98503 33.0375 1.43373 32.8616C-1.7554 32.6417 -4.55964 34.0163 -4.06478 34.4562Z" fill="#060606"/>
<path d="M-3.0748 49.5769C-4.96628 49.0052 -4.85266 50.5117 -4.55941 51.3367C-3.80793 52.3261 -2.30502 54.6357 -2.30502 55.9552C-2.30502 57.6047 0.994082 60.6839 1.76387 60.959C2.53366 61.2338 7.70225 58.5945 8.58203 57.6047C9.46177 56.6153 9.57174 49.5769 8.85695 50.1267C8.14213 50.6766 -0.710445 50.292 -3.0748 49.5769Z" fill="#060606"/>
<path d="M24.9125 13.2319C23.109 12.572 21.3384 14.7898 20.6786 15.9811C19.7439 16.9709 21.8333 20.05 21.9433 21.1497C22.0532 22.2494 25.6273 23.954 28.0466 24.3388C30.466 24.7237 30.7959 24.8887 31.7306 25.0536C32.6653 25.2186 33.2152 23.899 33.1602 22.8542C33.1053 21.8095 31.8406 21.5896 30.9608 18.8953C30.0811 16.201 29.8611 15.9811 29.2563 14.4965C28.6515 13.0119 27.1668 14.0566 24.9125 13.2319Z" fill="#060606"/>
<path d="M9.90158 19.8302C9.98956 20.0941 9.53502 24.9988 9.29675 27.4182C10.1215 29.0677 14.0805 29.4526 15.1252 29.1227C16.1699 28.7928 16.0599 27.7481 16.8847 26.2085C17.7095 24.6689 17.9294 25.3837 18.9741 25.1088C20.0188 24.8338 20.5687 22.4695 20.8986 20.545C21.2285 18.6205 19.524 17.1359 18.9741 16.971C18.4243 16.806 15.1801 17.9607 12.4309 17.4658C9.68164 16.971 9.79161 19.5003 9.90158 19.8302Z" fill="#060606"/>
<path d="M15.1251 35.6109C15.8729 35.9188 16.2431 42.7041 16.3348 46.0581C14.8318 46.0581 11.782 46.0032 11.606 45.783C11.3861 45.5083 11.4411 45.0683 11.826 42.1543C12.2109 39.2399 12.6508 38.8549 13.5305 36.4357C14.4103 34.0163 14.1903 35.226 15.1251 35.6109Z" fill="#060606"/>
<path d="M32.7201 40.4495H17.5992C17.5992 40.358 17.4343 39.7897 16.7745 38.2501C15.9497 36.3257 15.7298 34.8411 15.2899 32.2018C14.85 29.5625 19.6337 25.8785 21.1183 24.9438C22.6029 24.009 25.2422 24.9988 27.6615 24.9438C30.0808 24.8888 30.5207 26.2084 31.9503 27.0332C33.094 27.693 32.9401 36.2524 32.7201 40.4495Z" fill="#060606"/>
<path d="M18.1493 41.6594C17.2696 41.7034 17.5995 44.9768 17.8744 46.6079C18.9741 47.5427 21.3935 49.5001 22.2732 49.852C23.3729 50.2919 25.2974 47.4878 25.6823 45.6731C26.0672 43.8587 25.3524 42.2641 25.2974 41.6594C25.2424 41.0546 19.249 41.6044 18.1493 41.6594Z" fill="#060606"/>
<path d="M26.2868 41.7143C26.2868 41.0982 30.6123 41.2375 32.7751 41.3843C33.9847 43.6386 32.1702 46.9925 31.3455 48.0373C30.5207 49.082 28.5962 48.6424 27.2216 48.0373C25.847 47.4325 26.2868 42.4839 26.2868 41.7143Z" fill="#060606"/>
<path d="M10.2863 57.715L10.5063 50.0169C10.5801 47.4329 11.441 48.4773 14.6301 47.3226C17.8193 46.168 19.7438 49.2473 20.4586 50.347C21.1734 51.4466 20.7335 54.3057 20.4586 56.8351C20.1836 59.3645 18.919 61.3441 14.6301 61.3441C11.1991 61.3441 10.3046 58.9246 10.2863 57.715Z" fill="#060606"/>
<path d="M21.6684 52.5463L20.8436 64.5882C20.8436 67.1721 24.1977 68.107 25.6823 69.0418C27.1669 69.9767 32.0056 65.7428 34.3699 60.0792C36.7343 54.4156 32.0606 51.7213 30.9609 50.0169C29.8612 48.3124 29.2013 50.6217 26.672 50.0169C24.6486 49.5333 22.4931 51.5016 21.6684 52.5463Z" fill="#060606"/>
<path d="M30.796 14.9365C30.4002 13.221 31.8408 10.1895 32.6106 8.88818H35.5798V22.1945C34.6817 21.8463 32.7755 20.9299 32.3356 20.0501C31.7858 18.9505 31.2909 17.0809 30.796 14.9365Z" fill="#060606"/>
<path d="M44.762 22.7994C43.7063 22.1396 38.2004 22.1212 35.5794 22.1946V8.72324C38.952 8.57662 45.9716 8.37132 47.0712 8.72324C48.446 9.16311 46.0815 23.6242 44.762 22.7994Z" fill="#060606"/>
<path d="M48.3361 11.8572C48.9518 14.9364 47.3463 21.3146 46.4664 24.1189C46.1548 24.4305 46.5214 24.6577 50.4805 23.0742C55.4291 21.0947 58.9483 26.9231 59.8827 27.7479C60.8176 28.5727 66.5361 25.9883 67.1959 23.0742C67.8556 20.1599 62.522 14.8814 61.2026 13.8367C59.8827 12.792 61.5876 10.0977 60.3776 9.49285C59.1681 8.88803 47.5661 8.00828 48.3361 11.8572Z" fill="#060606"/>
<path d="M57.6284 26.6484C59.6961 29.7715 55.3376 34.4379 52.9 36.3807C52.4601 36.3807 46.3565 34.8411 45.3671 30.3323C44.5753 26.7254 48.2627 24.6872 50.2058 24.1191C51.8184 23.6609 55.5612 23.5252 57.6284 26.6484Z" fill="#060606"/>
<path d="M33.4356 38.6818C33.4796 35.221 34.9565 32.8269 35.6894 32.0625V52.077C35.3412 51.9728 34.4031 51.5452 33.4356 50.6698C32.2263 49.5751 32.776 48.6372 33.4356 47.3339C34.0952 46.031 33.3806 43.0079 33.4356 38.6818Z" fill="#060606"/>
<path d="M44.1572 30.7171C43.4094 29.7494 38.1635 31.1203 35.6343 31.9268V52.1063C37.1739 52.1796 40.594 52.2824 41.9575 52.1063C43.3213 51.9305 48.3177 49.2103 50.6454 47.8724C52.7164 45.2515 56.0339 39.6798 52.7348 38.3599C48.6109 36.7105 45.0917 31.9268 44.1572 30.7171Z" fill="#060606"/>
<path d="M44.5972 53.6459C44.1132 55.3613 46.0818 56.7067 47.1266 57.1651C48.501 57.9163 51.6683 59.3645 53.3396 59.1443C55.4291 58.8696 54.0547 57.8248 55.484 56.0101C56.9138 54.1958 58.5633 52.4363 58.1783 51.7213C57.7937 51.0066 52.6799 48.3673 51.2502 48.4772C49.8208 48.5875 45.2019 51.5015 44.5972 53.6459Z" fill="#060606"/>
<path d="M61.8623 28.9577C59.0473 29.2656 59.1681 31.267 58.3435 32.9716C55.924 34.0163 54.8612 40.9443 54.4397 44.2983C53.4314 46.5895 53.5816 51.1166 62.2473 50.8968C73.0792 50.6217 73.0792 49.082 74.3991 45.2881C75.7185 41.4942 71.4847 31.2121 70.5502 29.6175C69.6154 28.0229 66.8662 27.0332 65.5463 27.0332C64.2269 27.0332 65.3815 28.5728 61.8623 28.9577Z" fill="#060606"/>
<path d="M86.6818 15.9073C85.9792 15.4215 84.0459 10.9205 83.1671 8.73069C76.3941 8.63868 62.7926 8.67548 62.0787 8.67548C61.3136 8.67552 62.1337 10.9389 62.1337 12.4846C62.1337 14.0303 69.8769 17.5082 68.2297 22.2006C66.582 26.8929 70.5909 26.9482 70.9755 27.7762C71.3597 28.6043 73.0074 33.5727 73.6663 32.6342C74.3253 31.6957 82.069 31.5853 83.0023 31.5853C83.936 31.5853 84.9247 28.8803 85.4188 27.7762C85.913 26.6721 87.5606 16.5145 86.6818 15.9073Z" fill="#060606"/>
<path d="M76.8182 59.0894C78.2261 62.0365 76.2319 63.6898 75.0588 64.1482C74.5459 65.6878 72.5185 68.635 68.5157 68.107C63.5122 67.4472 64.4467 67.8872 61.1476 68.107C57.8486 68.3271 57.3537 67.7773 57.1339 66.1827C56.9138 64.5881 56.7489 64.753 55.869 61.399C54.9895 58.0446 56.5841 57.8798 58.1233 54.4709C59.663 51.0616 69.7253 50.9517 71.155 50.8967C72.5847 50.8418 73.2445 51.9415 74.124 53.8657C75.0039 55.7903 75.0588 55.4053 76.8182 59.0894Z" fill="#060606"/>
<path d="M34.7547 23.8146C33.435 23.7266 32.9951 25.5375 32.9402 26.4539C33.0685 27.3886 33.468 29.698 34.0398 31.4575C34.7547 33.6569 34.7547 31.0177 36.4042 29.863C38.0537 28.7083 41.3527 29.4781 43.3872 29.2581C45.4217 29.0382 44.8719 26.8938 45.0367 25.0793C45.2019 23.2648 43.5524 23.8146 40.638 23.8146C37.724 23.8146 36.4042 23.9246 34.7547 23.8146Z" fill="#060606"/>
<g filter="url(#filter0_f_12_57)">
<path d="M32.5554 26.1791C32.9953 28.4701 33.8201 33.3271 33.6001 34.4268C33.3802 35.5265 33.2519 39.0638 33.2153 40.6952L25.4623 41.0799H17.2146" stroke="#F76E11" stroke-width="0.876618"/>
</g>
<g filter="url(#filter1_f_12_57)">
<path d="M32.5554 26.1791C32.9953 28.4701 33.8201 33.3271 33.6001 34.4268C33.3802 35.5265 33.2519 39.0638 33.2153 40.6952L25.4623 41.0799H17.2146" stroke="#F76E11" stroke-width="0.876618"/>
</g>
<g filter="url(#filter2_f_12_57)">
<path d="M32.5554 26.1791C32.9953 28.4701 33.8201 33.3271 33.6001 34.4268C33.3802 35.5265 33.2519 39.0638 33.2153 40.6952L25.4623 41.0799H17.2146" stroke="#F76E11" stroke-width="0.876618"/>
</g>
<g filter="url(#filter3_f_12_57)">
<path d="M32.5554 26.1791C32.9953 28.4701 33.8201 33.3271 33.6001 34.4268C33.3802 35.5265 33.2519 39.0638 33.2153 40.6952L25.4623 41.0799H17.2146" stroke="#F76E11" stroke-width="0.876618"/>
</g>
<g filter="url(#filter4_f_12_57)">
<path d="M34.0401 33.712C34.48 32.5024 35.8876 30.094 37.9991 30.138C40.6384 30.193 44.0473 30.3579 44.5972 29.4232C45.0371 28.6754 45.7337 26.1057 46.0269 24.9144" stroke="#F76E11" stroke-width="0.876618"/>
</g>
<g filter="url(#filter5_f_12_57)">
<path d="M34.0401 33.712C34.48 32.5024 35.8876 30.094 37.9991 30.138C40.6384 30.193 44.0473 30.3579 44.5972 29.4232C45.0371 28.6754 45.7337 26.1057 46.0269 24.9144" stroke="#F76E11" stroke-width="0.876618"/>
</g>
<g filter="url(#filter6_f_12_57)">
<path d="M34.0401 33.712C34.48 32.5024 35.8876 30.094 37.9991 30.138C40.6384 30.193 44.0473 30.3579 44.5972 29.4232C45.0371 28.6754 45.7337 26.1057 46.0269 24.9144" stroke="#F76E11" stroke-width="0.876618"/>
</g>
<g filter="url(#filter7_f_12_57)">
<path d="M34.0401 33.712C34.48 32.5024 35.8876 30.094 37.9991 30.138C40.6384 30.193 44.0473 30.3579 44.5972 29.4232C45.0371 28.6754 45.7337 26.1057 46.0269 24.9144" stroke="#F76E11" stroke-width="0.876618"/>
</g>
<g filter="url(#filter8_f_12_57)">
<path d="M32.8855 27.4987C32.5739 26.6189 31.104 24.8044 27.7169 24.5845" stroke="#F76E11" stroke-width="0.876618"/>
</g>
<g filter="url(#filter9_f_12_57)">
<path d="M32.8855 27.4987C32.5739 26.6189 31.104 24.8044 27.7169 24.5845" stroke="#F76E11" stroke-width="0.876618"/>
</g>
<g filter="url(#filter10_f_12_57)">
<path d="M32.8855 27.4987C32.5739 26.6189 31.104 24.8044 27.7169 24.5845" stroke="#F76E11" stroke-width="0.876618"/>
</g>
<g filter="url(#filter11_f_12_57)">
<path d="M32.8855 27.4987C32.5739 26.6189 31.104 24.8044 27.7169 24.5845" stroke="#F76E11" stroke-width="0.876618"/>
</g>
<g filter="url(#filter12_f_12_57)">
<path d="M33.27 41.0253C33.5266 42.913 33.6659 47.0626 32.1703 48.5582" stroke="#F76E11" stroke-width="0.876618"/>
</g>
<g filter="url(#filter13_f_12_57)">
<path d="M33.27 41.0253C33.5266 42.913 33.6659 47.0626 32.1703 48.5582" stroke="#F76E11" stroke-width="0.876618"/>
</g>
<g filter="url(#filter14_f_12_57)">
<path d="M33.27 41.0253C33.5266 42.913 33.6659 47.0626 32.1703 48.5582" stroke="#F76E11" stroke-width="0.876618"/>
</g>
<g filter="url(#filter15_f_12_57)">
<path d="M33.27 41.0253C33.5266 42.913 33.6659 47.0626 32.1703 48.5582" stroke="#F76E11" stroke-width="0.876618"/>
</g>
<g filter="url(#filter16_f_12_57)">
<path d="M44.2122 29.6431C44.762 30.7794 46.3125 33.448 48.1163 35.0316" stroke="#F76E11" stroke-width="0.292206"/>
</g>
<g filter="url(#filter17_f_12_57)">
<path d="M44.2122 29.6431C44.762 30.7794 46.3125 33.448 48.1163 35.0316" stroke="#F76E11" stroke-width="0.292206"/>
</g>
<g filter="url(#filter18_f_12_57)">
<path d="M44.2122 29.6431C44.762 30.7794 46.3125 33.448 48.1163 35.0316" stroke="#F76E11" stroke-width="0.876618"/>
</g>
<g filter="url(#filter19_f_12_57)">
<path d="M44.2122 29.6431C44.762 30.7794 46.3125 33.448 48.1163 35.0316" stroke="#F76E11" stroke-width="0.876618"/>
</g>
<g filter="url(#filter20_f_12_57)">
<path d="M44.2122 29.6431C44.762 30.7794 46.3125 33.448 48.1163 35.0316" stroke="#F76E11" stroke-width="0.876618"/>
</g>
<g filter="url(#filter21_f_12_57)">
<path d="M25.7919 41.2999C25.9019 42.931 26.1218 46.5127 26.1218 47.7881" stroke="#F76E11" stroke-width="0.292206"/>
</g>
<g filter="url(#filter22_f_12_57)">
<path d="M25.7919 41.2999C25.9019 42.931 26.1218 46.5127 26.1218 47.7881" stroke="#F76E11" stroke-width="0.292206"/>
</g>
<g filter="url(#filter23_f_12_57)">
<path d="M25.7919 41.2999C25.9019 42.931 26.1218 46.5127 26.1218 47.7881" stroke="#F76E11" stroke-width="0.292206"/>
</g>
<g filter="url(#filter24_f_12_57)">
<path d="M25.7919 41.2999C25.9019 42.931 26.1218 46.5127 26.1218 47.7881" stroke="#F76E11" stroke-width="0.876618"/>
</g>
<path d="M18.3343 22.1671L19.7601 20.7412H32.593L34.0188 22.1671V26.3779L32.4593 27.9374L34.0188 29.4747V34.9999H28.3154V30.7223L25.5527 28.0488V27.8037L28.3154 25.1302V24.8851H24.0377V34.9999H18.3343V22.1671ZM51.0112 34.9999H36.7301L35.3265 33.5741V22.1671L36.7524 20.7412H49.5852L51.0112 22.1671V28.7617L48.939 30.856H51.0112V34.9999ZM45.3077 24.8851H41.0302V30.856H42.0771L45.3077 27.67V24.8851ZM19.7601 50.43L18.3343 49.0041V37.5972L19.7601 36.1713H32.593L34.0188 37.5972V50.43H28.3154V48.5807L26.4439 50.43H19.7601ZM24.0377 40.3154V46.2417L28.3154 41.9638V40.3154H24.0377ZM41.0302 39.6692L43.1689 41.741L45.3077 39.6692V36.1713H51.0112V41.808L49.4516 43.3675L51.0112 44.9049V50.43H45.3077V47.0215L43.1689 44.9493L41.0302 47.0215V50.43H35.3265V44.9049L36.8861 43.3675L35.3265 41.808V36.1713H41.0302V39.6692Z" fill="white"/>
</g>
</g>
<defs>
<filter id="filter0_f_12_57" x="9.90945" y="18.7913" width="31.4707" height="30.0321" filterUnits="userSpaceOnUse" color-interpolation-filters="sRGB">
<feFlood flood-opacity="0" result="BackgroundImageFix"/>
<feBlend mode="normal" in="SourceGraphic" in2="BackgroundImageFix" result="shape"/>
<feGaussianBlur stdDeviation="3.65258" result="effect1_foregroundBlur_12_57"/>
</filter>
<filter id="filter1_f_12_57" x="9.90945" y="18.7913" width="31.4707" height="30.0321" filterUnits="userSpaceOnUse" color-interpolation-filters="sRGB">
<feFlood flood-opacity="0" result="BackgroundImageFix"/>
<feBlend mode="normal" in="SourceGraphic" in2="BackgroundImageFix" result="shape"/>
<feGaussianBlur stdDeviation="3.65258" result="effect1_foregroundBlur_12_57"/>
</filter>
<filter id="filter2_f_12_57" x="9.90945" y="18.7913" width="31.4707" height="30.0321" filterUnits="userSpaceOnUse" color-interpolation-filters="sRGB">
<feFlood flood-opacity="0" result="BackgroundImageFix"/>
<feBlend mode="normal" in="SourceGraphic" in2="BackgroundImageFix" result="shape"/>
<feGaussianBlur stdDeviation="3.65258" result="effect1_foregroundBlur_12_57"/>
</filter>
<filter id="filter3_f_12_57" x="13.4159" y="22.2978" width="24.4578" height="23.0191" filterUnits="userSpaceOnUse" color-interpolation-filters="sRGB">
<feFlood flood-opacity="0" result="BackgroundImageFix"/>
<feBlend mode="normal" in="SourceGraphic" in2="BackgroundImageFix" result="shape"/>
<feGaussianBlur stdDeviation="1.89934" result="effect1_foregroundBlur_12_57"/>
</filter>
<filter id="filter4_f_12_57" x="26.323" y="17.5045" width="27.4346" height="23.6624" filterUnits="userSpaceOnUse" color-interpolation-filters="sRGB">
<feFlood flood-opacity="0" result="BackgroundImageFix"/>
<feBlend mode="normal" in="SourceGraphic" in2="BackgroundImageFix" result="shape"/>
<feGaussianBlur stdDeviation="3.65258" result="effect1_foregroundBlur_12_57"/>
</filter>
<filter id="filter5_f_12_57" x="26.323" y="17.5045" width="27.4346" height="23.6624" filterUnits="userSpaceOnUse" color-interpolation-filters="sRGB">
<feFlood flood-opacity="0" result="BackgroundImageFix"/>
<feBlend mode="normal" in="SourceGraphic" in2="BackgroundImageFix" result="shape"/>
<feGaussianBlur stdDeviation="3.65258" result="effect1_foregroundBlur_12_57"/>
</filter>
<filter id="filter6_f_12_57" x="26.323" y="17.5045" width="27.4346" height="23.6624" filterUnits="userSpaceOnUse" color-interpolation-filters="sRGB">
<feFlood flood-opacity="0" result="BackgroundImageFix"/>
<feBlend mode="normal" in="SourceGraphic" in2="BackgroundImageFix" result="shape"/>
<feGaussianBlur stdDeviation="3.65258" result="effect1_foregroundBlur_12_57"/>
</filter>
<filter id="filter7_f_12_57" x="29.8295" y="21.011" width="20.4217" height="16.6495" filterUnits="userSpaceOnUse" color-interpolation-filters="sRGB">
<feFlood flood-opacity="0" result="BackgroundImageFix"/>
<feBlend mode="normal" in="SourceGraphic" in2="BackgroundImageFix" result="shape"/>
<feGaussianBlur stdDeviation="1.89934" result="effect1_foregroundBlur_12_57"/>
</filter>
<filter id="filter8_f_12_57" x="20.3833" y="16.8419" width="20.2205" height="18.1082" filterUnits="userSpaceOnUse" color-interpolation-filters="sRGB">
<feFlood flood-opacity="0" result="BackgroundImageFix"/>
<feBlend mode="normal" in="SourceGraphic" in2="BackgroundImageFix" result="shape"/>
<feGaussianBlur stdDeviation="3.65258" result="effect1_foregroundBlur_12_57"/>
</filter>
<filter id="filter9_f_12_57" x="20.3833" y="16.8419" width="20.2205" height="18.1082" filterUnits="userSpaceOnUse" color-interpolation-filters="sRGB">
<feFlood flood-opacity="0" result="BackgroundImageFix"/>
<feBlend mode="normal" in="SourceGraphic" in2="BackgroundImageFix" result="shape"/>
<feGaussianBlur stdDeviation="3.65258" result="effect1_foregroundBlur_12_57"/>
</filter>
<filter id="filter10_f_12_57" x="20.3833" y="16.8419" width="20.2205" height="18.1082" filterUnits="userSpaceOnUse" color-interpolation-filters="sRGB">
<feFlood flood-opacity="0" result="BackgroundImageFix"/>
<feBlend mode="normal" in="SourceGraphic" in2="BackgroundImageFix" result="shape"/>
<feGaussianBlur stdDeviation="3.65258" result="effect1_foregroundBlur_12_57"/>
</filter>
<filter id="filter11_f_12_57" x="23.8898" y="20.3484" width="13.2075" height="11.0953" filterUnits="userSpaceOnUse" color-interpolation-filters="sRGB">
<feFlood flood-opacity="0" result="BackgroundImageFix"/>
<feBlend mode="normal" in="SourceGraphic" in2="BackgroundImageFix" result="shape"/>
<feGaussianBlur stdDeviation="1.89934" result="effect1_foregroundBlur_12_57"/>
</filter>
<filter id="filter12_f_12_57" x="24.5552" y="33.661" width="16.6197" height="22.5122" filterUnits="userSpaceOnUse" color-interpolation-filters="sRGB">
<feFlood flood-opacity="0" result="BackgroundImageFix"/>
<feBlend mode="normal" in="SourceGraphic" in2="BackgroundImageFix" result="shape"/>
<feGaussianBlur stdDeviation="3.65258" result="effect1_foregroundBlur_12_57"/>
</filter>
<filter id="filter13_f_12_57" x="24.5552" y="33.661" width="16.6197" height="22.5122" filterUnits="userSpaceOnUse" color-interpolation-filters="sRGB">
<feFlood flood-opacity="0" result="BackgroundImageFix"/>
<feBlend mode="normal" in="SourceGraphic" in2="BackgroundImageFix" result="shape"/>
<feGaussianBlur stdDeviation="3.65258" result="effect1_foregroundBlur_12_57"/>
</filter>
<filter id="filter14_f_12_57" x="24.5552" y="33.661" width="16.6197" height="22.5122" filterUnits="userSpaceOnUse" color-interpolation-filters="sRGB">
<feFlood flood-opacity="0" result="BackgroundImageFix"/>
<feBlend mode="normal" in="SourceGraphic" in2="BackgroundImageFix" result="shape"/>
<feGaussianBlur stdDeviation="3.65258" result="effect1_foregroundBlur_12_57"/>
</filter>
<filter id="filter15_f_12_57" x="28.0617" y="37.1675" width="9.60671" height="15.4992" filterUnits="userSpaceOnUse" color-interpolation-filters="sRGB">
<feFlood flood-opacity="0" result="BackgroundImageFix"/>
<feBlend mode="normal" in="SourceGraphic" in2="BackgroundImageFix" result="shape"/>
<feGaussianBlur stdDeviation="1.89934" result="effect1_foregroundBlur_12_57"/>
</filter>
<filter id="filter16_f_12_57" x="36.7755" y="22.2743" width="18.7424" height="20.1722" filterUnits="userSpaceOnUse" color-interpolation-filters="sRGB">
<feFlood flood-opacity="0" result="BackgroundImageFix"/>
<feBlend mode="normal" in="SourceGraphic" in2="BackgroundImageFix" result="shape"/>
<feGaussianBlur stdDeviation="3.65258" result="effect1_foregroundBlur_12_57"/>
</filter>
<filter id="filter17_f_12_57" x="36.7755" y="22.2743" width="18.7424" height="20.1722" filterUnits="userSpaceOnUse" color-interpolation-filters="sRGB">
<feFlood flood-opacity="0" result="BackgroundImageFix"/>
<feBlend mode="normal" in="SourceGraphic" in2="BackgroundImageFix" result="shape"/>
<feGaussianBlur stdDeviation="3.65258" result="effect1_foregroundBlur_12_57"/>
</filter>
<filter id="filter18_f_12_57" x="36.5124" y="22.147" width="19.1982" height="20.5191" filterUnits="userSpaceOnUse" color-interpolation-filters="sRGB">
<feFlood flood-opacity="0" result="BackgroundImageFix"/>
<feBlend mode="normal" in="SourceGraphic" in2="BackgroundImageFix" result="shape"/>
<feGaussianBlur stdDeviation="3.65258" result="effect1_foregroundBlur_12_57"/>
</filter>
<filter id="filter19_f_12_57" x="36.5124" y="22.147" width="19.1982" height="20.5191" filterUnits="userSpaceOnUse" color-interpolation-filters="sRGB">
<feFlood flood-opacity="0" result="BackgroundImageFix"/>
<feBlend mode="normal" in="SourceGraphic" in2="BackgroundImageFix" result="shape"/>
<feGaussianBlur stdDeviation="3.65258" result="effect1_foregroundBlur_12_57"/>
</filter>
<filter id="filter20_f_12_57" x="40.0189" y="25.6535" width="12.1853" height="13.5062" filterUnits="userSpaceOnUse" color-interpolation-filters="sRGB">
<feFlood flood-opacity="0" result="BackgroundImageFix"/>
<feBlend mode="normal" in="SourceGraphic" in2="BackgroundImageFix" result="shape"/>
<feGaussianBlur stdDeviation="1.89934" result="effect1_foregroundBlur_12_57"/>
</filter>
<filter id="filter21_f_12_57" x="18.341" y="33.9849" width="15.2321" height="21.1084" filterUnits="userSpaceOnUse" color-interpolation-filters="sRGB">
<feFlood flood-opacity="0" result="BackgroundImageFix"/>
<feBlend mode="normal" in="SourceGraphic" in2="BackgroundImageFix" result="shape"/>
<feGaussianBlur stdDeviation="3.65258" result="effect1_foregroundBlur_12_57"/>
</filter>
<filter id="filter22_f_12_57" x="18.341" y="33.9849" width="15.2321" height="21.1084" filterUnits="userSpaceOnUse" color-interpolation-filters="sRGB">
<feFlood flood-opacity="0" result="BackgroundImageFix"/>
<feBlend mode="normal" in="SourceGraphic" in2="BackgroundImageFix" result="shape"/>
<feGaussianBlur stdDeviation="3.65258" result="effect1_foregroundBlur_12_57"/>
</filter>
<filter id="filter23_f_12_57" x="18.341" y="33.9849" width="15.2321" height="21.1084" filterUnits="userSpaceOnUse" color-interpolation-filters="sRGB">
<feFlood flood-opacity="0" result="BackgroundImageFix"/>
<feBlend mode="normal" in="SourceGraphic" in2="BackgroundImageFix" result="shape"/>
<feGaussianBlur stdDeviation="3.65258" result="effect1_foregroundBlur_12_57"/>
</filter>
<filter id="filter24_f_12_57" x="18.0494" y="33.9652" width="15.8158" height="21.128" filterUnits="userSpaceOnUse" color-interpolation-filters="sRGB">
<feFlood flood-opacity="0" result="BackgroundImageFix"/>
<feBlend mode="normal" in="SourceGraphic" in2="BackgroundImageFix" result="shape"/>
<feGaussianBlur stdDeviation="3.65258" result="effect1_foregroundBlur_12_57"/>
</filter>
<radialGradient id="paint0_radial_12_57" cx="0" cy="0" r="1" gradientUnits="userSpaceOnUse" gradientTransform="translate(33.985 34.8667) rotate(90) scale(37.3348)">
<stop stop-color="#F76E11"/>
<stop offset="1" stop-opacity="0"/>
</radialGradient>
<clipPath id="clip0_12_57">
<rect width="70" height="70" fill="white"/>
</clipPath>
</defs>
</svg>
