<svg width="126" height="27" viewBox="0 0 126 27" fill="none" xmlns="http://www.w3.org/2000/svg">
<g clip-path="url(#clip0_37_8)">
<path d="M0.383789 2.94697L3.05634 0.274414H27.1093L29.7819 2.94697V10.8393L26.8588 13.7624L29.7819 16.6438V26.9999H19.0917V18.9822L13.9136 13.9712V13.5119L19.0917 8.50086V8.04152H11.074V26.9999H0.383789V2.94697ZM61.631 26.9999H34.8637L32.2329 24.3273V2.94697L34.9055 0.274414H58.9584L61.631 2.94697V15.3075L57.7474 19.2328H61.631V26.9999ZM50.9408 8.04152H42.9231V19.2328H44.8858L50.9408 13.2613V8.04152ZM66.7546 26.9999L64.082 24.3273V2.94697L66.7546 0.274414H90.8075L93.4801 2.94697V26.9999H82.7899V23.5339L79.2821 26.9999H66.7546ZM74.7722 8.04152V19.1493L82.7899 11.1316V8.04152H74.7722ZM106.622 6.83052L110.63 10.714L114.639 6.83052V0.274414H125.329V10.8393L122.406 13.7624L125.329 16.6438V26.9999H114.639V20.6108L110.63 16.7273L106.622 20.6108V26.9999H95.9311V16.6438L98.8542 13.7624L95.9311 10.8393V0.274414H106.622V6.83052Z" fill="url(#paint0_linear_37_8)"/>
</g>
<defs>
<linearGradient id="paint0_linear_37_8" x1="4.67606" y1="8.21774" x2="124.946" y2="23.7364" gradientUnits="userSpaceOnUse">
<stop stop-color="#F64E00"/>
<stop offset="1" stop-color="#FF8A00"/>
</linearGradient>
<clipPath id="clip0_37_8">
<rect width="126" height="27" fill="white"/>
</clipPath>
</defs>
</svg>
