<svg width="100" height="100" viewBox="0 0 100 100" fill="none" xmlns="http://www.w3.org/2000/svg">
<circle cx="50" cy="50" r="50" fill="black"/>
<path d="M51.2502 50.3949L67.7984 25H75.1839L58.5172 50.3949L74.71 75H67.127L51.2502 50.3949Z" fill="#00FFD1"/>
<path d="M39.1411 31.8323L44.0779 39.4152L47.6719 33.8465L46.4476 31.8323H39.1411Z" fill="#5677FB"/>
<path d="M32.267 31.8323L40.6003 44.7865L41.3507 48.3015L40.6003 56.1214L32.9384 67.8512H25.5529L36.9668 50.3947L25 31.8323H32.267Z" fill="#5677FB"/>
<path d="M36.9263 50.3949L53.4744 25H60.8599L44.1933 50.3949L60.386 75H52.803L36.9263 50.3949Z" fill="#00FFD1"/>
<path d="M47.1505 68.0088H39.844L44.0699 61.4922L47.7034 67.1004L47.1505 68.0088Z" fill="#5677FB"/>
<path d="M47.7213 67.1416L36.9788 50.5144L47.1683 68.0105L47.7213 67.1416Z" fill="#393939"/>
</svg>
