<svg width="69" height="70" viewBox="0 0 69 70" fill="none" xmlns="http://www.w3.org/2000/svg">
<rect width="69" height="70" fill="#F76E11"/>
<path d="M16.7033 21.0319L18.2553 19.4799H32.2234L33.7754 21.0319V25.6152L32.0779 27.3127L33.7754 28.9859V35H27.5674V30.344L24.5603 27.4339V27.1672L27.5674 24.2571V23.9904H22.9113V35H16.7033V21.0319ZM52.271 35H36.7266L35.1988 33.448V21.0319L36.7508 19.4799H50.7189L52.271 21.0319V28.2099L50.0157 30.4895H52.271V35ZM46.0629 23.9904H41.4069V30.4895H42.5466L46.0629 27.0217V23.9904ZM18.2553 52L16.7033 50.448V38.0319L18.2553 36.4799H32.2234L33.7754 38.0319V52H27.5674V49.9872L25.5303 52H18.2553ZM22.9113 40.9904V47.441L27.5674 42.7849V40.9904H22.9113ZM41.4069 40.2871L43.7349 42.5424L46.0629 40.2871V36.4799H52.271V42.6152L50.5734 44.3127L52.271 45.9859V52H46.0629V48.2897L43.7349 46.0344L41.4069 48.2897V52H35.1988V45.9859L36.8963 44.3127L35.1988 42.6152V36.4799H41.4069V40.2871Z" fill="white"/>
</svg>
