<svg width="100" height="100" viewBox="0 0 100 100" fill="none" xmlns="http://www.w3.org/2000/svg">
<rect width="100" height="100" fill="white"/>
<rect x="52.3498" y="25.1367" width="30.6866" height="7.7296" rx="3.8648" transform="rotate(150 52.3498 25.1367)" fill="black"/>
<rect x="75.538" y="34.8882" width="57.4619" height="7.7296" rx="3.8648" transform="rotate(150 75.538 34.8882)" fill="black"/>
<rect x="30.9408" y="31.4434" width="30.6866" height="7.7296" rx="3.8648" transform="rotate(90 30.9408 31.4434)" fill="black"/>
<rect x="51.3748" y="19.7441" width="17.7648" height="7.79917" rx="3.89958" transform="rotate(90 51.3748 19.7441)" fill="black"/>
<rect x="48.7816" y="75.9893" width="30.6866" height="7.7296" rx="3.8648" transform="rotate(-30 48.7816 75.9893)" fill="black"/>
<rect x="25.5934" y="66.2388" width="57.4619" height="7.7296" rx="3.8648" transform="rotate(-30 25.5934 66.2388)" fill="black"/>
<rect x="70.1906" y="69.6836" width="30.6866" height="7.7296" rx="3.8648" transform="rotate(-90 70.1906 69.6836)" fill="black"/>
<rect x="49.7565" y="81.3823" width="17.7648" height="7.79917" rx="3.89958" transform="rotate(-90 49.7565 81.3823)" fill="black"/>
</svg>
